<svg width="21" height="21" viewBox="0 0 21 21" fill="none" xmlns="http://www.w3.org/2000/svg">
<path d="M20 9.90719L11.0172 18.3791C9.91678 19.4169 8.42424 20 6.86796 20C5.31168 20 3.81914 19.4169 2.71869 18.3791C1.61823 17.3412 1 15.9335 1 14.4658C1 12.998 1.61823 11.5904 2.71869 10.5525L11.7014 2.08062C12.4351 1.38871 13.4301 1 14.4676 1C15.5052 1 16.5002 1.38871 17.2338 2.08062C17.9675 2.77254 18.3796 3.71097 18.3796 4.68948C18.3796 5.66799 17.9675 6.60643 17.2338 7.29834L8.24128 15.7702C7.87446 16.1162 7.37695 16.3105 6.85819 16.3105C6.33943 16.3105 5.84191 16.1162 5.47509 15.7702C5.10828 15.4243 4.9022 14.955 4.9022 14.4658C4.9022 13.9765 5.10828 13.5073 5.47509 13.1614L13.7736 5.344" stroke="#878787" stroke-width="1.5" stroke-linecap="round" stroke-linejoin="round"/>
</svg>
