<svg width="210" height="410" viewBox="0 0 210 410" fill="none" xmlns="http://www.w3.org/2000/svg">
<path d="M164.074 103.54C194.425 90.8861 207.338 33.2409 210 6V410C191.364 340.14 155.003 355.431 136.366 335C117.73 314.569 142.11 286.757 127.467 268.303C112.824 249.85 -8.39379 268.303 0.461992 185C10.0297 95 126.136 119.357 164.074 103.54Z" fill="#CF8D88"/>
<path d="M164.074 97.54C194.425 84.8861 203.182 26 210 0V404C191.364 334.14 155.457 348.431 136.821 328C118.184 307.569 142.11 280.757 127.467 262.303C112.824 243.85 -8.39379 262.303 0.461992 179C10.0297 89 126.136 113.357 164.074 97.54Z" fill="white"/>
<path d="M62.058 184.12L62.174 189.166C61.6327 189.321 61.246 189.398 61.014 189.398L60.318 189.282L59.68 185.512C58.288 185.164 55.8713 184.99 52.43 184.99C49.0273 184.99 46.7847 185.087 45.702 185.28V192.008C45.702 195.991 45.8567 199.606 46.166 202.854C47.9447 203.086 50.3613 203.202 53.416 203.202C53.5707 203.589 53.648 203.975 53.648 204.362C53.648 204.71 53.5707 204.981 53.416 205.174L43.382 205C40.4433 205 37.756 205.155 35.32 205.464C35.1267 205.232 35.03 204.903 35.03 204.478L35.088 204.014C37.0987 203.55 38.4133 202.835 39.032 201.868C39.5347 201.095 39.8633 200.128 40.018 198.968C40.482 195.449 40.714 191.041 40.714 185.744C40.714 172.288 40.366 165.425 39.67 165.154C38.9353 164.961 37.6593 164.864 35.842 164.864C35.7647 164.593 35.726 164.284 35.726 163.936C35.726 163.588 35.7647 163.298 35.842 163.066L44.658 163.24H52.082C52.082 163.24 56.6447 163.105 65.77 162.834C66.466 162.834 66.814 163.047 66.814 163.472C66.814 163.511 66.756 163.975 66.64 164.864C66.2147 167.648 65.9247 170.335 65.77 172.926C65.306 173.158 64.8807 173.274 64.494 173.274C64.146 173.274 63.8367 173.197 63.566 173.042C63.1407 169.833 62.7733 167.648 62.464 166.488C58.9453 165.676 55.6973 165.27 52.72 165.27C49.7813 165.27 47.674 165.347 46.398 165.502C45.934 167.281 45.702 173.003 45.702 182.67C46.63 182.825 48.2733 182.902 50.632 182.902C52.9907 182.902 54.9047 182.825 56.374 182.67C57.8433 182.515 58.8873 182.206 59.506 181.742C60.1633 181.239 60.608 180.253 60.84 178.784C61.5747 178.784 62.174 178.919 62.638 179.19C62.2513 181.394 62.058 183.037 62.058 184.12ZM107.821 205.174L101.035 205C98.0962 205 95.5249 205.155 93.3209 205.464C93.0889 205.155 92.9729 204.826 92.9729 204.478L93.0889 204.014C94.5969 203.666 95.6409 203.279 96.2209 202.854C96.8396 202.39 97.1489 201.887 97.1489 201.346C97.1489 200.805 96.8782 199.722 96.3369 198.098L92.9149 189.398C90.8269 189.282 88.3329 189.224 85.4329 189.224L77.1389 189.398L75.6889 193.11C73.7556 197.905 72.7889 201.307 72.7889 203.318C73.6782 203.357 75.0316 203.376 76.8489 203.376C76.9262 203.647 76.9649 203.956 76.9649 204.304C76.9649 204.652 76.9262 204.942 76.8489 205.174L70.7009 205C68.2649 205 66.1382 205.155 64.3209 205.464C64.0889 205.193 63.9729 204.865 63.9729 204.478L64.0889 204.014C66.0609 203.473 67.4916 202.622 68.3809 201.462C69.3089 200.302 70.6816 197.673 72.4989 193.574L86.8249 161.094H87.7529L101.093 195.198C101.325 195.933 101.924 197.363 102.891 199.49C103.896 201.578 104.534 202.815 104.805 203.202C105.888 203.318 106.893 203.376 107.821 203.376C107.937 203.647 107.995 203.956 107.995 204.304C107.995 204.652 107.937 204.942 107.821 205.174ZM78.0089 187.136L85.4329 187.368C88.1009 187.368 90.3436 187.31 92.1609 187.194L85.4329 169.446L78.0089 187.136ZM150.002 184.294C150.002 193.342 146.02 199.78 138.054 203.608C138.673 204.42 139.582 205.522 140.78 206.914C141.979 208.306 143.023 209.427 143.912 210.278C144.84 211.167 145.73 211.883 146.58 212.424C147.702 213.12 149.19 213.835 151.046 214.57C152.09 214.57 153.618 214.338 155.628 213.874C156.054 214.261 156.266 214.841 156.266 215.614C155.841 215.73 154.894 216.039 153.424 216.542C149.751 217.779 147.644 218.398 147.102 218.398C144.976 218.398 141.167 215.382 135.676 209.35C134.942 208.577 133.878 207.301 132.486 205.522C130.746 205.947 129.567 206.16 128.948 206.16C123.303 206.16 118.489 204.072 114.506 199.896C110.524 195.681 108.532 190.481 108.532 184.294C108.532 181.587 108.9 179.113 109.634 176.87C110.408 174.589 111.355 172.713 112.476 171.244C113.636 169.775 114.97 168.479 116.478 167.358C117.986 166.198 119.436 165.309 120.828 164.69C122.22 164.071 123.593 163.569 124.946 163.182C126.957 162.602 128.523 162.312 129.644 162.312C135.251 162.312 140.046 164.458 144.028 168.75C148.011 173.003 150.002 178.185 150.002 184.294ZM130.746 203.144C135.116 203.144 138.422 201.675 140.664 198.736C142.946 195.759 144.086 191.95 144.086 187.31C144.086 183.714 143.429 180.253 142.114 176.928C140.838 173.603 138.944 170.838 136.43 168.634C133.917 166.391 131.094 165.27 127.962 165.27C123.593 165.27 120.229 166.797 117.87 169.852C115.55 172.868 114.39 176.619 114.39 181.104C114.39 184.7 115.048 188.18 116.362 191.544C117.716 194.869 119.668 197.634 122.22 199.838C124.772 202.042 127.614 203.144 130.746 203.144Z" fill="#0F131B"/>
</svg>
