<svg width="25" height="23" viewBox="0 0 25 23" fill="none" xmlns="http://www.w3.org/2000/svg">
<path d="M17.2324 7.11084C19.1567 7.11084 21.0023 7.85999 22.363 9.1935C23.7237 10.527 24.4882 12.3356 24.4882 14.2215V22.5172H19.651V14.2215C19.651 13.5929 19.3962 12.99 18.9426 12.5455C18.489 12.101 17.8738 11.8513 17.2324 11.8513C16.5909 11.8513 15.9757 12.101 15.5222 12.5455C15.0686 12.99 14.8138 13.5929 14.8138 14.2215V22.5172H9.97656V14.2215C9.97656 12.3356 10.741 10.527 12.1017 9.1935C13.4625 7.85999 15.308 7.11084 17.2324 7.11084Z" fill="#FEF6F1"/>
<path d="M0.302246 8.2959H5.13946V22.5172H0.302246V8.2959Z" fill="#FEF6F1"/>
<path d="M2.72085 4.74042C4.05661 4.74042 5.13946 3.67924 5.13946 2.37021C5.13946 1.06118 4.05661 0 2.72085 0C1.38509 0 0.302246 1.06118 0.302246 2.37021C0.302246 3.67924 1.38509 4.74042 2.72085 4.74042Z" fill="#FEF6F1"/>
</svg>
