<svg width="27" height="22" viewBox="0 0 27 22" fill="none" xmlns="http://www.w3.org/2000/svg">
<path d="M27.0002 0.746612C25.8421 1.54712 24.5599 2.15939 23.203 2.55982C22.4746 1.73915 21.5067 1.15748 20.4301 0.893478C19.3534 0.629477 18.22 0.695885 17.1831 1.08372C16.1463 1.47155 15.256 2.1621 14.6326 3.06197C14.0093 3.96184 13.683 5.02761 13.6978 6.11514V7.30024C11.5726 7.35425 9.46682 6.89234 7.56789 5.95568C5.66897 5.01901 4.03589 3.63665 2.81411 1.93172C2.81411 1.93172 -2.0231 12.5977 8.86062 17.3381C6.3701 18.9948 3.40323 19.8255 0.395508 19.7083C11.2792 25.6338 24.5816 19.7083 24.5816 6.07958C24.5804 5.74948 24.5481 5.42019 24.4848 5.09595C25.719 3.90313 26.59 2.39712 27.0002 0.746612Z" fill="black"/>
</svg>
