<svg width="158" height="150" viewBox="0 0 158 150" fill="none" xmlns="http://www.w3.org/2000/svg">
<g filter="url(#filter0_d)">
<ellipse cx="79" cy="71" rx="75" ry="71" fill="#F4F4F4"/>
</g>
<g clip-path="url(#clip0)">
<path d="M80.8199 22.51C72.5199 21.97 65.4099 26.61 60.6899 33.15C57.1699 38.03 55.5499 43.8 53.5399 49.38C51.6699 54.56 48.4799 59.38 47.6199 64.89C46.8199 70.07 48.4199 75.27 48.4599 80.45C48.4899 84.82 46.4899 88.72 44.9999 92.75C44.6699 93.65 43.5499 98.6 42.3799 98.57C42.3799 98.57 116.66 101.03 116.82 101.03C114.39 100.98 111.58 90.96 110.95 89C108.84 82.56 110.42 75.63 108.49 69.18C107.22 64.92 104.82 61.1 104.26 56.63C103.63 51.57 104.81 46.4 102.97 41.5C100.85 35.84 98.0199 30.3 93.0099 26.65C89.7999 24.3 85.9299 23.07 81.9999 22.61C81.5999 22.57 81.2099 22.53 80.8199 22.51Z" fill="#332019"/>
<path d="M34.0801 110.92C34.0801 110.92 35.4901 87.7999 65.8601 86.5399C65.8601 86.5399 76.8701 100.53 92.9101 86.5399C92.9101 86.5399 115.72 85.0699 123.39 111.74C123.4 111.74 81.7101 151.71 34.0801 110.92Z" fill="#69A2AD"/>
<path d="M72.9398 65.94C72.9398 65.94 73.0498 77.48 65.0898 87.58C65.0898 87.58 78.4098 100.63 92.9098 86.55C92.9098 86.55 83.1398 79.86 85.9798 65.93C88.8198 52 72.9398 65.94 72.9398 65.94Z" fill="#EAB788"/>
<path d="M79.0202 75.8899C87.7794 75.8899 94.8802 67.1147 94.8802 56.2899C94.8802 45.4652 87.7794 36.6899 79.0202 36.6899C70.2609 36.6899 63.1602 45.4652 63.1602 56.2899C63.1602 67.1147 70.2609 75.8899 79.0202 75.8899Z" fill="#D6A074"/>
<path d="M79.0202 74.55C87.7794 74.55 94.8802 65.7748 94.8802 54.95C94.8802 44.1252 87.7794 35.35 79.0202 35.35C70.2609 35.35 63.1602 44.1252 63.1602 54.95C63.1602 65.7748 70.2609 74.55 79.0202 74.55Z" fill="#EAB788"/>
<path d="M82.49 46.56C82.76 46.34 83.15 46.23 83.5 46.11C85.73 45.35 88.5 44.56 90.69 45.86C91.2 46.16 91.61 46.58 92.04 46.98L91.04 46.66C88.81 45.95 86.6 46.82 84.44 47.32C83.73 47.49 83.02 47.59 82.32 47.82C82.3 47.83 82.29 47.83 82.27 47.82C82.25 47.81 82.24 47.8 82.24 47.78C82.05 47.37 82.12 46.85 82.49 46.56Z" fill="#332019"/>
<path d="M75.55 46.56C75.28 46.34 74.89 46.23 74.54 46.11C72.31 45.35 69.54 44.56 67.35 45.86C66.84 46.16 66.43 46.58 66 46.98L67 46.66C69.23 45.95 71.44 46.82 73.6 47.32C74.31 47.49 75.02 47.59 75.72 47.82C75.74 47.83 75.75 47.83 75.77 47.82C75.79 47.81 75.8 47.8 75.8 47.78C75.99 47.37 75.92 46.85 75.55 46.56Z" fill="#332019"/>
<path d="M79.8302 51.12C79.8302 51.12 79.6702 51.85 79.6402 52.93C79.6002 54.62 80.3402 56.17 81.3802 57.51C81.9502 58.25 81.8602 59.25 80.2702 60.14" stroke="#D6A074" stroke-width="0.75" stroke-miterlimit="10"/>
<path d="M72.8799 63.37C72.8799 63.37 78.2199 65.93 85.1599 63.37C85.1599 63.37 79.3199 74.87 72.8799 63.37Z" fill="#F9F9F9"/>
<path d="M90.32 51.12C89.55 52.3 88.21 53.17 86.74 53.32C86.01 53.38 85.26 53.33 84.59 53.06C84.24 52.96 83.93 52.76 83.61 52.61C83.31 52.42 83.02 52.21 82.75 51.99C83.4 52.26 84.03 52.55 84.7 52.69C85.36 52.86 86.03 52.89 86.69 52.83C88.02 52.69 89.25 52.03 90.32 51.12Z" fill="black"/>
<path d="M67.7202 51.12C68.7802 52.03 70.0202 52.7 71.3502 52.82C72.0102 52.88 72.6802 52.86 73.3402 52.68C74.0102 52.54 74.6302 52.25 75.2902 51.98C75.0102 52.2 74.7302 52.41 74.4302 52.6C74.1102 52.75 73.8002 52.95 73.4502 53.05C72.7802 53.33 72.0202 53.37 71.3002 53.31C69.8302 53.16 68.4902 52.29 67.7202 51.12Z" fill="black"/>
<path d="M68.1501 34.4799L61.8701 18.1999C61.8701 18.1999 74.4701 7.28994 98.0001 17.2599C98.0001 17.2599 91.0301 34.5099 90.9601 34.6899C91.1101 34.3199 84.4701 32.5599 83.8501 32.4599C79.6001 31.7399 74.7601 31.9299 70.6701 33.3899C69.8201 33.6999 68.9901 34.1199 68.1501 34.4799Z" fill="#69A2AD"/>
<path d="M81.2898 17.4299H78.5898V30.3299H81.2898V17.4299Z" fill="#FEF6F1"/>
<path d="M86.3857 25.2298V22.5298L73.4857 22.5298V25.2298L86.3857 25.2298Z" fill="#FEF6F1"/>
</g>
<defs>
<filter id="filter0_d" x="0" y="0" width="158" height="150" filterUnits="userSpaceOnUse" color-interpolation-filters="sRGB">
<feFlood flood-opacity="0" result="BackgroundImageFix"/>
<feColorMatrix in="SourceAlpha" type="matrix" values="0 0 0 0 0 0 0 0 0 0 0 0 0 0 0 0 0 0 127 0" result="hardAlpha"/>
<feOffset dy="4"/>
<feGaussianBlur stdDeviation="2"/>
<feComposite in2="hardAlpha" operator="out"/>
<feColorMatrix type="matrix" values="0 0 0 0 0 0 0 0 0 0 0 0 0 0 0 0 0 0 0.25 0"/>
<feBlend mode="normal" in2="BackgroundImageFix" result="effect1_dropShadow"/>
<feBlend mode="normal" in="SourceGraphic" in2="effect1_dropShadow" result="shape"/>
</filter>
<clipPath id="clip0">
<rect width="129.49" height="130.33" fill="white" transform="translate(14 6)"/>
</clipPath>
</defs>
</svg>
