<?xml version="1.0" encoding="utf-8"?>
<!-- Generator: Adobe Illustrator 24.1.2, SVG Export Plug-In . SVG Version: 6.00 Build 0)  -->
<svg version="1.1" id="Слой_1" xmlns="http://www.w3.org/2000/svg" xmlns:xlink="http://www.w3.org/1999/xlink" x="0px" y="0px"
	 viewBox="0 0 129.49 130.33" style="enable-background:new 0 0 129.49 130.33;" xml:space="preserve">
<style type="text/css">
	.st0{fill:#FEF6F1;}
	.st1{fill:#D1AAD1;}
	.st2{fill:#877069;}
	.st3{fill:#FEF6F1;stroke:#000000;stroke-miterlimit:10;}
	.st4{opacity:0.8;}
	.st5{display:none;}
	.st6{display:inline;fill:#FEF6F1;stroke:#000000;stroke-width:0.75;stroke-miterlimit:10;}
	.st7{display:inline;}
	.st8{display:inline;fill:#FFFFFF;}
	
		.st9{display:inline;fill:#E1B1BA;stroke:#000000;stroke-width:0.75;stroke-linecap:square;stroke-linejoin:round;stroke-miterlimit:10;}
	.st10{display:inline;fill:none;stroke:#000000;stroke-width:0.75;stroke-miterlimit:10;}
	.st11{fill:#69A2AD;stroke:#000000;stroke-width:0.75;stroke-miterlimit:10;}
	.st12{fill:none;stroke:#000000;stroke-miterlimit:10;}
	.st13{fill:#E1B1BA;}
	.st14{fill:#916E77;}
	.st15{fill:#69A2AD;}
	.st16{fill:#332019;}
	.st17{fill:#EAB788;}
	.st18{fill:#D6A074;}
	.st19{fill:none;stroke:#D6A074;stroke-width:0.75;stroke-miterlimit:10;}
	.st20{fill:#F9F9F9;}
	.st21{fill:none;stroke:#F9F9F9;stroke-width:0.05;stroke-miterlimit:10;}
	.st22{fill:none;stroke:#000000;stroke-width:0.05;stroke-miterlimit:10;}
	.st23{fill:#A8828D;}
	.st24{fill:#D1BCB0;}
	.st25{opacity:0.51;}
	.st26{fill:none;stroke:#020100;stroke-width:0.05;stroke-miterlimit:10;}
	.st27{fill:none;stroke:#000000;stroke-width:0.25;stroke-miterlimit:10;}
	.st28{opacity:0.39;}
	.st29{opacity:0.44;}
	.st30{fill:#E6B398;}
	.st31{fill:#C78C6B;}
	.st32{fill:#E5B25C;}
	.st33{fill:#AAD274;stroke:#87C25E;stroke-miterlimit:10;}
	.st34{fill:none;stroke:#87C25E;stroke-miterlimit:10;}
	.st35{fill:#D19C4E;}
	.st36{opacity:0.42;fill:none;stroke:#000000;stroke-width:0.5;stroke-miterlimit:10;}
	.st37{fill:#AAD274;}
	.st38{fill:#E1B1BA;stroke:#FFFFFF;stroke-miterlimit:10;}
	.st39{fill:#DB7993;}
	.st40{fill:#69A2AD;stroke:#FFFFFF;stroke-miterlimit:10;}
	.st41{fill:none;stroke:#000000;stroke-width:1.5;stroke-miterlimit:10;}
	.st42{fill:none;stroke:#000000;stroke-width:0.75;stroke-miterlimit:10;}
	.st43{fill:none;stroke:#AAD274;stroke-miterlimit:10;}
	.st44{fill:none;stroke:#000000;stroke-width:6;stroke-miterlimit:10;}
	.st45{fill:none;stroke:#FEF6F1;stroke-miterlimit:10;}
	.st46{fill:none;stroke:#F9F9F9;stroke-miterlimit:10;}
	.st47{fill:none;stroke:#020000;stroke-width:5;stroke-miterlimit:10;}
	.st48{fill:#AFE260;}
	.st49{clip-path:url(#SVGID_2_);fill:#F0C922;}
	.st50{clip-path:url(#SVGID_2_);fill:none;stroke:#FEF6F1;stroke-width:0.25;stroke-miterlimit:10;}
	.st51{clip-path:url(#SVGID_4_);fill:#F0C922;}
	.st52{clip-path:url(#SVGID_4_);fill:none;stroke:#FEF6F1;stroke-width:0.25;stroke-miterlimit:10;}
	.st53{fill:#E5675A;}
	.st54{fill:#D35D3D;}
	.st55{clip-path:url(#SVGID_6_);fill:#F0C922;}
	.st56{clip-path:url(#SVGID_6_);fill:none;stroke:#FEF6F1;stroke-width:0.25;stroke-miterlimit:10;}
	.st57{clip-path:url(#SVGID_8_);fill:#F0C922;}
	.st58{clip-path:url(#SVGID_8_);fill:none;stroke:#FEF6F1;stroke-width:0.25;stroke-miterlimit:10;}
	.st59{clip-path:url(#SVGID_10_);fill:#F0C922;}
	.st60{clip-path:url(#SVGID_10_);fill:none;stroke:#FEF6F1;stroke-width:0.25;stroke-miterlimit:10;}
	.st61{fill:#ADA8A8;}
	.st62{fill:#595353;}
	.st63{fill:#6B6666;}
	.st64{fill:#F9ABA0;}
	.st65{fill:#EF9F97;}
	.st66{opacity:0.69;fill:#AAD274;}
</style>
<symbol  id="Новый_символ" viewBox="-1.05 -1.05 2.09 2.09">
	<circle class="st0" cx="0" cy="0" r="1.05"/>
</symbol>
<symbol  id="Новый_символ_1" viewBox="-1.05 -1.05 2.09 2.09">
	<circle class="st1" cx="0" cy="0" r="1.05"/>
</symbol>
<symbol  id="Новый_символ_2" viewBox="-0.65 -0.65 1.31 1.31">
	<circle class="st0" cx="0" cy="0" r="0.65"/>
</symbol>
<symbol  id="Новый_символ_3" viewBox="-0.31 -0.31 0.63 0.63">
	<circle class="st2" cx="0" cy="0" r="0.31"/>
</symbol>
<symbol  id="Новый_символ_4" viewBox="-0.78 -0.78 1.57 1.57">
	<circle class="st2" cx="0" cy="0" r="0.78"/>
</symbol>
<g>
	<path class="st16" d="M66.82,16.51c-8.3-0.54-15.41,4.1-20.13,10.64c-3.52,4.88-5.14,10.65-7.15,16.23
		c-1.87,5.18-5.06,10-5.92,15.51c-0.8,5.18,0.8,10.38,0.84,15.56c0.03,4.37-1.97,8.27-3.46,12.3c-0.33,0.9-1.45,5.85-2.62,5.82
		c0,0,74.28,2.46,74.44,2.46c-2.43-0.05-5.24-10.07-5.87-12.03c-2.11-6.44-0.53-13.37-2.46-19.82c-1.27-4.26-3.67-8.08-4.23-12.55
		c-0.63-5.06,0.55-10.23-1.29-15.13c-2.12-5.66-4.95-11.2-9.96-14.85C75.8,18.3,71.93,17.07,68,16.61
		C67.6,16.57,67.21,16.53,66.82,16.51z"/>
	<path class="st15" d="M20.08,104.92c0,0,1.41-23.12,31.78-24.38c0,0,11.01,13.99,27.05,0c0,0,22.81-1.47,30.48,25.2
		C109.4,105.74,67.71,145.71,20.08,104.92"/>
	<path class="st17" d="M58.94,59.94c0,0,0.11,11.54-7.85,21.64c0,0,13.32,13.05,27.82-1.03c0,0-9.77-6.69-6.93-20.62
		S58.94,59.94,58.94,59.94z"/>
	<ellipse class="st18" cx="65.02" cy="50.29" rx="15.86" ry="19.6"/>
	<ellipse class="st17" cx="65.02" cy="48.95" rx="15.86" ry="19.6"/>
	<g>
		<path class="st16" d="M68.49,40.56c0.27-0.22,0.66-0.33,1.01-0.45c2.23-0.76,5-1.55,7.19-0.25c0.51,0.3,0.92,0.72,1.35,1.12
			c0,0-1-0.32-1-0.32c-2.23-0.71-4.44,0.16-6.6,0.66c-0.71,0.17-1.42,0.27-2.12,0.5c-0.02,0.01-0.03,0.01-0.05,0
			c-0.02-0.01-0.03-0.02-0.03-0.04C68.05,41.37,68.12,40.85,68.49,40.56z"/>
		<path class="st16" d="M61.55,40.56c-0.27-0.22-0.66-0.33-1.01-0.45c-2.23-0.76-5-1.55-7.19-0.25c-0.51,0.3-0.92,0.72-1.35,1.12
			c0,0,1-0.32,1-0.32c2.23-0.71,4.44,0.16,6.6,0.66c0.71,0.17,1.42,0.27,2.12,0.5c0.02,0.01,0.03,0.01,0.05,0
			c0.02-0.01,0.03-0.02,0.03-0.04C61.99,41.37,61.92,40.85,61.55,40.56z"/>
	</g>
	<path class="st19" d="M65.83,45.12c0,0-0.16,0.73-0.19,1.81c-0.04,1.69,0.7,3.24,1.74,4.58c0.57,0.74,0.48,1.74-1.11,2.63"/>
	<path class="st20" d="M58.88,57.37c0,0,5.34,2.56,12.28,0C71.16,57.37,65.32,68.87,58.88,57.37z"/>
	<g>
		<g>
			<path d="M76.32,45.12c-0.77,1.18-2.11,2.05-3.58,2.2c-0.73,0.06-1.48,0.01-2.15-0.26c-0.35-0.1-0.66-0.3-0.98-0.45
				c-0.3-0.19-0.59-0.4-0.86-0.62c0.65,0.27,1.28,0.56,1.95,0.7c0.66,0.17,1.33,0.2,1.99,0.14C74.02,46.69,75.25,46.03,76.32,45.12z
				"/>
		</g>
		<g>
			<path d="M53.72,45.12c1.06,0.91,2.3,1.58,3.63,1.7c0.66,0.06,1.33,0.04,1.99-0.14c0.67-0.14,1.29-0.43,1.95-0.7
				c-0.28,0.22-0.56,0.43-0.86,0.62c-0.32,0.15-0.63,0.35-0.98,0.45c-0.67,0.28-1.43,0.32-2.15,0.26
				C55.83,47.16,54.49,46.29,53.72,45.12z"/>
		</g>
	</g>
	<path class="st15" d="M54.15,28.48L47.87,12.2c0,0,12.6-10.91,36.13-0.94c0,0-6.97,17.25-7.04,17.43c0.15-0.37-6.49-2.13-7.11-2.23
		c-4.25-0.72-9.09-0.53-13.18,0.93C55.82,27.7,54.99,28.12,54.15,28.48z"/>
	<rect x="64.59" y="11.43" class="st0" width="2.7" height="12.9"/>
	
		<rect x="64.59" y="11.43" transform="matrix(-1.836970e-16 1 -1 -1.836970e-16 83.8156 -48.0601)" class="st0" width="2.7" height="12.9"/>
</g>
</svg>
