<svg width="213" height="183" viewBox="0 0 213 183" fill="none" xmlns="http://www.w3.org/2000/svg">
<g filter="url(#filter0_d)">
<path d="M186 145H4V175H186V145Z" fill="#F4F4F4"/>
</g>
<g filter="url(#filter1_i)">
<path d="M138 142C179.421 142 213 110.212 213 71C213 31.7878 179.421 0 138 0C96.5786 0 63 31.7878 63 71C63 110.212 96.5786 142 138 142Z" fill="#F4F4F4"/>
</g>
<path d="M139.74 25.4499C131.44 24.9099 124.33 29.5499 119.61 36.0899C116.09 40.9699 114.47 46.7399 112.46 52.3199C110.59 57.4999 107.4 62.3199 106.54 67.8299C105.74 73.0099 107.34 78.2099 107.38 83.3899C107.41 87.7599 105.41 91.6599 103.92 95.6899C103.59 96.5899 102.47 101.54 101.3 101.51C101.3 101.51 175.58 103.97 175.74 103.97C173.31 103.92 170.5 93.8999 169.87 91.9399C167.76 85.4999 169.34 78.5699 167.41 72.1199C166.14 67.8599 163.74 64.0399 163.18 59.5699C162.55 54.5099 163.73 49.3399 161.89 44.4399C159.77 38.7799 156.94 33.2399 151.93 29.5899C148.72 27.2399 144.85 26.0099 140.92 25.5499C140.52 25.5099 140.13 25.4699 139.74 25.4499Z" fill="#332019"/>
<path d="M93 113.86C93 113.86 94.41 90.7398 124.78 89.4798C124.78 89.4798 135.79 103.47 151.83 89.4798C151.83 89.4798 174.64 88.0098 182.31 114.68C182.32 114.68 140.63 154.65 93 113.86Z" fill="#69A2AD"/>
<path d="M131.86 68.8799C131.86 68.8799 131.97 80.4199 124.01 90.5199C124.01 90.5199 137.33 103.57 151.83 89.4899C151.83 89.4899 142.06 82.7999 144.9 68.8699C147.74 54.9399 131.86 68.8799 131.86 68.8799Z" fill="#EAB788"/>
<path d="M137.94 78.8299C146.699 78.8299 153.8 70.0547 153.8 59.2299C153.8 48.4052 146.699 39.6299 137.94 39.6299C129.181 39.6299 122.08 48.4052 122.08 59.2299C122.08 70.0547 129.181 78.8299 137.94 78.8299Z" fill="#D6A074"/>
<path d="M137.94 77.4899C146.699 77.4899 153.8 68.7147 153.8 57.8899C153.8 47.0651 146.699 38.2899 137.94 38.2899C129.181 38.2899 122.08 47.0651 122.08 57.8899C122.08 68.7147 129.181 77.4899 137.94 77.4899Z" fill="#EAB788"/>
<path d="M141.41 49.4999C141.68 49.2799 142.07 49.1699 142.42 49.0499C144.65 48.2899 147.42 47.4999 149.61 48.7999C150.12 49.0999 150.53 49.5199 150.96 49.9199L149.96 49.5999C147.73 48.8899 145.52 49.7599 143.36 50.2599C142.65 50.4299 141.94 50.5299 141.24 50.7599C141.22 50.7699 141.21 50.7699 141.19 50.7599C141.17 50.7499 141.16 50.7399 141.16 50.7199C140.97 50.3099 141.04 49.7899 141.41 49.4999Z" fill="#332019"/>
<path d="M134.47 49.4999C134.2 49.2799 133.81 49.1699 133.46 49.0499C131.23 48.2899 128.46 47.4999 126.27 48.7999C125.76 49.0999 125.35 49.5199 124.92 49.9199L125.92 49.5999C128.15 48.8899 130.36 49.7599 132.52 50.2599C133.23 50.4299 133.94 50.5299 134.64 50.7599C134.66 50.7699 134.67 50.7699 134.69 50.7599C134.71 50.7499 134.72 50.7399 134.72 50.7199C134.91 50.3099 134.84 49.7899 134.47 49.4999Z" fill="#332019"/>
<path d="M138.75 54.0599C138.75 54.0599 138.59 54.7899 138.56 55.8699C138.52 57.5599 139.26 59.1099 140.3 60.4499C140.87 61.1899 140.78 62.1899 139.19 63.0799" stroke="#D6A074" stroke-width="0.75" stroke-miterlimit="10"/>
<path d="M131.8 66.3099C131.8 66.3099 137.14 68.8699 144.08 66.3099C144.08 66.3099 138.24 77.8099 131.8 66.3099Z" fill="#F9F9F9"/>
<path d="M149.24 54.0599C148.47 55.2399 147.13 56.1099 145.66 56.2599C144.93 56.3199 144.18 56.2699 143.51 55.9999C143.16 55.8999 142.85 55.6999 142.53 55.5499C142.23 55.3599 141.94 55.1499 141.67 54.9299C142.32 55.1999 142.95 55.4899 143.62 55.6299C144.28 55.7999 144.95 55.8299 145.61 55.7699C146.94 55.6299 148.17 54.9699 149.24 54.0599Z" fill="black"/>
<path d="M126.64 54.0599C127.7 54.9699 128.94 55.6399 130.27 55.7599C130.93 55.8199 131.6 55.7999 132.26 55.6199C132.93 55.4799 133.55 55.1899 134.21 54.9199C133.93 55.1399 133.65 55.3499 133.35 55.5399C133.03 55.6899 132.72 55.8899 132.37 55.9899C131.7 56.2699 130.94 56.3099 130.22 56.2499C128.75 56.0999 127.41 55.2299 126.64 54.0599Z" fill="black"/>
<path d="M127.07 37.4199L120.79 21.1399C120.79 21.1399 133.39 10.2299 156.92 20.1999C156.92 20.1999 149.95 37.4499 149.88 37.6299C150.03 37.2599 143.39 35.4999 142.77 35.3999C138.52 34.6799 133.68 34.8699 129.59 36.3299C128.74 36.6399 127.91 37.0599 127.07 37.4199Z" fill="#69A2AD"/>
<path d="M140.21 20.3699H137.51V33.2699H140.21V20.3699Z" fill="#FEF6F1"/>
<path d="M145.306 28.1697V25.4697H132.406V28.1697H145.306Z" fill="#FEF6F1"/>
<path d="M19 166C22.3137 166 25 163.314 25 160C25 156.686 22.3137 154 19 154C15.6863 154 13 156.686 13 160C13 163.314 15.6863 166 19 166Z" fill="black"/>
<path d="M17.827 156.815C17.575 156.815 17.233 156.893 16.801 157.049C16.741 157.421 16.702 157.727 16.684 157.967C16.636 157.991 16.585 158.003 16.531 158.003L16.423 157.976C16.387 157.544 16.342 157.238 16.288 157.058L16.252 156.959C16.252 156.899 16.297 156.851 16.387 156.815C16.627 156.689 17.182 156.512 18.052 156.284C19.102 156.284 19.627 156.641 19.627 157.355C19.627 157.529 19.57 157.709 19.456 157.895C19.342 158.075 19.087 158.357 18.691 158.741L18.349 159.065C19.207 159.617 19.636 160.247 19.636 160.955C19.636 161.573 19.375 162.086 18.853 162.494C18.331 162.902 17.524 163.301 16.432 163.691C16.384 163.643 16.36 163.565 16.36 163.457C17.2 163.079 17.824 162.719 18.232 162.377C18.64 162.041 18.844 161.666 18.844 161.252C18.844 160.844 18.715 160.502 18.457 160.226C18.205 159.95 17.854 159.683 17.404 159.425L18.133 158.759C18.607 158.333 18.844 157.94 18.844 157.58C18.844 157.07 18.505 156.815 17.827 156.815Z" fill="white"/>
<path d="M41.48 162.16C40.5627 162.16 39.8373 161.875 39.304 161.304C38.776 160.728 38.512 160.005 38.512 159.136C38.512 158.261 38.8 157.539 39.376 156.968C39.952 156.397 40.688 156.112 41.584 156.112C42.2933 156.112 42.9227 156.2 43.472 156.376C43.4987 156.392 43.512 156.413 43.512 156.44C43.512 156.461 43.504 156.544 43.488 156.688C43.4187 157.184 43.3813 157.547 43.376 157.776C43.296 157.792 43.24 157.8 43.208 157.8C43.176 157.8 43.128 157.789 43.064 157.768C43.016 157.4 42.968 157.125 42.92 156.944C42.7813 156.795 42.5867 156.667 42.336 156.56C42.0853 156.453 41.8 156.4 41.48 156.4C40.872 156.4 40.368 156.613 39.968 157.04C39.5733 157.467 39.376 158.051 39.376 158.792C39.376 159.315 39.4613 159.805 39.632 160.264C39.808 160.723 40.0667 161.101 40.408 161.4C40.7547 161.693 41.1653 161.84 41.64 161.84C42.1147 161.84 42.536 161.712 42.904 161.456C43.0053 161.285 43.1307 161 43.28 160.6C43.408 160.6 43.5067 160.627 43.576 160.68C43.5013 161.064 43.4453 161.451 43.408 161.84C43.4027 161.899 43.368 161.933 43.304 161.944C42.792 162.088 42.184 162.16 41.48 162.16ZM48.4701 160.048C48.4701 161.232 47.7821 161.936 46.4061 162.16C45.8408 162.16 45.3635 161.96 44.9741 161.56C44.5901 161.155 44.3981 160.651 44.3981 160.048C44.3981 158.853 45.0888 158.147 46.4701 157.928C47.0301 157.928 47.5021 158.133 47.8861 158.544C48.2755 158.955 48.4701 159.456 48.4701 160.048ZM46.5821 161.816C47.3501 161.816 47.7341 161.325 47.7341 160.344C47.7341 159.789 47.6061 159.304 47.3501 158.888C47.0941 158.472 46.7555 158.264 46.3341 158.264C45.9128 158.264 45.6061 158.4 45.4141 158.672C45.2275 158.939 45.1341 159.323 45.1341 159.824C45.1341 160.32 45.2648 160.776 45.5261 161.192C45.7875 161.608 46.1395 161.816 46.5821 161.816ZM49.3331 158.408L49.0211 158.416C48.9997 158.389 48.9891 158.355 48.9891 158.312C48.9891 158.269 48.9944 158.232 49.0051 158.2C49.3677 158.152 49.6637 158.077 49.8931 157.976C49.9677 157.944 50.0131 157.928 50.0291 157.928C50.0771 157.928 50.1357 158.003 50.2051 158.152C50.2744 158.301 50.3331 158.467 50.3811 158.648C50.9197 158.344 51.4451 158.104 51.9571 157.928C52.2824 157.928 52.5331 158.059 52.7091 158.32C52.8851 158.576 52.9731 158.917 52.9731 159.344L52.9571 160.4C52.9571 161.291 52.9971 161.744 53.0771 161.76C53.1571 161.771 53.3064 161.776 53.5251 161.776C53.5464 161.813 53.5571 161.853 53.5571 161.896C53.5571 161.939 53.5464 161.981 53.5251 162.024L52.7891 162C52.3464 162 51.9944 162.021 51.7331 162.064C51.7064 162.032 51.6931 161.987 51.6931 161.928L51.7011 161.864C51.8557 161.827 51.9757 161.776 52.0611 161.712C52.1464 161.643 52.1997 161.579 52.2211 161.52C52.2477 161.456 52.2691 161.363 52.2851 161.24C52.3011 161.112 52.3091 160.867 52.3091 160.504V159.84C52.3091 159.467 52.2664 159.152 52.1811 158.896C52.1437 158.795 52.1011 158.72 52.0531 158.672C51.9357 158.544 51.7944 158.48 51.6291 158.48C51.4637 158.48 51.2984 158.512 51.1331 158.576C50.9677 158.64 50.8424 158.699 50.7571 158.752C50.6717 158.805 50.5517 158.885 50.3971 158.992C50.3757 159.413 50.3651 159.979 50.3651 160.688C50.3651 161.392 50.3997 161.749 50.4691 161.76C50.5437 161.771 50.6797 161.776 50.8771 161.776C50.8984 161.813 50.9091 161.853 50.9091 161.896C50.9091 161.939 50.8984 161.981 50.8771 162.024L50.1971 162C49.7917 162 49.4397 162.021 49.1411 162.064C49.1144 162.032 49.1011 161.987 49.1011 161.928L49.1091 161.864C49.2637 161.827 49.3837 161.776 49.4691 161.712C49.5544 161.643 49.6077 161.579 49.6291 161.52C49.6557 161.456 49.6771 161.341 49.6931 161.176C49.7144 161.005 49.7251 160.643 49.7251 160.088C49.7251 159.533 49.7224 159.227 49.7171 159.168C49.7171 159.104 49.7144 159.024 49.7091 158.928C49.7037 158.832 49.6931 158.76 49.6771 158.712C49.6611 158.664 49.6371 158.613 49.6051 158.56C49.5517 158.459 49.4611 158.408 49.3331 158.408ZM56.3879 158.424C56.2279 158.285 56.0226 158.216 55.7719 158.216C55.2546 158.216 54.9959 158.424 54.9959 158.84C54.9959 158.973 55.0439 159.101 55.1399 159.224C55.2413 159.341 55.3639 159.435 55.5079 159.504L56.1319 159.8C56.7399 160.093 57.0439 160.485 57.0439 160.976C57.0439 161.339 56.8999 161.627 56.6119 161.84C56.3239 162.053 55.9826 162.16 55.5879 162.16C55.3799 162.16 55.1613 162.139 54.9319 162.096C54.7079 162.059 54.5479 162.019 54.4519 161.976C54.4359 161.736 54.3879 161.403 54.3079 160.976C54.3666 160.939 54.4146 160.92 54.4519 160.92C54.4946 160.92 54.5239 160.925 54.5399 160.936C54.6466 161.256 54.7399 161.461 54.8199 161.552C54.8786 161.611 54.9826 161.675 55.1319 161.744C55.2813 161.813 55.4573 161.848 55.6599 161.848C55.8679 161.848 56.0466 161.792 56.1959 161.68C56.3453 161.568 56.4199 161.4 56.4199 161.176C56.4199 161.027 56.3906 160.915 56.3319 160.84C56.2733 160.765 56.2226 160.709 56.1799 160.672C56.1426 160.629 56.0973 160.592 56.0439 160.56C55.9959 160.528 55.9533 160.504 55.9159 160.488C55.8839 160.467 55.8493 160.448 55.8119 160.432C55.7799 160.411 55.7613 160.4 55.7559 160.4L55.1559 160.112C54.6386 159.867 54.3799 159.512 54.3799 159.048C54.3799 158.669 54.5239 158.389 54.8119 158.208C55.0999 158.021 55.4253 157.928 55.7879 157.928C55.9639 157.928 56.1613 157.952 56.3799 158C56.6039 158.043 56.7719 158.088 56.8839 158.136C56.8466 158.264 56.8039 158.563 56.7559 159.032C56.7293 159.053 56.6919 159.064 56.6439 159.064C56.6013 159.064 56.5586 159.059 56.5159 159.048C56.4733 158.781 56.4306 158.573 56.3879 158.424ZM61.4511 157.872C61.4991 157.883 61.5391 157.915 61.5711 157.968C61.5231 158.331 61.4991 158.928 61.4991 159.76L61.5071 160.904C61.5071 161.384 61.6271 161.624 61.8671 161.624L62.1551 161.616C62.1764 161.653 62.1871 161.696 62.1871 161.744L62.1791 161.832C61.9177 161.875 61.7311 161.925 61.6191 161.984L61.4111 162.08C61.3844 162.096 61.3444 162.123 61.2911 162.16C61.1737 162.117 61.0751 162.024 60.9951 161.88C60.9151 161.731 60.8697 161.581 60.8591 161.432C60.4057 161.715 59.8857 161.957 59.2991 162.16C58.9577 162.16 58.7017 162.035 58.5311 161.784C58.3657 161.528 58.2831 161.181 58.2831 160.744V159.216C58.2831 158.853 58.2671 158.624 58.2351 158.528C58.2031 158.427 58.1097 158.36 57.9551 158.328L57.6911 158.296C57.6751 158.264 57.6671 158.229 57.6671 158.192L57.6911 158.096C57.7817 158.08 57.9871 158.045 58.3071 157.992L58.8751 157.872C58.9177 157.883 58.9551 157.915 58.9871 157.968C58.9444 158.261 58.9231 159.032 58.9231 160.28C58.9231 161.155 59.1577 161.592 59.6271 161.592C59.7924 161.592 59.9577 161.563 60.1231 161.504C60.2937 161.445 60.4217 161.389 60.5071 161.336C60.5924 161.277 60.7017 161.197 60.8351 161.096C60.8511 160.744 60.8591 160.491 60.8591 160.336V159.368C60.8591 159.043 60.8431 158.816 60.8111 158.688C60.7844 158.56 60.7417 158.475 60.6831 158.432C60.6297 158.384 60.5551 158.349 60.4591 158.328L60.1951 158.296L60.1711 158.192L60.1951 158.096C60.2484 158.085 60.3444 158.072 60.4831 158.056C60.6271 158.04 60.8164 158.008 61.0511 157.96C61.2857 157.912 61.4191 157.883 61.4511 157.872ZM64.5828 162.024L63.7028 162C63.2441 162 62.8468 162.021 62.5108 162.064C62.4841 162.032 62.4708 161.987 62.4708 161.928L62.4788 161.864C62.7295 161.816 62.8948 161.744 62.9748 161.648C63.0601 161.552 63.1215 161.389 63.1588 161.16C63.2015 160.931 63.2228 160.093 63.2228 158.648V156.6C63.2228 156.115 63.1668 155.819 63.0548 155.712C62.9961 155.653 62.9215 155.619 62.8308 155.608L62.5428 155.576C62.5268 155.549 62.5188 155.517 62.5188 155.48C62.5188 155.437 62.5268 155.403 62.5428 155.376C62.9215 155.307 63.2148 155.221 63.4228 155.12C63.5615 155.051 63.7188 154.957 63.8948 154.84C63.9481 154.84 63.9908 154.867 64.0228 154.92C63.9108 155.619 63.8548 156.869 63.8548 158.672V159.608C63.8548 161.011 63.8895 161.723 63.9588 161.744C64.0548 161.765 64.2628 161.776 64.5828 161.776C64.5935 161.813 64.5988 161.856 64.5988 161.904C64.5988 161.952 64.5935 161.992 64.5828 162.024ZM66.2694 160.28C66.2694 161.165 66.4214 161.608 66.7254 161.608C66.9494 161.608 67.2401 161.533 67.5974 161.384C67.6774 161.411 67.7174 161.485 67.7174 161.608C67.3281 161.816 66.8801 162 66.3734 162.16C66.1228 162.16 65.9308 162.032 65.7974 161.776C65.6694 161.52 65.6054 161.176 65.6054 160.744V158.888C65.6054 158.573 65.5868 158.416 65.5494 158.416L64.9574 158.424C64.9201 158.413 64.9014 158.387 64.9014 158.344C64.9281 158.291 64.9521 158.195 64.9734 158.056H65.5414C65.5841 158.056 65.6054 157.963 65.6054 157.776L65.5974 157.096C65.7948 157.016 65.9974 156.851 66.2054 156.6C66.2694 156.6 66.3174 156.616 66.3494 156.648C66.3014 157.208 66.2774 157.677 66.2774 158.056C66.6668 158.056 67.0508 158.037 67.4294 158C67.4668 158.021 67.4854 158.053 67.4854 158.096C67.4534 158.149 67.4268 158.248 67.4054 158.392L66.2694 158.408V160.28ZM75.0774 158.032L75.7734 158.056C75.9654 158.056 76.1894 158.037 76.4454 158C76.4827 158.069 76.5014 158.136 76.5014 158.2C76.3574 158.264 76.256 158.325 76.1974 158.384C76.016 158.576 75.832 158.904 75.6454 159.368L74.5254 162.16H74.4054L73.2214 159.176L72.0614 162.16H71.9414L70.7894 159.352C70.5494 158.776 70.3867 158.448 70.3014 158.368C70.2214 158.283 70.1254 158.221 70.0134 158.184C70.008 158.168 70.0054 158.139 70.0054 158.096C70.0054 158.053 70.0214 158.013 70.0534 157.976C70.4214 158.029 70.7067 158.056 70.9094 158.056L71.5814 158.032C71.5974 158.059 71.6054 158.099 71.6054 158.152L71.5814 158.28C71.416 158.28 71.2987 158.285 71.2294 158.296C71.2667 158.6 71.3867 159.013 71.5894 159.536L72.1814 161.064L73.2854 158.056H73.5014L74.6534 161.064L75.2214 159.608C75.408 159.144 75.5307 158.715 75.5894 158.32C75.4827 158.304 75.312 158.291 75.0774 158.28C75.0667 158.243 75.0614 158.2 75.0614 158.152C75.0614 158.099 75.0667 158.059 75.0774 158.032ZM78.6208 162.024L77.9008 162C77.5274 162 77.1754 162.021 76.8448 162.064C76.8128 162.021 76.7968 161.976 76.7968 161.928L76.8128 161.864C77.0421 161.811 77.1968 161.728 77.2768 161.616C77.3354 161.531 77.3808 161.429 77.4128 161.312C77.4448 161.189 77.4608 160.843 77.4608 160.272V159.504C77.4608 159.173 77.4448 158.944 77.4128 158.816C77.3861 158.688 77.3434 158.603 77.2848 158.56C77.2261 158.517 77.1488 158.491 77.0528 158.48L76.7568 158.456C76.7408 158.435 76.7327 158.4 76.7327 158.352L76.7568 158.248C77.0341 158.189 77.2581 158.131 77.4288 158.072C77.6048 158.008 77.8101 157.917 78.0448 157.8C78.1034 157.8 78.1434 157.832 78.1648 157.896C78.1008 158.259 78.0688 159.123 78.0688 160.488C78.0688 160.733 78.0768 161.005 78.0928 161.304C78.1141 161.597 78.1408 161.747 78.1728 161.752C78.2528 161.768 78.4021 161.776 78.6208 161.776C78.6368 161.813 78.6448 161.856 78.6448 161.904C78.6448 161.952 78.6368 161.992 78.6208 162.024ZM77.8688 156.888C77.6768 156.755 77.5408 156.579 77.4608 156.36C77.5248 156.285 77.6101 156.208 77.7168 156.128C77.8288 156.043 77.9248 155.984 78.0048 155.952C78.2074 156.101 78.3381 156.28 78.3968 156.488C78.2474 156.68 78.0714 156.813 77.8688 156.888ZM80.5038 160.28C80.5038 161.165 80.6558 161.608 80.9598 161.608C81.1838 161.608 81.4745 161.533 81.8318 161.384C81.9118 161.411 81.9518 161.485 81.9518 161.608C81.5625 161.816 81.1145 162 80.6078 162.16C80.3571 162.16 80.1651 162.032 80.0318 161.776C79.9038 161.52 79.8398 161.176 79.8398 160.744V158.888C79.8398 158.573 79.8211 158.416 79.7838 158.416L79.1918 158.424C79.1545 158.413 79.1358 158.387 79.1358 158.344C79.1625 158.291 79.1865 158.195 79.2078 158.056H79.7758C79.8185 158.056 79.8398 157.963 79.8398 157.776L79.8318 157.096C80.0291 157.016 80.2318 156.851 80.4398 156.6C80.5038 156.6 80.5518 156.616 80.5838 156.648C80.5358 157.208 80.5118 157.677 80.5118 158.056C80.9011 158.056 81.2851 158.037 81.6638 158C81.7011 158.021 81.7198 158.053 81.7198 158.096C81.6878 158.149 81.6611 158.248 81.6398 158.392L80.5038 158.408V160.28ZM83.8826 162.024L83.2106 162C82.7946 162 82.4186 162.021 82.0826 162.064C82.056 162.032 82.0426 161.987 82.0426 161.928L82.0506 161.864C82.2693 161.816 82.416 161.744 82.4906 161.648C82.5706 161.547 82.6293 161.384 82.6666 161.16C82.7093 160.931 82.7306 160.093 82.7306 158.648V156.6C82.7306 156.115 82.6746 155.819 82.5626 155.712C82.504 155.653 82.4293 155.619 82.3386 155.608L82.0506 155.576C82.0346 155.549 82.0266 155.517 82.0266 155.48C82.0266 155.437 82.0346 155.403 82.0506 155.376C82.4293 155.307 82.7226 155.221 82.9306 155.12C83.0693 155.051 83.2266 154.957 83.4026 154.84C83.456 154.84 83.4986 154.867 83.5306 154.92C83.424 155.587 83.3706 156.837 83.3706 158.672C84.048 158.299 84.5893 158.051 84.9946 157.928C85.3413 157.928 85.6026 158.056 85.7786 158.312C85.9546 158.568 86.0426 158.912 86.0426 159.344L86.0266 160.368C86.0266 161.28 86.0666 161.744 86.1466 161.76C86.2266 161.771 86.384 161.776 86.6186 161.776C86.64 161.813 86.6506 161.848 86.6506 161.88C86.6506 161.912 86.64 161.96 86.6186 162.024L85.8826 162C85.44 162 85.088 162.021 84.8266 162.064C84.7946 162.021 84.7786 161.976 84.7786 161.928L84.7946 161.864C85.0133 161.816 85.16 161.744 85.2346 161.648C85.3093 161.552 85.352 161.437 85.3626 161.304C85.3786 161.171 85.3866 160.901 85.3866 160.496C85.3866 160.091 85.384 159.84 85.3786 159.744C85.3786 159.643 85.3706 159.515 85.3546 159.36C85.344 159.2 85.32 159.08 85.2826 159C85.2506 158.915 85.208 158.827 85.1546 158.736C85.048 158.571 84.8586 158.488 84.5866 158.488C84.3146 158.488 84.0133 158.597 83.6826 158.816C83.6346 158.843 83.5733 158.883 83.4986 158.936C83.424 158.984 83.3813 159.011 83.3706 159.016C83.3653 159.283 83.3626 159.565 83.3626 159.864C83.3626 161.096 83.3946 161.723 83.4586 161.744C83.528 161.765 83.6693 161.776 83.8826 161.776C83.8986 161.813 83.9066 161.856 83.9066 161.904C83.9066 161.952 83.8986 161.992 83.8826 162.024ZM90.8398 160.28C90.8398 161.165 90.9918 161.608 91.2958 161.608C91.5198 161.608 91.8104 161.533 92.1678 161.384C92.2478 161.411 92.2878 161.485 92.2878 161.608C91.8984 161.816 91.4504 162 90.9438 162.16C90.6931 162.16 90.5011 162.032 90.3678 161.776C90.2398 161.52 90.1758 161.176 90.1758 160.744V158.888C90.1758 158.573 90.1571 158.416 90.1198 158.416L89.5278 158.424C89.4904 158.413 89.4718 158.387 89.4718 158.344C89.4984 158.291 89.5224 158.195 89.5438 158.056H90.1118C90.1544 158.056 90.1758 157.963 90.1758 157.776L90.1678 157.096C90.3651 157.016 90.5678 156.851 90.7758 156.6C90.8398 156.6 90.8878 156.616 90.9198 156.648C90.8718 157.208 90.8478 157.677 90.8478 158.056C91.2371 158.056 91.6211 158.037 91.9998 158C92.0371 158.021 92.0558 158.053 92.0558 158.096C92.0238 158.149 91.9971 158.248 91.9758 158.392L90.8398 158.408V160.28ZM94.2186 162.024L93.5466 162C93.1306 162 92.7546 162.021 92.4186 162.064C92.3919 162.032 92.3786 161.987 92.3786 161.928L92.3866 161.864C92.6052 161.816 92.7519 161.744 92.8266 161.648C92.9066 161.547 92.9652 161.384 93.0026 161.16C93.0452 160.931 93.0666 160.093 93.0666 158.648V156.6C93.0666 156.115 93.0106 155.819 92.8986 155.712C92.8399 155.653 92.7652 155.619 92.6746 155.608L92.3866 155.576C92.3706 155.549 92.3626 155.517 92.3626 155.48C92.3626 155.437 92.3706 155.403 92.3866 155.376C92.7652 155.307 93.0586 155.221 93.2666 155.12C93.4052 155.051 93.5626 154.957 93.7386 154.84C93.7919 154.84 93.8346 154.867 93.8666 154.92C93.7599 155.587 93.7066 156.837 93.7066 158.672C94.3839 158.299 94.9252 158.051 95.3306 157.928C95.6772 157.928 95.9386 158.056 96.1146 158.312C96.2906 158.568 96.3786 158.912 96.3786 159.344L96.3626 160.368C96.3626 161.28 96.4026 161.744 96.4826 161.76C96.5626 161.771 96.7199 161.776 96.9546 161.776C96.9759 161.813 96.9866 161.848 96.9866 161.88C96.9866 161.912 96.9759 161.96 96.9546 162.024L96.2186 162C95.7759 162 95.4239 162.021 95.1626 162.064C95.1306 162.021 95.1146 161.976 95.1146 161.928L95.1306 161.864C95.3492 161.816 95.4959 161.744 95.5706 161.648C95.6452 161.552 95.6879 161.437 95.6986 161.304C95.7146 161.171 95.7226 160.901 95.7226 160.496C95.7226 160.091 95.7199 159.84 95.7146 159.744C95.7146 159.643 95.7066 159.515 95.6906 159.36C95.6799 159.2 95.6559 159.08 95.6186 159C95.5866 158.915 95.5439 158.827 95.4906 158.736C95.3839 158.571 95.1946 158.488 94.9226 158.488C94.6506 158.488 94.3492 158.597 94.0186 158.816C93.9706 158.843 93.9092 158.883 93.8346 158.936C93.7599 158.984 93.7172 159.011 93.7066 159.016C93.7012 159.283 93.6986 159.565 93.6986 159.864C93.6986 161.096 93.7306 161.723 93.7946 161.744C93.8639 161.765 94.0052 161.776 94.2186 161.776C94.2346 161.813 94.2426 161.856 94.2426 161.904C94.2426 161.952 94.2346 161.992 94.2186 162.024ZM99.6266 161.584C100.064 161.584 100.451 161.467 100.787 161.232C100.861 161.259 100.904 161.315 100.915 161.4L100.051 162.008C99.9226 162.109 99.6372 162.16 99.1946 162.16C98.7519 162.16 98.3759 161.963 98.0666 161.568C97.7572 161.168 97.6026 160.664 97.6026 160.056C97.6026 159.448 97.7706 158.968 98.1066 158.616C98.4426 158.264 98.8426 158.035 99.3066 157.928C99.7119 157.928 100.069 158.064 100.379 158.336C100.565 158.496 100.696 158.704 100.771 158.96C100.787 159.024 100.861 159.059 100.995 159.064C101.027 159.101 101.043 159.141 101.043 159.184C101.043 159.221 101.037 159.261 101.027 159.304C100.088 159.523 99.1652 159.675 98.2586 159.76C98.2586 160.443 98.4479 160.955 98.8266 161.296C99.0399 161.488 99.3066 161.584 99.6266 161.584ZM100.131 159.144C100.157 159.128 100.171 159.109 100.171 159.088C100.171 159.061 100.136 158.987 100.067 158.864C100.003 158.736 99.8879 158.603 99.7226 158.464C99.5572 158.32 99.3839 158.248 99.2026 158.248C99.0212 158.248 98.8879 158.275 98.8026 158.328C98.5039 158.531 98.3332 158.899 98.2906 159.432C98.5786 159.432 98.9066 159.403 99.2746 159.344C99.6426 159.28 99.9279 159.213 100.131 159.144ZM104.357 158.408L104.045 158.416C104.023 158.389 104.013 158.355 104.013 158.312C104.013 158.269 104.018 158.232 104.029 158.2C104.391 158.152 104.687 158.077 104.917 157.976C104.991 157.944 105.037 157.928 105.053 157.928C105.101 157.928 105.159 158.003 105.229 158.152C105.298 158.301 105.357 158.467 105.405 158.648C105.943 158.344 106.469 158.104 106.981 157.928C107.306 157.928 107.557 158.059 107.733 158.32C107.909 158.576 107.997 158.917 107.997 159.344L107.981 160.4C107.981 161.291 108.021 161.744 108.101 161.76C108.181 161.771 108.33 161.776 108.549 161.776C108.57 161.813 108.581 161.853 108.581 161.896C108.581 161.939 108.57 161.981 108.549 162.024L107.812 162C107.37 162 107.018 162.021 106.757 162.064C106.73 162.032 106.717 161.987 106.717 161.928L106.725 161.864C106.879 161.827 106.999 161.776 107.085 161.712C107.17 161.643 107.223 161.579 107.245 161.52C107.271 161.456 107.293 161.363 107.309 161.24C107.325 161.112 107.333 160.867 107.333 160.504V159.84C107.333 159.467 107.29 159.152 107.205 158.896C107.167 158.795 107.125 158.72 107.077 158.672C106.959 158.544 106.818 158.48 106.653 158.48C106.487 158.48 106.322 158.512 106.157 158.576C105.991 158.64 105.866 158.699 105.781 158.752C105.695 158.805 105.575 158.885 105.421 158.992C105.399 159.413 105.389 159.979 105.389 160.688C105.389 161.392 105.423 161.749 105.493 161.76C105.567 161.771 105.703 161.776 105.901 161.776C105.922 161.813 105.933 161.853 105.933 161.896C105.933 161.939 105.922 161.981 105.901 162.024L105.221 162C104.815 162 104.463 162.021 104.165 162.064C104.138 162.032 104.125 161.987 104.125 161.928L104.133 161.864C104.287 161.827 104.407 161.776 104.493 161.712C104.578 161.643 104.631 161.579 104.653 161.52C104.679 161.456 104.701 161.341 104.717 161.176C104.738 161.005 104.749 160.643 104.749 160.088C104.749 159.533 104.746 159.227 104.741 159.168C104.741 159.104 104.738 159.024 104.733 158.928C104.727 158.832 104.717 158.76 104.701 158.712C104.685 158.664 104.661 158.613 104.629 158.56C104.575 158.459 104.485 158.408 104.357 158.408ZM112.771 157.872C112.819 157.883 112.859 157.915 112.891 157.968C112.843 158.331 112.819 158.928 112.819 159.76L112.827 160.904C112.827 161.384 112.947 161.624 113.187 161.624L113.475 161.616C113.497 161.653 113.507 161.696 113.507 161.744L113.499 161.832C113.238 161.875 113.051 161.925 112.939 161.984L112.731 162.08C112.705 162.096 112.665 162.123 112.611 162.16C112.494 162.117 112.395 162.024 112.315 161.88C112.235 161.731 112.19 161.581 112.179 161.432C111.726 161.715 111.206 161.957 110.619 162.16C110.278 162.16 110.022 162.035 109.851 161.784C109.686 161.528 109.603 161.181 109.603 160.744V159.216C109.603 158.853 109.587 158.624 109.555 158.528C109.523 158.427 109.43 158.36 109.275 158.328L109.011 158.296C108.995 158.264 108.987 158.229 108.987 158.192L109.011 158.096C109.102 158.08 109.307 158.045 109.627 157.992L110.195 157.872C110.238 157.883 110.275 157.915 110.307 157.968C110.265 158.261 110.243 159.032 110.243 160.28C110.243 161.155 110.478 161.592 110.947 161.592C111.113 161.592 111.278 161.563 111.443 161.504C111.614 161.445 111.742 161.389 111.827 161.336C111.913 161.277 112.022 161.197 112.155 161.096C112.171 160.744 112.179 160.491 112.179 160.336V159.368C112.179 159.043 112.163 158.816 112.131 158.688C112.105 158.56 112.062 158.475 112.003 158.432C111.95 158.384 111.875 158.349 111.779 158.328L111.515 158.296L111.491 158.192L111.515 158.096C111.569 158.085 111.665 158.072 111.803 158.056C111.947 158.04 112.137 158.008 112.371 157.96C112.606 157.912 112.739 157.883 112.771 157.872ZM115.199 160.28C115.199 161.165 115.351 161.608 115.655 161.608C115.879 161.608 116.17 161.533 116.527 161.384C116.607 161.411 116.647 161.485 116.647 161.608C116.258 161.816 115.81 162 115.303 162.16C115.052 162.16 114.86 162.032 114.727 161.776C114.599 161.52 114.535 161.176 114.535 160.744V158.888C114.535 158.573 114.516 158.416 114.479 158.416L113.887 158.424C113.85 158.413 113.831 158.387 113.831 158.344C113.858 158.291 113.882 158.195 113.903 158.056H114.471C114.514 158.056 114.535 157.963 114.535 157.776L114.527 157.096C114.724 157.016 114.927 156.851 115.135 156.6C115.199 156.6 115.247 156.616 115.279 156.648C115.231 157.208 115.207 157.677 115.207 158.056C115.596 158.056 115.98 158.037 116.359 158C116.396 158.021 116.415 158.053 116.415 158.096C116.383 158.149 116.356 158.248 116.335 158.392L115.199 158.408V160.28ZM117.122 158.408L116.81 158.416C116.783 158.389 116.77 158.349 116.77 158.296L116.786 158.2C117.149 158.152 117.445 158.077 117.674 157.976C117.749 157.944 117.794 157.928 117.81 157.928C117.869 157.928 117.935 158.035 118.01 158.248C118.085 158.456 118.13 158.664 118.146 158.872C118.546 158.456 118.909 158.141 119.234 157.928C119.447 157.928 119.623 157.992 119.762 158.12C119.901 158.243 119.97 158.397 119.97 158.584C119.97 158.797 119.781 158.904 119.402 158.904C119.322 158.621 119.186 158.48 118.994 158.48C118.866 158.48 118.599 158.701 118.194 159.144C118.162 159.549 118.146 160.195 118.146 161.08C118.146 161.523 118.181 161.747 118.25 161.752C118.373 161.768 118.589 161.776 118.898 161.776C118.914 161.813 118.922 161.856 118.922 161.904C118.922 161.952 118.914 161.992 118.898 162.024L118.002 162C117.565 162 117.178 162.021 116.842 162.064C116.815 162.032 116.802 161.987 116.802 161.928L116.81 161.864C117.093 161.811 117.274 161.728 117.354 161.616C117.413 161.531 117.455 161.395 117.482 161.208C117.509 161.016 117.522 160.643 117.522 160.088C117.522 159.533 117.519 159.227 117.514 159.168C117.514 159.109 117.511 159.032 117.506 158.936C117.501 158.84 117.49 158.768 117.474 158.72C117.458 158.672 117.434 158.619 117.402 158.56C117.349 158.459 117.255 158.408 117.122 158.408ZM122.121 162.024L121.401 162C121.027 162 120.675 162.021 120.345 162.064C120.313 162.021 120.297 161.976 120.297 161.928L120.313 161.864C120.542 161.811 120.697 161.728 120.777 161.616C120.835 161.531 120.881 161.429 120.913 161.312C120.945 161.189 120.961 160.843 120.961 160.272V159.504C120.961 159.173 120.945 158.944 120.913 158.816C120.886 158.688 120.843 158.603 120.785 158.56C120.726 158.517 120.649 158.491 120.553 158.48L120.257 158.456C120.241 158.435 120.233 158.4 120.233 158.352L120.257 158.248C120.534 158.189 120.758 158.131 120.929 158.072C121.105 158.008 121.31 157.917 121.545 157.8C121.603 157.8 121.643 157.832 121.665 157.896C121.601 158.259 121.569 159.123 121.569 160.488C121.569 160.733 121.577 161.005 121.593 161.304C121.614 161.597 121.641 161.747 121.673 161.752C121.753 161.768 121.902 161.776 122.121 161.776C122.137 161.813 122.145 161.856 122.145 161.904C122.145 161.952 122.137 161.992 122.121 162.024ZM121.369 156.888C121.177 156.755 121.041 156.579 120.961 156.36C121.025 156.285 121.11 156.208 121.217 156.128C121.329 156.043 121.425 155.984 121.505 155.952C121.707 156.101 121.838 156.28 121.897 156.488C121.747 156.68 121.571 156.813 121.369 156.888ZM124.004 160.28C124.004 161.165 124.156 161.608 124.46 161.608C124.684 161.608 124.974 161.533 125.332 161.384C125.412 161.411 125.452 161.485 125.452 161.608C125.062 161.816 124.614 162 124.108 162.16C123.857 162.16 123.665 162.032 123.532 161.776C123.404 161.52 123.34 161.176 123.34 160.744V158.888C123.34 158.573 123.321 158.416 123.284 158.416L122.692 158.424C122.654 158.413 122.636 158.387 122.636 158.344C122.662 158.291 122.686 158.195 122.708 158.056H123.276C123.318 158.056 123.34 157.963 123.34 157.776L123.332 157.096C123.529 157.016 123.732 156.851 123.94 156.6C124.004 156.6 124.052 156.616 124.084 156.648C124.036 157.208 124.012 157.677 124.012 158.056C124.401 158.056 124.785 158.037 125.164 158C125.201 158.021 125.22 158.053 125.22 158.096C125.188 158.149 125.161 158.248 125.14 158.392L124.004 158.408V160.28ZM127.543 162.024L126.823 162C126.449 162 126.097 162.021 125.767 162.064C125.735 162.021 125.719 161.976 125.719 161.928L125.735 161.864C125.964 161.811 126.119 161.728 126.199 161.616C126.257 161.531 126.303 161.429 126.335 161.312C126.367 161.189 126.383 160.843 126.383 160.272V159.504C126.383 159.173 126.367 158.944 126.335 158.816C126.308 158.688 126.265 158.603 126.207 158.56C126.148 158.517 126.071 158.491 125.975 158.48L125.679 158.456C125.663 158.435 125.655 158.4 125.655 158.352L125.679 158.248C125.956 158.189 126.18 158.131 126.351 158.072C126.527 158.008 126.732 157.917 126.967 157.8C127.025 157.8 127.065 157.832 127.087 157.896C127.023 158.259 126.991 159.123 126.991 160.488C126.991 160.733 126.999 161.005 127.015 161.304C127.036 161.597 127.063 161.747 127.095 161.752C127.175 161.768 127.324 161.776 127.543 161.776C127.559 161.813 127.567 161.856 127.567 161.904C127.567 161.952 127.559 161.992 127.543 162.024ZM126.791 156.888C126.599 156.755 126.463 156.579 126.383 156.36C126.447 156.285 126.532 156.208 126.639 156.128C126.751 156.043 126.847 155.984 126.927 155.952C127.129 156.101 127.26 156.28 127.319 156.488C127.169 156.68 126.993 156.813 126.791 156.888ZM132.322 160.048C132.322 161.232 131.634 161.936 130.258 162.16C129.692 162.16 129.215 161.96 128.826 161.56C128.442 161.155 128.25 160.651 128.25 160.048C128.25 158.853 128.94 158.147 130.322 157.928C130.882 157.928 131.354 158.133 131.738 158.544C132.127 158.955 132.322 159.456 132.322 160.048ZM130.434 161.816C131.202 161.816 131.586 161.325 131.586 160.344C131.586 159.789 131.458 159.304 131.202 158.888C130.946 158.472 130.607 158.264 130.186 158.264C129.764 158.264 129.458 158.4 129.266 158.672C129.079 158.939 128.986 159.323 128.986 159.824C128.986 160.32 129.116 160.776 129.378 161.192C129.639 161.608 129.991 161.816 130.434 161.816ZM133.185 158.408L132.873 158.416C132.851 158.389 132.841 158.355 132.841 158.312C132.841 158.269 132.846 158.232 132.857 158.2C133.219 158.152 133.515 158.077 133.745 157.976C133.819 157.944 133.865 157.928 133.881 157.928C133.929 157.928 133.987 158.003 134.057 158.152C134.126 158.301 134.185 158.467 134.233 158.648C134.771 158.344 135.297 158.104 135.809 157.928C136.134 157.928 136.385 158.059 136.561 158.32C136.737 158.576 136.825 158.917 136.825 159.344L136.809 160.4C136.809 161.291 136.849 161.744 136.929 161.76C137.009 161.771 137.158 161.776 137.377 161.776C137.398 161.813 137.409 161.853 137.409 161.896C137.409 161.939 137.398 161.981 137.377 162.024L136.641 162C136.198 162 135.846 162.021 135.585 162.064C135.558 162.032 135.545 161.987 135.545 161.928L135.553 161.864C135.707 161.827 135.827 161.776 135.913 161.712C135.998 161.643 136.051 161.579 136.073 161.52C136.099 161.456 136.121 161.363 136.137 161.24C136.153 161.112 136.161 160.867 136.161 160.504V159.84C136.161 159.467 136.118 159.152 136.033 158.896C135.995 158.795 135.953 158.72 135.905 158.672C135.787 158.544 135.646 158.48 135.481 158.48C135.315 158.48 135.15 158.512 134.985 158.576C134.819 158.64 134.694 158.699 134.609 158.752C134.523 158.805 134.403 158.885 134.249 158.992C134.227 159.413 134.217 159.979 134.217 160.688C134.217 161.392 134.251 161.749 134.321 161.76C134.395 161.771 134.531 161.776 134.729 161.776C134.75 161.813 134.761 161.853 134.761 161.896C134.761 161.939 134.75 161.981 134.729 162.024L134.049 162C133.643 162 133.291 162.021 132.993 162.064C132.966 162.032 132.953 161.987 132.953 161.928L132.961 161.864C133.115 161.827 133.235 161.776 133.321 161.712C133.406 161.643 133.459 161.579 133.481 161.52C133.507 161.456 133.529 161.341 133.545 161.176C133.566 161.005 133.577 160.643 133.577 160.088C133.577 159.533 133.574 159.227 133.569 159.168C133.569 159.104 133.566 159.024 133.561 158.928C133.555 158.832 133.545 158.76 133.529 158.712C133.513 158.664 133.489 158.613 133.457 158.56C133.403 158.459 133.313 158.408 133.185 158.408ZM139.84 162.024L139.12 162C138.746 162 138.394 162.021 138.064 162.064C138.032 162.021 138.016 161.976 138.016 161.928L138.032 161.864C138.261 161.811 138.416 161.728 138.496 161.616C138.554 161.531 138.6 161.429 138.632 161.312C138.664 161.189 138.68 160.843 138.68 160.272V159.504C138.68 159.173 138.664 158.944 138.632 158.816C138.605 158.688 138.562 158.603 138.504 158.56C138.445 158.517 138.368 158.491 138.272 158.48L137.976 158.456C137.96 158.435 137.951 158.4 137.951 158.352L137.976 158.248C138.253 158.189 138.477 158.131 138.648 158.072C138.824 158.008 139.029 157.917 139.264 157.8C139.322 157.8 139.362 157.832 139.384 157.896C139.32 158.259 139.288 159.123 139.288 160.488C139.288 160.733 139.296 161.005 139.312 161.304C139.333 161.597 139.36 161.747 139.392 161.752C139.472 161.768 139.621 161.776 139.84 161.776C139.856 161.813 139.864 161.856 139.864 161.904C139.864 161.952 139.856 161.992 139.84 162.024ZM139.088 156.888C138.896 156.755 138.76 156.579 138.68 156.36C138.744 156.285 138.829 156.208 138.936 156.128C139.048 156.043 139.144 155.984 139.224 155.952C139.426 156.101 139.557 156.28 139.616 156.488C139.466 156.68 139.29 156.813 139.088 156.888ZM142.779 158.424C142.619 158.285 142.413 158.216 142.163 158.216C141.645 158.216 141.387 158.424 141.387 158.84C141.387 158.973 141.435 159.101 141.531 159.224C141.632 159.341 141.755 159.435 141.899 159.504L142.523 159.8C143.131 160.093 143.435 160.485 143.435 160.976C143.435 161.339 143.291 161.627 143.003 161.84C142.715 162.053 142.373 162.16 141.979 162.16C141.771 162.16 141.552 162.139 141.323 162.096C141.099 162.059 140.939 162.019 140.843 161.976C140.827 161.736 140.779 161.403 140.699 160.976C140.757 160.939 140.805 160.92 140.843 160.92C140.885 160.92 140.915 160.925 140.931 160.936C141.037 161.256 141.131 161.461 141.211 161.552C141.269 161.611 141.373 161.675 141.523 161.744C141.672 161.813 141.848 161.848 142.051 161.848C142.259 161.848 142.437 161.792 142.587 161.68C142.736 161.568 142.811 161.4 142.811 161.176C142.811 161.027 142.781 160.915 142.723 160.84C142.664 160.765 142.613 160.709 142.571 160.672C142.533 160.629 142.488 160.592 142.435 160.56C142.387 160.528 142.344 160.504 142.307 160.488C142.275 160.467 142.24 160.448 142.203 160.432C142.171 160.411 142.152 160.4 142.147 160.4L141.547 160.112C141.029 159.867 140.771 159.512 140.771 159.048C140.771 158.669 140.915 158.389 141.203 158.208C141.491 158.021 141.816 157.928 142.179 157.928C142.355 157.928 142.552 157.952 142.771 158C142.995 158.043 143.163 158.088 143.275 158.136C143.237 158.264 143.195 158.563 143.147 159.032C143.12 159.053 143.083 159.064 143.035 159.064C142.992 159.064 142.949 159.059 142.907 159.048C142.864 158.781 142.821 158.573 142.779 158.424ZM145.426 160.28C145.426 161.165 145.578 161.608 145.882 161.608C146.106 161.608 146.396 161.533 146.754 161.384C146.834 161.411 146.874 161.485 146.874 161.608C146.484 161.816 146.036 162 145.53 162.16C145.279 162.16 145.087 162.032 144.954 161.776C144.826 161.52 144.762 161.176 144.762 160.744V158.888C144.762 158.573 144.743 158.416 144.706 158.416L144.114 158.424C144.076 158.413 144.058 158.387 144.058 158.344C144.084 158.291 144.108 158.195 144.13 158.056H144.698C144.74 158.056 144.762 157.963 144.762 157.776L144.754 157.096C144.951 157.016 145.154 156.851 145.362 156.6C145.426 156.6 145.474 156.616 145.506 156.648C145.458 157.208 145.434 157.677 145.434 158.056C145.823 158.056 146.207 158.037 146.586 158C146.623 158.021 146.642 158.053 146.642 158.096C146.61 158.149 146.583 158.248 146.562 158.392L145.426 158.408V160.28Z" fill="black"/>
<defs>
<filter id="filter0_d" x="0" y="145" width="190" height="38" filterUnits="userSpaceOnUse" color-interpolation-filters="sRGB">
<feFlood flood-opacity="0" result="BackgroundImageFix"/>
<feColorMatrix in="SourceAlpha" type="matrix" values="0 0 0 0 0 0 0 0 0 0 0 0 0 0 0 0 0 0 127 0" result="hardAlpha"/>
<feOffset dy="4"/>
<feGaussianBlur stdDeviation="2"/>
<feColorMatrix type="matrix" values="0 0 0 0 0 0 0 0 0 0 0 0 0 0 0 0 0 0 0.25 0"/>
<feBlend mode="normal" in2="BackgroundImageFix" result="effect1_dropShadow"/>
<feBlend mode="normal" in="SourceGraphic" in2="effect1_dropShadow" result="shape"/>
</filter>
<filter id="filter1_i" x="63" y="0" width="150" height="146" filterUnits="userSpaceOnUse" color-interpolation-filters="sRGB">
<feFlood flood-opacity="0" result="BackgroundImageFix"/>
<feBlend mode="normal" in="SourceGraphic" in2="BackgroundImageFix" result="shape"/>
<feColorMatrix in="SourceAlpha" type="matrix" values="0 0 0 0 0 0 0 0 0 0 0 0 0 0 0 0 0 0 127 0" result="hardAlpha"/>
<feOffset dy="4"/>
<feGaussianBlur stdDeviation="2"/>
<feComposite in2="hardAlpha" operator="arithmetic" k2="-1" k3="1"/>
<feColorMatrix type="matrix" values="0 0 0 0 0 0 0 0 0 0 0 0 0 0 0 0 0 0 0.25 0"/>
<feBlend mode="normal" in2="shape" result="effect1_innerShadow"/>
</filter>
</defs>
</svg>
