<svg width="282" height="183" viewBox="0 0 282 183" fill="none" xmlns="http://www.w3.org/2000/svg">
<g filter="url(#filter0_d)">
<path d="M278 145H4V175H278V145Z" fill="#F4F4F4"/>
</g>
<path d="M18 166C21.3137 166 24 163.314 24 160C24 156.686 21.3137 154 18 154C14.6863 154 12 156.686 12 160C12 163.314 14.6863 166 18 166Z" fill="black"/>
<path d="M41.525 166.3C39.805 166.3 38.445 165.765 37.445 164.695C36.455 163.615 35.96 162.26 35.96 160.63C35.96 158.99 36.5 157.635 37.58 156.565C38.66 155.495 40.04 154.96 41.72 154.96C43.05 154.96 44.23 155.125 45.26 155.455C45.31 155.485 45.335 155.525 45.335 155.575C45.335 155.615 45.32 155.77 45.29 156.04C45.16 156.97 45.09 157.65 45.08 158.08C44.93 158.11 44.825 158.125 44.765 158.125C44.705 158.125 44.615 158.105 44.495 158.065C44.405 157.375 44.315 156.86 44.225 156.52C43.965 156.24 43.6 156 43.13 155.8C42.66 155.6 42.125 155.5 41.525 155.5C40.385 155.5 39.44 155.9 38.69 156.7C37.95 157.5 37.58 158.595 37.58 159.985C37.58 160.965 37.74 161.885 38.06 162.745C38.39 163.605 38.875 164.315 39.515 164.875C40.165 165.425 40.935 165.7 41.825 165.7C42.715 165.7 43.505 165.46 44.195 164.98C44.385 164.66 44.62 164.125 44.9 163.375C45.14 163.375 45.325 163.425 45.455 163.525C45.315 164.245 45.21 164.97 45.14 165.7C45.13 165.81 45.065 165.875 44.945 165.895C43.985 166.165 42.845 166.3 41.525 166.3ZM54.6315 162.34C54.6315 164.56 53.3415 165.88 50.7615 166.3C49.7015 166.3 48.8065 165.925 48.0765 165.175C47.3565 164.415 46.9965 163.47 46.9965 162.34C46.9965 160.1 48.2915 158.775 50.8815 158.365C51.9315 158.365 52.8165 158.75 53.5365 159.52C54.2665 160.29 54.6315 161.23 54.6315 162.34ZM51.0915 165.655C52.5315 165.655 53.2515 164.735 53.2515 162.895C53.2515 161.855 53.0115 160.945 52.5315 160.165C52.0515 159.385 51.4165 158.995 50.6265 158.995C49.8365 158.995 49.2615 159.25 48.9015 159.76C48.5515 160.26 48.3765 160.98 48.3765 161.92C48.3765 162.85 48.6215 163.705 49.1115 164.485C49.6015 165.265 50.2615 165.655 51.0915 165.655ZM56.2495 159.265L55.6645 159.28C55.6245 159.23 55.6045 159.165 55.6045 159.085C55.6045 159.005 55.6145 158.935 55.6345 158.875C56.3145 158.785 56.8695 158.645 57.2995 158.455C57.4395 158.395 57.5245 158.365 57.5545 158.365C57.6445 158.365 57.7545 158.505 57.8845 158.785C58.0145 159.065 58.1245 159.375 58.2145 159.715C59.2245 159.145 60.2095 158.695 61.1695 158.365C61.7795 158.365 62.2495 158.61 62.5795 159.1C62.9095 159.58 63.0745 160.22 63.0745 161.02L63.0445 163C63.0445 164.67 63.1195 165.52 63.2695 165.55C63.4195 165.57 63.6995 165.58 64.1095 165.58C64.1495 165.65 64.1695 165.725 64.1695 165.805C64.1695 165.885 64.1495 165.965 64.1095 166.045L62.7295 166C61.8995 166 61.2395 166.04 60.7495 166.12C60.6995 166.06 60.6745 165.975 60.6745 165.865L60.6895 165.745C60.9795 165.675 61.2045 165.58 61.3645 165.46C61.5245 165.33 61.6245 165.21 61.6645 165.1C61.7145 164.98 61.7545 164.805 61.7845 164.575C61.8145 164.335 61.8295 163.875 61.8295 163.195V161.95C61.8295 161.25 61.7495 160.66 61.5895 160.18C61.5195 159.99 61.4395 159.85 61.3495 159.76C61.1295 159.52 60.8645 159.4 60.5545 159.4C60.2445 159.4 59.9345 159.46 59.6245 159.58C59.3145 159.7 59.0795 159.81 58.9195 159.91C58.7595 160.01 58.5345 160.16 58.2445 160.36C58.2045 161.15 58.1845 162.21 58.1845 163.54C58.1845 164.86 58.2495 165.53 58.3795 165.55C58.5195 165.57 58.7745 165.58 59.1445 165.58C59.1845 165.65 59.2045 165.725 59.2045 165.805C59.2045 165.885 59.1845 165.965 59.1445 166.045L57.8695 166C57.1095 166 56.4495 166.04 55.8895 166.12C55.8395 166.06 55.8145 165.975 55.8145 165.865L55.8295 165.745C56.1195 165.675 56.3445 165.58 56.5045 165.46C56.6645 165.33 56.7645 165.21 56.8045 165.1C56.8545 164.98 56.8945 164.765 56.9245 164.455C56.9645 164.135 56.9845 163.455 56.9845 162.415C56.9845 161.375 56.9795 160.8 56.9695 160.69C56.9695 160.57 56.9645 160.42 56.9545 160.24C56.9445 160.06 56.9245 159.925 56.8945 159.835C56.8645 159.745 56.8195 159.65 56.7595 159.55C56.6595 159.36 56.4895 159.265 56.2495 159.265ZM69.4774 159.295C69.1774 159.035 68.7924 158.905 68.3224 158.905C67.3524 158.905 66.8674 159.295 66.8674 160.075C66.8674 160.325 66.9574 160.565 67.1374 160.795C67.3274 161.015 67.5574 161.19 67.8274 161.32L68.9974 161.875C70.1374 162.425 70.7074 163.16 70.7074 164.08C70.7074 164.76 70.4374 165.3 69.8974 165.7C69.3574 166.1 68.7174 166.3 67.9774 166.3C67.5874 166.3 67.1774 166.26 66.7474 166.18C66.3274 166.11 66.0274 166.035 65.8474 165.955C65.8174 165.505 65.7274 164.88 65.5774 164.08C65.6874 164.01 65.7774 163.975 65.8474 163.975C65.9274 163.975 65.9824 163.985 66.0124 164.005C66.2124 164.605 66.3874 164.99 66.5374 165.16C66.6474 165.27 66.8424 165.39 67.1224 165.52C67.4024 165.65 67.7324 165.715 68.1124 165.715C68.5024 165.715 68.8374 165.61 69.1174 165.4C69.3974 165.19 69.5374 164.875 69.5374 164.455C69.5374 164.175 69.4824 163.965 69.3724 163.825C69.2624 163.685 69.1674 163.58 69.0874 163.51C69.0174 163.43 68.9324 163.36 68.8324 163.3C68.7424 163.24 68.6624 163.195 68.5924 163.165C68.5324 163.125 68.4674 163.09 68.3974 163.06C68.3374 163.02 68.3024 163 68.2924 163L67.1674 162.46C66.1974 162 65.7124 161.335 65.7124 160.465C65.7124 159.755 65.9824 159.23 66.5224 158.89C67.0624 158.54 67.6724 158.365 68.3524 158.365C68.6824 158.365 69.0524 158.41 69.4624 158.5C69.8824 158.58 70.1974 158.665 70.4074 158.755C70.3374 158.995 70.2574 159.555 70.1674 160.435C70.1174 160.475 70.0474 160.495 69.9574 160.495C69.8774 160.495 69.7974 160.485 69.7174 160.465C69.6374 159.965 69.5574 159.575 69.4774 159.295ZM78.9707 158.26C79.0607 158.28 79.1357 158.34 79.1957 158.44C79.1057 159.12 79.0607 160.24 79.0607 161.8L79.0757 163.945C79.0757 164.845 79.3007 165.295 79.7507 165.295L80.2907 165.28C80.3307 165.35 80.3507 165.43 80.3507 165.52L80.3357 165.685C79.8457 165.765 79.4957 165.86 79.2857 165.97L78.8957 166.15C78.8457 166.18 78.7707 166.23 78.6707 166.3C78.4507 166.22 78.2657 166.045 78.1157 165.775C77.9657 165.495 77.8807 165.215 77.8607 164.935C77.0107 165.465 76.0357 165.92 74.9357 166.3C74.2957 166.3 73.8157 166.065 73.4957 165.595C73.1857 165.115 73.0307 164.465 73.0307 163.645V160.78C73.0307 160.1 73.0007 159.67 72.9407 159.49C72.8807 159.3 72.7057 159.175 72.4157 159.115L71.9207 159.055C71.8907 158.995 71.8757 158.93 71.8757 158.86L71.9207 158.68C72.0907 158.65 72.4757 158.585 73.0757 158.485L74.1407 158.26C74.2207 158.28 74.2907 158.34 74.3507 158.44C74.2707 158.99 74.2307 160.435 74.2307 162.775C74.2307 164.415 74.6707 165.235 75.5507 165.235C75.8607 165.235 76.1707 165.18 76.4807 165.07C76.8007 164.96 77.0407 164.855 77.2007 164.755C77.3607 164.645 77.5657 164.495 77.8157 164.305C77.8457 163.645 77.8607 163.17 77.8607 162.88V161.065C77.8607 160.455 77.8307 160.03 77.7707 159.79C77.7207 159.55 77.6407 159.39 77.5307 159.31C77.4307 159.22 77.2907 159.155 77.1107 159.115L76.6157 159.055L76.5707 158.86L76.6157 158.68C76.7157 158.66 76.8957 158.635 77.1557 158.605C77.4257 158.575 77.7807 158.515 78.2207 158.425C78.6607 158.335 78.9107 158.28 78.9707 158.26ZM84.8428 166.045L83.1928 166C82.3328 166 81.5878 166.04 80.9578 166.12C80.9078 166.06 80.8828 165.975 80.8828 165.865L80.8978 165.745C81.3678 165.655 81.6778 165.52 81.8278 165.34C81.9878 165.16 82.1028 164.855 82.1728 164.425C82.2528 163.995 82.2928 162.425 82.2928 159.715V155.875C82.2928 154.965 82.1878 154.41 81.9778 154.21C81.8678 154.1 81.7278 154.035 81.5578 154.015L81.0178 153.955C80.9878 153.905 80.9728 153.845 80.9728 153.775C80.9728 153.695 80.9878 153.63 81.0178 153.58C81.7278 153.45 82.2778 153.29 82.6678 153.1C82.9278 152.97 83.2228 152.795 83.5528 152.575C83.6528 152.575 83.7328 152.625 83.7928 152.725C83.5828 154.035 83.4778 156.38 83.4778 159.76V161.515C83.4778 164.145 83.5428 165.48 83.6728 165.52C83.8528 165.56 84.2428 165.58 84.8428 165.58C84.8628 165.65 84.8728 165.73 84.8728 165.82C84.8728 165.91 84.8628 165.985 84.8428 166.045ZM88.0052 162.775C88.0052 164.435 88.2902 165.265 88.8602 165.265C89.2802 165.265 89.8252 165.125 90.4952 164.845C90.6452 164.895 90.7202 165.035 90.7202 165.265C89.9902 165.655 89.1502 166 88.2002 166.3C87.7302 166.3 87.3702 166.06 87.1202 165.58C86.8802 165.1 86.7602 164.455 86.7602 163.645V160.165C86.7602 159.575 86.7252 159.28 86.6552 159.28L85.5452 159.295C85.4752 159.275 85.4402 159.225 85.4402 159.145C85.4902 159.045 85.5352 158.865 85.5752 158.605H86.6402C86.7202 158.605 86.7602 158.43 86.7602 158.08L86.7452 156.805C87.1152 156.655 87.4952 156.345 87.8852 155.875C88.0052 155.875 88.0952 155.905 88.1552 155.965C88.0652 157.015 88.0202 157.895 88.0202 158.605C88.7502 158.605 89.4702 158.57 90.1802 158.5C90.2502 158.54 90.2852 158.6 90.2852 158.68C90.2252 158.78 90.1752 158.965 90.1352 159.235L88.0052 159.265V162.775ZM104.52 158.56L105.825 158.605C106.185 158.605 106.605 158.57 107.085 158.5C107.155 158.63 107.19 158.755 107.19 158.875C106.92 158.995 106.73 159.11 106.62 159.22C106.28 159.58 105.935 160.195 105.585 161.065L103.485 166.3H103.26L101.04 160.705L98.8651 166.3H98.6401L96.4801 161.035C96.0301 159.955 95.7251 159.34 95.5651 159.19C95.4151 159.03 95.2351 158.915 95.0251 158.845C95.0151 158.815 95.0101 158.76 95.0101 158.68C95.0101 158.6 95.0401 158.525 95.1001 158.455C95.7901 158.555 96.3251 158.605 96.7051 158.605L97.9651 158.56C97.9951 158.61 98.0101 158.685 98.0101 158.785L97.9651 159.025C97.6551 159.025 97.4351 159.035 97.3051 159.055C97.3751 159.625 97.6001 160.4 97.9801 161.38L99.0901 164.245L101.16 158.605H101.565L103.725 164.245L104.79 161.515C105.14 160.645 105.37 159.84 105.48 159.1C105.28 159.07 104.96 159.045 104.52 159.025C104.5 158.955 104.49 158.875 104.49 158.785C104.49 158.685 104.5 158.61 104.52 158.56ZM111.164 166.045L109.814 166C109.114 166 108.454 166.04 107.834 166.12C107.774 166.04 107.744 165.955 107.744 165.865L107.774 165.745C108.204 165.645 108.494 165.49 108.644 165.28C108.754 165.12 108.839 164.93 108.899 164.71C108.959 164.48 108.989 163.83 108.989 162.76V161.32C108.989 160.7 108.959 160.27 108.899 160.03C108.849 159.79 108.769 159.63 108.659 159.55C108.549 159.47 108.404 159.42 108.224 159.4L107.669 159.355C107.639 159.315 107.624 159.25 107.624 159.16L107.669 158.965C108.189 158.855 108.609 158.745 108.929 158.635C109.259 158.515 109.644 158.345 110.084 158.125C110.194 158.125 110.269 158.185 110.309 158.305C110.189 158.985 110.129 160.605 110.129 163.165C110.129 163.625 110.144 164.135 110.174 164.695C110.214 165.245 110.264 165.525 110.324 165.535C110.474 165.565 110.754 165.58 111.164 165.58C111.194 165.65 111.209 165.73 111.209 165.82C111.209 165.91 111.194 165.985 111.164 166.045ZM109.754 156.415C109.394 156.165 109.139 155.835 108.989 155.425C109.109 155.285 109.269 155.14 109.469 154.99C109.679 154.83 109.859 154.72 110.009 154.66C110.389 154.94 110.634 155.275 110.744 155.665C110.464 156.025 110.134 156.275 109.754 156.415ZM114.695 162.775C114.695 164.435 114.98 165.265 115.55 165.265C115.97 165.265 116.515 165.125 117.185 164.845C117.335 164.895 117.41 165.035 117.41 165.265C116.68 165.655 115.84 166 114.89 166.3C114.42 166.3 114.06 166.06 113.81 165.58C113.57 165.1 113.45 164.455 113.45 163.645V160.165C113.45 159.575 113.415 159.28 113.345 159.28L112.235 159.295C112.165 159.275 112.13 159.225 112.13 159.145C112.18 159.045 112.225 158.865 112.265 158.605H113.33C113.41 158.605 113.45 158.43 113.45 158.08L113.435 156.805C113.805 156.655 114.185 156.345 114.575 155.875C114.695 155.875 114.785 155.905 114.845 155.965C114.755 157.015 114.71 157.895 114.71 158.605C115.44 158.605 116.16 158.57 116.87 158.5C116.94 158.54 116.975 158.6 116.975 158.68C116.915 158.78 116.865 158.965 116.825 159.235L114.695 159.265V162.775ZM121.03 166.045L119.77 166C118.99 166 118.285 166.04 117.655 166.12C117.605 166.06 117.58 165.975 117.58 165.865L117.595 165.745C118.005 165.655 118.28 165.52 118.42 165.34C118.57 165.15 118.68 164.845 118.75 164.425C118.83 163.995 118.87 162.425 118.87 159.715V155.875C118.87 154.965 118.765 154.41 118.555 154.21C118.445 154.1 118.305 154.035 118.135 154.015L117.595 153.955C117.565 153.905 117.55 153.845 117.55 153.775C117.55 153.695 117.565 153.63 117.595 153.58C118.305 153.45 118.855 153.29 119.245 153.1C119.505 152.97 119.8 152.795 120.13 152.575C120.23 152.575 120.31 152.625 120.37 152.725C120.17 153.975 120.07 156.32 120.07 159.76C121.34 159.06 122.355 158.595 123.115 158.365C123.765 158.365 124.255 158.605 124.585 159.085C124.915 159.565 125.08 160.21 125.08 161.02L125.05 162.94C125.05 164.65 125.125 165.52 125.275 165.55C125.425 165.57 125.72 165.58 126.16 165.58C126.2 165.65 126.22 165.715 126.22 165.775C126.22 165.835 126.2 165.925 126.16 166.045L124.78 166C123.95 166 123.29 166.04 122.8 166.12C122.74 166.04 122.71 165.955 122.71 165.865L122.74 165.745C123.15 165.655 123.425 165.52 123.565 165.34C123.705 165.16 123.785 164.945 123.805 164.695C123.835 164.445 123.85 163.94 123.85 163.18C123.85 162.42 123.845 161.95 123.835 161.77C123.835 161.58 123.82 161.34 123.79 161.05C123.77 160.75 123.725 160.525 123.655 160.375C123.595 160.215 123.515 160.05 123.415 159.88C123.215 159.57 122.86 159.415 122.35 159.415C121.84 159.415 121.275 159.62 120.655 160.03C120.565 160.08 120.45 160.155 120.31 160.255C120.17 160.345 120.09 160.395 120.07 160.405C120.06 160.905 120.055 161.435 120.055 161.995C120.055 164.305 120.115 165.48 120.235 165.52C120.365 165.56 120.63 165.58 121.03 165.58C121.06 165.65 121.075 165.73 121.075 165.82C121.075 165.91 121.06 165.985 121.03 166.045ZM134.075 162.775C134.075 164.435 134.36 165.265 134.93 165.265C135.35 165.265 135.895 165.125 136.565 164.845C136.715 164.895 136.79 165.035 136.79 165.265C136.06 165.655 135.22 166 134.27 166.3C133.8 166.3 133.44 166.06 133.19 165.58C132.95 165.1 132.83 164.455 132.83 163.645V160.165C132.83 159.575 132.795 159.28 132.725 159.28L131.615 159.295C131.545 159.275 131.51 159.225 131.51 159.145C131.56 159.045 131.605 158.865 131.645 158.605H132.71C132.79 158.605 132.83 158.43 132.83 158.08L132.815 156.805C133.185 156.655 133.565 156.345 133.955 155.875C134.075 155.875 134.165 155.905 134.225 155.965C134.135 157.015 134.09 157.895 134.09 158.605C134.82 158.605 135.54 158.57 136.25 158.5C136.32 158.54 136.355 158.6 136.355 158.68C136.295 158.78 136.245 158.965 136.205 159.235L134.075 159.265V162.775ZM140.41 166.045L139.15 166C138.37 166 137.665 166.04 137.035 166.12C136.985 166.06 136.96 165.975 136.96 165.865L136.975 165.745C137.385 165.655 137.66 165.52 137.8 165.34C137.95 165.15 138.06 164.845 138.13 164.425C138.21 163.995 138.25 162.425 138.25 159.715V155.875C138.25 154.965 138.145 154.41 137.935 154.21C137.825 154.1 137.685 154.035 137.515 154.015L136.975 153.955C136.945 153.905 136.93 153.845 136.93 153.775C136.93 153.695 136.945 153.63 136.975 153.58C137.685 153.45 138.235 153.29 138.625 153.1C138.885 152.97 139.18 152.795 139.51 152.575C139.61 152.575 139.69 152.625 139.75 152.725C139.55 153.975 139.45 156.32 139.45 159.76C140.72 159.06 141.735 158.595 142.495 158.365C143.145 158.365 143.635 158.605 143.965 159.085C144.295 159.565 144.46 160.21 144.46 161.02L144.43 162.94C144.43 164.65 144.505 165.52 144.655 165.55C144.805 165.57 145.1 165.58 145.54 165.58C145.58 165.65 145.6 165.715 145.6 165.775C145.6 165.835 145.58 165.925 145.54 166.045L144.16 166C143.33 166 142.67 166.04 142.18 166.12C142.12 166.04 142.09 165.955 142.09 165.865L142.12 165.745C142.53 165.655 142.805 165.52 142.945 165.34C143.085 165.16 143.165 164.945 143.185 164.695C143.215 164.445 143.23 163.94 143.23 163.18C143.23 162.42 143.225 161.95 143.215 161.77C143.215 161.58 143.2 161.34 143.17 161.05C143.15 160.75 143.105 160.525 143.035 160.375C142.975 160.215 142.895 160.05 142.795 159.88C142.595 159.57 142.24 159.415 141.73 159.415C141.22 159.415 140.655 159.62 140.035 160.03C139.945 160.08 139.83 160.155 139.69 160.255C139.55 160.345 139.47 160.395 139.45 160.405C139.44 160.905 139.435 161.435 139.435 161.995C139.435 164.305 139.495 165.48 139.615 165.52C139.745 165.56 140.01 165.58 140.41 165.58C140.44 165.65 140.455 165.73 140.455 165.82C140.455 165.91 140.44 165.985 140.41 166.045ZM150.55 165.22C151.37 165.22 152.095 165 152.725 164.56C152.865 164.61 152.945 164.715 152.965 164.875L151.345 166.015C151.105 166.205 150.57 166.3 149.74 166.3C148.91 166.3 148.205 165.93 147.625 165.19C147.045 164.44 146.755 163.495 146.755 162.355C146.755 161.215 147.07 160.315 147.7 159.655C148.33 158.995 149.08 158.565 149.95 158.365C150.71 158.365 151.38 158.62 151.96 159.13C152.31 159.43 152.555 159.82 152.695 160.3C152.725 160.42 152.865 160.485 153.115 160.495C153.175 160.565 153.205 160.64 153.205 160.72C153.205 160.79 153.195 160.865 153.175 160.945C151.415 161.355 149.685 161.64 147.985 161.8C147.985 163.08 148.34 164.04 149.05 164.68C149.45 165.04 149.95 165.22 150.55 165.22ZM151.495 160.645C151.545 160.615 151.57 160.58 151.57 160.54C151.57 160.49 151.505 160.35 151.375 160.12C151.255 159.88 151.04 159.63 150.73 159.37C150.42 159.1 150.095 158.965 149.755 158.965C149.415 158.965 149.165 159.015 149.005 159.115C148.445 159.495 148.125 160.185 148.045 161.185C148.585 161.185 149.2 161.13 149.89 161.02C150.58 160.9 151.115 160.775 151.495 160.645ZM159.418 159.265L158.833 159.28C158.793 159.23 158.773 159.165 158.773 159.085C158.773 159.005 158.783 158.935 158.803 158.875C159.483 158.785 160.038 158.645 160.468 158.455C160.608 158.395 160.693 158.365 160.723 158.365C160.813 158.365 160.923 158.505 161.053 158.785C161.183 159.065 161.293 159.375 161.383 159.715C162.393 159.145 163.378 158.695 164.338 158.365C164.948 158.365 165.418 158.61 165.748 159.1C166.078 159.58 166.243 160.22 166.243 161.02L166.213 163C166.213 164.67 166.288 165.52 166.438 165.55C166.588 165.57 166.868 165.58 167.278 165.58C167.318 165.65 167.338 165.725 167.338 165.805C167.338 165.885 167.318 165.965 167.278 166.045L165.898 166C165.068 166 164.408 166.04 163.918 166.12C163.868 166.06 163.843 165.975 163.843 165.865L163.858 165.745C164.148 165.675 164.373 165.58 164.533 165.46C164.693 165.33 164.793 165.21 164.833 165.1C164.883 164.98 164.923 164.805 164.953 164.575C164.983 164.335 164.998 163.875 164.998 163.195V161.95C164.998 161.25 164.918 160.66 164.758 160.18C164.688 159.99 164.608 159.85 164.518 159.76C164.298 159.52 164.033 159.4 163.723 159.4C163.413 159.4 163.103 159.46 162.793 159.58C162.483 159.7 162.248 159.81 162.088 159.91C161.928 160.01 161.703 160.16 161.413 160.36C161.373 161.15 161.353 162.21 161.353 163.54C161.353 164.86 161.418 165.53 161.548 165.55C161.688 165.57 161.943 165.58 162.313 165.58C162.353 165.65 162.373 165.725 162.373 165.805C162.373 165.885 162.353 165.965 162.313 166.045L161.038 166C160.278 166 159.618 166.04 159.058 166.12C159.008 166.06 158.983 165.975 158.983 165.865L158.998 165.745C159.288 165.675 159.513 165.58 159.673 165.46C159.833 165.33 159.933 165.21 159.973 165.1C160.023 164.98 160.063 164.765 160.093 164.455C160.133 164.135 160.153 163.455 160.153 162.415C160.153 161.375 160.148 160.8 160.138 160.69C160.138 160.57 160.133 160.42 160.123 160.24C160.113 160.06 160.093 159.925 160.063 159.835C160.033 159.745 159.988 159.65 159.928 159.55C159.828 159.36 159.658 159.265 159.418 159.265ZM175.196 158.26C175.286 158.28 175.361 158.34 175.421 158.44C175.331 159.12 175.286 160.24 175.286 161.8L175.301 163.945C175.301 164.845 175.526 165.295 175.976 165.295L176.516 165.28C176.556 165.35 176.576 165.43 176.576 165.52L176.561 165.685C176.071 165.765 175.721 165.86 175.511 165.97L175.121 166.15C175.071 166.18 174.996 166.23 174.896 166.3C174.676 166.22 174.491 166.045 174.341 165.775C174.191 165.495 174.106 165.215 174.086 164.935C173.236 165.465 172.261 165.92 171.161 166.3C170.521 166.3 170.041 166.065 169.721 165.595C169.411 165.115 169.256 164.465 169.256 163.645V160.78C169.256 160.1 169.226 159.67 169.166 159.49C169.106 159.3 168.931 159.175 168.641 159.115L168.146 159.055C168.116 158.995 168.101 158.93 168.101 158.86L168.146 158.68C168.316 158.65 168.701 158.585 169.301 158.485L170.366 158.26C170.446 158.28 170.516 158.34 170.576 158.44C170.496 158.99 170.456 160.435 170.456 162.775C170.456 164.415 170.896 165.235 171.776 165.235C172.086 165.235 172.396 165.18 172.706 165.07C173.026 164.96 173.266 164.855 173.426 164.755C173.586 164.645 173.791 164.495 174.041 164.305C174.071 163.645 174.086 163.17 174.086 162.88V161.065C174.086 160.455 174.056 160.03 173.996 159.79C173.946 159.55 173.866 159.39 173.756 159.31C173.656 159.22 173.516 159.155 173.336 159.115L172.841 159.055L172.796 158.86L172.841 158.68C172.941 158.66 173.121 158.635 173.381 158.605C173.651 158.575 174.006 158.515 174.446 158.425C174.886 158.335 175.136 158.28 175.196 158.26ZM179.748 162.775C179.748 164.435 180.033 165.265 180.603 165.265C181.023 165.265 181.568 165.125 182.238 164.845C182.388 164.895 182.463 165.035 182.463 165.265C181.733 165.655 180.893 166 179.943 166.3C179.473 166.3 179.113 166.06 178.863 165.58C178.623 165.1 178.503 164.455 178.503 163.645V160.165C178.503 159.575 178.468 159.28 178.398 159.28L177.288 159.295C177.218 159.275 177.183 159.225 177.183 159.145C177.233 159.045 177.278 158.865 177.318 158.605H178.383C178.463 158.605 178.503 158.43 178.503 158.08L178.488 156.805C178.858 156.655 179.238 156.345 179.628 155.875C179.748 155.875 179.838 155.905 179.898 155.965C179.808 157.015 179.763 157.895 179.763 158.605C180.493 158.605 181.213 158.57 181.923 158.5C181.993 158.54 182.028 158.6 182.028 158.68C181.968 158.78 181.918 158.965 181.878 159.235L179.748 159.265V162.775ZM183.354 159.265L182.769 159.28C182.719 159.23 182.694 159.155 182.694 159.055L182.724 158.875C183.404 158.785 183.959 158.645 184.389 158.455C184.529 158.395 184.614 158.365 184.644 158.365C184.754 158.365 184.879 158.565 185.019 158.965C185.159 159.355 185.244 159.745 185.274 160.135C186.024 159.355 186.704 158.765 187.314 158.365C187.714 158.365 188.044 158.485 188.304 158.725C188.564 158.955 188.694 159.245 188.694 159.595C188.694 159.995 188.339 160.195 187.629 160.195C187.479 159.665 187.224 159.4 186.864 159.4C186.624 159.4 186.124 159.815 185.364 160.645C185.304 161.405 185.274 162.615 185.274 164.275C185.274 165.105 185.339 165.525 185.469 165.535C185.699 165.565 186.104 165.58 186.684 165.58C186.714 165.65 186.729 165.73 186.729 165.82C186.729 165.91 186.714 165.985 186.684 166.045L185.004 166C184.184 166 183.459 166.04 182.829 166.12C182.779 166.06 182.754 165.975 182.754 165.865L182.769 165.745C183.299 165.645 183.639 165.49 183.789 165.28C183.899 165.12 183.979 164.865 184.029 164.515C184.079 164.155 184.104 163.455 184.104 162.415C184.104 161.375 184.099 160.8 184.089 160.69C184.089 160.58 184.084 160.435 184.074 160.255C184.064 160.075 184.044 159.94 184.014 159.85C183.984 159.76 183.939 159.66 183.879 159.55C183.779 159.36 183.604 159.265 183.354 159.265ZM192.726 166.045L191.376 166C190.676 166 190.016 166.04 189.396 166.12C189.336 166.04 189.306 165.955 189.306 165.865L189.336 165.745C189.766 165.645 190.056 165.49 190.206 165.28C190.316 165.12 190.401 164.93 190.461 164.71C190.521 164.48 190.551 163.83 190.551 162.76V161.32C190.551 160.7 190.521 160.27 190.461 160.03C190.411 159.79 190.331 159.63 190.221 159.55C190.111 159.47 189.966 159.42 189.786 159.4L189.231 159.355C189.201 159.315 189.186 159.25 189.186 159.16L189.231 158.965C189.751 158.855 190.171 158.745 190.491 158.635C190.821 158.515 191.206 158.345 191.646 158.125C191.756 158.125 191.831 158.185 191.871 158.305C191.751 158.985 191.691 160.605 191.691 163.165C191.691 163.625 191.706 164.135 191.736 164.695C191.776 165.245 191.826 165.525 191.886 165.535C192.036 165.565 192.316 165.58 192.726 165.58C192.756 165.65 192.771 165.73 192.771 165.82C192.771 165.91 192.756 165.985 192.726 166.045ZM191.316 156.415C190.956 156.165 190.701 155.835 190.551 155.425C190.671 155.285 190.831 155.14 191.031 154.99C191.241 154.83 191.421 154.72 191.571 154.66C191.951 154.94 192.196 155.275 192.306 155.665C192.026 156.025 191.696 156.275 191.316 156.415ZM196.257 162.775C196.257 164.435 196.542 165.265 197.112 165.265C197.532 165.265 198.077 165.125 198.747 164.845C198.897 164.895 198.972 165.035 198.972 165.265C198.242 165.655 197.402 166 196.452 166.3C195.982 166.3 195.622 166.06 195.372 165.58C195.132 165.1 195.012 164.455 195.012 163.645V160.165C195.012 159.575 194.977 159.28 194.907 159.28L193.797 159.295C193.727 159.275 193.692 159.225 193.692 159.145C193.742 159.045 193.787 158.865 193.827 158.605H194.892C194.972 158.605 195.012 158.43 195.012 158.08L194.997 156.805C195.367 156.655 195.747 156.345 196.137 155.875C196.257 155.875 196.347 155.905 196.407 155.965C196.317 157.015 196.272 157.895 196.272 158.605C197.002 158.605 197.722 158.57 198.432 158.5C198.502 158.54 198.537 158.6 198.537 158.68C198.477 158.78 198.427 158.965 198.387 159.235L196.257 159.265V162.775ZM202.892 166.045L201.542 166C200.842 166 200.182 166.04 199.562 166.12C199.502 166.04 199.472 165.955 199.472 165.865L199.502 165.745C199.932 165.645 200.222 165.49 200.372 165.28C200.482 165.12 200.567 164.93 200.627 164.71C200.687 164.48 200.717 163.83 200.717 162.76V161.32C200.717 160.7 200.687 160.27 200.627 160.03C200.577 159.79 200.497 159.63 200.387 159.55C200.277 159.47 200.132 159.42 199.952 159.4L199.397 159.355C199.367 159.315 199.352 159.25 199.352 159.16L199.397 158.965C199.917 158.855 200.337 158.745 200.657 158.635C200.987 158.515 201.372 158.345 201.812 158.125C201.922 158.125 201.997 158.185 202.037 158.305C201.917 158.985 201.857 160.605 201.857 163.165C201.857 163.625 201.872 164.135 201.902 164.695C201.942 165.245 201.992 165.525 202.052 165.535C202.202 165.565 202.482 165.58 202.892 165.58C202.922 165.65 202.937 165.73 202.937 165.82C202.937 165.91 202.922 165.985 202.892 166.045ZM201.482 156.415C201.122 156.165 200.867 155.835 200.717 155.425C200.837 155.285 200.997 155.14 201.197 154.99C201.407 154.83 201.587 154.72 201.737 154.66C202.117 154.94 202.362 155.275 202.472 155.665C202.192 156.025 201.862 156.275 201.482 156.415ZM211.853 162.34C211.853 164.56 210.563 165.88 207.983 166.3C206.923 166.3 206.028 165.925 205.298 165.175C204.578 164.415 204.218 163.47 204.218 162.34C204.218 160.1 205.513 158.775 208.103 158.365C209.153 158.365 210.038 158.75 210.758 159.52C211.488 160.29 211.853 161.23 211.853 162.34ZM208.313 165.655C209.753 165.655 210.473 164.735 210.473 162.895C210.473 161.855 210.233 160.945 209.753 160.165C209.273 159.385 208.638 158.995 207.848 158.995C207.058 158.995 206.483 159.25 206.123 159.76C205.773 160.26 205.598 160.98 205.598 161.92C205.598 162.85 205.843 163.705 206.333 164.485C206.823 165.265 207.483 165.655 208.313 165.655ZM213.471 159.265L212.886 159.28C212.846 159.23 212.826 159.165 212.826 159.085C212.826 159.005 212.836 158.935 212.856 158.875C213.536 158.785 214.091 158.645 214.521 158.455C214.661 158.395 214.746 158.365 214.776 158.365C214.866 158.365 214.976 158.505 215.106 158.785C215.236 159.065 215.346 159.375 215.436 159.715C216.446 159.145 217.431 158.695 218.391 158.365C219.001 158.365 219.471 158.61 219.801 159.1C220.131 159.58 220.296 160.22 220.296 161.02L220.266 163C220.266 164.67 220.341 165.52 220.491 165.55C220.641 165.57 220.921 165.58 221.331 165.58C221.371 165.65 221.391 165.725 221.391 165.805C221.391 165.885 221.371 165.965 221.331 166.045L219.951 166C219.121 166 218.461 166.04 217.971 166.12C217.921 166.06 217.896 165.975 217.896 165.865L217.911 165.745C218.201 165.675 218.426 165.58 218.586 165.46C218.746 165.33 218.846 165.21 218.886 165.1C218.936 164.98 218.976 164.805 219.006 164.575C219.036 164.335 219.051 163.875 219.051 163.195V161.95C219.051 161.25 218.971 160.66 218.811 160.18C218.741 159.99 218.661 159.85 218.571 159.76C218.351 159.52 218.086 159.4 217.776 159.4C217.466 159.4 217.156 159.46 216.846 159.58C216.536 159.7 216.301 159.81 216.141 159.91C215.981 160.01 215.756 160.16 215.466 160.36C215.426 161.15 215.406 162.21 215.406 163.54C215.406 164.86 215.471 165.53 215.601 165.55C215.741 165.57 215.996 165.58 216.366 165.58C216.406 165.65 216.426 165.725 216.426 165.805C216.426 165.885 216.406 165.965 216.366 166.045L215.091 166C214.331 166 213.671 166.04 213.111 166.12C213.061 166.06 213.036 165.975 213.036 165.865L213.051 165.745C213.341 165.675 213.566 165.58 213.726 165.46C213.886 165.33 213.986 165.21 214.026 165.1C214.076 164.98 214.116 164.765 214.146 164.455C214.186 164.135 214.206 163.455 214.206 162.415C214.206 161.375 214.201 160.8 214.191 160.69C214.191 160.57 214.186 160.42 214.176 160.24C214.166 160.06 214.146 159.925 214.116 159.835C214.086 159.745 214.041 159.65 213.981 159.55C213.881 159.36 213.711 159.265 213.471 159.265ZM225.949 166.045L224.599 166C223.899 166 223.239 166.04 222.619 166.12C222.559 166.04 222.529 165.955 222.529 165.865L222.559 165.745C222.989 165.645 223.279 165.49 223.429 165.28C223.539 165.12 223.624 164.93 223.684 164.71C223.744 164.48 223.774 163.83 223.774 162.76V161.32C223.774 160.7 223.744 160.27 223.684 160.03C223.634 159.79 223.554 159.63 223.444 159.55C223.334 159.47 223.189 159.42 223.009 159.4L222.454 159.355C222.424 159.315 222.409 159.25 222.409 159.16L222.454 158.965C222.974 158.855 223.394 158.745 223.714 158.635C224.044 158.515 224.429 158.345 224.869 158.125C224.979 158.125 225.054 158.185 225.094 158.305C224.974 158.985 224.914 160.605 224.914 163.165C224.914 163.625 224.929 164.135 224.959 164.695C224.999 165.245 225.049 165.525 225.109 165.535C225.259 165.565 225.539 165.58 225.949 165.58C225.979 165.65 225.994 165.73 225.994 165.82C225.994 165.91 225.979 165.985 225.949 166.045ZM224.539 156.415C224.179 156.165 223.924 155.835 223.774 155.425C223.894 155.285 224.054 155.14 224.254 154.99C224.464 154.83 224.644 154.72 224.794 154.66C225.174 154.94 225.419 155.275 225.529 155.665C225.249 156.025 224.919 156.275 224.539 156.415ZM231.46 159.295C231.16 159.035 230.775 158.905 230.305 158.905C229.335 158.905 228.85 159.295 228.85 160.075C228.85 160.325 228.94 160.565 229.12 160.795C229.31 161.015 229.54 161.19 229.81 161.32L230.98 161.875C232.12 162.425 232.69 163.16 232.69 164.08C232.69 164.76 232.42 165.3 231.88 165.7C231.34 166.1 230.7 166.3 229.96 166.3C229.57 166.3 229.16 166.26 228.73 166.18C228.31 166.11 228.01 166.035 227.83 165.955C227.8 165.505 227.71 164.88 227.56 164.08C227.67 164.01 227.76 163.975 227.83 163.975C227.91 163.975 227.965 163.985 227.995 164.005C228.195 164.605 228.37 164.99 228.52 165.16C228.63 165.27 228.825 165.39 229.105 165.52C229.385 165.65 229.715 165.715 230.095 165.715C230.485 165.715 230.82 165.61 231.1 165.4C231.38 165.19 231.52 164.875 231.52 164.455C231.52 164.175 231.465 163.965 231.355 163.825C231.245 163.685 231.15 163.58 231.07 163.51C231 163.43 230.915 163.36 230.815 163.3C230.725 163.24 230.645 163.195 230.575 163.165C230.515 163.125 230.45 163.09 230.38 163.06C230.32 163.02 230.285 163 230.275 163L229.15 162.46C228.18 162 227.695 161.335 227.695 160.465C227.695 159.755 227.965 159.23 228.505 158.89C229.045 158.54 229.655 158.365 230.335 158.365C230.665 158.365 231.035 158.41 231.445 158.5C231.865 158.58 232.18 158.665 232.39 158.755C232.32 158.995 232.24 159.555 232.15 160.435C232.1 160.475 232.03 160.495 231.94 160.495C231.86 160.495 231.78 160.485 231.7 160.465C231.62 159.965 231.54 159.575 231.46 159.295ZM236.423 162.775C236.423 164.435 236.708 165.265 237.278 165.265C237.698 165.265 238.243 165.125 238.913 164.845C239.063 164.895 239.138 165.035 239.138 165.265C238.408 165.655 237.568 166 236.618 166.3C236.148 166.3 235.788 166.06 235.538 165.58C235.298 165.1 235.178 164.455 235.178 163.645V160.165C235.178 159.575 235.143 159.28 235.073 159.28L233.963 159.295C233.893 159.275 233.858 159.225 233.858 159.145C233.908 159.045 233.953 158.865 233.993 158.605H235.058C235.138 158.605 235.178 158.43 235.178 158.08L235.163 156.805C235.533 156.655 235.913 156.345 236.303 155.875C236.423 155.875 236.513 155.905 236.573 155.965C236.483 157.015 236.438 157.895 236.438 158.605C237.168 158.605 237.888 158.57 238.598 158.5C238.668 158.54 238.703 158.6 238.703 158.68C238.643 158.78 238.593 158.965 238.553 159.235L236.423 159.265V162.775Z" fill="black"/>
<g filter="url(#filter1_i)">
<path d="M142 142C183.421 142 217 110.212 217 71C217 31.7878 183.421 0 142 0C100.579 0 67 31.7878 67 71C67 110.212 100.579 142 142 142Z" fill="#F4F4F4"/>
</g>
<path d="M19.024 162.027L17.575 162C16.975 162 16.543 162.015 16.279 162.045C16.243 161.997 16.225 161.934 16.225 161.856L17.305 160.812C17.323 160.794 17.398 160.725 17.53 160.605C17.662 160.485 17.77 160.386 17.854 160.308C17.938 160.224 18.046 160.11 18.178 159.966C18.31 159.816 18.418 159.678 18.502 159.552C18.7 159.252 18.799 158.973 18.799 158.715C18.799 158.451 18.703 158.232 18.511 158.058C18.319 157.884 18.1 157.797 17.854 157.797C17.608 157.797 17.317 157.878 16.981 158.04C16.909 158.466 16.867 158.769 16.855 158.949C16.807 158.973 16.759 158.985 16.711 158.985C16.669 158.985 16.633 158.979 16.603 158.967C16.579 158.589 16.543 158.331 16.495 158.193C16.453 158.049 16.432 157.974 16.432 157.968C16.432 157.89 16.477 157.833 16.567 157.797C16.933 157.641 17.425 157.47 18.043 157.284C18.475 157.284 18.841 157.383 19.141 157.581C19.441 157.779 19.591 158.091 19.591 158.517C19.591 158.943 19.327 159.405 18.799 159.903L17.197 161.424H18.151C18.679 161.424 19.039 161.406 19.231 161.37C19.429 161.328 19.576 161.253 19.672 161.145C19.702 161.109 19.759 160.998 19.843 160.812C19.855 160.806 19.888 160.803 19.942 160.803C19.996 160.803 20.041 160.821 20.077 160.857C20.059 160.965 20.038 161.082 20.014 161.208C19.99 161.328 19.972 161.418 19.96 161.478C19.936 161.67 19.924 161.817 19.924 161.919C19.804 161.991 19.504 162.027 19.024 162.027Z" fill="white"/>
<path d="M139.74 22.4499C131.44 21.9099 124.33 26.5499 119.61 33.0899C116.09 37.9699 114.47 43.7399 112.46 49.3199C110.59 54.4999 107.4 59.3199 106.54 64.8299C105.74 70.0099 107.34 75.2099 107.38 80.3899C107.41 84.7599 105.41 88.6599 103.92 92.6899C103.59 93.5899 102.47 98.54 101.3 98.51C101.3 98.51 175.58 100.97 175.74 100.97C173.31 100.92 170.5 90.8999 169.87 88.9399C167.76 82.4999 169.34 75.5699 167.41 69.1199C166.14 64.8599 163.74 61.0399 163.18 56.5699C162.55 51.5099 163.73 46.3399 161.89 41.4399C159.77 35.7799 156.94 30.2399 151.93 26.5899C148.72 24.2399 144.85 23.0099 140.92 22.5499C140.52 22.5099 140.13 22.4699 139.74 22.4499Z" fill="#332019"/>
<path d="M93 110.86C93 110.86 94.41 87.7398 124.78 86.4798C124.78 86.4798 135.79 100.47 151.83 86.4798C151.83 86.4798 174.64 85.0098 182.31 111.68C182.32 111.68 140.63 151.65 93 110.86Z" fill="#69A2AD"/>
<path d="M131.86 65.8799C131.86 65.8799 131.97 77.4199 124.01 87.5199C124.01 87.5199 137.33 100.57 151.83 86.4899C151.83 86.4899 142.06 79.7999 144.9 65.8699C147.74 51.9399 131.86 65.8799 131.86 65.8799Z" fill="#EAB788"/>
<path d="M137.94 75.8299C146.699 75.8299 153.8 67.0547 153.8 56.2299C153.8 45.4052 146.699 36.6299 137.94 36.6299C129.181 36.6299 122.08 45.4052 122.08 56.2299C122.08 67.0547 129.181 75.8299 137.94 75.8299Z" fill="#D6A074"/>
<path d="M137.94 74.4898C146.699 74.4898 153.8 65.7146 153.8 54.8898C153.8 44.065 146.699 35.2898 137.94 35.2898C129.181 35.2898 122.08 44.065 122.08 54.8898C122.08 65.7146 129.181 74.4898 137.94 74.4898Z" fill="#EAB788"/>
<path d="M141.41 46.4998C141.68 46.2798 142.07 46.1698 142.42 46.0498C144.65 45.2898 147.42 44.4998 149.61 45.7998C150.12 46.0998 150.53 46.5198 150.96 46.9198L149.96 46.5998C147.73 45.8898 145.52 46.7598 143.36 47.2598C142.65 47.4298 141.94 47.5298 141.24 47.7598C141.22 47.7698 141.21 47.7698 141.19 47.7598C141.17 47.7498 141.16 47.7398 141.16 47.7198C140.97 47.3098 141.04 46.7898 141.41 46.4998Z" fill="#332019"/>
<path d="M134.47 46.4998C134.2 46.2798 133.81 46.1698 133.46 46.0498C131.23 45.2898 128.46 44.4998 126.27 45.7998C125.76 46.0998 125.35 46.5198 124.92 46.9198L125.92 46.5998C128.15 45.8898 130.36 46.7598 132.52 47.2598C133.23 47.4298 133.94 47.5298 134.64 47.7598C134.66 47.7698 134.67 47.7698 134.69 47.7598C134.71 47.7498 134.72 47.7398 134.72 47.7198C134.91 47.3098 134.84 46.7898 134.47 46.4998Z" fill="#332019"/>
<path d="M138.75 51.0598C138.75 51.0598 138.59 51.7898 138.56 52.8698C138.52 54.5598 139.26 56.1098 140.3 57.4498C140.87 58.1898 140.78 59.1898 139.19 60.0798" stroke="#D6A074" stroke-width="0.75" stroke-miterlimit="10"/>
<path d="M131.8 63.3098C131.8 63.3098 137.14 65.8698 144.08 63.3098C144.08 63.3098 138.24 74.8098 131.8 63.3098Z" fill="#F9F9F9"/>
<path d="M149.24 51.0598C148.47 52.2398 147.13 53.1098 145.66 53.2598C144.93 53.3198 144.18 53.2698 143.51 52.9998C143.16 52.8998 142.85 52.6998 142.53 52.5498C142.23 52.3598 141.94 52.1498 141.67 51.9298C142.32 52.1998 142.95 52.4898 143.62 52.6298C144.28 52.7998 144.95 52.8298 145.61 52.7698C146.94 52.6298 148.17 51.9698 149.24 51.0598Z" fill="black"/>
<path d="M126.64 51.0598C127.7 51.9698 128.94 52.6398 130.27 52.7598C130.93 52.8198 131.6 52.7998 132.26 52.6198C132.93 52.4798 133.55 52.1898 134.21 51.9198C133.93 52.1398 133.65 52.3498 133.35 52.5398C133.03 52.6898 132.72 52.8898 132.37 52.9898C131.7 53.2698 130.94 53.3098 130.22 53.2498C128.75 53.0998 127.41 52.2298 126.64 51.0598Z" fill="black"/>
<path d="M127.07 34.4199L120.79 18.1399C120.79 18.1399 133.39 7.22988 156.92 17.1999C156.92 17.1999 149.95 34.4499 149.88 34.6299C150.03 34.2599 143.39 32.4999 142.77 32.3999C138.52 31.6799 133.68 31.8699 129.59 33.3299C128.74 33.6399 127.91 34.0599 127.07 34.4199Z" fill="#69A2AD"/>
<path d="M140.21 17.3699H137.51V30.2699H140.21V17.3699Z" fill="#FEF6F1"/>
<path d="M145.306 25.1697V22.4697H132.406V25.1697H145.306Z" fill="#FEF6F1"/>
<defs>
<filter id="filter0_d" x="0" y="145" width="282" height="38" filterUnits="userSpaceOnUse" color-interpolation-filters="sRGB">
<feFlood flood-opacity="0" result="BackgroundImageFix"/>
<feColorMatrix in="SourceAlpha" type="matrix" values="0 0 0 0 0 0 0 0 0 0 0 0 0 0 0 0 0 0 127 0" result="hardAlpha"/>
<feOffset dy="4"/>
<feGaussianBlur stdDeviation="2"/>
<feColorMatrix type="matrix" values="0 0 0 0 0 0 0 0 0 0 0 0 0 0 0 0 0 0 0.25 0"/>
<feBlend mode="normal" in2="BackgroundImageFix" result="effect1_dropShadow"/>
<feBlend mode="normal" in="SourceGraphic" in2="effect1_dropShadow" result="shape"/>
</filter>
<filter id="filter1_i" x="67" y="0" width="150" height="146" filterUnits="userSpaceOnUse" color-interpolation-filters="sRGB">
<feFlood flood-opacity="0" result="BackgroundImageFix"/>
<feBlend mode="normal" in="SourceGraphic" in2="BackgroundImageFix" result="shape"/>
<feColorMatrix in="SourceAlpha" type="matrix" values="0 0 0 0 0 0 0 0 0 0 0 0 0 0 0 0 0 0 127 0" result="hardAlpha"/>
<feOffset dy="4"/>
<feGaussianBlur stdDeviation="2"/>
<feComposite in2="hardAlpha" operator="arithmetic" k2="-1" k3="1"/>
<feColorMatrix type="matrix" values="0 0 0 0 0 0 0 0 0 0 0 0 0 0 0 0 0 0 0.25 0"/>
<feBlend mode="normal" in2="shape" result="effect1_innerShadow"/>
</filter>
</defs>
</svg>
