<svg width="282" height="183" viewBox="0 0 282 183" fill="none" xmlns="http://www.w3.org/2000/svg">
<g clip-path="url(#clip0)">
<g filter="url(#filter0_d)">
<path d="M286 145H4V175H286V145Z" fill="#F4F4F4"/>
</g>
<path d="M16 166C19.3137 166 22 163.314 22 160C22 156.686 19.3137 154 16 154C12.6863 154 10 156.686 10 160C10 163.314 12.6863 166 16 166Z" fill="black"/>
<g filter="url(#filter1_i)">
<path d="M142 142C183.421 142 217 110.212 217 71C217 31.7878 183.421 0 142 0C100.579 0 67 31.7878 67 71C67 110.212 100.579 142 142 142Z" fill="#F4F4F4"/>
</g>
<path d="M15.575 156.531C15.323 156.531 14.981 156.609 14.549 156.765C14.489 157.137 14.45 157.443 14.432 157.683C14.384 157.707 14.333 157.719 14.279 157.719L14.171 157.692C14.135 157.26 14.09 156.954 14.036 156.774L14 156.675C14 156.615 14.045 156.567 14.135 156.531C14.375 156.405 14.93 156.228 15.8 156C16.85 156 17.375 156.357 17.375 157.071C17.375 157.245 17.318 157.425 17.204 157.611C17.09 157.791 16.835 158.073 16.439 158.457L16.097 158.781C16.955 159.333 17.384 159.963 17.384 160.671C17.384 161.289 17.123 161.802 16.601 162.21C16.079 162.618 15.272 163.017 14.18 163.407C14.132 163.359 14.108 163.281 14.108 163.173C14.948 162.795 15.572 162.435 15.98 162.093C16.388 161.757 16.592 161.382 16.592 160.968C16.592 160.56 16.463 160.218 16.205 159.942C15.953 159.666 15.602 159.399 15.152 159.141L15.881 158.475C16.355 158.049 16.592 157.656 16.592 157.296C16.592 156.786 16.253 156.531 15.575 156.531Z" fill="white"/>
<path d="M139.74 22.4499C131.44 21.9099 124.33 26.5499 119.61 33.0899C116.09 37.9699 114.47 43.7399 112.46 49.3199C110.59 54.4999 107.4 59.3199 106.54 64.8299C105.74 70.0099 107.34 75.2099 107.38 80.3899C107.41 84.7599 105.41 88.6599 103.92 92.6899C103.59 93.5899 102.47 98.54 101.3 98.51C101.3 98.51 175.58 100.97 175.74 100.97C173.31 100.92 170.5 90.8999 169.87 88.9399C167.76 82.4999 169.34 75.5699 167.41 69.1199C166.14 64.8599 163.74 61.0399 163.18 56.5699C162.55 51.5099 163.73 46.3399 161.89 41.4399C159.77 35.7799 156.94 30.2399 151.93 26.5899C148.72 24.2399 144.85 23.0099 140.92 22.5499C140.52 22.5099 140.13 22.4699 139.74 22.4499Z" fill="#332019"/>
<path d="M93 110.86C93 110.86 94.41 87.7398 124.78 86.4798C124.78 86.4798 135.79 100.47 151.83 86.4798C151.83 86.4798 174.64 85.0098 182.31 111.68C182.32 111.68 140.63 151.65 93 110.86Z" fill="#69A2AD"/>
<path d="M131.86 65.8799C131.86 65.8799 131.97 77.4199 124.01 87.5199C124.01 87.5199 137.33 100.57 151.83 86.4899C151.83 86.4899 142.06 79.7999 144.9 65.8699C147.74 51.9399 131.86 65.8799 131.86 65.8799Z" fill="#EAB788"/>
<path d="M137.94 75.8299C146.699 75.8299 153.8 67.0547 153.8 56.2299C153.8 45.4052 146.699 36.6299 137.94 36.6299C129.181 36.6299 122.08 45.4052 122.08 56.2299C122.08 67.0547 129.181 75.8299 137.94 75.8299Z" fill="#D6A074"/>
<path d="M137.94 74.4898C146.699 74.4898 153.8 65.7146 153.8 54.8898C153.8 44.065 146.699 35.2898 137.94 35.2898C129.181 35.2898 122.08 44.065 122.08 54.8898C122.08 65.7146 129.181 74.4898 137.94 74.4898Z" fill="#EAB788"/>
<path d="M141.41 46.4998C141.68 46.2798 142.07 46.1698 142.42 46.0498C144.65 45.2898 147.42 44.4998 149.61 45.7998C150.12 46.0998 150.53 46.5198 150.96 46.9198L149.96 46.5998C147.73 45.8898 145.52 46.7598 143.36 47.2598C142.65 47.4298 141.94 47.5298 141.24 47.7598C141.22 47.7698 141.21 47.7698 141.19 47.7598C141.17 47.7498 141.16 47.7398 141.16 47.7198C140.97 47.3098 141.04 46.7898 141.41 46.4998Z" fill="#332019"/>
<path d="M134.47 46.4998C134.2 46.2798 133.81 46.1698 133.46 46.0498C131.23 45.2898 128.46 44.4998 126.27 45.7998C125.76 46.0998 125.35 46.5198 124.92 46.9198L125.92 46.5998C128.15 45.8898 130.36 46.7598 132.52 47.2598C133.23 47.4298 133.94 47.5298 134.64 47.7598C134.66 47.7698 134.67 47.7698 134.69 47.7598C134.71 47.7498 134.72 47.7398 134.72 47.7198C134.91 47.3098 134.84 46.7898 134.47 46.4998Z" fill="#332019"/>
<path d="M138.75 51.0598C138.75 51.0598 138.59 51.7898 138.56 52.8698C138.52 54.5598 139.26 56.1098 140.3 57.4498C140.87 58.1898 140.78 59.1898 139.19 60.0798" stroke="#D6A074" stroke-width="0.75" stroke-miterlimit="10"/>
<path d="M131.8 63.3098C131.8 63.3098 137.14 65.8698 144.08 63.3098C144.08 63.3098 138.24 74.8098 131.8 63.3098Z" fill="#F9F9F9"/>
<path d="M149.24 51.0598C148.47 52.2398 147.13 53.1098 145.66 53.2598C144.93 53.3198 144.18 53.2698 143.51 52.9998C143.16 52.8998 142.85 52.6998 142.53 52.5498C142.23 52.3598 141.94 52.1498 141.67 51.9298C142.32 52.1998 142.95 52.4898 143.62 52.6298C144.28 52.7998 144.95 52.8298 145.61 52.7698C146.94 52.6298 148.17 51.9698 149.24 51.0598Z" fill="black"/>
<path d="M126.64 51.0598C127.7 51.9698 128.94 52.6398 130.27 52.7598C130.93 52.8198 131.6 52.7998 132.26 52.6198C132.93 52.4798 133.55 52.1898 134.21 51.9198C133.93 52.1398 133.65 52.3498 133.35 52.5398C133.03 52.6898 132.72 52.8898 132.37 52.9898C131.7 53.2698 130.94 53.3098 130.22 53.2498C128.75 53.0998 127.41 52.2298 126.64 51.0598Z" fill="black"/>
<path d="M127.07 34.4199L120.79 18.1399C120.79 18.1399 133.39 7.22987 156.92 17.1999C156.92 17.1999 149.95 34.4499 149.88 34.6299C150.03 34.2599 143.39 32.4999 142.77 32.3999C138.52 31.6799 133.68 31.8699 129.59 33.3299C128.74 33.6399 127.91 34.0599 127.07 34.4199Z" fill="#69A2AD"/>
<path d="M140.21 17.3699H137.51V30.2699H140.21V17.3699Z" fill="#FEF6F1"/>
<path d="M145.306 25.1697V22.4697H132.406V25.1697H145.306Z" fill="#FEF6F1"/>
<path d="M31.265 166.38C29.0863 166.38 27.3637 165.702 26.097 164.347C24.843 162.979 24.216 161.263 24.216 159.198C24.216 157.121 24.9 155.404 26.268 154.049C27.636 152.694 29.384 152.016 31.512 152.016C33.1967 152.016 34.6913 152.225 35.996 152.643C36.0593 152.681 36.091 152.732 36.091 152.795C36.091 152.846 36.072 153.042 36.034 153.384C35.8693 154.562 35.7807 155.423 35.768 155.968C35.578 156.006 35.445 156.025 35.369 156.025C35.293 156.025 35.179 156 35.027 155.949C34.913 155.075 34.799 154.423 34.685 153.992C34.3557 153.637 33.8933 153.333 33.298 153.08C32.7027 152.827 32.025 152.7 31.265 152.7C29.821 152.7 28.624 153.207 27.674 154.22C26.7367 155.233 26.268 156.62 26.268 158.381C26.268 159.622 26.4707 160.788 26.876 161.877C27.294 162.966 27.9083 163.866 28.719 164.575C29.5423 165.272 30.5177 165.62 31.645 165.62C32.7723 165.62 33.773 165.316 34.647 164.708C34.8877 164.303 35.1853 163.625 35.54 162.675C35.844 162.675 36.0783 162.738 36.243 162.865C36.0657 163.777 35.9327 164.695 35.844 165.62C35.8313 165.759 35.749 165.842 35.597 165.867C34.381 166.209 32.937 166.38 31.265 166.38ZM47.8665 161.364C47.8665 164.176 46.2325 165.848 42.9645 166.38C41.6219 166.38 40.4882 165.905 39.5635 164.955C38.6515 163.992 38.1955 162.795 38.1955 161.364C38.1955 158.527 39.8359 156.848 43.1165 156.329C44.4465 156.329 45.5675 156.817 46.4795 157.792C47.4042 158.767 47.8665 159.958 47.8665 161.364ZM43.3825 165.563C45.2065 165.563 46.1185 164.398 46.1185 162.067C46.1185 160.75 45.8145 159.597 45.2065 158.609C44.5985 157.621 43.7942 157.127 42.7935 157.127C41.7929 157.127 41.0645 157.45 40.6085 158.096C40.1652 158.729 39.9435 159.641 39.9435 160.832C39.9435 162.01 40.2539 163.093 40.8745 164.081C41.4952 165.069 42.3312 165.563 43.3825 165.563ZM49.916 157.469L49.175 157.488C49.1244 157.425 49.099 157.342 49.099 157.241C49.099 157.14 49.1117 157.051 49.137 156.975C49.9984 156.861 50.7014 156.684 51.246 156.443C51.4234 156.367 51.531 156.329 51.569 156.329C51.683 156.329 51.8224 156.506 51.987 156.861C52.1517 157.216 52.291 157.608 52.405 158.039C53.6844 157.317 54.932 156.747 56.148 156.329C56.9207 156.329 57.516 156.639 57.934 157.26C58.352 157.868 58.561 158.679 58.561 159.692L58.523 162.2C58.523 164.315 58.618 165.392 58.808 165.43C58.998 165.455 59.3527 165.468 59.872 165.468C59.9227 165.557 59.948 165.652 59.948 165.753C59.948 165.854 59.9227 165.956 59.872 166.057L58.124 166C57.0727 166 56.2367 166.051 55.616 166.152C55.5527 166.076 55.521 165.968 55.521 165.829L55.54 165.677C55.9074 165.588 56.1924 165.468 56.395 165.316C56.5977 165.151 56.7244 164.999 56.775 164.86C56.8384 164.708 56.889 164.486 56.927 164.195C56.965 163.891 56.984 163.308 56.984 162.447V160.87C56.984 159.983 56.8827 159.236 56.68 158.628C56.5914 158.387 56.49 158.21 56.376 158.096C56.0974 157.792 55.7617 157.64 55.369 157.64C54.9764 157.64 54.5837 157.716 54.191 157.868C53.7984 158.02 53.5007 158.159 53.298 158.286C53.0954 158.413 52.8104 158.603 52.443 158.856C52.3924 159.857 52.367 161.199 52.367 162.884C52.367 164.556 52.4494 165.405 52.614 165.43C52.7914 165.455 53.1144 165.468 53.583 165.468C53.6337 165.557 53.659 165.652 53.659 165.753C53.659 165.854 53.6337 165.956 53.583 166.057L51.968 166C51.0054 166 50.1694 166.051 49.46 166.152C49.3967 166.076 49.365 165.968 49.365 165.829L49.384 165.677C49.7514 165.588 50.0364 165.468 50.239 165.316C50.4417 165.151 50.5684 164.999 50.619 164.86C50.6824 164.708 50.733 164.436 50.771 164.043C50.8217 163.638 50.847 162.776 50.847 161.459C50.847 160.142 50.8407 159.413 50.828 159.274C50.828 159.122 50.8217 158.932 50.809 158.704C50.7964 158.476 50.771 158.305 50.733 158.191C50.695 158.077 50.638 157.957 50.562 157.83C50.4354 157.589 50.22 157.469 49.916 157.469ZM66.6714 157.507C66.2914 157.178 65.8037 157.013 65.2084 157.013C63.9797 157.013 63.3654 157.507 63.3654 158.495C63.3654 158.812 63.4794 159.116 63.7074 159.407C63.948 159.686 64.2394 159.907 64.5814 160.072L66.0634 160.775C67.5074 161.472 68.2294 162.403 68.2294 163.568C68.2294 164.429 67.8874 165.113 67.2034 165.62C66.5194 166.127 65.7087 166.38 64.7714 166.38C64.2774 166.38 63.758 166.329 63.2134 166.228C62.6814 166.139 62.3014 166.044 62.0734 165.943C62.0354 165.373 61.9214 164.581 61.7314 163.568C61.8707 163.479 61.9847 163.435 62.0734 163.435C62.1747 163.435 62.2444 163.448 62.2824 163.473C62.5357 164.233 62.7574 164.721 62.9474 164.936C63.0867 165.075 63.3337 165.227 63.6884 165.392C64.043 165.557 64.461 165.639 64.9424 165.639C65.4364 165.639 65.8607 165.506 66.2154 165.24C66.57 164.974 66.7474 164.575 66.7474 164.043C66.7474 163.688 66.6777 163.422 66.5384 163.245C66.399 163.068 66.2787 162.935 66.1774 162.846C66.0887 162.745 65.981 162.656 65.8544 162.58C65.7404 162.504 65.639 162.447 65.5504 162.409C65.4744 162.358 65.392 162.314 65.3034 162.276C65.2274 162.225 65.183 162.2 65.1704 162.2L63.7454 161.516C62.5167 160.933 61.9024 160.091 61.9024 158.989C61.9024 158.09 62.2444 157.425 62.9284 156.994C63.6124 156.551 64.385 156.329 65.2464 156.329C65.6644 156.329 66.133 156.386 66.6524 156.5C67.1844 156.601 67.5834 156.709 67.8494 156.823C67.7607 157.127 67.6594 157.836 67.5454 158.951C67.482 159.002 67.3934 159.027 67.2794 159.027C67.178 159.027 67.0767 159.014 66.9754 158.989C66.874 158.356 66.7727 157.862 66.6714 157.507ZM78.6963 156.196C78.8103 156.221 78.9053 156.297 78.9813 156.424C78.8673 157.285 78.8103 158.704 78.8103 160.68L78.8293 163.397C78.8293 164.537 79.1143 165.107 79.6843 165.107L80.3683 165.088C80.4189 165.177 80.4443 165.278 80.4443 165.392L80.4253 165.601C79.8046 165.702 79.3613 165.823 79.0953 165.962L78.6013 166.19C78.5379 166.228 78.4429 166.291 78.3163 166.38C78.0376 166.279 77.8033 166.057 77.6133 165.715C77.4233 165.36 77.3156 165.006 77.2903 164.651C76.2136 165.322 74.9786 165.899 73.5853 166.38C72.7746 166.38 72.1666 166.082 71.7613 165.487C71.3686 164.879 71.1723 164.056 71.1723 163.017V159.388C71.1723 158.527 71.1343 157.982 71.0583 157.754C70.9823 157.513 70.7606 157.355 70.3933 157.279L69.7663 157.203C69.7283 157.127 69.7093 157.045 69.7093 156.956L69.7663 156.728C69.9816 156.69 70.4693 156.608 71.2293 156.481L72.5783 156.196C72.6796 156.221 72.7683 156.297 72.8443 156.424C72.7429 157.121 72.6923 158.951 72.6923 161.915C72.6923 163.992 73.2496 165.031 74.3643 165.031C74.7569 165.031 75.1496 164.961 75.5423 164.822C75.9476 164.683 76.2516 164.55 76.4543 164.423C76.6569 164.284 76.9166 164.094 77.2333 163.853C77.2713 163.017 77.2903 162.415 77.2903 162.048V159.749C77.2903 158.976 77.2523 158.438 77.1763 158.134C77.1129 157.83 77.0116 157.627 76.8723 157.526C76.7456 157.412 76.5683 157.33 76.3403 157.279L75.7133 157.203L75.6563 156.956L75.7133 156.728C75.8399 156.703 76.0679 156.671 76.3973 156.633C76.7393 156.595 77.1889 156.519 77.7463 156.405C78.3036 156.291 78.6203 156.221 78.6963 156.196ZM86.1342 166.057L84.0442 166C82.9548 166 82.0112 166.051 81.2132 166.152C81.1498 166.076 81.1182 165.968 81.1182 165.829L81.1372 165.677C81.7325 165.563 82.1252 165.392 82.3152 165.164C82.5178 164.936 82.6635 164.55 82.7522 164.005C82.8535 163.46 82.9042 161.472 82.9042 158.039V153.175C82.9042 152.022 82.7712 151.319 82.5052 151.066C82.3658 150.927 82.1885 150.844 81.9732 150.819L81.2892 150.743C81.2512 150.68 81.2322 150.604 81.2322 150.515C81.2322 150.414 81.2512 150.331 81.2892 150.268C82.1885 150.103 82.8852 149.901 83.3792 149.66C83.7085 149.495 84.0822 149.274 84.5002 148.995C84.6268 148.995 84.7282 149.058 84.8042 149.185C84.5382 150.844 84.4052 153.815 84.4052 158.096V160.319C84.4052 163.65 84.4875 165.341 84.6522 165.392C84.8802 165.443 85.3742 165.468 86.1342 165.468C86.1595 165.557 86.1722 165.658 86.1722 165.772C86.1722 165.886 86.1595 165.981 86.1342 166.057ZM90.1399 161.915C90.1399 164.018 90.5009 165.069 91.2229 165.069C91.7549 165.069 92.4452 164.892 93.2939 164.537C93.4839 164.6 93.5789 164.778 93.5789 165.069C92.6542 165.563 91.5902 166 90.3869 166.38C89.7916 166.38 89.3356 166.076 89.0189 165.468C88.7149 164.86 88.5629 164.043 88.5629 163.017V158.609C88.5629 157.862 88.5186 157.488 88.4299 157.488L87.0239 157.507C86.9352 157.482 86.8909 157.418 86.8909 157.317C86.9542 157.19 87.0112 156.962 87.0619 156.633H88.4109C88.5122 156.633 88.5629 156.411 88.5629 155.968L88.5439 154.353C89.0126 154.163 89.4939 153.77 89.9879 153.175C90.1399 153.175 90.2539 153.213 90.3299 153.289C90.2159 154.619 90.1589 155.734 90.1589 156.633C91.0836 156.633 91.9956 156.589 92.8949 156.5C92.9836 156.551 93.0279 156.627 93.0279 156.728C92.9519 156.855 92.8886 157.089 92.8379 157.431L90.1399 157.469V161.915ZM111.059 156.576L112.712 156.633C113.168 156.633 113.7 156.589 114.308 156.5C114.396 156.665 114.441 156.823 114.441 156.975C114.099 157.127 113.858 157.273 113.719 157.412C113.288 157.868 112.851 158.647 112.408 159.749L109.748 166.38H109.463L106.651 159.293L103.896 166.38H103.611L100.875 159.711C100.305 158.343 99.9184 157.564 99.7158 157.374C99.5258 157.171 99.2978 157.026 99.0318 156.937C99.0191 156.899 99.0128 156.829 99.0128 156.728C99.0128 156.627 99.0508 156.532 99.1268 156.443C100.001 156.57 100.678 156.633 101.16 156.633L102.756 156.576C102.794 156.639 102.813 156.734 102.813 156.861L102.756 157.165C102.363 157.165 102.084 157.178 101.92 157.203C102.008 157.925 102.293 158.907 102.775 160.148L104.181 163.777L106.803 156.633H107.316L110.052 163.777L111.401 160.319C111.844 159.217 112.135 158.197 112.275 157.26C112.021 157.222 111.616 157.19 111.059 157.165C111.033 157.076 111.021 156.975 111.021 156.861C111.021 156.734 111.033 156.639 111.059 156.576ZM119.474 166.057L117.764 166C116.878 166 116.042 166.051 115.256 166.152C115.18 166.051 115.142 165.943 115.142 165.829L115.18 165.677C115.725 165.55 116.092 165.354 116.282 165.088C116.422 164.885 116.529 164.645 116.605 164.366C116.681 164.075 116.719 163.251 116.719 161.896V160.072C116.719 159.287 116.681 158.742 116.605 158.438C116.542 158.134 116.441 157.931 116.301 157.83C116.162 157.729 115.978 157.665 115.75 157.64L115.047 157.583C115.009 157.532 114.99 157.45 114.99 157.336L115.047 157.089C115.706 156.95 116.238 156.81 116.643 156.671C117.061 156.519 117.549 156.304 118.106 156.025C118.246 156.025 118.341 156.101 118.391 156.253C118.239 157.114 118.163 159.166 118.163 162.409C118.163 162.992 118.182 163.638 118.22 164.347C118.271 165.044 118.334 165.398 118.41 165.411C118.6 165.449 118.955 165.468 119.474 165.468C119.512 165.557 119.531 165.658 119.531 165.772C119.531 165.886 119.512 165.981 119.474 166.057ZM117.688 153.859C117.232 153.542 116.909 153.124 116.719 152.605C116.871 152.428 117.074 152.244 117.327 152.054C117.593 151.851 117.821 151.712 118.011 151.636C118.493 151.991 118.803 152.415 118.942 152.909C118.588 153.365 118.17 153.682 117.688 153.859ZM123.947 161.915C123.947 164.018 124.308 165.069 125.03 165.069C125.562 165.069 126.252 164.892 127.101 164.537C127.291 164.6 127.386 164.778 127.386 165.069C126.461 165.563 125.397 166 124.194 166.38C123.598 166.38 123.142 166.076 122.826 165.468C122.522 164.86 122.37 164.043 122.37 163.017V158.609C122.37 157.862 122.325 157.488 122.237 157.488L120.831 157.507C120.742 157.482 120.698 157.418 120.698 157.317C120.761 157.19 120.818 156.962 120.869 156.633H122.218C122.319 156.633 122.37 156.411 122.37 155.968L122.351 154.353C122.819 154.163 123.301 153.77 123.795 153.175C123.947 153.175 124.061 153.213 124.137 153.289C124.023 154.619 123.966 155.734 123.966 156.633C124.89 156.633 125.802 156.589 126.702 156.5C126.79 156.551 126.835 156.627 126.835 156.728C126.759 156.855 126.695 157.089 126.645 157.431L123.947 157.469V161.915ZM131.971 166.057L130.375 166C129.387 166 128.494 166.051 127.696 166.152C127.633 166.076 127.601 165.968 127.601 165.829L127.62 165.677C128.14 165.563 128.488 165.392 128.665 165.164C128.855 164.923 128.995 164.537 129.083 164.005C129.185 163.46 129.235 161.472 129.235 158.039V153.175C129.235 152.022 129.102 151.319 128.836 151.066C128.697 150.927 128.52 150.844 128.304 150.819L127.62 150.743C127.582 150.68 127.563 150.604 127.563 150.515C127.563 150.414 127.582 150.331 127.62 150.268C128.52 150.103 129.216 149.901 129.71 149.66C130.04 149.495 130.413 149.274 130.831 148.995C130.958 148.995 131.059 149.058 131.135 149.185C130.882 150.768 130.755 153.739 130.755 158.096C132.364 157.209 133.65 156.62 134.612 156.329C135.436 156.329 136.056 156.633 136.474 157.241C136.892 157.849 137.101 158.666 137.101 159.692L137.063 162.124C137.063 164.29 137.158 165.392 137.348 165.43C137.538 165.455 137.912 165.468 138.469 165.468C138.52 165.557 138.545 165.639 138.545 165.715C138.545 165.791 138.52 165.905 138.469 166.057L136.721 166C135.67 166 134.834 166.051 134.213 166.152C134.137 166.051 134.099 165.943 134.099 165.829L134.137 165.677C134.657 165.563 135.005 165.392 135.182 165.164C135.36 164.936 135.461 164.664 135.486 164.347C135.524 164.03 135.543 163.391 135.543 162.428C135.543 161.465 135.537 160.87 135.524 160.642C135.524 160.401 135.505 160.097 135.467 159.73C135.442 159.35 135.385 159.065 135.296 158.875C135.22 158.672 135.119 158.463 134.992 158.248C134.739 157.855 134.289 157.659 133.643 157.659C132.997 157.659 132.282 157.919 131.496 158.438C131.382 158.501 131.237 158.596 131.059 158.723C130.882 158.837 130.781 158.9 130.755 158.913C130.743 159.546 130.736 160.218 130.736 160.927C130.736 163.853 130.812 165.341 130.964 165.392C131.129 165.443 131.465 165.468 131.971 165.468C132.009 165.557 132.028 165.658 132.028 165.772C132.028 165.886 132.009 165.981 131.971 166.057ZM148.494 161.915C148.494 164.018 148.855 165.069 149.577 165.069C150.109 165.069 150.8 164.892 151.648 164.537C151.838 164.6 151.933 164.778 151.933 165.069C151.009 165.563 149.945 166 148.741 166.38C148.146 166.38 147.69 166.076 147.373 165.468C147.069 164.86 146.917 164.043 146.917 163.017V158.609C146.917 157.862 146.873 157.488 146.784 157.488L145.378 157.507C145.29 157.482 145.245 157.418 145.245 157.317C145.309 157.19 145.366 156.962 145.416 156.633H146.765C146.867 156.633 146.917 156.411 146.917 155.968L146.898 154.353C147.367 154.163 147.848 153.77 148.342 153.175C148.494 153.175 148.608 153.213 148.684 153.289C148.57 154.619 148.513 155.734 148.513 156.633C149.438 156.633 150.35 156.589 151.249 156.5C151.338 156.551 151.382 156.627 151.382 156.728C151.306 156.855 151.243 157.089 151.192 157.431L148.494 157.469V161.915ZM156.519 166.057L154.923 166C153.935 166 153.042 166.051 152.244 166.152C152.181 166.076 152.149 165.968 152.149 165.829L152.168 165.677C152.687 165.563 153.036 165.392 153.213 165.164C153.403 164.923 153.542 164.537 153.631 164.005C153.732 163.46 153.783 161.472 153.783 158.039V153.175C153.783 152.022 153.65 151.319 153.384 151.066C153.245 150.927 153.067 150.844 152.852 150.819L152.168 150.743C152.13 150.68 152.111 150.604 152.111 150.515C152.111 150.414 152.13 150.331 152.168 150.268C153.067 150.103 153.764 149.901 154.258 149.66C154.587 149.495 154.961 149.274 155.379 148.995C155.506 148.995 155.607 149.058 155.683 149.185C155.43 150.768 155.303 153.739 155.303 158.096C156.912 157.209 158.197 156.62 159.16 156.329C159.983 156.329 160.604 156.633 161.022 157.241C161.44 157.849 161.649 158.666 161.649 159.692L161.611 162.124C161.611 164.29 161.706 165.392 161.896 165.43C162.086 165.455 162.46 165.468 163.017 165.468C163.068 165.557 163.093 165.639 163.093 165.715C163.093 165.791 163.068 165.905 163.017 166.057L161.269 166C160.218 166 159.382 166.051 158.761 166.152C158.685 166.051 158.647 165.943 158.647 165.829L158.685 165.677C159.204 165.563 159.553 165.392 159.73 165.164C159.907 164.936 160.009 164.664 160.034 164.347C160.072 164.03 160.091 163.391 160.091 162.428C160.091 161.465 160.085 160.87 160.072 160.642C160.072 160.401 160.053 160.097 160.015 159.73C159.99 159.35 159.933 159.065 159.844 158.875C159.768 158.672 159.667 158.463 159.54 158.248C159.287 157.855 158.837 157.659 158.191 157.659C157.545 157.659 156.829 157.919 156.044 158.438C155.93 158.501 155.784 158.596 155.607 158.723C155.43 158.837 155.328 158.9 155.303 158.913C155.29 159.546 155.284 160.218 155.284 160.927C155.284 163.853 155.36 165.341 155.512 165.392C155.677 165.443 156.012 165.468 156.519 165.468C156.557 165.557 156.576 165.658 156.576 165.772C156.576 165.886 156.557 165.981 156.519 166.057ZM169.363 165.012C170.402 165.012 171.32 164.733 172.118 164.176C172.295 164.239 172.397 164.372 172.422 164.575L170.37 166.019C170.066 166.26 169.388 166.38 168.337 166.38C167.286 166.38 166.393 165.911 165.658 164.974C164.923 164.024 164.556 162.827 164.556 161.383C164.556 159.939 164.955 158.799 165.753 157.963C166.551 157.127 167.501 156.582 168.603 156.329C169.566 156.329 170.414 156.652 171.149 157.298C171.592 157.678 171.903 158.172 172.08 158.78C172.118 158.932 172.295 159.014 172.612 159.027C172.688 159.116 172.726 159.211 172.726 159.312C172.726 159.401 172.713 159.496 172.688 159.597C170.459 160.116 168.267 160.477 166.114 160.68C166.114 162.301 166.564 163.517 167.463 164.328C167.97 164.784 168.603 165.012 169.363 165.012ZM170.56 159.217C170.623 159.179 170.655 159.135 170.655 159.084C170.655 159.021 170.573 158.843 170.408 158.552C170.256 158.248 169.984 157.931 169.591 157.602C169.198 157.26 168.787 157.089 168.356 157.089C167.925 157.089 167.609 157.152 167.406 157.279C166.697 157.76 166.291 158.634 166.19 159.901C166.874 159.901 167.653 159.831 168.527 159.692C169.401 159.54 170.079 159.382 170.56 159.217ZM180.597 157.469L179.856 157.488C179.805 157.425 179.78 157.342 179.78 157.241C179.78 157.14 179.792 157.051 179.818 156.975C180.679 156.861 181.382 156.684 181.927 156.443C182.104 156.367 182.212 156.329 182.25 156.329C182.364 156.329 182.503 156.506 182.668 156.861C182.832 157.216 182.972 157.608 183.086 158.039C184.365 157.317 185.613 156.747 186.829 156.329C187.601 156.329 188.197 156.639 188.615 157.26C189.033 157.868 189.242 158.679 189.242 159.692L189.204 162.2C189.204 164.315 189.299 165.392 189.489 165.43C189.679 165.455 190.033 165.468 190.553 165.468C190.603 165.557 190.629 165.652 190.629 165.753C190.629 165.854 190.603 165.956 190.553 166.057L188.805 166C187.753 166 186.917 166.051 186.297 166.152C186.233 166.076 186.202 165.968 186.202 165.829L186.221 165.677C186.588 165.588 186.873 165.468 187.076 165.316C187.278 165.151 187.405 164.999 187.456 164.86C187.519 164.708 187.57 164.486 187.608 164.195C187.646 163.891 187.665 163.308 187.665 162.447V160.87C187.665 159.983 187.563 159.236 187.361 158.628C187.272 158.387 187.171 158.21 187.057 158.096C186.778 157.792 186.442 157.64 186.05 157.64C185.657 157.64 185.264 157.716 184.872 157.868C184.479 158.02 184.181 158.159 183.979 158.286C183.776 158.413 183.491 158.603 183.124 158.856C183.073 159.857 183.048 161.199 183.048 162.884C183.048 164.556 183.13 165.405 183.295 165.43C183.472 165.455 183.795 165.468 184.264 165.468C184.314 165.557 184.34 165.652 184.34 165.753C184.34 165.854 184.314 165.956 184.264 166.057L182.649 166C181.686 166 180.85 166.051 180.141 166.152C180.077 166.076 180.046 165.968 180.046 165.829L180.065 165.677C180.432 165.588 180.717 165.468 180.92 165.316C181.122 165.151 181.249 164.999 181.3 164.86C181.363 164.708 181.414 164.436 181.452 164.043C181.502 163.638 181.528 162.776 181.528 161.459C181.528 160.142 181.521 159.413 181.509 159.274C181.509 159.122 181.502 158.932 181.49 158.704C181.477 158.476 181.452 158.305 181.414 158.191C181.376 158.077 181.319 157.957 181.243 157.83C181.116 157.589 180.901 157.469 180.597 157.469ZM200.582 156.196C200.696 156.221 200.791 156.297 200.867 156.424C200.753 157.285 200.696 158.704 200.696 160.68L200.715 163.397C200.715 164.537 201 165.107 201.57 165.107L202.254 165.088C202.305 165.177 202.33 165.278 202.33 165.392L202.311 165.601C201.69 165.702 201.247 165.823 200.981 165.962L200.487 166.19C200.424 166.228 200.329 166.291 200.202 166.38C199.923 166.279 199.689 166.057 199.499 165.715C199.309 165.36 199.201 165.006 199.176 164.651C198.099 165.322 196.864 165.899 195.471 166.38C194.66 166.38 194.052 166.082 193.647 165.487C193.254 164.879 193.058 164.056 193.058 163.017V159.388C193.058 158.527 193.02 157.982 192.944 157.754C192.868 157.513 192.646 157.355 192.279 157.279L191.652 157.203C191.614 157.127 191.595 157.045 191.595 156.956L191.652 156.728C191.867 156.69 192.355 156.608 193.115 156.481L194.464 156.196C194.565 156.221 194.654 156.297 194.73 156.424C194.629 157.121 194.578 158.951 194.578 161.915C194.578 163.992 195.135 165.031 196.25 165.031C196.643 165.031 197.035 164.961 197.428 164.822C197.833 164.683 198.137 164.55 198.34 164.423C198.543 164.284 198.802 164.094 199.119 163.853C199.157 163.017 199.176 162.415 199.176 162.048V159.749C199.176 158.976 199.138 158.438 199.062 158.134C198.999 157.83 198.897 157.627 198.758 157.526C198.631 157.412 198.454 157.33 198.226 157.279L197.599 157.203L197.542 156.956L197.599 156.728C197.726 156.703 197.954 156.671 198.283 156.633C198.625 156.595 199.075 156.519 199.632 156.405C200.189 156.291 200.506 156.221 200.582 156.196ZM206.348 161.915C206.348 164.018 206.709 165.069 207.431 165.069C207.963 165.069 208.653 164.892 209.502 164.537C209.692 164.6 209.787 164.778 209.787 165.069C208.862 165.563 207.798 166 206.595 166.38C206 166.38 205.544 166.076 205.227 165.468C204.923 164.86 204.771 164.043 204.771 163.017V158.609C204.771 157.862 204.727 157.488 204.638 157.488L203.232 157.507C203.143 157.482 203.099 157.418 203.099 157.317C203.162 157.19 203.219 156.962 203.27 156.633H204.619C204.72 156.633 204.771 156.411 204.771 155.968L204.752 154.353C205.221 154.163 205.702 153.77 206.196 153.175C206.348 153.175 206.462 153.213 206.538 153.289C206.424 154.619 206.367 155.734 206.367 156.633C207.292 156.633 208.204 156.589 209.103 156.5C209.192 156.551 209.236 156.627 209.236 156.728C209.16 156.855 209.097 157.089 209.046 157.431L206.348 157.469V161.915ZM210.915 157.469L210.174 157.488C210.11 157.425 210.079 157.33 210.079 157.203L210.117 156.975C210.978 156.861 211.681 156.684 212.226 156.443C212.403 156.367 212.511 156.329 212.549 156.329C212.688 156.329 212.846 156.582 213.024 157.089C213.201 157.583 213.309 158.077 213.347 158.571C214.297 157.583 215.158 156.836 215.931 156.329C216.437 156.329 216.855 156.481 217.185 156.785C217.514 157.076 217.679 157.444 217.679 157.887C217.679 158.394 217.229 158.647 216.33 158.647C216.14 157.976 215.817 157.64 215.361 157.64C215.057 157.64 214.423 158.166 213.461 159.217C213.385 160.18 213.347 161.712 213.347 163.815C213.347 164.866 213.429 165.398 213.594 165.411C213.885 165.449 214.398 165.468 215.133 165.468C215.171 165.557 215.19 165.658 215.19 165.772C215.19 165.886 215.171 165.981 215.133 166.057L213.005 166C211.966 166 211.048 166.051 210.25 166.152C210.186 166.076 210.155 165.968 210.155 165.829L210.174 165.677C210.845 165.55 211.276 165.354 211.466 165.088C211.605 164.885 211.706 164.562 211.77 164.119C211.833 163.663 211.865 162.776 211.865 161.459C211.865 160.142 211.858 159.413 211.846 159.274C211.846 159.135 211.839 158.951 211.827 158.723C211.814 158.495 211.789 158.324 211.751 158.21C211.713 158.096 211.656 157.969 211.58 157.83C211.453 157.589 211.231 157.469 210.915 157.469ZM222.787 166.057L221.077 166C220.19 166 219.354 166.051 218.569 166.152C218.493 166.051 218.455 165.943 218.455 165.829L218.493 165.677C219.037 165.55 219.405 165.354 219.595 165.088C219.734 164.885 219.842 164.645 219.918 164.366C219.994 164.075 220.032 163.251 220.032 161.896V160.072C220.032 159.287 219.994 158.742 219.918 158.438C219.854 158.134 219.753 157.931 219.614 157.83C219.474 157.729 219.291 157.665 219.063 157.64L218.36 157.583C218.322 157.532 218.303 157.45 218.303 157.336L218.36 157.089C219.018 156.95 219.55 156.81 219.956 156.671C220.374 156.519 220.861 156.304 221.419 156.025C221.558 156.025 221.653 156.101 221.704 156.253C221.552 157.114 221.476 159.166 221.476 162.409C221.476 162.992 221.495 163.638 221.533 164.347C221.583 165.044 221.647 165.398 221.723 165.411C221.913 165.449 222.267 165.468 222.787 165.468C222.825 165.557 222.844 165.658 222.844 165.772C222.844 165.886 222.825 165.981 222.787 166.057ZM221.001 153.859C220.545 153.542 220.222 153.124 220.032 152.605C220.184 152.428 220.386 152.244 220.64 152.054C220.906 151.851 221.134 151.712 221.324 151.636C221.805 151.991 222.115 152.415 222.255 152.909C221.9 153.365 221.482 153.682 221.001 153.859ZM227.259 161.915C227.259 164.018 227.62 165.069 228.342 165.069C228.874 165.069 229.564 164.892 230.413 164.537C230.603 164.6 230.698 164.778 230.698 165.069C229.773 165.563 228.709 166 227.506 166.38C226.911 166.38 226.455 166.076 226.138 165.468C225.834 164.86 225.682 164.043 225.682 163.017V158.609C225.682 157.862 225.638 157.488 225.549 157.488L224.143 157.507C224.054 157.482 224.01 157.418 224.01 157.317C224.073 157.19 224.13 156.962 224.181 156.633H225.53C225.631 156.633 225.682 156.411 225.682 155.968L225.663 154.353C226.132 154.163 226.613 153.77 227.107 153.175C227.259 153.175 227.373 153.213 227.449 153.289C227.335 154.619 227.278 155.734 227.278 156.633C228.203 156.633 229.115 156.589 230.014 156.5C230.103 156.551 230.147 156.627 230.147 156.728C230.071 156.855 230.008 157.089 229.957 157.431L227.259 157.469V161.915ZM235.664 166.057L233.954 166C233.067 166 232.231 166.051 231.446 166.152C231.37 166.051 231.332 165.943 231.332 165.829L231.37 165.677C231.914 165.55 232.282 165.354 232.472 165.088C232.611 164.885 232.719 164.645 232.795 164.366C232.871 164.075 232.909 163.251 232.909 161.896V160.072C232.909 159.287 232.871 158.742 232.795 158.438C232.731 158.134 232.63 157.931 232.491 157.83C232.351 157.729 232.168 157.665 231.94 157.64L231.237 157.583C231.199 157.532 231.18 157.45 231.18 157.336L231.237 157.089C231.895 156.95 232.427 156.81 232.833 156.671C233.251 156.519 233.738 156.304 234.296 156.025C234.435 156.025 234.53 156.101 234.581 156.253C234.429 157.114 234.353 159.166 234.353 162.409C234.353 162.992 234.372 163.638 234.41 164.347C234.46 165.044 234.524 165.398 234.6 165.411C234.79 165.449 235.144 165.468 235.664 165.468C235.702 165.557 235.721 165.658 235.721 165.772C235.721 165.886 235.702 165.981 235.664 166.057ZM233.878 153.859C233.422 153.542 233.099 153.124 232.909 152.605C233.061 152.428 233.263 152.244 233.517 152.054C233.783 151.851 234.011 151.712 234.201 151.636C234.682 151.991 234.992 152.415 235.132 152.909C234.777 153.365 234.359 153.682 233.878 153.859ZM247.014 161.364C247.014 164.176 245.38 165.848 242.112 166.38C240.769 166.38 239.636 165.905 238.711 164.955C237.799 163.992 237.343 162.795 237.343 161.364C237.343 158.527 238.983 156.848 242.264 156.329C243.594 156.329 244.715 156.817 245.627 157.792C246.552 158.767 247.014 159.958 247.014 161.364ZM242.53 165.563C244.354 165.563 245.266 164.398 245.266 162.067C245.266 160.75 244.962 159.597 244.354 158.609C243.746 157.621 242.942 157.127 241.941 157.127C240.94 157.127 240.212 157.45 239.756 158.096C239.313 158.729 239.091 159.641 239.091 160.832C239.091 162.01 239.401 163.093 240.022 164.081C240.643 165.069 241.479 165.563 242.53 165.563ZM249.063 157.469L248.322 157.488C248.272 157.425 248.246 157.342 248.246 157.241C248.246 157.14 248.259 157.051 248.284 156.975C249.146 156.861 249.849 156.684 250.393 156.443C250.571 156.367 250.678 156.329 250.716 156.329C250.83 156.329 250.97 156.506 251.134 156.861C251.299 157.216 251.438 157.608 251.552 158.039C252.832 157.317 254.079 156.747 255.295 156.329C256.068 156.329 256.663 156.639 257.081 157.26C257.499 157.868 257.708 158.679 257.708 159.692L257.67 162.2C257.67 164.315 257.765 165.392 257.955 165.43C258.145 165.455 258.5 165.468 259.019 165.468C259.07 165.557 259.095 165.652 259.095 165.753C259.095 165.854 259.07 165.956 259.019 166.057L257.271 166C256.22 166 255.384 166.051 254.763 166.152C254.7 166.076 254.668 165.968 254.668 165.829L254.687 165.677C255.055 165.588 255.34 165.468 255.542 165.316C255.745 165.151 255.872 164.999 255.922 164.86C255.986 164.708 256.036 164.486 256.074 164.195C256.112 163.891 256.131 163.308 256.131 162.447V160.87C256.131 159.983 256.03 159.236 255.827 158.628C255.739 158.387 255.637 158.21 255.523 158.096C255.245 157.792 254.909 157.64 254.516 157.64C254.124 157.64 253.731 157.716 253.338 157.868C252.946 158.02 252.648 158.159 252.445 158.286C252.243 158.413 251.958 158.603 251.59 158.856C251.54 159.857 251.514 161.199 251.514 162.884C251.514 164.556 251.597 165.405 251.761 165.43C251.939 165.455 252.262 165.468 252.73 165.468C252.781 165.557 252.806 165.652 252.806 165.753C252.806 165.854 252.781 165.956 252.73 166.057L251.115 166C250.153 166 249.317 166.051 248.607 166.152C248.544 166.076 248.512 165.968 248.512 165.829L248.531 165.677C248.899 165.588 249.184 165.468 249.386 165.316C249.589 165.151 249.716 164.999 249.766 164.86C249.83 164.708 249.88 164.436 249.918 164.043C249.969 163.638 249.994 162.776 249.994 161.459C249.994 160.142 249.988 159.413 249.975 159.274C249.975 159.122 249.969 158.932 249.956 158.704C249.944 158.476 249.918 158.305 249.88 158.191C249.842 158.077 249.785 157.957 249.709 157.83C249.583 157.589 249.367 157.469 249.063 157.469ZM264.869 166.057L263.159 166C262.272 166 261.436 166.051 260.651 166.152C260.575 166.051 260.537 165.943 260.537 165.829L260.575 165.677C261.119 165.55 261.487 165.354 261.677 165.088C261.816 164.885 261.924 164.645 262 164.366C262.076 164.075 262.114 163.251 262.114 161.896V160.072C262.114 159.287 262.076 158.742 262 158.438C261.936 158.134 261.835 157.931 261.696 157.83C261.556 157.729 261.373 157.665 261.145 157.64L260.442 157.583C260.404 157.532 260.385 157.45 260.385 157.336L260.442 157.089C261.1 156.95 261.632 156.81 262.038 156.671C262.456 156.519 262.943 156.304 263.501 156.025C263.64 156.025 263.735 156.101 263.786 156.253C263.634 157.114 263.558 159.166 263.558 162.409C263.558 162.992 263.577 163.638 263.615 164.347C263.665 165.044 263.729 165.398 263.805 165.411C263.995 165.449 264.349 165.468 264.869 165.468C264.907 165.557 264.926 165.658 264.926 165.772C264.926 165.886 264.907 165.981 264.869 166.057ZM263.083 153.859C262.627 153.542 262.304 153.124 262.114 152.605C262.266 152.428 262.468 152.244 262.722 152.054C262.988 151.851 263.216 151.712 263.406 151.636C263.887 151.991 264.197 152.415 264.337 152.909C263.982 153.365 263.564 153.682 263.083 153.859ZM271.849 157.507C271.469 157.178 270.981 157.013 270.386 157.013C269.157 157.013 268.543 157.507 268.543 158.495C268.543 158.812 268.657 159.116 268.885 159.407C269.126 159.686 269.417 159.907 269.759 160.072L271.241 160.775C272.685 161.472 273.407 162.403 273.407 163.568C273.407 164.429 273.065 165.113 272.381 165.62C271.697 166.127 270.886 166.38 269.949 166.38C269.455 166.38 268.936 166.329 268.391 166.228C267.859 166.139 267.479 166.044 267.251 165.943C267.213 165.373 267.099 164.581 266.909 163.568C267.048 163.479 267.162 163.435 267.251 163.435C267.352 163.435 267.422 163.448 267.46 163.473C267.713 164.233 267.935 164.721 268.125 164.936C268.264 165.075 268.511 165.227 268.866 165.392C269.221 165.557 269.639 165.639 270.12 165.639C270.614 165.639 271.038 165.506 271.393 165.24C271.748 164.974 271.925 164.575 271.925 164.043C271.925 163.688 271.855 163.422 271.716 163.245C271.577 163.068 271.456 162.935 271.355 162.846C271.266 162.745 271.159 162.656 271.032 162.58C270.918 162.504 270.817 162.447 270.728 162.409C270.652 162.358 270.57 162.314 270.481 162.276C270.405 162.225 270.361 162.2 270.348 162.2L268.923 161.516C267.694 160.933 267.08 160.091 267.08 158.989C267.08 158.09 267.422 157.425 268.106 156.994C268.79 156.551 269.563 156.329 270.424 156.329C270.842 156.329 271.311 156.386 271.83 156.5C272.362 156.601 272.761 156.709 273.027 156.823C272.938 157.127 272.837 157.836 272.723 158.951C272.66 159.002 272.571 159.027 272.457 159.027C272.356 159.027 272.254 159.014 272.153 158.989C272.052 158.356 271.95 157.862 271.849 157.507ZM278.136 161.915C278.136 164.018 278.497 165.069 279.219 165.069C279.751 165.069 280.441 164.892 281.29 164.537C281.48 164.6 281.575 164.778 281.575 165.069C280.65 165.563 279.586 166 278.383 166.38C277.788 166.38 277.332 166.076 277.015 165.468C276.711 164.86 276.559 164.043 276.559 163.017V158.609C276.559 157.862 276.515 157.488 276.426 157.488L275.02 157.507C274.931 157.482 274.887 157.418 274.887 157.317C274.95 157.19 275.007 156.962 275.058 156.633H276.407C276.508 156.633 276.559 156.411 276.559 155.968L276.54 154.353C277.009 154.163 277.49 153.77 277.984 153.175C278.136 153.175 278.25 153.213 278.326 153.289C278.212 154.619 278.155 155.734 278.155 156.633C279.08 156.633 279.992 156.589 280.891 156.5C280.98 156.551 281.024 156.627 281.024 156.728C280.948 156.855 280.885 157.089 280.834 157.431L278.136 157.469V161.915Z" fill="black"/>
</g>
<defs>
<filter id="filter0_d" x="0" y="145" width="290" height="38" filterUnits="userSpaceOnUse" color-interpolation-filters="sRGB">
<feFlood flood-opacity="0" result="BackgroundImageFix"/>
<feColorMatrix in="SourceAlpha" type="matrix" values="0 0 0 0 0 0 0 0 0 0 0 0 0 0 0 0 0 0 127 0" result="hardAlpha"/>
<feOffset dy="4"/>
<feGaussianBlur stdDeviation="2"/>
<feColorMatrix type="matrix" values="0 0 0 0 0 0 0 0 0 0 0 0 0 0 0 0 0 0 0.25 0"/>
<feBlend mode="normal" in2="BackgroundImageFix" result="effect1_dropShadow"/>
<feBlend mode="normal" in="SourceGraphic" in2="effect1_dropShadow" result="shape"/>
</filter>
<filter id="filter1_i" x="67" y="0" width="150" height="146" filterUnits="userSpaceOnUse" color-interpolation-filters="sRGB">
<feFlood flood-opacity="0" result="BackgroundImageFix"/>
<feBlend mode="normal" in="SourceGraphic" in2="BackgroundImageFix" result="shape"/>
<feColorMatrix in="SourceAlpha" type="matrix" values="0 0 0 0 0 0 0 0 0 0 0 0 0 0 0 0 0 0 127 0" result="hardAlpha"/>
<feOffset dy="4"/>
<feGaussianBlur stdDeviation="2"/>
<feComposite in2="hardAlpha" operator="arithmetic" k2="-1" k3="1"/>
<feColorMatrix type="matrix" values="0 0 0 0 0 0 0 0 0 0 0 0 0 0 0 0 0 0 0.25 0"/>
<feBlend mode="normal" in2="shape" result="effect1_innerShadow"/>
</filter>
<clipPath id="clip0">
<rect width="282" height="183" fill="white"/>
</clipPath>
</defs>
</svg>
