<svg width="213" height="178" viewBox="0 0 213 178" fill="none" xmlns="http://www.w3.org/2000/svg">
<g filter="url(#filter0_d)">
<path d="M186 140H4V170H186V140Z" fill="#F4F4F4"/>
</g>
<g filter="url(#filter1_i)">
<path d="M138 142C179.421 142 213 110.212 213 71C213 31.7878 179.421 0 138 0C96.5786 0 63 31.7878 63 71C63 110.212 96.5786 142 138 142Z" fill="#F4F4F4"/>
</g>
<path d="M139.74 20.4499C131.44 19.9099 124.33 24.5499 119.61 31.0899C116.09 35.9699 114.47 41.7399 112.46 47.3199C110.59 52.4999 107.4 57.3199 106.54 62.8299C105.74 68.0099 107.34 73.2099 107.38 78.3899C107.41 82.7599 105.41 86.6599 103.92 90.6899C103.59 91.5899 102.47 96.5399 101.3 96.5099C101.3 96.5099 175.58 98.9699 175.74 98.9699C173.31 98.9199 170.5 88.8999 169.87 86.9399C167.76 80.4999 169.34 73.5699 167.41 67.1199C166.14 62.8599 163.74 59.0399 163.18 54.5699C162.55 49.5099 163.73 44.3399 161.89 39.4399C159.77 33.7799 156.94 28.2399 151.93 24.5899C148.72 22.2399 144.85 21.0099 140.92 20.5499C140.52 20.5099 140.13 20.4699 139.74 20.4499Z" fill="#332019"/>
<path d="M93 108.86C93 108.86 94.41 85.7398 124.78 84.4798C124.78 84.4798 135.79 98.4699 151.83 84.4798C151.83 84.4798 174.64 83.0098 182.31 109.68C182.32 109.68 140.63 149.65 93 108.86Z" fill="#69A2AD"/>
<path d="M131.86 63.8799C131.86 63.8799 131.97 75.4199 124.01 85.5199C124.01 85.5199 137.33 98.5699 151.83 84.4899C151.83 84.4899 142.06 77.7999 144.9 63.8699C147.74 49.9399 131.86 63.8799 131.86 63.8799Z" fill="#EAB788"/>
<path d="M137.94 73.8299C146.699 73.8299 153.8 65.0547 153.8 54.2299C153.8 43.4052 146.699 34.6299 137.94 34.6299C129.181 34.6299 122.08 43.4052 122.08 54.2299C122.08 65.0547 129.181 73.8299 137.94 73.8299Z" fill="#D6A074"/>
<path d="M137.94 72.4899C146.699 72.4899 153.8 63.7147 153.8 52.8899C153.8 42.0651 146.699 33.2899 137.94 33.2899C129.181 33.2899 122.08 42.0651 122.08 52.8899C122.08 63.7147 129.181 72.4899 137.94 72.4899Z" fill="#EAB788"/>
<path d="M141.41 44.4999C141.68 44.2799 142.07 44.1699 142.42 44.0499C144.65 43.2899 147.42 42.4999 149.61 43.7999C150.12 44.0999 150.53 44.5199 150.96 44.9199L149.96 44.5999C147.73 43.8899 145.52 44.7599 143.36 45.2599C142.65 45.4299 141.94 45.5299 141.24 45.7599C141.22 45.7699 141.21 45.7699 141.19 45.7599C141.17 45.7499 141.16 45.7399 141.16 45.7199C140.97 45.3099 141.04 44.7899 141.41 44.4999Z" fill="#332019"/>
<path d="M134.47 44.4999C134.2 44.2799 133.81 44.1699 133.46 44.0499C131.23 43.2899 128.46 42.4999 126.27 43.7999C125.76 44.0999 125.35 44.5199 124.92 44.9199L125.92 44.5999C128.15 43.8899 130.36 44.7599 132.52 45.2599C133.23 45.4299 133.94 45.5299 134.64 45.7599C134.66 45.7699 134.67 45.7699 134.69 45.7599C134.71 45.7499 134.72 45.7399 134.72 45.7199C134.91 45.3099 134.84 44.7899 134.47 44.4999Z" fill="#332019"/>
<path d="M138.75 49.0599C138.75 49.0599 138.59 49.7899 138.56 50.8699C138.52 52.5599 139.26 54.1099 140.3 55.4499C140.87 56.1899 140.78 57.1899 139.19 58.0799" stroke="#D6A074" stroke-width="0.75" stroke-miterlimit="10"/>
<path d="M131.8 61.3099C131.8 61.3099 137.14 63.8699 144.08 61.3099C144.08 61.3099 138.24 72.8099 131.8 61.3099Z" fill="#F9F9F9"/>
<path d="M149.24 49.0599C148.47 50.2399 147.13 51.1099 145.66 51.2599C144.93 51.3199 144.18 51.2699 143.51 50.9999C143.16 50.8999 142.85 50.6999 142.53 50.5499C142.23 50.3599 141.94 50.1499 141.67 49.9299C142.32 50.1999 142.95 50.4899 143.62 50.6299C144.28 50.7999 144.95 50.8299 145.61 50.7699C146.94 50.6299 148.17 49.9699 149.24 49.0599Z" fill="black"/>
<path d="M126.64 49.0599C127.7 49.9699 128.94 50.6399 130.27 50.7599C130.93 50.8199 131.6 50.7999 132.26 50.6199C132.93 50.4799 133.55 50.1899 134.21 49.9199C133.93 50.1399 133.65 50.3499 133.35 50.5399C133.03 50.6899 132.72 50.8899 132.37 50.9899C131.7 51.2699 130.94 51.3099 130.22 51.2499C128.75 51.0999 127.41 50.2299 126.64 49.0599Z" fill="black"/>
<path d="M127.07 32.4199L120.79 16.1399C120.79 16.1399 133.39 5.2299 156.92 15.1999C156.92 15.1999 149.95 32.4499 149.88 32.6299C150.03 32.2599 143.39 30.4999 142.77 30.3999C138.52 29.6799 133.68 29.8699 129.59 31.3299C128.74 31.6399 127.91 32.0599 127.07 32.4199Z" fill="#69A2AD"/>
<path d="M140.21 15.3699H137.51V28.2699H140.21V15.3699Z" fill="#FEF6F1"/>
<path d="M145.306 23.1697V20.4697H132.406V23.1697H145.306Z" fill="#FEF6F1"/>
<path d="M19 161C22.3137 161 25 158.314 25 155C25 151.686 22.3137 149 19 149C15.6863 149 13 151.686 13 155C13 158.314 15.6863 161 19 161Z" fill="black"/>
<path d="M17.827 151.815C17.575 151.815 17.233 151.893 16.801 152.049C16.741 152.421 16.702 152.727 16.684 152.967C16.636 152.991 16.585 153.003 16.531 153.003L16.423 152.976C16.387 152.544 16.342 152.238 16.288 152.058L16.252 151.959C16.252 151.899 16.297 151.851 16.387 151.815C16.627 151.689 17.182 151.512 18.052 151.284C19.102 151.284 19.627 151.641 19.627 152.355C19.627 152.529 19.57 152.709 19.456 152.895C19.342 153.075 19.087 153.357 18.691 153.741L18.349 154.065C19.207 154.617 19.636 155.247 19.636 155.955C19.636 156.573 19.375 157.086 18.853 157.494C18.331 157.902 17.524 158.301 16.432 158.691C16.384 158.643 16.36 158.565 16.36 158.457C17.2 158.079 17.824 157.719 18.232 157.377C18.64 157.041 18.844 156.666 18.844 156.252C18.844 155.844 18.715 155.502 18.457 155.226C18.205 154.95 17.854 154.683 17.404 154.425L18.133 153.759C18.607 153.333 18.844 152.94 18.844 152.58C18.844 152.07 18.505 151.815 17.827 151.815Z" fill="white"/>
<path d="M41.48 157.16C40.5627 157.16 39.8373 156.875 39.304 156.304C38.776 155.728 38.512 155.005 38.512 154.136C38.512 153.261 38.8 152.539 39.376 151.968C39.952 151.397 40.688 151.112 41.584 151.112C42.2933 151.112 42.9227 151.2 43.472 151.376C43.4987 151.392 43.512 151.413 43.512 151.44C43.512 151.461 43.504 151.544 43.488 151.688C43.4187 152.184 43.3813 152.547 43.376 152.776C43.296 152.792 43.24 152.8 43.208 152.8C43.176 152.8 43.128 152.789 43.064 152.768C43.016 152.4 42.968 152.125 42.92 151.944C42.7813 151.795 42.5867 151.667 42.336 151.56C42.0853 151.453 41.8 151.4 41.48 151.4C40.872 151.4 40.368 151.613 39.968 152.04C39.5733 152.467 39.376 153.051 39.376 153.792C39.376 154.315 39.4613 154.805 39.632 155.264C39.808 155.723 40.0667 156.101 40.408 156.4C40.7547 156.693 41.1653 156.84 41.64 156.84C42.1147 156.84 42.536 156.712 42.904 156.456C43.0053 156.285 43.1307 156 43.28 155.6C43.408 155.6 43.5067 155.627 43.576 155.68C43.5013 156.064 43.4453 156.451 43.408 156.84C43.4027 156.899 43.368 156.933 43.304 156.944C42.792 157.088 42.184 157.16 41.48 157.16ZM48.4701 155.048C48.4701 156.232 47.7821 156.936 46.4061 157.16C45.8408 157.16 45.3635 156.96 44.9741 156.56C44.5901 156.155 44.3981 155.651 44.3981 155.048C44.3981 153.853 45.0888 153.147 46.4701 152.928C47.0301 152.928 47.5021 153.133 47.8861 153.544C48.2755 153.955 48.4701 154.456 48.4701 155.048ZM46.5821 156.816C47.3501 156.816 47.7341 156.325 47.7341 155.344C47.7341 154.789 47.6061 154.304 47.3501 153.888C47.0941 153.472 46.7555 153.264 46.3341 153.264C45.9128 153.264 45.6061 153.4 45.4141 153.672C45.2275 153.939 45.1341 154.323 45.1341 154.824C45.1341 155.32 45.2648 155.776 45.5261 156.192C45.7875 156.608 46.1395 156.816 46.5821 156.816ZM49.3331 153.408L49.0211 153.416C48.9997 153.389 48.9891 153.355 48.9891 153.312C48.9891 153.269 48.9944 153.232 49.0051 153.2C49.3677 153.152 49.6637 153.077 49.8931 152.976C49.9677 152.944 50.0131 152.928 50.0291 152.928C50.0771 152.928 50.1357 153.003 50.2051 153.152C50.2744 153.301 50.3331 153.467 50.3811 153.648C50.9197 153.344 51.4451 153.104 51.9571 152.928C52.2824 152.928 52.5331 153.059 52.7091 153.32C52.8851 153.576 52.9731 153.917 52.9731 154.344L52.9571 155.4C52.9571 156.291 52.9971 156.744 53.0771 156.76C53.1571 156.771 53.3064 156.776 53.5251 156.776C53.5464 156.813 53.5571 156.853 53.5571 156.896C53.5571 156.939 53.5464 156.981 53.5251 157.024L52.7891 157C52.3464 157 51.9944 157.021 51.7331 157.064C51.7064 157.032 51.6931 156.987 51.6931 156.928L51.7011 156.864C51.8557 156.827 51.9757 156.776 52.0611 156.712C52.1464 156.643 52.1997 156.579 52.2211 156.52C52.2477 156.456 52.2691 156.363 52.2851 156.24C52.3011 156.112 52.3091 155.867 52.3091 155.504V154.84C52.3091 154.467 52.2664 154.152 52.1811 153.896C52.1437 153.795 52.1011 153.72 52.0531 153.672C51.9357 153.544 51.7944 153.48 51.6291 153.48C51.4637 153.48 51.2984 153.512 51.1331 153.576C50.9677 153.64 50.8424 153.699 50.7571 153.752C50.6717 153.805 50.5517 153.885 50.3971 153.992C50.3757 154.413 50.3651 154.979 50.3651 155.688C50.3651 156.392 50.3997 156.749 50.4691 156.76C50.5437 156.771 50.6797 156.776 50.8771 156.776C50.8984 156.813 50.9091 156.853 50.9091 156.896C50.9091 156.939 50.8984 156.981 50.8771 157.024L50.1971 157C49.7917 157 49.4397 157.021 49.1411 157.064C49.1144 157.032 49.1011 156.987 49.1011 156.928L49.1091 156.864C49.2637 156.827 49.3837 156.776 49.4691 156.712C49.5544 156.643 49.6077 156.579 49.6291 156.52C49.6557 156.456 49.6771 156.341 49.6931 156.176C49.7144 156.005 49.7251 155.643 49.7251 155.088C49.7251 154.533 49.7224 154.227 49.7171 154.168C49.7171 154.104 49.7144 154.024 49.7091 153.928C49.7037 153.832 49.6931 153.76 49.6771 153.712C49.6611 153.664 49.6371 153.613 49.6051 153.56C49.5517 153.459 49.4611 153.408 49.3331 153.408ZM56.3879 153.424C56.2279 153.285 56.0226 153.216 55.7719 153.216C55.2546 153.216 54.9959 153.424 54.9959 153.84C54.9959 153.973 55.0439 154.101 55.1399 154.224C55.2413 154.341 55.3639 154.435 55.5079 154.504L56.1319 154.8C56.7399 155.093 57.0439 155.485 57.0439 155.976C57.0439 156.339 56.8999 156.627 56.6119 156.84C56.3239 157.053 55.9826 157.16 55.5879 157.16C55.3799 157.16 55.1613 157.139 54.9319 157.096C54.7079 157.059 54.5479 157.019 54.4519 156.976C54.4359 156.736 54.3879 156.403 54.3079 155.976C54.3666 155.939 54.4146 155.92 54.4519 155.92C54.4946 155.92 54.5239 155.925 54.5399 155.936C54.6466 156.256 54.7399 156.461 54.8199 156.552C54.8786 156.611 54.9826 156.675 55.1319 156.744C55.2813 156.813 55.4573 156.848 55.6599 156.848C55.8679 156.848 56.0466 156.792 56.1959 156.68C56.3453 156.568 56.4199 156.4 56.4199 156.176C56.4199 156.027 56.3906 155.915 56.3319 155.84C56.2733 155.765 56.2226 155.709 56.1799 155.672C56.1426 155.629 56.0973 155.592 56.0439 155.56C55.9959 155.528 55.9533 155.504 55.9159 155.488C55.8839 155.467 55.8493 155.448 55.8119 155.432C55.7799 155.411 55.7613 155.4 55.7559 155.4L55.1559 155.112C54.6386 154.867 54.3799 154.512 54.3799 154.048C54.3799 153.669 54.5239 153.389 54.8119 153.208C55.0999 153.021 55.4253 152.928 55.7879 152.928C55.9639 152.928 56.1613 152.952 56.3799 153C56.6039 153.043 56.7719 153.088 56.8839 153.136C56.8466 153.264 56.8039 153.563 56.7559 154.032C56.7293 154.053 56.6919 154.064 56.6439 154.064C56.6013 154.064 56.5586 154.059 56.5159 154.048C56.4733 153.781 56.4306 153.573 56.3879 153.424ZM61.4511 152.872C61.4991 152.883 61.5391 152.915 61.5711 152.968C61.5231 153.331 61.4991 153.928 61.4991 154.76L61.5071 155.904C61.5071 156.384 61.6271 156.624 61.8671 156.624L62.1551 156.616C62.1764 156.653 62.1871 156.696 62.1871 156.744L62.1791 156.832C61.9177 156.875 61.7311 156.925 61.6191 156.984L61.4111 157.08C61.3844 157.096 61.3444 157.123 61.2911 157.16C61.1737 157.117 61.0751 157.024 60.9951 156.88C60.9151 156.731 60.8697 156.581 60.8591 156.432C60.4057 156.715 59.8857 156.957 59.2991 157.16C58.9577 157.16 58.7017 157.035 58.5311 156.784C58.3657 156.528 58.2831 156.181 58.2831 155.744V154.216C58.2831 153.853 58.2671 153.624 58.2351 153.528C58.2031 153.427 58.1097 153.36 57.9551 153.328L57.6911 153.296C57.6751 153.264 57.6671 153.229 57.6671 153.192L57.6911 153.096C57.7817 153.08 57.9871 153.045 58.3071 152.992L58.8751 152.872C58.9177 152.883 58.9551 152.915 58.9871 152.968C58.9444 153.261 58.9231 154.032 58.9231 155.28C58.9231 156.155 59.1577 156.592 59.6271 156.592C59.7924 156.592 59.9577 156.563 60.1231 156.504C60.2937 156.445 60.4217 156.389 60.5071 156.336C60.5924 156.277 60.7017 156.197 60.8351 156.096C60.8511 155.744 60.8591 155.491 60.8591 155.336V154.368C60.8591 154.043 60.8431 153.816 60.8111 153.688C60.7844 153.56 60.7417 153.475 60.6831 153.432C60.6297 153.384 60.5551 153.349 60.4591 153.328L60.1951 153.296L60.1711 153.192L60.1951 153.096C60.2484 153.085 60.3444 153.072 60.4831 153.056C60.6271 153.04 60.8164 153.008 61.0511 152.96C61.2857 152.912 61.4191 152.883 61.4511 152.872ZM64.5828 157.024L63.7028 157C63.2441 157 62.8468 157.021 62.5108 157.064C62.4841 157.032 62.4708 156.987 62.4708 156.928L62.4788 156.864C62.7295 156.816 62.8948 156.744 62.9748 156.648C63.0601 156.552 63.1215 156.389 63.1588 156.16C63.2015 155.931 63.2228 155.093 63.2228 153.648V151.6C63.2228 151.115 63.1668 150.819 63.0548 150.712C62.9961 150.653 62.9215 150.619 62.8308 150.608L62.5428 150.576C62.5268 150.549 62.5188 150.517 62.5188 150.48C62.5188 150.437 62.5268 150.403 62.5428 150.376C62.9215 150.307 63.2148 150.221 63.4228 150.12C63.5615 150.051 63.7188 149.957 63.8948 149.84C63.9481 149.84 63.9908 149.867 64.0228 149.92C63.9108 150.619 63.8548 151.869 63.8548 153.672V154.608C63.8548 156.011 63.8895 156.723 63.9588 156.744C64.0548 156.765 64.2628 156.776 64.5828 156.776C64.5935 156.813 64.5988 156.856 64.5988 156.904C64.5988 156.952 64.5935 156.992 64.5828 157.024ZM66.2694 155.28C66.2694 156.165 66.4214 156.608 66.7254 156.608C66.9494 156.608 67.2401 156.533 67.5974 156.384C67.6774 156.411 67.7174 156.485 67.7174 156.608C67.3281 156.816 66.8801 157 66.3734 157.16C66.1228 157.16 65.9308 157.032 65.7974 156.776C65.6694 156.52 65.6054 156.176 65.6054 155.744V153.888C65.6054 153.573 65.5868 153.416 65.5494 153.416L64.9574 153.424C64.9201 153.413 64.9014 153.387 64.9014 153.344C64.9281 153.291 64.9521 153.195 64.9734 153.056H65.5414C65.5841 153.056 65.6054 152.963 65.6054 152.776L65.5974 152.096C65.7948 152.016 65.9974 151.851 66.2054 151.6C66.2694 151.6 66.3174 151.616 66.3494 151.648C66.3014 152.208 66.2774 152.677 66.2774 153.056C66.6668 153.056 67.0508 153.037 67.4294 153C67.4668 153.021 67.4854 153.053 67.4854 153.096C67.4534 153.149 67.4268 153.248 67.4054 153.392L66.2694 153.408V155.28ZM75.0774 153.032L75.7734 153.056C75.9654 153.056 76.1894 153.037 76.4454 153C76.4827 153.069 76.5014 153.136 76.5014 153.2C76.3574 153.264 76.256 153.325 76.1974 153.384C76.016 153.576 75.832 153.904 75.6454 154.368L74.5254 157.16H74.4054L73.2214 154.176L72.0614 157.16H71.9414L70.7894 154.352C70.5494 153.776 70.3867 153.448 70.3014 153.368C70.2214 153.283 70.1254 153.221 70.0134 153.184C70.008 153.168 70.0054 153.139 70.0054 153.096C70.0054 153.053 70.0214 153.013 70.0534 152.976C70.4214 153.029 70.7067 153.056 70.9094 153.056L71.5814 153.032C71.5974 153.059 71.6054 153.099 71.6054 153.152L71.5814 153.28C71.416 153.28 71.2987 153.285 71.2294 153.296C71.2667 153.6 71.3867 154.013 71.5894 154.536L72.1814 156.064L73.2854 153.056H73.5014L74.6534 156.064L75.2214 154.608C75.408 154.144 75.5307 153.715 75.5894 153.32C75.4827 153.304 75.312 153.291 75.0774 153.28C75.0667 153.243 75.0614 153.2 75.0614 153.152C75.0614 153.099 75.0667 153.059 75.0774 153.032ZM78.6208 157.024L77.9008 157C77.5274 157 77.1754 157.021 76.8448 157.064C76.8128 157.021 76.7968 156.976 76.7968 156.928L76.8128 156.864C77.0421 156.811 77.1968 156.728 77.2768 156.616C77.3354 156.531 77.3808 156.429 77.4128 156.312C77.4448 156.189 77.4608 155.843 77.4608 155.272V154.504C77.4608 154.173 77.4448 153.944 77.4128 153.816C77.3861 153.688 77.3434 153.603 77.2848 153.56C77.2261 153.517 77.1488 153.491 77.0528 153.48L76.7568 153.456C76.7408 153.435 76.7327 153.4 76.7327 153.352L76.7568 153.248C77.0341 153.189 77.2581 153.131 77.4288 153.072C77.6048 153.008 77.8101 152.917 78.0448 152.8C78.1034 152.8 78.1434 152.832 78.1648 152.896C78.1008 153.259 78.0688 154.123 78.0688 155.488C78.0688 155.733 78.0768 156.005 78.0928 156.304C78.1141 156.597 78.1408 156.747 78.1728 156.752C78.2528 156.768 78.4021 156.776 78.6208 156.776C78.6368 156.813 78.6448 156.856 78.6448 156.904C78.6448 156.952 78.6368 156.992 78.6208 157.024ZM77.8688 151.888C77.6768 151.755 77.5408 151.579 77.4608 151.36C77.5248 151.285 77.6101 151.208 77.7168 151.128C77.8288 151.043 77.9248 150.984 78.0048 150.952C78.2074 151.101 78.3381 151.28 78.3968 151.488C78.2474 151.68 78.0714 151.813 77.8688 151.888ZM80.5038 155.28C80.5038 156.165 80.6558 156.608 80.9598 156.608C81.1838 156.608 81.4745 156.533 81.8318 156.384C81.9118 156.411 81.9518 156.485 81.9518 156.608C81.5625 156.816 81.1145 157 80.6078 157.16C80.3571 157.16 80.1651 157.032 80.0318 156.776C79.9038 156.52 79.8398 156.176 79.8398 155.744V153.888C79.8398 153.573 79.8211 153.416 79.7838 153.416L79.1918 153.424C79.1545 153.413 79.1358 153.387 79.1358 153.344C79.1625 153.291 79.1865 153.195 79.2078 153.056H79.7758C79.8185 153.056 79.8398 152.963 79.8398 152.776L79.8318 152.096C80.0291 152.016 80.2318 151.851 80.4398 151.6C80.5038 151.6 80.5518 151.616 80.5838 151.648C80.5358 152.208 80.5118 152.677 80.5118 153.056C80.9011 153.056 81.2851 153.037 81.6638 153C81.7011 153.021 81.7198 153.053 81.7198 153.096C81.6878 153.149 81.6611 153.248 81.6398 153.392L80.5038 153.408V155.28ZM83.8826 157.024L83.2106 157C82.7946 157 82.4186 157.021 82.0826 157.064C82.056 157.032 82.0426 156.987 82.0426 156.928L82.0506 156.864C82.2693 156.816 82.416 156.744 82.4906 156.648C82.5706 156.547 82.6293 156.384 82.6666 156.16C82.7093 155.931 82.7306 155.093 82.7306 153.648V151.6C82.7306 151.115 82.6746 150.819 82.5626 150.712C82.504 150.653 82.4293 150.619 82.3386 150.608L82.0506 150.576C82.0346 150.549 82.0266 150.517 82.0266 150.48C82.0266 150.437 82.0346 150.403 82.0506 150.376C82.4293 150.307 82.7226 150.221 82.9306 150.12C83.0693 150.051 83.2266 149.957 83.4026 149.84C83.456 149.84 83.4986 149.867 83.5306 149.92C83.424 150.587 83.3706 151.837 83.3706 153.672C84.048 153.299 84.5893 153.051 84.9946 152.928C85.3413 152.928 85.6026 153.056 85.7786 153.312C85.9546 153.568 86.0426 153.912 86.0426 154.344L86.0266 155.368C86.0266 156.28 86.0666 156.744 86.1466 156.76C86.2266 156.771 86.384 156.776 86.6186 156.776C86.64 156.813 86.6506 156.848 86.6506 156.88C86.6506 156.912 86.64 156.96 86.6186 157.024L85.8826 157C85.44 157 85.088 157.021 84.8266 157.064C84.7946 157.021 84.7786 156.976 84.7786 156.928L84.7946 156.864C85.0133 156.816 85.16 156.744 85.2346 156.648C85.3093 156.552 85.352 156.437 85.3626 156.304C85.3786 156.171 85.3866 155.901 85.3866 155.496C85.3866 155.091 85.384 154.84 85.3786 154.744C85.3786 154.643 85.3706 154.515 85.3546 154.36C85.344 154.2 85.32 154.08 85.2826 154C85.2506 153.915 85.208 153.827 85.1546 153.736C85.048 153.571 84.8586 153.488 84.5866 153.488C84.3146 153.488 84.0133 153.597 83.6826 153.816C83.6346 153.843 83.5733 153.883 83.4986 153.936C83.424 153.984 83.3813 154.011 83.3706 154.016C83.3653 154.283 83.3626 154.565 83.3626 154.864C83.3626 156.096 83.3946 156.723 83.4586 156.744C83.528 156.765 83.6693 156.776 83.8826 156.776C83.8986 156.813 83.9066 156.856 83.9066 156.904C83.9066 156.952 83.8986 156.992 83.8826 157.024ZM90.8398 155.28C90.8398 156.165 90.9918 156.608 91.2958 156.608C91.5198 156.608 91.8104 156.533 92.1678 156.384C92.2478 156.411 92.2878 156.485 92.2878 156.608C91.8984 156.816 91.4504 157 90.9438 157.16C90.6931 157.16 90.5011 157.032 90.3678 156.776C90.2398 156.52 90.1758 156.176 90.1758 155.744V153.888C90.1758 153.573 90.1571 153.416 90.1198 153.416L89.5278 153.424C89.4904 153.413 89.4718 153.387 89.4718 153.344C89.4984 153.291 89.5224 153.195 89.5438 153.056H90.1118C90.1544 153.056 90.1758 152.963 90.1758 152.776L90.1678 152.096C90.3651 152.016 90.5678 151.851 90.7758 151.6C90.8398 151.6 90.8878 151.616 90.9198 151.648C90.8718 152.208 90.8478 152.677 90.8478 153.056C91.2371 153.056 91.6211 153.037 91.9998 153C92.0371 153.021 92.0558 153.053 92.0558 153.096C92.0238 153.149 91.9971 153.248 91.9758 153.392L90.8398 153.408V155.28ZM94.2186 157.024L93.5466 157C93.1306 157 92.7546 157.021 92.4186 157.064C92.3919 157.032 92.3786 156.987 92.3786 156.928L92.3866 156.864C92.6052 156.816 92.7519 156.744 92.8266 156.648C92.9066 156.547 92.9652 156.384 93.0026 156.16C93.0452 155.931 93.0666 155.093 93.0666 153.648V151.6C93.0666 151.115 93.0106 150.819 92.8986 150.712C92.8399 150.653 92.7652 150.619 92.6746 150.608L92.3866 150.576C92.3706 150.549 92.3626 150.517 92.3626 150.48C92.3626 150.437 92.3706 150.403 92.3866 150.376C92.7652 150.307 93.0586 150.221 93.2666 150.12C93.4052 150.051 93.5626 149.957 93.7386 149.84C93.7919 149.84 93.8346 149.867 93.8666 149.92C93.7599 150.587 93.7066 151.837 93.7066 153.672C94.3839 153.299 94.9252 153.051 95.3306 152.928C95.6772 152.928 95.9386 153.056 96.1146 153.312C96.2906 153.568 96.3786 153.912 96.3786 154.344L96.3626 155.368C96.3626 156.28 96.4026 156.744 96.4826 156.76C96.5626 156.771 96.7199 156.776 96.9546 156.776C96.9759 156.813 96.9866 156.848 96.9866 156.88C96.9866 156.912 96.9759 156.96 96.9546 157.024L96.2186 157C95.7759 157 95.4239 157.021 95.1626 157.064C95.1306 157.021 95.1146 156.976 95.1146 156.928L95.1306 156.864C95.3492 156.816 95.4959 156.744 95.5706 156.648C95.6452 156.552 95.6879 156.437 95.6986 156.304C95.7146 156.171 95.7226 155.901 95.7226 155.496C95.7226 155.091 95.7199 154.84 95.7146 154.744C95.7146 154.643 95.7066 154.515 95.6906 154.36C95.6799 154.2 95.6559 154.08 95.6186 154C95.5866 153.915 95.5439 153.827 95.4906 153.736C95.3839 153.571 95.1946 153.488 94.9226 153.488C94.6506 153.488 94.3492 153.597 94.0186 153.816C93.9706 153.843 93.9092 153.883 93.8346 153.936C93.7599 153.984 93.7172 154.011 93.7066 154.016C93.7012 154.283 93.6986 154.565 93.6986 154.864C93.6986 156.096 93.7306 156.723 93.7946 156.744C93.8639 156.765 94.0052 156.776 94.2186 156.776C94.2346 156.813 94.2426 156.856 94.2426 156.904C94.2426 156.952 94.2346 156.992 94.2186 157.024ZM99.6266 156.584C100.064 156.584 100.451 156.467 100.787 156.232C100.861 156.259 100.904 156.315 100.915 156.4L100.051 157.008C99.9226 157.109 99.6372 157.16 99.1946 157.16C98.7519 157.16 98.3759 156.963 98.0666 156.568C97.7572 156.168 97.6026 155.664 97.6026 155.056C97.6026 154.448 97.7706 153.968 98.1066 153.616C98.4426 153.264 98.8426 153.035 99.3066 152.928C99.7119 152.928 100.069 153.064 100.379 153.336C100.565 153.496 100.696 153.704 100.771 153.96C100.787 154.024 100.861 154.059 100.995 154.064C101.027 154.101 101.043 154.141 101.043 154.184C101.043 154.221 101.037 154.261 101.027 154.304C100.088 154.523 99.1652 154.675 98.2586 154.76C98.2586 155.443 98.4479 155.955 98.8266 156.296C99.0399 156.488 99.3066 156.584 99.6266 156.584ZM100.131 154.144C100.157 154.128 100.171 154.109 100.171 154.088C100.171 154.061 100.136 153.987 100.067 153.864C100.003 153.736 99.8879 153.603 99.7226 153.464C99.5572 153.32 99.3839 153.248 99.2026 153.248C99.0212 153.248 98.8879 153.275 98.8026 153.328C98.5039 153.531 98.3332 153.899 98.2906 154.432C98.5786 154.432 98.9066 154.403 99.2746 154.344C99.6426 154.28 99.9279 154.213 100.131 154.144ZM104.357 153.408L104.045 153.416C104.023 153.389 104.013 153.355 104.013 153.312C104.013 153.269 104.018 153.232 104.029 153.2C104.391 153.152 104.687 153.077 104.917 152.976C104.991 152.944 105.037 152.928 105.053 152.928C105.101 152.928 105.159 153.003 105.229 153.152C105.298 153.301 105.357 153.467 105.405 153.648C105.943 153.344 106.469 153.104 106.981 152.928C107.306 152.928 107.557 153.059 107.733 153.32C107.909 153.576 107.997 153.917 107.997 154.344L107.981 155.4C107.981 156.291 108.021 156.744 108.101 156.76C108.181 156.771 108.33 156.776 108.549 156.776C108.57 156.813 108.581 156.853 108.581 156.896C108.581 156.939 108.57 156.981 108.549 157.024L107.812 157C107.37 157 107.018 157.021 106.757 157.064C106.73 157.032 106.717 156.987 106.717 156.928L106.725 156.864C106.879 156.827 106.999 156.776 107.085 156.712C107.17 156.643 107.223 156.579 107.245 156.52C107.271 156.456 107.293 156.363 107.309 156.24C107.325 156.112 107.333 155.867 107.333 155.504V154.84C107.333 154.467 107.29 154.152 107.205 153.896C107.167 153.795 107.125 153.72 107.077 153.672C106.959 153.544 106.818 153.48 106.653 153.48C106.487 153.48 106.322 153.512 106.157 153.576C105.991 153.64 105.866 153.699 105.781 153.752C105.695 153.805 105.575 153.885 105.421 153.992C105.399 154.413 105.389 154.979 105.389 155.688C105.389 156.392 105.423 156.749 105.493 156.76C105.567 156.771 105.703 156.776 105.901 156.776C105.922 156.813 105.933 156.853 105.933 156.896C105.933 156.939 105.922 156.981 105.901 157.024L105.221 157C104.815 157 104.463 157.021 104.165 157.064C104.138 157.032 104.125 156.987 104.125 156.928L104.133 156.864C104.287 156.827 104.407 156.776 104.493 156.712C104.578 156.643 104.631 156.579 104.653 156.52C104.679 156.456 104.701 156.341 104.717 156.176C104.738 156.005 104.749 155.643 104.749 155.088C104.749 154.533 104.746 154.227 104.741 154.168C104.741 154.104 104.738 154.024 104.733 153.928C104.727 153.832 104.717 153.76 104.701 153.712C104.685 153.664 104.661 153.613 104.629 153.56C104.575 153.459 104.485 153.408 104.357 153.408ZM112.771 152.872C112.819 152.883 112.859 152.915 112.891 152.968C112.843 153.331 112.819 153.928 112.819 154.76L112.827 155.904C112.827 156.384 112.947 156.624 113.187 156.624L113.475 156.616C113.497 156.653 113.507 156.696 113.507 156.744L113.499 156.832C113.238 156.875 113.051 156.925 112.939 156.984L112.731 157.08C112.705 157.096 112.665 157.123 112.611 157.16C112.494 157.117 112.395 157.024 112.315 156.88C112.235 156.731 112.19 156.581 112.179 156.432C111.726 156.715 111.206 156.957 110.619 157.16C110.278 157.16 110.022 157.035 109.851 156.784C109.686 156.528 109.603 156.181 109.603 155.744V154.216C109.603 153.853 109.587 153.624 109.555 153.528C109.523 153.427 109.43 153.36 109.275 153.328L109.011 153.296C108.995 153.264 108.987 153.229 108.987 153.192L109.011 153.096C109.102 153.08 109.307 153.045 109.627 152.992L110.195 152.872C110.238 152.883 110.275 152.915 110.307 152.968C110.265 153.261 110.243 154.032 110.243 155.28C110.243 156.155 110.478 156.592 110.947 156.592C111.113 156.592 111.278 156.563 111.443 156.504C111.614 156.445 111.742 156.389 111.827 156.336C111.913 156.277 112.022 156.197 112.155 156.096C112.171 155.744 112.179 155.491 112.179 155.336V154.368C112.179 154.043 112.163 153.816 112.131 153.688C112.105 153.56 112.062 153.475 112.003 153.432C111.95 153.384 111.875 153.349 111.779 153.328L111.515 153.296L111.491 153.192L111.515 153.096C111.569 153.085 111.665 153.072 111.803 153.056C111.947 153.04 112.137 153.008 112.371 152.96C112.606 152.912 112.739 152.883 112.771 152.872ZM115.199 155.28C115.199 156.165 115.351 156.608 115.655 156.608C115.879 156.608 116.17 156.533 116.527 156.384C116.607 156.411 116.647 156.485 116.647 156.608C116.258 156.816 115.81 157 115.303 157.16C115.052 157.16 114.86 157.032 114.727 156.776C114.599 156.52 114.535 156.176 114.535 155.744V153.888C114.535 153.573 114.516 153.416 114.479 153.416L113.887 153.424C113.85 153.413 113.831 153.387 113.831 153.344C113.858 153.291 113.882 153.195 113.903 153.056H114.471C114.514 153.056 114.535 152.963 114.535 152.776L114.527 152.096C114.724 152.016 114.927 151.851 115.135 151.6C115.199 151.6 115.247 151.616 115.279 151.648C115.231 152.208 115.207 152.677 115.207 153.056C115.596 153.056 115.98 153.037 116.359 153C116.396 153.021 116.415 153.053 116.415 153.096C116.383 153.149 116.356 153.248 116.335 153.392L115.199 153.408V155.28ZM117.122 153.408L116.81 153.416C116.783 153.389 116.77 153.349 116.77 153.296L116.786 153.2C117.149 153.152 117.445 153.077 117.674 152.976C117.749 152.944 117.794 152.928 117.81 152.928C117.869 152.928 117.935 153.035 118.01 153.248C118.085 153.456 118.13 153.664 118.146 153.872C118.546 153.456 118.909 153.141 119.234 152.928C119.447 152.928 119.623 152.992 119.762 153.12C119.901 153.243 119.97 153.397 119.97 153.584C119.97 153.797 119.781 153.904 119.402 153.904C119.322 153.621 119.186 153.48 118.994 153.48C118.866 153.48 118.599 153.701 118.194 154.144C118.162 154.549 118.146 155.195 118.146 156.08C118.146 156.523 118.181 156.747 118.25 156.752C118.373 156.768 118.589 156.776 118.898 156.776C118.914 156.813 118.922 156.856 118.922 156.904C118.922 156.952 118.914 156.992 118.898 157.024L118.002 157C117.565 157 117.178 157.021 116.842 157.064C116.815 157.032 116.802 156.987 116.802 156.928L116.81 156.864C117.093 156.811 117.274 156.728 117.354 156.616C117.413 156.531 117.455 156.395 117.482 156.208C117.509 156.016 117.522 155.643 117.522 155.088C117.522 154.533 117.519 154.227 117.514 154.168C117.514 154.109 117.511 154.032 117.506 153.936C117.501 153.84 117.49 153.768 117.474 153.72C117.458 153.672 117.434 153.619 117.402 153.56C117.349 153.459 117.255 153.408 117.122 153.408ZM122.121 157.024L121.401 157C121.027 157 120.675 157.021 120.345 157.064C120.313 157.021 120.297 156.976 120.297 156.928L120.313 156.864C120.542 156.811 120.697 156.728 120.777 156.616C120.835 156.531 120.881 156.429 120.913 156.312C120.945 156.189 120.961 155.843 120.961 155.272V154.504C120.961 154.173 120.945 153.944 120.913 153.816C120.886 153.688 120.843 153.603 120.785 153.56C120.726 153.517 120.649 153.491 120.553 153.48L120.257 153.456C120.241 153.435 120.233 153.4 120.233 153.352L120.257 153.248C120.534 153.189 120.758 153.131 120.929 153.072C121.105 153.008 121.31 152.917 121.545 152.8C121.603 152.8 121.643 152.832 121.665 152.896C121.601 153.259 121.569 154.123 121.569 155.488C121.569 155.733 121.577 156.005 121.593 156.304C121.614 156.597 121.641 156.747 121.673 156.752C121.753 156.768 121.902 156.776 122.121 156.776C122.137 156.813 122.145 156.856 122.145 156.904C122.145 156.952 122.137 156.992 122.121 157.024ZM121.369 151.888C121.177 151.755 121.041 151.579 120.961 151.36C121.025 151.285 121.11 151.208 121.217 151.128C121.329 151.043 121.425 150.984 121.505 150.952C121.707 151.101 121.838 151.28 121.897 151.488C121.747 151.68 121.571 151.813 121.369 151.888ZM124.004 155.28C124.004 156.165 124.156 156.608 124.46 156.608C124.684 156.608 124.974 156.533 125.332 156.384C125.412 156.411 125.452 156.485 125.452 156.608C125.062 156.816 124.614 157 124.108 157.16C123.857 157.16 123.665 157.032 123.532 156.776C123.404 156.52 123.34 156.176 123.34 155.744V153.888C123.34 153.573 123.321 153.416 123.284 153.416L122.692 153.424C122.654 153.413 122.636 153.387 122.636 153.344C122.662 153.291 122.686 153.195 122.708 153.056H123.276C123.318 153.056 123.34 152.963 123.34 152.776L123.332 152.096C123.529 152.016 123.732 151.851 123.94 151.6C124.004 151.6 124.052 151.616 124.084 151.648C124.036 152.208 124.012 152.677 124.012 153.056C124.401 153.056 124.785 153.037 125.164 153C125.201 153.021 125.22 153.053 125.22 153.096C125.188 153.149 125.161 153.248 125.14 153.392L124.004 153.408V155.28ZM127.543 157.024L126.823 157C126.449 157 126.097 157.021 125.767 157.064C125.735 157.021 125.719 156.976 125.719 156.928L125.735 156.864C125.964 156.811 126.119 156.728 126.199 156.616C126.257 156.531 126.303 156.429 126.335 156.312C126.367 156.189 126.383 155.843 126.383 155.272V154.504C126.383 154.173 126.367 153.944 126.335 153.816C126.308 153.688 126.265 153.603 126.207 153.56C126.148 153.517 126.071 153.491 125.975 153.48L125.679 153.456C125.663 153.435 125.655 153.4 125.655 153.352L125.679 153.248C125.956 153.189 126.18 153.131 126.351 153.072C126.527 153.008 126.732 152.917 126.967 152.8C127.025 152.8 127.065 152.832 127.087 152.896C127.023 153.259 126.991 154.123 126.991 155.488C126.991 155.733 126.999 156.005 127.015 156.304C127.036 156.597 127.063 156.747 127.095 156.752C127.175 156.768 127.324 156.776 127.543 156.776C127.559 156.813 127.567 156.856 127.567 156.904C127.567 156.952 127.559 156.992 127.543 157.024ZM126.791 151.888C126.599 151.755 126.463 151.579 126.383 151.36C126.447 151.285 126.532 151.208 126.639 151.128C126.751 151.043 126.847 150.984 126.927 150.952C127.129 151.101 127.26 151.28 127.319 151.488C127.169 151.68 126.993 151.813 126.791 151.888ZM132.322 155.048C132.322 156.232 131.634 156.936 130.258 157.16C129.692 157.16 129.215 156.96 128.826 156.56C128.442 156.155 128.25 155.651 128.25 155.048C128.25 153.853 128.94 153.147 130.322 152.928C130.882 152.928 131.354 153.133 131.738 153.544C132.127 153.955 132.322 154.456 132.322 155.048ZM130.434 156.816C131.202 156.816 131.586 156.325 131.586 155.344C131.586 154.789 131.458 154.304 131.202 153.888C130.946 153.472 130.607 153.264 130.186 153.264C129.764 153.264 129.458 153.4 129.266 153.672C129.079 153.939 128.986 154.323 128.986 154.824C128.986 155.32 129.116 155.776 129.378 156.192C129.639 156.608 129.991 156.816 130.434 156.816ZM133.185 153.408L132.873 153.416C132.851 153.389 132.841 153.355 132.841 153.312C132.841 153.269 132.846 153.232 132.857 153.2C133.219 153.152 133.515 153.077 133.745 152.976C133.819 152.944 133.865 152.928 133.881 152.928C133.929 152.928 133.987 153.003 134.057 153.152C134.126 153.301 134.185 153.467 134.233 153.648C134.771 153.344 135.297 153.104 135.809 152.928C136.134 152.928 136.385 153.059 136.561 153.32C136.737 153.576 136.825 153.917 136.825 154.344L136.809 155.4C136.809 156.291 136.849 156.744 136.929 156.76C137.009 156.771 137.158 156.776 137.377 156.776C137.398 156.813 137.409 156.853 137.409 156.896C137.409 156.939 137.398 156.981 137.377 157.024L136.641 157C136.198 157 135.846 157.021 135.585 157.064C135.558 157.032 135.545 156.987 135.545 156.928L135.553 156.864C135.707 156.827 135.827 156.776 135.913 156.712C135.998 156.643 136.051 156.579 136.073 156.52C136.099 156.456 136.121 156.363 136.137 156.24C136.153 156.112 136.161 155.867 136.161 155.504V154.84C136.161 154.467 136.118 154.152 136.033 153.896C135.995 153.795 135.953 153.72 135.905 153.672C135.787 153.544 135.646 153.48 135.481 153.48C135.315 153.48 135.15 153.512 134.985 153.576C134.819 153.64 134.694 153.699 134.609 153.752C134.523 153.805 134.403 153.885 134.249 153.992C134.227 154.413 134.217 154.979 134.217 155.688C134.217 156.392 134.251 156.749 134.321 156.76C134.395 156.771 134.531 156.776 134.729 156.776C134.75 156.813 134.761 156.853 134.761 156.896C134.761 156.939 134.75 156.981 134.729 157.024L134.049 157C133.643 157 133.291 157.021 132.993 157.064C132.966 157.032 132.953 156.987 132.953 156.928L132.961 156.864C133.115 156.827 133.235 156.776 133.321 156.712C133.406 156.643 133.459 156.579 133.481 156.52C133.507 156.456 133.529 156.341 133.545 156.176C133.566 156.005 133.577 155.643 133.577 155.088C133.577 154.533 133.574 154.227 133.569 154.168C133.569 154.104 133.566 154.024 133.561 153.928C133.555 153.832 133.545 153.76 133.529 153.712C133.513 153.664 133.489 153.613 133.457 153.56C133.403 153.459 133.313 153.408 133.185 153.408ZM139.84 157.024L139.12 157C138.746 157 138.394 157.021 138.064 157.064C138.032 157.021 138.016 156.976 138.016 156.928L138.032 156.864C138.261 156.811 138.416 156.728 138.496 156.616C138.554 156.531 138.6 156.429 138.632 156.312C138.664 156.189 138.68 155.843 138.68 155.272V154.504C138.68 154.173 138.664 153.944 138.632 153.816C138.605 153.688 138.562 153.603 138.504 153.56C138.445 153.517 138.368 153.491 138.272 153.48L137.976 153.456C137.96 153.435 137.951 153.4 137.951 153.352L137.976 153.248C138.253 153.189 138.477 153.131 138.648 153.072C138.824 153.008 139.029 152.917 139.264 152.8C139.322 152.8 139.362 152.832 139.384 152.896C139.32 153.259 139.288 154.123 139.288 155.488C139.288 155.733 139.296 156.005 139.312 156.304C139.333 156.597 139.36 156.747 139.392 156.752C139.472 156.768 139.621 156.776 139.84 156.776C139.856 156.813 139.864 156.856 139.864 156.904C139.864 156.952 139.856 156.992 139.84 157.024ZM139.088 151.888C138.896 151.755 138.76 151.579 138.68 151.36C138.744 151.285 138.829 151.208 138.936 151.128C139.048 151.043 139.144 150.984 139.224 150.952C139.426 151.101 139.557 151.28 139.616 151.488C139.466 151.68 139.29 151.813 139.088 151.888ZM142.779 153.424C142.619 153.285 142.413 153.216 142.163 153.216C141.645 153.216 141.387 153.424 141.387 153.84C141.387 153.973 141.435 154.101 141.531 154.224C141.632 154.341 141.755 154.435 141.899 154.504L142.523 154.8C143.131 155.093 143.435 155.485 143.435 155.976C143.435 156.339 143.291 156.627 143.003 156.84C142.715 157.053 142.373 157.16 141.979 157.16C141.771 157.16 141.552 157.139 141.323 157.096C141.099 157.059 140.939 157.019 140.843 156.976C140.827 156.736 140.779 156.403 140.699 155.976C140.757 155.939 140.805 155.92 140.843 155.92C140.885 155.92 140.915 155.925 140.931 155.936C141.037 156.256 141.131 156.461 141.211 156.552C141.269 156.611 141.373 156.675 141.523 156.744C141.672 156.813 141.848 156.848 142.051 156.848C142.259 156.848 142.437 156.792 142.587 156.68C142.736 156.568 142.811 156.4 142.811 156.176C142.811 156.027 142.781 155.915 142.723 155.84C142.664 155.765 142.613 155.709 142.571 155.672C142.533 155.629 142.488 155.592 142.435 155.56C142.387 155.528 142.344 155.504 142.307 155.488C142.275 155.467 142.24 155.448 142.203 155.432C142.171 155.411 142.152 155.4 142.147 155.4L141.547 155.112C141.029 154.867 140.771 154.512 140.771 154.048C140.771 153.669 140.915 153.389 141.203 153.208C141.491 153.021 141.816 152.928 142.179 152.928C142.355 152.928 142.552 152.952 142.771 153C142.995 153.043 143.163 153.088 143.275 153.136C143.237 153.264 143.195 153.563 143.147 154.032C143.12 154.053 143.083 154.064 143.035 154.064C142.992 154.064 142.949 154.059 142.907 154.048C142.864 153.781 142.821 153.573 142.779 153.424ZM145.426 155.28C145.426 156.165 145.578 156.608 145.882 156.608C146.106 156.608 146.396 156.533 146.754 156.384C146.834 156.411 146.874 156.485 146.874 156.608C146.484 156.816 146.036 157 145.53 157.16C145.279 157.16 145.087 157.032 144.954 156.776C144.826 156.52 144.762 156.176 144.762 155.744V153.888C144.762 153.573 144.743 153.416 144.706 153.416L144.114 153.424C144.076 153.413 144.058 153.387 144.058 153.344C144.084 153.291 144.108 153.195 144.13 153.056H144.698C144.74 153.056 144.762 152.963 144.762 152.776L144.754 152.096C144.951 152.016 145.154 151.851 145.362 151.6C145.426 151.6 145.474 151.616 145.506 151.648C145.458 152.208 145.434 152.677 145.434 153.056C145.823 153.056 146.207 153.037 146.586 153C146.623 153.021 146.642 153.053 146.642 153.096C146.61 153.149 146.583 153.248 146.562 153.392L145.426 153.408V155.28Z" fill="black"/>
<defs>
<filter id="filter0_d" x="0" y="140" width="190" height="38" filterUnits="userSpaceOnUse" color-interpolation-filters="sRGB">
<feFlood flood-opacity="0" result="BackgroundImageFix"/>
<feColorMatrix in="SourceAlpha" type="matrix" values="0 0 0 0 0 0 0 0 0 0 0 0 0 0 0 0 0 0 127 0" result="hardAlpha"/>
<feOffset dy="4"/>
<feGaussianBlur stdDeviation="2"/>
<feColorMatrix type="matrix" values="0 0 0 0 0 0 0 0 0 0 0 0 0 0 0 0 0 0 0.25 0"/>
<feBlend mode="normal" in2="BackgroundImageFix" result="effect1_dropShadow"/>
<feBlend mode="normal" in="SourceGraphic" in2="effect1_dropShadow" result="shape"/>
</filter>
<filter id="filter1_i" x="63" y="0" width="150" height="146" filterUnits="userSpaceOnUse" color-interpolation-filters="sRGB">
<feFlood flood-opacity="0" result="BackgroundImageFix"/>
<feBlend mode="normal" in="SourceGraphic" in2="BackgroundImageFix" result="shape"/>
<feColorMatrix in="SourceAlpha" type="matrix" values="0 0 0 0 0 0 0 0 0 0 0 0 0 0 0 0 0 0 127 0" result="hardAlpha"/>
<feOffset dy="4"/>
<feGaussianBlur stdDeviation="2"/>
<feComposite in2="hardAlpha" operator="arithmetic" k2="-1" k3="1"/>
<feColorMatrix type="matrix" values="0 0 0 0 0 0 0 0 0 0 0 0 0 0 0 0 0 0 0.25 0"/>
<feBlend mode="normal" in2="shape" result="effect1_innerShadow"/>
</filter>
</defs>
</svg>
