<svg width="129" height="129" viewBox="0 0 129 129" fill="none" xmlns="http://www.w3.org/2000/svg">
<ellipse cx="64.5" cy="64.4288" rx="64.5" ry="64.4288" fill="#F5F5F5"/>
<path d="M84.6914 62.1878C87.3835 64.4288 93.6653 72.0856 96.4696 75.6339L19.0696 110.369C4.26261 96.027 1.28373e-05 77.3146 0 63.8686C2.43043 61.0673 10.993 55.1287 16.8261 56.0251C24.1174 57.1456 35.8957 57.1456 40.9435 53.7841C45.9913 50.4226 45.9913 44.82 44.8696 39.2175C43.7478 33.615 44.8696 24.6511 50.4783 20.7293C56.087 16.8075 68.3898 19.5 70.1087 24.6511C71.56 29 73.4739 25.7716 81.887 29.6933C90.3 33.6151 88.6174 48.1816 85.8131 49.8623C83.0087 51.5431 81.3261 59.3866 84.6914 62.1878Z" fill="#332018"/>
<path d="M52.1606 45.3803H56.0867" stroke="white" stroke-linecap="round"/>
<path d="M63.9389 71.152C38.8119 71.6002 22.9954 97.8572 19.0693 110.369C34.2128 124.936 54.4041 131.229 74.0346 128.298C94.3915 125.258 110.491 112.61 117.782 100.845C102.078 73.3929 95.3476 70.5917 63.9389 71.152Z" fill="#CF8D88"/>
<path d="M76.2781 54.9046C76.2781 66.5578 80.3912 70.9651 82.4477 71.7121C74.3712 82.9171 66.3694 76.3809 63.3781 71.7121C65.1729 71.2639 65.9955 64.8023 66.1825 61.6276C64.6868 62.3746 61.0225 62.9722 58.3303 59.3866C54.9651 54.9046 56.6477 43.6996 56.6477 41.4586C56.6477 39.2176 58.3303 32.4946 66.1825 32.4946C72.4642 32.4946 75.5303 40.7116 76.2781 44.8201C78.5216 43.6996 80.2042 43.1393 80.7651 47.0611C81.2138 50.1985 77.9607 53.5973 76.2781 54.9046Z" fill="#E5AC97"/>
<path d="M60.0132 41.4585L60.574 39.7777C60.574 39.3295 57.9566 39.591 56.6479 39.7777V41.4585C57.0219 41.2717 57.8819 41.0103 58.3306 41.4585C58.7793 41.9067 59.6393 41.6453 60.0132 41.4585Z" fill="#0F141E" stroke="#0F141E" stroke-width="0.5"/>
<path d="M65.061 39.7778C65.061 39.2175 65.6219 39.2175 66.1828 39.2175C68.4263 39.2175 70.6697 40.8983 71.2306 41.4585C71.7915 42.0188 68.9871 41.4585 67.8654 40.8983C66.7436 40.338 66.1828 41.4585 65.6219 41.4585C65.061 41.4585 65.061 40.338 65.061 39.7778Z" fill="#0F141E" stroke="#0F141E" stroke-width="0.5"/>
<path d="M77.9611 52.1033L75.1567 51.543L76.2785 53.784L77.9611 52.1033Z" fill="white"/>
<path d="M66.1826 53.2238H59.4521C59.4521 54.7178 60.1252 57.7058 62.8174 57.7058C65.5095 57.7058 66.1826 54.7178 66.1826 53.2238Z" fill="white"/>
<ellipse cx="58.3307" cy="44.2598" rx="1.12174" ry="1.68075" fill="black"/>
<ellipse cx="68.4264" cy="44.2598" rx="1.12174" ry="1.68075" fill="black"/>
<path d="M71.2305 43.6996L76.2783 44.2605" stroke="white" stroke-linecap="round"/>
<path d="M60.0132 44.8201H63.3784" stroke="white"/>
<path d="M60.074 44.8201C60.074 47.0188 58.2895 48.8021 56.0871 48.8021C53.8846 48.8021 52.1001 47.0188 52.1001 44.8201C52.1001 42.6214 53.8846 40.8381 56.0871 40.8381C58.2895 40.8381 60.074 42.6214 60.074 44.8201Z" stroke="white"/>
<path d="M71.2913 44.8201C71.2913 47.0188 69.5068 48.8021 67.3043 48.8021C65.1019 48.8021 63.3174 47.0188 63.3174 44.8201C63.3174 42.6214 65.1019 40.8381 67.3043 40.8381C69.5068 40.8381 71.2913 42.6214 71.2913 44.8201Z" stroke="white"/>
<path d="M60.0132 49.8623L61.1349 45.3803H62.2567L62.8175 49.8623H60.0132Z" fill="#D19482"/>
<path d="M70.1085 59.9468L65.6216 61.6276C66.0703 62.0758 66.1825 64.4288 66.1825 65.5493C67.9772 64.6529 69.5477 61.4408 70.1085 59.9468Z" fill="#D19482"/>
</svg>
