<svg width="282" height="183" viewBox="0 0 282 183" fill="none" xmlns="http://www.w3.org/2000/svg">
<g filter="url(#filter0_d)">
<path d="M278 145H4V175H278V145Z" fill="#F4F4F4"/>
</g>
<path d="M18 166C21.3137 166 24 163.314 24 160C24 156.686 21.3137 154 18 154C14.6863 154 12 156.686 12 160C12 163.314 14.6863 166 18 166Z" fill="black"/>
<g filter="url(#filter1_d)">
<path d="M142 142C183.421 142 217 110.212 217 71C217 31.7878 183.421 0 142 0C100.579 0 67 31.7878 67 71C67 110.212 100.579 142 142 142Z" fill="#F4F4F4"/>
</g>
<path d="M19.0241 162.027L17.5751 162C16.9751 162 16.5431 162.015 16.2791 162.045C16.2431 161.997 16.2251 161.934 16.2251 161.856L17.3051 160.812C17.3231 160.794 17.3981 160.725 17.5301 160.605C17.6621 160.485 17.7701 160.386 17.8541 160.308C17.9381 160.224 18.0461 160.11 18.1781 159.966C18.3101 159.816 18.4181 159.678 18.5021 159.552C18.7001 159.252 18.7991 158.973 18.7991 158.715C18.7991 158.451 18.7031 158.232 18.5111 158.058C18.3191 157.884 18.1001 157.797 17.8541 157.797C17.6081 157.797 17.3171 157.878 16.9811 158.04C16.9091 158.466 16.8671 158.769 16.8551 158.949C16.8071 158.973 16.7591 158.985 16.7111 158.985C16.6691 158.985 16.6331 158.979 16.6031 158.967C16.5791 158.589 16.5431 158.331 16.4951 158.193C16.4531 158.049 16.4321 157.974 16.4321 157.968C16.4321 157.89 16.4771 157.833 16.5671 157.797C16.9331 157.641 17.4251 157.47 18.0431 157.284C18.4751 157.284 18.8411 157.383 19.1411 157.581C19.4411 157.779 19.5911 158.091 19.5911 158.517C19.5911 158.943 19.3271 159.405 18.7991 159.903L17.1971 161.424H18.1511C18.6791 161.424 19.0391 161.406 19.2311 161.37C19.4291 161.328 19.5761 161.253 19.6721 161.145C19.7021 161.109 19.7591 160.998 19.8431 160.812C19.8551 160.806 19.8881 160.803 19.9421 160.803C19.9961 160.803 20.0411 160.821 20.0771 160.857C20.0591 160.965 20.0381 161.082 20.0141 161.208C19.9901 161.328 19.9721 161.418 19.9601 161.478C19.9361 161.67 19.9241 161.817 19.9241 161.919C19.8041 161.991 19.5041 162.027 19.0241 162.027Z" fill="white"/>
<g filter="url(#filter2_i)">
<path d="M123.53 19.15C124.96 20.87 126.41 22.62 127.3 24.67C128.19 26.72 128.47 29.15 127.52 31.17C126.58 33.17 124.45 34.55 122.25 34.59C121.16 34.61 120.03 34.3 119.23 33.56C118.43 32.82 118.04 31.61 118.43 30.59C118.92 29.33 120.39 28.73 121.74 28.65C125.56 28.43 129.18 31.46 130.02 35.2C130.86 38.93 128.84 44.24 125.82 46.58" stroke="black" stroke-miterlimit="10"/>
<path d="M158.29 19.15C156.86 20.87 155.41 22.62 154.52 24.67C153.63 26.72 153.35 29.15 154.3 31.17C155.24 33.17 157.37 34.55 159.57 34.59C160.66 34.61 161.79 34.3 162.59 33.56C163.39 32.82 163.78 31.61 163.39 30.59C162.9 29.33 161.43 28.73 160.08 28.65C156.26 28.43 152.64 31.46 151.8 35.2C150.96 38.93 152.67 44.24 155.7 46.58" stroke="black" stroke-miterlimit="10"/>
<path d="M156.61 103.24H125.09C115.72 103.24 108.12 95.64 108.12 86.27V62.85C108.12 53.48 115.72 45.88 125.09 45.88H156.61C165.98 45.88 173.58 53.48 173.58 62.85V86.26C173.58 95.64 165.98 103.24 156.61 103.24Z" fill="#E1B1BA"/>
<path d="M157.43 88.46H124.26C117.27 88.46 111.6 82.79 111.6 75.8V72.81C111.6 66.11 117.04 60.67 123.74 60.67H157.96C164.66 60.67 170.1 66.11 170.1 72.81V75.8C170.09 82.79 164.42 88.46 157.43 88.46Z" fill="#916E77"/>
<path d="M121.57 20.38C123.056 20.38 124.26 19.1757 124.26 17.69C124.26 16.2044 123.056 15 121.57 15C120.085 15 118.88 16.2044 118.88 17.69C118.88 19.1757 120.085 20.38 121.57 20.38Z" fill="#69A2AD"/>
<path d="M160.25 20.38C161.736 20.38 162.94 19.1757 162.94 17.69C162.94 16.2044 161.736 15 160.25 15C158.764 15 157.56 16.2044 157.56 17.69C157.56 19.1757 158.764 20.38 160.25 20.38Z" fill="#69A2AD"/>
<path d="M152.36 80.36C155.563 80.36 158.16 77.7633 158.16 74.56C158.16 71.3568 155.563 68.76 152.36 68.76C149.157 68.76 146.56 71.3568 146.56 74.56C146.56 77.7633 149.157 80.36 152.36 80.36Z" fill="#69A2AD"/>
<path d="M130.22 80.36C133.424 80.36 136.02 77.7633 136.02 74.56C136.02 71.3568 133.424 68.76 130.22 68.76C127.017 68.76 124.42 71.3568 124.42 74.56C124.42 77.7633 127.017 80.36 130.22 80.36Z" fill="#69A2AD"/>
<path d="M176.36 63.3099C177.9 63.3099 179.14 64.5599 179.14 66.0899V83.0199C179.14 84.5599 177.89 85.7999 176.36 85.7999C174.82 85.7999 173.58 84.5499 173.58 83.0199V66.0899C173.58 64.5599 174.82 63.3099 176.36 63.3099Z" fill="#916E77"/>
<path d="M181.93 65.97C183.47 65.97 184.71 67.22 184.71 68.75V80.36C184.71 81.9 183.46 83.14 181.93 83.14C180.39 83.14 179.15 81.89 179.15 80.36V68.75C179.14 67.21 180.39 65.97 181.93 65.97Z" fill="#E1B1BA"/>
<path d="M99.78 65.92C101.32 65.92 102.56 67.17 102.56 68.7V80.31C102.56 81.85 101.31 83.09 99.78 83.09C98.2401 83.09 97.0001 81.84 97.0001 80.31V68.7C96.9901 67.16 98.2401 65.92 99.78 65.92Z" fill="#E1B1BA"/>
<path d="M105.34 63.26C106.88 63.26 108.12 64.51 108.12 66.04V82.97C108.12 84.51 106.87 85.75 105.34 85.75C103.8 85.75 102.56 84.5 102.56 82.97V66.04C102.56 64.5 103.81 63.26 105.34 63.26Z" fill="#916E77"/>
<path d="M122.566 117.549L119.782 111.285L118.414 118.121H117.99L119.432 110.74L120.021 110.75L122.571 116.479L125.1 110.75L125.688 110.74L127.141 118.121H126.717L125.359 111.285L122.566 117.549Z" fill="black"/>
<path d="M130.931 117.518L129.5 120.78H129.017L130.364 117.716L128.228 112.906H128.71L130.587 117.097L132.474 112.906H132.946L130.931 117.518Z" fill="black"/>
<path d="M137.061 118.126H134.129V110.849H136.552C137.639 110.859 138.524 111.737 138.524 112.802C138.524 113.295 138.333 113.752 137.999 114.132L137.723 114.412L138.063 114.609C138.641 114.952 138.98 115.56 138.98 116.22C138.98 117.258 138.116 118.115 137.061 118.126ZM134.553 114.334H136.525C137.4 114.334 138.095 113.654 138.095 112.807C138.095 111.95 137.4 111.27 136.525 111.27H134.553V114.334ZM138.529 116.225C138.529 115.409 137.909 114.76 137.034 114.76H134.548V117.721H137.066C137.925 117.721 138.529 117.061 138.529 116.225Z" fill="black"/>
<path d="M139.97 111.072C139.97 110.937 140.087 110.834 140.214 110.834C140.352 110.834 140.458 110.937 140.458 111.072C140.458 111.197 140.352 111.301 140.214 111.301C140.087 111.301 139.97 111.197 139.97 111.072ZM140.4 112.911V118.157H139.97V112.911H140.4Z" fill="black"/>
<path d="M146.826 115.493C146.826 116.957 145.644 118.147 144.202 118.147C142.749 118.147 141.567 116.957 141.567 115.493C141.567 114.028 142.749 112.838 144.202 112.838C145.638 112.838 146.826 114.028 146.826 115.493ZM146.428 115.493C146.428 114.256 145.426 113.254 144.196 113.254C142.961 113.254 141.954 114.256 141.954 115.493C141.954 116.724 142.956 117.731 144.196 117.731C145.426 117.731 146.428 116.724 146.428 115.493Z" fill="black"/>
<path d="M150.855 118.126H147.923V110.849H150.346C151.433 110.859 152.318 111.737 152.318 112.802C152.318 113.295 152.128 113.752 151.794 114.132L151.518 114.412L151.857 114.609C152.435 114.952 152.774 115.56 152.774 116.22C152.78 117.258 151.915 118.115 150.855 118.126ZM148.353 114.334H150.325C151.2 114.334 151.894 113.654 151.894 112.807C151.894 111.95 151.2 111.27 150.325 111.27H148.353V114.334ZM152.329 116.225C152.329 115.409 151.709 114.76 150.834 114.76H148.347V117.721H150.871C151.725 117.721 152.329 117.061 152.329 116.225Z" fill="black"/>
<path d="M159.041 115.493C159.041 116.957 157.859 118.147 156.417 118.147C154.964 118.147 153.782 116.957 153.782 115.493C153.782 114.028 154.964 112.838 156.417 112.838C157.859 112.838 159.041 114.028 159.041 115.493ZM158.649 115.493C158.649 114.256 157.647 113.254 156.417 113.254C155.181 113.254 154.174 114.256 154.174 115.493C154.174 116.724 155.176 117.731 156.417 117.731C157.647 117.731 158.649 116.724 158.649 115.493Z" fill="black"/>
<path d="M162.99 113.737H161.665V118.147H161.235V113.737H159.899V113.306H161.235V110.787H161.654L161.665 113.306H162.99V113.737Z" fill="black"/>
</g>
<path d="M32.931 153.263L34.755 153.32C36.0977 153.32 37.111 153.269 37.795 153.168C37.871 153.269 37.909 153.377 37.909 153.491L37.871 153.643C37.1997 153.795 36.7753 153.991 36.598 154.232C36.4587 154.409 36.3637 154.688 36.313 155.068C36.161 156.55 36.085 158.653 36.085 161.376C36.085 163.01 36.4143 164.283 37.073 165.195C37.7317 166.107 38.7577 166.563 40.151 166.563C41.8103 166.563 42.9567 166.12 43.59 165.233C44.236 164.334 44.559 162.966 44.559 161.129V158.773C44.559 156.468 44.4957 154.846 44.369 153.909C44.0777 153.871 43.533 153.852 42.735 153.852C42.7097 153.751 42.697 153.643 42.697 153.529C42.697 153.402 42.7097 153.314 42.735 153.263L44.977 153.32C45.9397 153.32 46.6807 153.269 47.2 153.168C47.2633 153.244 47.295 153.352 47.295 153.491L47.276 153.643C46.3007 153.858 45.7687 154.517 45.68 155.619C45.5407 157.253 45.471 159.248 45.471 161.604C45.471 163.466 45.0087 164.897 44.084 165.898C43.172 166.886 41.8103 167.38 39.999 167.38C39.0363 167.38 38.194 167.26 37.472 167.019C36.7627 166.778 36.2053 166.474 35.8 166.107C35.4073 165.74 35.0907 165.29 34.85 164.758C34.6093 164.226 34.451 163.726 34.375 163.257C34.3117 162.776 34.28 162.256 34.28 161.699V158.792C34.28 157.766 34.223 156.138 34.109 153.909C33.8683 153.871 33.4757 153.852 32.931 153.852C32.9057 153.763 32.893 153.662 32.893 153.548C32.893 153.434 32.9057 153.339 32.931 153.263ZM48.8739 158.583L48.2089 158.621C48.1583 158.532 48.1329 158.418 48.1329 158.279L48.1519 158.108C49.0386 157.956 49.6973 157.741 50.1279 157.462L50.3559 157.329C50.5459 157.329 50.7613 157.494 51.0019 157.823C51.2426 158.14 51.3756 158.532 51.4009 159.001C52.1229 158.545 52.6486 158.235 52.9779 158.07C53.3199 157.905 53.9089 157.658 54.7449 157.329C55.6696 157.506 56.4929 158.076 57.2149 159.039C57.9496 159.989 58.3169 161.097 58.3169 162.364C58.3169 163.086 58.2029 163.738 57.9749 164.321C57.7469 164.891 57.4429 165.353 57.0629 165.708C56.6829 166.05 56.2903 166.341 55.8849 166.582C55.4796 166.823 55.0616 167 54.6309 167.114C53.8963 167.291 53.3453 167.38 52.9779 167.38C52.6233 167.38 52.0659 167.285 51.3059 167.095V168.159C51.3059 171.541 51.3819 173.238 51.5339 173.251C51.9139 173.289 52.6233 173.308 53.6619 173.308C53.6873 173.397 53.6999 173.498 53.6999 173.612C53.6999 173.726 53.6873 173.821 53.6619 173.897L50.9259 173.84C49.8366 173.84 48.9499 173.891 48.2659 173.992C48.1899 173.916 48.1519 173.808 48.1519 173.669L48.1899 173.517C48.7093 173.39 49.0576 173.213 49.2349 172.985C49.4249 172.757 49.5453 172.466 49.5959 172.111C49.7226 171.224 49.7859 169.147 49.7859 165.879V161.243C49.7859 160.23 49.7226 159.533 49.5959 159.153C49.4819 158.773 49.2413 158.583 48.8739 158.583ZM51.3059 165.499C51.3059 165.689 51.6669 165.917 52.3889 166.183C53.1109 166.436 53.6176 166.563 53.9089 166.563C54.7196 166.563 55.3909 166.221 55.9229 165.537C56.4549 164.853 56.7209 163.985 56.7209 162.934C56.7209 161.87 56.4106 160.895 55.7899 160.008C55.1693 159.109 54.5106 158.659 53.8139 158.659C53.1173 158.659 52.2939 159.058 51.3439 159.856C51.3186 160.907 51.3059 162.788 51.3059 165.499ZM64.2963 167.057L62.2063 167C61.117 167 60.1733 167.051 59.3753 167.152C59.312 167.076 59.2803 166.968 59.2803 166.829L59.2993 166.677C59.8946 166.563 60.2873 166.392 60.4773 166.164C60.68 165.936 60.8256 165.55 60.9143 165.005C61.0156 164.46 61.0663 162.472 61.0663 159.039V154.175C61.0663 153.022 60.9333 152.319 60.6673 152.066C60.528 151.927 60.3506 151.844 60.1353 151.819L59.4513 151.743C59.4133 151.68 59.3943 151.604 59.3943 151.515C59.3943 151.414 59.4133 151.331 59.4513 151.268C60.3506 151.103 61.0473 150.901 61.5413 150.66C61.8706 150.495 62.2443 150.274 62.6623 149.995C62.789 149.995 62.8903 150.058 62.9663 150.185C62.7003 151.844 62.5673 154.815 62.5673 159.096V161.319C62.5673 164.65 62.6496 166.341 62.8143 166.392C63.0423 166.443 63.5363 166.468 64.2963 166.468C64.3216 166.557 64.3343 166.658 64.3343 166.772C64.3343 166.886 64.3216 166.981 64.2963 167.057ZM75.18 162.364C75.18 165.176 73.546 166.848 70.278 167.38C68.9354 167.38 67.8017 166.905 66.877 165.955C65.965 164.992 65.509 163.795 65.509 162.364C65.509 159.527 67.1494 157.848 70.43 157.329C71.76 157.329 72.881 157.817 73.793 158.792C74.7177 159.767 75.18 160.958 75.18 162.364ZM70.696 166.563C72.52 166.563 73.432 165.398 73.432 163.067C73.432 161.75 73.128 160.597 72.52 159.609C71.912 158.621 71.1077 158.127 70.107 158.127C69.1064 158.127 68.378 158.45 67.922 159.096C67.4787 159.729 67.257 160.641 67.257 161.832C67.257 163.01 67.5674 164.093 68.188 165.081C68.8087 166.069 69.6447 166.563 70.696 166.563ZM83.4425 160.084L83.3855 164.72C83.3855 165.645 83.6832 166.107 84.2785 166.107L84.9625 166.088C85.0132 166.151 85.0385 166.253 85.0385 166.392L85.0005 166.601C84.0252 166.778 83.3285 167.038 82.9105 167.38C82.6318 167.304 82.3912 167.133 82.1885 166.867C81.9985 166.588 81.8908 166.297 81.8655 165.993C80.8522 166.614 79.8452 167.076 78.8445 167.38C78.4138 167.38 77.9705 167.139 77.5145 166.658C77.0585 166.164 76.8305 165.55 76.8305 164.815C76.8305 164.448 76.9128 164.118 77.0775 163.827C77.2422 163.523 77.4385 163.314 77.6665 163.2C78.6038 162.731 79.9972 162.32 81.8465 161.965V160.16C81.8465 159.463 81.7325 158.944 81.5045 158.602C81.2892 158.26 81.0232 158.089 80.7065 158.089C80.4025 158.089 80.0732 158.146 79.7185 158.26C79.3638 158.361 79.1105 158.564 78.9585 158.868C78.8192 159.172 78.7495 159.603 78.7495 160.16C78.7495 160.211 78.6608 160.268 78.4835 160.331C78.3188 160.382 78.1035 160.407 77.8375 160.407C77.5842 160.407 77.4068 160.35 77.3055 160.236C77.2168 160.109 77.1725 159.926 77.1725 159.685C77.1725 159.229 77.5018 158.735 78.1605 158.203C78.3125 158.102 78.7558 157.931 79.4905 157.69C80.2378 157.449 80.6685 157.329 80.7825 157.329C81.6945 157.329 82.3658 157.595 82.7965 158.127C83.2272 158.659 83.4425 159.311 83.4425 160.084ZM78.5215 164.72C78.5215 165.024 78.6418 165.353 78.8825 165.708C79.1232 166.063 79.3955 166.24 79.6995 166.24C80.0162 166.24 80.3772 166.132 80.7825 165.917C81.1878 165.702 81.5235 165.474 81.7895 165.233C81.8275 164.486 81.8465 163.624 81.8465 162.649C80.7825 162.788 79.8452 163.092 79.0345 163.561C78.6925 163.726 78.5215 164.112 78.5215 164.72ZM94.7126 162.269C94.7126 163.954 94.7443 164.948 94.8076 165.252C94.909 165.822 95.1686 166.107 95.5866 166.107C95.7386 166.107 95.9666 166.101 96.2706 166.088C96.3213 166.177 96.3466 166.284 96.3466 166.411L96.3276 166.601C95.4663 166.753 94.833 166.962 94.4276 167.228L94.1996 167.38C94.0096 167.38 93.788 167.203 93.5346 166.848C93.2813 166.493 93.1546 166.094 93.1546 165.651C92.1666 166.284 90.9886 166.861 89.6206 167.38C88.696 167.19 87.8726 166.62 87.1506 165.67C86.4286 164.707 86.0676 163.599 86.0676 162.345C86.0676 161.534 86.226 160.812 86.5426 160.179C86.8593 159.533 87.233 159.045 87.6636 158.716C88.0943 158.374 88.563 158.089 89.0696 157.861C89.855 157.506 90.4946 157.329 90.9886 157.329C91.0393 157.329 91.774 157.43 93.1926 157.633V154.175C93.1926 153.022 93.0596 152.319 92.7936 152.066C92.6543 151.927 92.4706 151.844 92.2426 151.819L91.5586 151.743C91.508 151.642 91.4826 151.566 91.4826 151.515L91.5586 151.268C92.1033 151.167 92.629 151.034 93.1356 150.869C93.6423 150.679 94.1933 150.388 94.7886 149.995C94.9406 149.995 95.042 150.058 95.0926 150.185C94.8393 151.148 94.7126 155.176 94.7126 162.269ZM87.6636 161.623C87.6636 162.776 87.955 163.802 88.5376 164.701C89.133 165.588 89.7916 166.031 90.5136 166.031C91.2483 166.031 92.1413 165.638 93.1926 164.853V159.4C93.1926 159.045 92.762 158.748 91.9006 158.507C91.0393 158.254 90.4376 158.127 90.0956 158.127C89.5636 158.127 89.0253 158.494 88.4806 159.229C87.936 159.951 87.6636 160.749 87.6636 161.623ZM112.006 162.269C112.006 163.954 112.037 164.948 112.101 165.252C112.202 165.822 112.462 166.107 112.88 166.107C113.032 166.107 113.26 166.101 113.564 166.088C113.614 166.177 113.64 166.284 113.64 166.411L113.621 166.601C112.759 166.753 112.126 166.962 111.721 167.228L111.493 167.38C111.303 167.38 111.081 167.203 110.828 166.848C110.574 166.493 110.448 166.094 110.448 165.651C109.46 166.284 108.282 166.861 106.914 167.38C105.989 167.19 105.166 166.62 104.444 165.67C103.722 164.707 103.361 163.599 103.361 162.345C103.361 161.534 103.519 160.812 103.836 160.179C104.152 159.533 104.526 159.045 104.957 158.716C105.387 158.374 105.856 158.089 106.363 157.861C107.148 157.506 107.788 157.329 108.282 157.329C108.332 157.329 109.067 157.43 110.486 157.633V154.175C110.486 153.022 110.353 152.319 110.087 152.066C109.947 151.927 109.764 151.844 109.536 151.819L108.852 151.743C108.801 151.642 108.776 151.566 108.776 151.515L108.852 151.268C109.396 151.167 109.922 151.034 110.429 150.869C110.935 150.679 111.486 150.388 112.082 149.995C112.234 149.995 112.335 150.058 112.386 150.185C112.132 151.148 112.006 155.176 112.006 162.269ZM104.957 161.623C104.957 162.776 105.248 163.802 105.831 164.701C106.426 165.588 107.085 166.031 107.807 166.031C108.541 166.031 109.434 165.638 110.486 164.853V159.4C110.486 159.045 110.055 158.748 109.194 158.507C108.332 158.254 107.731 158.127 107.389 158.127C106.857 158.127 106.318 158.494 105.774 159.229C105.229 159.951 104.957 160.749 104.957 161.623ZM121.572 160.084L121.515 164.72C121.515 165.645 121.813 166.107 122.408 166.107L123.092 166.088C123.143 166.151 123.168 166.253 123.168 166.392L123.13 166.601C122.155 166.778 121.458 167.038 121.04 167.38C120.762 167.304 120.521 167.133 120.318 166.867C120.128 166.588 120.021 166.297 119.995 165.993C118.982 166.614 117.975 167.076 116.974 167.38C116.544 167.38 116.1 167.139 115.644 166.658C115.188 166.164 114.96 165.55 114.96 164.815C114.96 164.448 115.043 164.118 115.207 163.827C115.372 163.523 115.568 163.314 115.796 163.2C116.734 162.731 118.127 162.32 119.976 161.965V160.16C119.976 159.463 119.862 158.944 119.634 158.602C119.419 158.26 119.153 158.089 118.836 158.089C118.532 158.089 118.203 158.146 117.848 158.26C117.494 158.361 117.24 158.564 117.088 158.868C116.949 159.172 116.879 159.603 116.879 160.16C116.879 160.211 116.791 160.268 116.613 160.331C116.449 160.382 116.233 160.407 115.967 160.407C115.714 160.407 115.537 160.35 115.435 160.236C115.347 160.109 115.302 159.926 115.302 159.685C115.302 159.229 115.632 158.735 116.29 158.203C116.442 158.102 116.886 157.931 117.62 157.69C118.368 157.449 118.798 157.329 118.912 157.329C119.824 157.329 120.496 157.595 120.926 158.127C121.357 158.659 121.572 159.311 121.572 160.084ZM116.651 164.72C116.651 165.024 116.772 165.353 117.012 165.708C117.253 166.063 117.525 166.24 117.829 166.24C118.146 166.24 118.507 166.132 118.912 165.917C119.318 165.702 119.653 165.474 119.919 165.233C119.957 164.486 119.976 163.624 119.976 162.649C118.912 162.788 117.975 163.092 117.164 163.561C116.822 163.726 116.651 164.112 116.651 164.72ZM126.991 162.915C126.991 165.018 127.352 166.069 128.074 166.069C128.606 166.069 129.296 165.892 130.145 165.537C130.335 165.6 130.43 165.778 130.43 166.069C129.505 166.563 128.441 167 127.238 167.38C126.642 167.38 126.186 167.076 125.87 166.468C125.566 165.86 125.414 165.043 125.414 164.017V159.609C125.414 158.862 125.369 158.488 125.281 158.488L123.875 158.507C123.786 158.482 123.742 158.418 123.742 158.317C123.805 158.19 123.862 157.962 123.913 157.633H125.262C125.363 157.633 125.414 157.411 125.414 156.968L125.395 155.353C125.863 155.163 126.345 154.77 126.839 154.175C126.991 154.175 127.105 154.213 127.181 154.289C127.067 155.619 127.01 156.734 127.01 157.633C127.934 157.633 128.846 157.589 129.746 157.5C129.834 157.551 129.879 157.627 129.879 157.728C129.803 157.855 129.739 158.089 129.689 158.431L126.991 158.469V162.915ZM137.789 160.084L137.732 164.72C137.732 165.645 138.03 166.107 138.625 166.107L139.309 166.088C139.36 166.151 139.385 166.253 139.385 166.392L139.347 166.601C138.372 166.778 137.675 167.038 137.257 167.38C136.979 167.304 136.738 167.133 136.535 166.867C136.345 166.588 136.238 166.297 136.212 165.993C135.199 166.614 134.192 167.076 133.191 167.38C132.761 167.38 132.317 167.139 131.861 166.658C131.405 166.164 131.177 165.55 131.177 164.815C131.177 164.448 131.26 164.118 131.424 163.827C131.589 163.523 131.785 163.314 132.013 163.2C132.951 162.731 134.344 162.32 136.193 161.965V160.16C136.193 159.463 136.079 158.944 135.851 158.602C135.636 158.26 135.37 158.089 135.053 158.089C134.749 158.089 134.42 158.146 134.065 158.26C133.711 158.361 133.457 158.564 133.305 158.868C133.166 159.172 133.096 159.603 133.096 160.16C133.096 160.211 133.008 160.268 132.83 160.331C132.666 160.382 132.45 160.407 132.184 160.407C131.931 160.407 131.754 160.35 131.652 160.236C131.564 160.109 131.519 159.926 131.519 159.685C131.519 159.229 131.849 158.735 132.507 158.203C132.659 158.102 133.103 157.931 133.837 157.69C134.585 157.449 135.015 157.329 135.129 157.329C136.041 157.329 136.713 157.595 137.143 158.127C137.574 158.659 137.789 159.311 137.789 160.084ZM132.868 164.72C132.868 165.024 132.989 165.353 133.229 165.708C133.47 166.063 133.742 166.24 134.046 166.24C134.363 166.24 134.724 166.132 135.129 165.917C135.535 165.702 135.87 165.474 136.136 165.233C136.174 164.486 136.193 163.624 136.193 162.649C135.129 162.788 134.192 163.092 133.381 163.561C133.039 163.726 132.868 164.112 132.868 164.72ZM149.033 162.915C149.033 165.018 149.394 166.069 150.116 166.069C150.648 166.069 151.339 165.892 152.187 165.537C152.377 165.6 152.472 165.778 152.472 166.069C151.548 166.563 150.484 167 149.28 167.38C148.685 167.38 148.229 167.076 147.912 166.468C147.608 165.86 147.456 165.043 147.456 164.017V159.609C147.456 158.862 147.412 158.488 147.323 158.488L145.917 158.507C145.829 158.482 145.784 158.418 145.784 158.317C145.848 158.19 145.905 157.962 145.955 157.633H147.304C147.406 157.633 147.456 157.411 147.456 156.968L147.437 155.353C147.906 155.163 148.387 154.77 148.881 154.175C149.033 154.175 149.147 154.213 149.223 154.289C149.109 155.619 149.052 156.734 149.052 157.633C149.977 157.633 150.889 157.589 151.788 157.5C151.877 157.551 151.921 157.627 151.921 157.728C151.845 157.855 151.782 158.089 151.731 158.431L149.033 158.469V162.915ZM162.758 162.364C162.758 165.176 161.124 166.848 157.856 167.38C156.513 167.38 155.38 166.905 154.455 165.955C153.543 164.992 153.087 163.795 153.087 162.364C153.087 159.527 154.727 157.848 158.008 157.329C159.338 157.329 160.459 157.817 161.371 158.792C162.296 159.767 162.758 160.958 162.758 162.364ZM158.274 166.563C160.098 166.563 161.01 165.398 161.01 163.067C161.01 161.75 160.706 160.597 160.098 159.609C159.49 158.621 158.686 158.127 157.685 158.127C156.684 158.127 155.956 158.45 155.5 159.096C155.057 159.729 154.835 160.641 154.835 161.832C154.835 163.01 155.145 164.093 155.766 165.081C156.387 166.069 157.223 166.563 158.274 166.563ZM187.886 167.057L185.91 167C184.542 167 183.433 167.051 182.585 167.152C182.521 167.076 182.49 166.968 182.49 166.829L182.509 166.677C183.269 166.5 183.75 166.31 183.953 166.107C184.155 165.904 184.276 165.474 184.314 164.815C184.352 164.156 184.371 163.472 184.371 162.763C184.371 162.041 184.333 160.945 184.257 159.476L184.105 156.36C183.522 157.437 182.61 159.267 181.369 161.851C180.14 164.435 179.342 166.278 178.975 167.38H178.443C175.973 161.794 174.389 158.393 173.693 157.177L172.895 155.809C172.844 157.38 172.819 159.299 172.819 161.566C172.819 163.821 172.895 165.436 173.047 166.411C173.325 166.449 173.819 166.468 174.529 166.468C174.567 166.569 174.586 166.683 174.586 166.81C174.586 166.924 174.567 167.006 174.529 167.057L172.382 167C171.508 167 170.773 167.051 170.178 167.152C170.114 167.076 170.083 166.968 170.083 166.829L170.102 166.677C170.722 166.538 171.134 166.335 171.337 166.069C171.552 165.803 171.691 165.455 171.755 165.024C172.059 162.858 172.236 159.444 172.287 154.783C171.945 154.352 171.571 154.048 171.166 153.871C171.115 153.858 170.76 153.808 170.102 153.719L170.045 153.453C170.045 153.326 170.064 153.225 170.102 153.149L173.142 153.073C173.332 153.073 173.655 153.409 174.111 154.08C174.579 154.751 175.042 155.499 175.498 156.322C175.954 157.133 176.479 158.19 177.075 159.495C177.683 160.8 178.189 161.927 178.595 162.877C179 163.827 179.228 164.346 179.279 164.435C179.443 164.068 180.222 162.415 181.616 159.476C183.009 156.525 183.927 154.473 184.371 153.32C185.65 153.32 186.67 153.263 187.43 153.149C187.493 153.263 187.525 153.421 187.525 153.624C186.891 153.763 186.467 153.972 186.252 154.251C186.036 154.53 185.916 154.827 185.891 155.144C185.865 155.461 185.853 156.056 185.853 156.93C185.853 157.804 185.891 159.286 185.967 161.376C186.055 163.466 186.188 165.144 186.366 166.411C186.606 166.449 187.113 166.468 187.886 166.468C187.924 166.557 187.943 166.658 187.943 166.772C187.943 166.886 187.924 166.981 187.886 167.057ZM190.463 157.633L192.097 157.576C192.122 157.639 192.135 157.734 192.135 157.861L192.097 158.165C191.704 158.165 191.426 158.178 191.261 158.203C191.375 158.976 191.679 159.957 192.173 161.148L194.016 165.708L195.669 161.471C196.226 160.04 196.543 158.976 196.619 158.279C196.163 158.228 195.694 158.203 195.213 158.203C195.162 158.127 195.137 158.038 195.137 157.937C195.137 157.836 195.15 157.734 195.175 157.633H197.037C197.62 157.633 198.152 157.595 198.633 157.519C198.734 157.684 198.785 157.848 198.785 158.013C198.468 158.152 198.24 158.292 198.101 158.431C197.759 158.798 197.385 159.451 196.98 160.388L194.225 167C194.06 167.393 193.794 168.07 193.427 169.033C193.06 170.008 192.8 170.686 192.648 171.066C192.509 171.446 192.376 171.801 192.249 172.13C192.122 172.472 191.977 172.827 191.812 173.194C191.47 173.979 191.198 174.372 190.995 174.372C190.932 174.372 190.799 174.334 190.596 174.258C190.051 174.068 189.437 173.897 188.753 173.745C188.753 173.492 188.81 173.289 188.924 173.137C189.38 173.213 189.627 173.251 189.665 173.251C190.032 173.251 190.501 172.82 191.071 171.959C191.654 171.11 192.103 170.268 192.42 169.432L193.104 167.608L190.007 160.008C189.69 159.21 189.399 158.672 189.133 158.393C188.968 158.19 188.721 158.038 188.392 157.937C188.392 157.709 188.424 157.544 188.487 157.443C189.323 157.57 189.982 157.633 190.463 157.633ZM199.719 153.263L202.607 153.32H205.533C206.736 153.32 207.705 153.586 208.44 154.118C209.187 154.65 209.561 155.429 209.561 156.455C209.561 157.278 209.282 157.975 208.725 158.545C208.168 159.115 207.591 159.476 206.996 159.628C208.035 159.818 208.839 160.223 209.409 160.844C209.992 161.465 210.283 162.275 210.283 163.276C210.283 164.441 209.77 165.353 208.744 166.012C207.731 166.671 206.464 167 204.944 167C202.17 167 200.371 167.051 199.548 167.152C199.485 167.076 199.453 166.968 199.453 166.829L199.472 166.677C200.131 166.525 200.561 166.291 200.764 165.974C200.929 165.721 201.036 165.404 201.087 165.024C201.239 163.871 201.315 162.301 201.315 160.312C201.315 156.145 201.201 154.023 200.973 153.947C200.732 153.884 200.314 153.852 199.719 153.852C199.694 153.763 199.681 153.662 199.681 153.548C199.681 153.434 199.694 153.339 199.719 153.263ZM202.949 159.932V163.732C202.949 164.923 202.987 165.759 203.063 166.24C203.519 166.291 204.051 166.316 204.659 166.316C205.964 166.316 206.933 166.094 207.566 165.651C208.212 165.208 208.535 164.492 208.535 163.504C208.535 162.503 208.218 161.674 207.585 161.015C206.952 160.356 206.128 160.027 205.115 160.027H204.317C204.241 159.938 204.203 159.831 204.203 159.704L204.317 159.324H204.868C206.895 159.324 207.908 158.444 207.908 156.683C207.908 155.809 207.642 155.144 207.11 154.688C206.578 154.219 205.875 153.985 205.001 153.985C204.14 153.985 203.532 154.01 203.177 154.061C203.025 154.669 202.949 156.626 202.949 159.932ZM216.832 167.057L215.122 167C214.235 167 213.399 167.051 212.614 167.152C212.538 167.051 212.5 166.943 212.5 166.829L212.538 166.677C213.082 166.55 213.45 166.354 213.64 166.088C213.779 165.885 213.887 165.645 213.963 165.366C214.039 165.075 214.077 164.251 214.077 162.896V161.072C214.077 160.287 214.039 159.742 213.963 159.438C213.899 159.134 213.798 158.931 213.659 158.83C213.519 158.729 213.336 158.665 213.108 158.64L212.405 158.583C212.367 158.532 212.348 158.45 212.348 158.336L212.405 158.089C213.063 157.95 213.595 157.81 214.001 157.671C214.419 157.519 214.906 157.304 215.464 157.025C215.603 157.025 215.698 157.101 215.749 157.253C215.597 158.114 215.521 160.166 215.521 163.409C215.521 163.992 215.54 164.638 215.578 165.347C215.628 166.044 215.692 166.398 215.768 166.411C215.958 166.449 216.312 166.468 216.832 166.468C216.87 166.557 216.889 166.658 216.889 166.772C216.889 166.886 216.87 166.981 216.832 167.057ZM215.046 154.859C214.59 154.542 214.267 154.124 214.077 153.605C214.229 153.428 214.431 153.244 214.685 153.054C214.951 152.851 215.179 152.712 215.369 152.636C215.85 152.991 216.16 153.415 216.3 153.909C215.945 154.365 215.527 154.682 215.046 154.859ZM228.182 162.364C228.182 165.176 226.548 166.848 223.28 167.38C221.937 167.38 220.804 166.905 219.879 165.955C218.967 164.992 218.511 163.795 218.511 162.364C218.511 159.527 220.151 157.848 223.432 157.329C224.762 157.329 225.883 157.817 226.795 158.792C227.72 159.767 228.182 160.958 228.182 162.364ZM223.698 166.563C225.522 166.563 226.434 165.398 226.434 163.067C226.434 161.75 226.13 160.597 225.522 159.609C224.914 158.621 224.11 158.127 223.109 158.127C222.108 158.127 221.38 158.45 220.924 159.096C220.481 159.729 220.259 160.641 220.259 161.832C220.259 163.01 220.569 164.093 221.19 165.081C221.811 166.069 222.647 166.563 223.698 166.563ZM229.87 153.263L232.758 153.32H235.684C236.888 153.32 237.857 153.586 238.591 154.118C239.339 154.65 239.712 155.429 239.712 156.455C239.712 157.278 239.434 157.975 238.876 158.545C238.319 159.115 237.743 159.476 237.147 159.628C238.186 159.818 238.99 160.223 239.56 160.844C240.143 161.465 240.434 162.275 240.434 163.276C240.434 164.441 239.921 165.353 238.895 166.012C237.882 166.671 236.615 167 235.095 167C232.321 167 230.523 167.051 229.699 167.152C229.636 167.076 229.604 166.968 229.604 166.829L229.623 166.677C230.282 166.525 230.713 166.291 230.915 165.974C231.08 165.721 231.188 165.404 231.238 165.024C231.39 163.871 231.466 162.301 231.466 160.312C231.466 156.145 231.352 154.023 231.124 153.947C230.884 153.884 230.466 153.852 229.87 153.852C229.845 153.763 229.832 153.662 229.832 153.548C229.832 153.434 229.845 153.339 229.87 153.263ZM233.1 159.932V163.732C233.1 164.923 233.138 165.759 233.214 166.24C233.67 166.291 234.202 166.316 234.81 166.316C236.115 166.316 237.084 166.094 237.717 165.651C238.363 165.208 238.686 164.492 238.686 163.504C238.686 162.503 238.37 161.674 237.736 161.015C237.103 160.356 236.28 160.027 235.266 160.027H234.468C234.392 159.938 234.354 159.831 234.354 159.704L234.468 159.324H235.019C237.046 159.324 238.059 158.444 238.059 156.683C238.059 155.809 237.793 155.144 237.261 154.688C236.729 154.219 236.026 153.985 235.152 153.985C234.291 153.985 233.683 154.01 233.328 154.061C233.176 154.669 233.1 156.626 233.1 159.932ZM252.303 162.364C252.303 165.176 250.669 166.848 247.401 167.38C246.058 167.38 244.925 166.905 244 165.955C243.088 164.992 242.632 163.795 242.632 162.364C242.632 159.527 244.272 157.848 247.553 157.329C248.883 157.329 250.004 157.817 250.916 158.792C251.841 159.767 252.303 160.958 252.303 162.364ZM247.819 166.563C249.643 166.563 250.555 165.398 250.555 163.067C250.555 161.75 250.251 160.597 249.643 159.609C249.035 158.621 248.231 158.127 247.23 158.127C246.229 158.127 245.501 158.45 245.045 159.096C244.602 159.729 244.38 160.641 244.38 161.832C244.38 163.01 244.69 164.093 245.311 165.081C245.932 166.069 246.768 166.563 247.819 166.563ZM256.614 162.915C256.614 165.018 256.975 166.069 257.697 166.069C258.229 166.069 258.919 165.892 259.768 165.537C259.958 165.6 260.053 165.778 260.053 166.069C259.128 166.563 258.064 167 256.861 167.38C256.265 167.38 255.809 167.076 255.493 166.468C255.189 165.86 255.037 165.043 255.037 164.017V159.609C255.037 158.862 254.992 158.488 254.904 158.488L253.498 158.507C253.409 158.482 253.365 158.418 253.365 158.317C253.428 158.19 253.485 157.962 253.536 157.633H254.885C254.986 157.633 255.037 157.411 255.037 156.968L255.018 155.353C255.486 155.163 255.968 154.77 256.462 154.175C256.614 154.175 256.728 154.213 256.804 154.289C256.69 155.619 256.633 156.734 256.633 157.633C257.557 157.633 258.469 157.589 259.369 157.5C259.457 157.551 259.502 157.627 259.502 157.728C259.426 157.855 259.362 158.089 259.312 158.431L256.614 158.469V162.915Z" fill="black"/>
<defs>
<filter id="filter0_d" x="0" y="145" width="282" height="38" filterUnits="userSpaceOnUse" color-interpolation-filters="sRGB">
<feFlood flood-opacity="0" result="BackgroundImageFix"/>
<feColorMatrix in="SourceAlpha" type="matrix" values="0 0 0 0 0 0 0 0 0 0 0 0 0 0 0 0 0 0 127 0" result="hardAlpha"/>
<feOffset dy="4"/>
<feGaussianBlur stdDeviation="2"/>
<feColorMatrix type="matrix" values="0 0 0 0 0 0 0 0 0 0 0 0 0 0 0 0 0 0 0.25 0"/>
<feBlend mode="normal" in2="BackgroundImageFix" result="effect1_dropShadow"/>
<feBlend mode="normal" in="SourceGraphic" in2="effect1_dropShadow" result="shape"/>
</filter>
<filter id="filter1_d" x="63" y="0" width="158" height="150" filterUnits="userSpaceOnUse" color-interpolation-filters="sRGB">
<feFlood flood-opacity="0" result="BackgroundImageFix"/>
<feColorMatrix in="SourceAlpha" type="matrix" values="0 0 0 0 0 0 0 0 0 0 0 0 0 0 0 0 0 0 127 0" result="hardAlpha"/>
<feOffset dy="4"/>
<feGaussianBlur stdDeviation="2"/>
<feColorMatrix type="matrix" values="0 0 0 0 0 0 0 0 0 0 0 0 0 0 0 0 0 0 0.25 0"/>
<feBlend mode="normal" in2="BackgroundImageFix" result="effect1_dropShadow"/>
<feBlend mode="normal" in="SourceGraphic" in2="effect1_dropShadow" result="shape"/>
</filter>
<filter id="filter2_i" x="97" y="15" width="87.71" height="109.78" filterUnits="userSpaceOnUse" color-interpolation-filters="sRGB">
<feFlood flood-opacity="0" result="BackgroundImageFix"/>
<feBlend mode="normal" in="SourceGraphic" in2="BackgroundImageFix" result="shape"/>
<feColorMatrix in="SourceAlpha" type="matrix" values="0 0 0 0 0 0 0 0 0 0 0 0 0 0 0 0 0 0 127 0" result="hardAlpha"/>
<feOffset dy="4"/>
<feGaussianBlur stdDeviation="2"/>
<feComposite in2="hardAlpha" operator="arithmetic" k2="-1" k3="1"/>
<feColorMatrix type="matrix" values="0 0 0 0 0 0 0 0 0 0 0 0 0 0 0 0 0 0 0.25 0"/>
<feBlend mode="normal" in2="shape" result="effect1_innerShadow"/>
</filter>
</defs>
</svg>
