<?xml version="1.0" encoding="utf-8"?>
<!-- Generator: Adobe Illustrator 24.1.2, SVG Export Plug-In . SVG Version: 6.00 Build 0)  -->
<svg version="1.1" id="Слой_1" xmlns="http://www.w3.org/2000/svg" xmlns:xlink="http://www.w3.org/1999/xlink" x="0px" y="0px"
	 viewBox="0 0 129.49 130.33" style="enable-background:new 0 0 129.49 130.33;" xml:space="preserve">
<style type="text/css">
	.st0{fill:#FEF6F1;}
	.st1{fill:#D1AAD1;}
	.st2{fill:#877069;}
	.st3{fill:#FEF6F1;stroke:#000000;stroke-miterlimit:10;}
	.st4{opacity:0.8;}
	.st5{display:none;}
	.st6{display:inline;fill:#FEF6F1;stroke:#000000;stroke-width:0.75;stroke-miterlimit:10;}
	.st7{display:inline;}
	.st8{display:inline;fill:#FFFFFF;}
	
		.st9{display:inline;fill:#E1B1BA;stroke:#000000;stroke-width:0.75;stroke-linecap:square;stroke-linejoin:round;stroke-miterlimit:10;}
	.st10{display:inline;fill:none;stroke:#000000;stroke-width:0.75;stroke-miterlimit:10;}
	.st11{fill:#69A2AD;stroke:#000000;stroke-width:0.75;stroke-miterlimit:10;}
	.st12{fill:none;stroke:#000000;stroke-miterlimit:10;}
	.st13{fill:#E1B1BA;}
	.st14{fill:#916E77;}
	.st15{fill:#69A2AD;}
	.st16{fill:#332019;}
	.st17{fill:#EAB788;}
	.st18{fill:#D6A074;}
	.st19{fill:none;stroke:#D6A074;stroke-width:0.75;stroke-miterlimit:10;}
	.st20{fill:#F9F9F9;}
	.st21{fill:none;stroke:#F9F9F9;stroke-width:0.05;stroke-miterlimit:10;}
	.st22{fill:none;stroke:#000000;stroke-width:0.05;stroke-miterlimit:10;}
	.st23{fill:#A8828D;}
	.st24{fill:#D1BCB0;}
	.st25{opacity:0.51;}
	.st26{fill:none;stroke:#020100;stroke-width:0.05;stroke-miterlimit:10;}
	.st27{fill:none;stroke:#000000;stroke-width:0.25;stroke-miterlimit:10;}
	.st28{opacity:0.39;}
	.st29{opacity:0.44;}
	.st30{fill:#E6B398;}
	.st31{fill:#C78C6B;}
	.st32{fill:#E5B25C;}
	.st33{fill:#AAD274;stroke:#87C25E;stroke-miterlimit:10;}
	.st34{fill:none;stroke:#87C25E;stroke-miterlimit:10;}
	.st35{fill:#D19C4E;}
	.st36{opacity:0.42;fill:none;stroke:#000000;stroke-width:0.5;stroke-miterlimit:10;}
	.st37{fill:#AAD274;}
	.st38{fill:#E1B1BA;stroke:#FFFFFF;stroke-miterlimit:10;}
	.st39{fill:#DB7993;}
	.st40{fill:#69A2AD;stroke:#FFFFFF;stroke-miterlimit:10;}
	.st41{fill:none;stroke:#000000;stroke-width:1.5;stroke-miterlimit:10;}
	.st42{fill:none;stroke:#000000;stroke-width:0.75;stroke-miterlimit:10;}
	.st43{fill:none;stroke:#AAD274;stroke-miterlimit:10;}
	.st44{fill:#FF7B97;}
	.st45{fill:none;stroke:#000000;stroke-width:6;stroke-miterlimit:10;}
	.st46{fill:none;stroke:#FEF6F1;stroke-miterlimit:10;}
	.st47{fill:none;stroke:#F9F9F9;stroke-miterlimit:10;}
	.st48{fill:none;stroke:#020000;stroke-width:5;stroke-miterlimit:10;}
	.st49{fill:#AFE260;}
	.st50{clip-path:url(#SVGID_2_);fill:#F0C922;}
	.st51{clip-path:url(#SVGID_2_);fill:none;stroke:#FEF6F1;stroke-width:0.25;stroke-miterlimit:10;}
	.st52{clip-path:url(#SVGID_4_);fill:#F0C922;}
	.st53{clip-path:url(#SVGID_4_);fill:none;stroke:#FEF6F1;stroke-width:0.25;stroke-miterlimit:10;}
	.st54{fill:#E5675A;}
	.st55{fill:#D35D3D;}
	.st56{clip-path:url(#SVGID_6_);fill:#F0C922;}
	.st57{clip-path:url(#SVGID_6_);fill:none;stroke:#FEF6F1;stroke-width:0.25;stroke-miterlimit:10;}
	.st58{clip-path:url(#SVGID_8_);fill:#F0C922;}
	.st59{clip-path:url(#SVGID_8_);fill:none;stroke:#FEF6F1;stroke-width:0.25;stroke-miterlimit:10;}
	.st60{clip-path:url(#SVGID_10_);fill:#F0C922;}
	.st61{clip-path:url(#SVGID_10_);fill:none;stroke:#FEF6F1;stroke-width:0.25;stroke-miterlimit:10;}
	.st62{fill:#ADA8A8;}
	.st63{fill:#595353;}
	.st64{fill:#6B6666;}
	.st65{fill:#F9ABA0;}
	.st66{fill:#EF9F97;}
	.st67{opacity:0.69;fill:#AAD274;}
</style>
<symbol  id="Новый_символ" viewBox="-1.05 -1.05 2.09 2.09">
	<circle class="st0" cx="0" cy="0" r="1.05"/>
</symbol>
<symbol  id="Новый_символ_1" viewBox="-1.05 -1.05 2.09 2.09">
	<circle class="st1" cx="0" cy="0" r="1.05"/>
</symbol>
<symbol  id="Новый_символ_2" viewBox="-0.65 -0.65 1.31 1.31">
	<circle class="st0" cx="0" cy="0" r="0.65"/>
</symbol>
<symbol  id="Новый_символ_3" viewBox="-0.31 -0.31 0.63 0.63">
	<circle class="st2" cx="0" cy="0" r="0.31"/>
</symbol>
<symbol  id="Новый_символ_4" viewBox="-0.78 -0.78 1.57 1.57">
	<circle class="st2" cx="0" cy="0" r="0.78"/>
</symbol>
<g>
	<path class="st12" d="M47.54,11.41c1.43,1.72,2.88,3.47,3.77,5.52c0.89,2.05,1.17,4.48,0.22,6.5c-0.94,2-3.07,3.38-5.27,3.42
		c-1.09,0.02-2.22-0.29-3.02-1.03s-1.19-1.95-0.8-2.97c0.49-1.26,1.96-1.86,3.31-1.94c3.82-0.22,7.44,2.81,8.28,6.55
		c0.84,3.73-1.18,9.04-4.2,11.38"/>
	<path class="st12" d="M82.3,11.41c-1.43,1.72-2.88,3.47-3.77,5.52c-0.89,2.05-1.17,4.48-0.22,6.5c0.94,2,3.07,3.38,5.27,3.42
		c1.09,0.02,2.22-0.29,3.02-1.03s1.19-1.95,0.8-2.97c-0.49-1.26-1.96-1.86-3.31-1.94c-3.82-0.22-7.44,2.81-8.28,6.55
		c-0.84,3.73,0.87,9.04,3.9,11.38"/>
</g>
<g>
	<path class="st13" d="M80.62,95.5H49.1c-9.37,0-16.97-7.6-16.97-16.97V55.11c0-9.37,7.6-16.97,16.97-16.97h31.52
		c9.37,0,16.97,7.6,16.97,16.97v23.41C97.59,87.9,89.99,95.5,80.62,95.5z"/>
</g>
<g>
	<path class="st14" d="M81.44,80.72l-33.17,0c-6.99,0-12.66-5.67-12.66-12.66v-2.99c0-6.7,5.44-12.14,12.14-12.14h34.22
		c6.7,0,12.14,5.44,12.14,12.14v2.99C94.1,75.05,88.43,80.72,81.44,80.72z"/>
</g>
<circle class="st15" cx="45.58" cy="9.95" r="2.69"/>
<circle class="st15" cx="84.26" cy="9.95" r="2.69"/>
<circle class="st15" cx="76.37" cy="66.82" r="5.8"/>
<circle class="st15" cx="54.23" cy="66.82" r="5.8"/>
<g>
	<g>
		<path class="st14" d="M100.37,55.57L100.37,55.57c1.54,0,2.78,1.25,2.78,2.78v16.93c0,1.54-1.25,2.78-2.78,2.78h0
			c-1.54,0-2.78-1.25-2.78-2.78V58.35C97.59,56.82,98.83,55.57,100.37,55.57z"/>
	</g>
	<g>
		<path class="st13" d="M105.94,58.23L105.94,58.23c1.54,0,2.78,1.25,2.78,2.78v11.61c0,1.54-1.25,2.78-2.78,2.78l0,0
			c-1.54,0-2.78-1.25-2.78-2.78V61.01C103.15,59.47,104.4,58.23,105.94,58.23z"/>
	</g>
</g>
<g>
	<g>
		<path class="st13" d="M23.79,58.18L23.79,58.18c1.54,0,2.78,1.25,2.78,2.78v11.61c0,1.54-1.25,2.78-2.78,2.78h0
			c-1.54,0-2.78-1.25-2.78-2.78V60.96C21,59.42,22.25,58.18,23.79,58.18z"/>
	</g>
	<g>
		<path class="st14" d="M29.35,55.52L29.35,55.52c1.54,0,2.78,1.25,2.78,2.78v16.93c0,1.54-1.25,2.78-2.78,2.78h0
			c-1.54,0-2.78-1.25-2.78-2.78V58.3C26.57,56.76,27.82,55.52,29.35,55.52z"/>
	</g>
</g>
<g>
	<path d="M30.61,115.07l-5.25-12.06l-2.58,13.16h-0.8l2.72-14.21l1.11,0.02l4.81,11.03l4.77-11.03l1.11-0.02l2.74,14.21h-0.8
		l-2.56-13.16L30.61,115.07z"/>
	<path d="M46.39,115.01l-2.7,6.28h-0.91l2.54-5.9l-4.03-9.26h0.91l3.54,8.07l3.56-8.07h0.89L46.39,115.01z"/>
	<path d="M57.95,116.18h-5.53v-14.01h4.57c2.05,0.02,3.72,1.71,3.72,3.76c0,0.95-0.36,1.83-0.99,2.56l-0.52,0.54l0.64,0.38
		c1.09,0.66,1.73,1.83,1.73,3.1C61.57,114.51,59.94,116.16,57.95,116.18z M53.22,108.88h3.72c1.65,0,2.96-1.31,2.96-2.94
		c0-1.65-1.31-2.96-2.96-2.96h-3.72V108.88z M60.72,112.52c0-1.57-1.17-2.82-2.82-2.82h-4.69v5.7h4.75
		C59.58,115.4,60.72,114.13,60.72,112.52z"/>
	<path d="M63.44,102.6c0-0.26,0.22-0.46,0.46-0.46c0.26,0,0.46,0.2,0.46,0.46c0,0.24-0.2,0.44-0.46,0.44
		C63.66,103.04,63.44,102.84,63.44,102.6z M64.25,106.14v10.1h-0.81v-10.1H64.25z"/>
	<path d="M76.37,111.11c0,2.82-2.23,5.11-4.95,5.11c-2.74,0-4.97-2.29-4.97-5.11c0-2.82,2.23-5.11,4.97-5.11
		C74.13,106,76.37,108.29,76.37,111.11z M75.62,111.11c0-2.38-1.89-4.31-4.21-4.31c-2.33,0-4.23,1.93-4.23,4.31
		c0,2.37,1.89,4.31,4.23,4.31C73.73,115.42,75.62,113.48,75.62,111.11z"/>
	<path d="M83.97,116.18h-5.53v-14.01h4.57c2.05,0.02,3.72,1.71,3.72,3.76c0,0.95-0.36,1.83-0.99,2.56l-0.52,0.54l0.64,0.38
		c1.09,0.66,1.73,1.83,1.73,3.1C87.6,114.51,85.97,116.16,83.97,116.18z M79.25,108.88h3.72c1.65,0,2.96-1.31,2.96-2.94
		c0-1.65-1.31-2.96-2.96-2.96h-3.72V108.88z M86.75,112.52c0-1.57-1.17-2.82-2.82-2.82h-4.69v5.7H84
		C85.61,115.4,86.75,114.13,86.75,112.52z"/>
	<path d="M99.41,111.11c0,2.82-2.23,5.11-4.95,5.11c-2.74,0-4.97-2.29-4.97-5.11c0-2.82,2.23-5.11,4.97-5.11
		C97.18,106,99.41,108.29,99.41,111.11z M98.67,111.11c0-2.38-1.89-4.31-4.21-4.31c-2.33,0-4.23,1.93-4.23,4.31
		c0,2.37,1.89,4.31,4.23,4.31C96.78,115.42,98.67,113.48,98.67,111.11z"/>
	<path d="M106.86,107.73h-2.5v8.49h-0.81v-8.49h-2.52v-0.83h2.52v-4.85h0.79l0.02,4.85h2.5V107.73z"/>
</g>
</svg>
