<svg width="158" height="150" viewBox="0 0 158 150" fill="none" xmlns="http://www.w3.org/2000/svg">
<g filter="url(#filter0_d)">
<ellipse cx="79" cy="71" rx="75" ry="71" fill="#F4F4F4"/>
</g>
<g filter="url(#filter1_d)">
<path d="M61.5402 17.41C62.9702 19.13 64.4202 20.88 65.3102 22.93C66.2002 24.98 66.4802 27.41 65.5302 29.43C64.5902 31.43 62.4602 32.81 60.2602 32.85C59.1702 32.87 58.0402 32.56 57.2402 31.82C56.4402 31.08 56.0502 29.87 56.4402 28.85C56.9302 27.59 58.4002 26.99 59.7502 26.91C63.5702 26.69 67.1902 29.72 68.0302 33.46C68.8702 37.19 66.8502 42.5 63.8302 44.84" stroke="black" stroke-miterlimit="10"/>
<path d="M96.3001 17.41C94.8701 19.13 93.4201 20.88 92.5301 22.93C91.6401 24.98 91.3601 27.41 92.3101 29.43C93.2501 31.43 95.3801 32.81 97.5801 32.85C98.6701 32.87 99.8001 32.56 100.6 31.82C101.4 31.08 101.79 29.87 101.4 28.85C100.91 27.59 99.4401 26.99 98.0901 26.91C94.2701 26.69 90.6501 29.72 89.8101 33.46C88.9701 37.19 90.6801 42.5 93.7101 44.84" stroke="black" stroke-miterlimit="10"/>
<path d="M94.6199 101.5H63.0999C53.7299 101.5 46.1299 93.9 46.1299 84.53V61.11C46.1299 51.74 53.7299 44.14 63.0999 44.14H94.6199C103.99 44.14 111.59 51.74 111.59 61.11V84.52C111.59 93.9 103.99 101.5 94.6199 101.5Z" fill="#E1B1BA"/>
<path d="M95.4399 86.7201H62.2699C55.2799 86.7201 49.6099 81.0501 49.6099 74.0601V71.0701C49.6099 64.3701 55.0499 58.9301 61.7499 58.9301H95.9699C102.67 58.9301 108.11 64.3701 108.11 71.0701V74.0601C108.1 81.0501 102.43 86.7201 95.4399 86.7201Z" fill="#916E77"/>
<path d="M59.5801 18.64C61.0658 18.64 62.2701 17.4357 62.2701 15.95C62.2701 14.4644 61.0658 13.26 59.5801 13.26C58.0945 13.26 56.8901 14.4644 56.8901 15.95C56.8901 17.4357 58.0945 18.64 59.5801 18.64Z" fill="#69A2AD"/>
<path d="M98.2598 18.64C99.7455 18.64 100.95 17.4357 100.95 15.95C100.95 14.4644 99.7455 13.26 98.2598 13.26C96.7742 13.26 95.5698 14.4644 95.5698 15.95C95.5698 17.4357 96.7742 18.64 98.2598 18.64Z" fill="#69A2AD"/>
<path d="M90.3698 78.62C93.5731 78.62 96.1698 76.0233 96.1698 72.82C96.1698 69.6168 93.5731 67.02 90.3698 67.02C87.1666 67.02 84.5698 69.6168 84.5698 72.82C84.5698 76.0233 87.1666 78.62 90.3698 78.62Z" fill="#69A2AD"/>
<path d="M68.2302 78.62C71.4334 78.62 74.0302 76.0233 74.0302 72.82C74.0302 69.6168 71.4334 67.02 68.2302 67.02C65.0269 67.02 62.4302 69.6168 62.4302 72.82C62.4302 76.0233 65.0269 78.62 68.2302 78.62Z" fill="#69A2AD"/>
<path d="M114.37 61.5699C115.91 61.5699 117.15 62.8199 117.15 64.3499V81.2799C117.15 82.8199 115.9 84.0599 114.37 84.0599C112.83 84.0599 111.59 82.8099 111.59 81.2799V64.3499C111.59 62.8199 112.83 61.5699 114.37 61.5699Z" fill="#916E77"/>
<path d="M119.94 64.23C121.48 64.23 122.72 65.48 122.72 67.01V78.62C122.72 80.16 121.47 81.4 119.94 81.4C118.4 81.4 117.16 80.15 117.16 78.62V67.01C117.15 65.47 118.4 64.23 119.94 64.23Z" fill="#E1B1BA"/>
<path d="M37.7898 64.1801C39.3298 64.1801 40.5698 65.4301 40.5698 66.9601V78.5701C40.5698 80.1101 39.3198 81.3501 37.7898 81.3501C36.2498 81.3501 35.0098 80.1001 35.0098 78.5701V66.9601C34.9998 65.4201 36.2498 64.1801 37.7898 64.1801Z" fill="#E1B1BA"/>
<path d="M43.3498 61.52C44.8898 61.52 46.1298 62.77 46.1298 64.3V81.23C46.1298 82.77 44.8798 84.01 43.3498 84.01C41.8098 84.01 40.5698 82.76 40.5698 81.23V64.3C40.5698 62.76 41.8198 61.52 43.3498 61.52Z" fill="#916E77"/>
<path d="M60.5753 115.809L57.7919 109.545L56.4241 116.381H56L57.442 109L58.0305 109.01L60.5806 114.739L63.1095 109.01L63.6979 109L65.1506 116.381H64.7265L63.3692 109.545L60.5753 115.809Z" fill="black"/>
<path d="M68.9411 115.778L67.5097 119.04H67.0272L68.3739 115.976L66.2373 111.166H66.7198L68.5965 115.357L70.4839 111.166H70.9557L68.9411 115.778Z" fill="black"/>
<path d="M75.0705 116.386H72.1387V109.109H74.5615C75.6483 109.119 76.5337 109.997 76.5337 111.062C76.5337 111.555 76.3429 112.012 76.0089 112.392L75.7332 112.672L76.0725 112.869C76.6503 113.212 76.9897 113.82 76.9897 114.48C76.9897 115.518 76.1255 116.375 75.0705 116.386ZM72.5628 112.594H74.535C75.4098 112.594 76.1043 111.914 76.1043 111.067C76.1043 110.21 75.4098 109.53 74.535 109.53H72.5628V112.594ZM76.539 114.485C76.539 113.669 75.9187 113.02 75.044 113.02H72.5575V115.981H75.0758C75.9346 115.981 76.539 115.321 76.539 114.485Z" fill="black"/>
<path d="M77.98 109.332C77.98 109.197 78.0966 109.094 78.2239 109.094C78.3617 109.094 78.4677 109.197 78.4677 109.332C78.4677 109.457 78.3617 109.561 78.2239 109.561C78.0966 109.561 77.98 109.457 77.98 109.332ZM78.4094 111.171V116.417H77.98V111.171H78.4094Z" fill="black"/>
<path d="M84.8359 113.753C84.8359 115.217 83.6536 116.407 82.2116 116.407C80.7589 116.407 79.5767 115.217 79.5767 113.753C79.5767 112.288 80.7589 111.098 82.2116 111.098C83.6483 111.098 84.8359 112.288 84.8359 113.753ZM84.4382 113.753C84.4382 112.516 83.4362 111.514 82.2063 111.514C80.971 111.514 79.9637 112.516 79.9637 113.753C79.9637 114.984 80.9657 115.991 82.2063 115.991C83.4362 115.991 84.4382 114.984 84.4382 113.753Z" fill="black"/>
<path d="M88.8649 116.386H85.9331V109.109H88.3559C89.4428 109.119 90.3281 109.997 90.3281 111.062C90.3281 111.555 90.1373 112.012 89.8033 112.392L89.5276 112.672L89.8669 112.869C90.4448 113.212 90.7841 113.82 90.7841 114.48C90.7894 115.518 89.9252 116.375 88.8649 116.386ZM86.3625 112.594H88.3347C89.2095 112.594 89.904 111.914 89.904 111.067C89.904 110.21 89.2095 109.53 88.3347 109.53H86.3625V112.594ZM90.3387 114.485C90.3387 113.669 89.7185 113.02 88.8437 113.02H86.3572V115.981H88.8808C89.7344 115.981 90.3387 115.321 90.3387 114.485Z" fill="black"/>
<path d="M97.0507 113.753C97.0507 115.217 95.8684 116.407 94.4264 116.407C92.9738 116.407 91.7915 115.217 91.7915 113.753C91.7915 112.288 92.9738 111.098 94.4264 111.098C95.8684 111.098 97.0507 112.288 97.0507 113.753ZM96.6584 113.753C96.6584 112.516 95.6564 111.514 94.4264 111.514C93.1911 111.514 92.1838 112.516 92.1838 113.753C92.1838 114.984 93.1858 115.991 94.4264 115.991C95.6564 115.991 96.6584 114.984 96.6584 113.753Z" fill="black"/>
<path d="M101 111.997H99.6746V116.407H99.2452V111.997H97.9092V111.566H99.2452V109.047H99.664L99.6746 111.566H101V111.997Z" fill="black"/>
</g>
<defs>
<filter id="filter0_d" x="0" y="0" width="158" height="150" filterUnits="userSpaceOnUse" color-interpolation-filters="sRGB">
<feFlood flood-opacity="0" result="BackgroundImageFix"/>
<feColorMatrix in="SourceAlpha" type="matrix" values="0 0 0 0 0 0 0 0 0 0 0 0 0 0 0 0 0 0 127 0" result="hardAlpha"/>
<feOffset dy="4"/>
<feGaussianBlur stdDeviation="2"/>
<feComposite in2="hardAlpha" operator="out"/>
<feColorMatrix type="matrix" values="0 0 0 0 0 0 0 0 0 0 0 0 0 0 0 0 0 0 0.25 0"/>
<feBlend mode="normal" in2="BackgroundImageFix" result="effect1_dropShadow"/>
<feBlend mode="normal" in="SourceGraphic" in2="effect1_dropShadow" result="shape"/>
</filter>
<filter id="filter1_d" x="10" y="6" width="137.49" height="138.33" filterUnits="userSpaceOnUse" color-interpolation-filters="sRGB">
<feFlood flood-opacity="0" result="BackgroundImageFix"/>
<feColorMatrix in="SourceAlpha" type="matrix" values="0 0 0 0 0 0 0 0 0 0 0 0 0 0 0 0 0 0 127 0" result="hardAlpha"/>
<feOffset dy="4"/>
<feGaussianBlur stdDeviation="2"/>
<feComposite in2="hardAlpha" operator="out"/>
<feColorMatrix type="matrix" values="0 0 0 0 0 0 0 0 0 0 0 0 0 0 0 0 0 0 0.25 0"/>
<feBlend mode="normal" in2="BackgroundImageFix" result="effect1_dropShadow"/>
<feBlend mode="normal" in="SourceGraphic" in2="effect1_dropShadow" result="shape"/>
</filter>
</defs>
</svg>
