<svg width="217" height="183" viewBox="0 0 217 183" fill="none" xmlns="http://www.w3.org/2000/svg">
<g filter="url(#filter0_d)">
<path d="M186 145H4V175H186V145Z" fill="#F4F4F4"/>
</g>
<path d="M18 166C21.3137 166 24 163.314 24 160C24 156.686 21.3137 154 18 154C14.6863 154 12 156.686 12 160C12 163.314 14.6863 166 18 166Z" fill="black"/>
<path d="M33.392 153.216L34.16 153.24C34.7253 153.24 35.152 153.219 35.44 153.176C35.472 153.219 35.488 153.264 35.488 153.312L35.472 153.376C35.1893 153.44 35.0107 153.523 34.936 153.624C34.8773 153.699 34.8373 153.816 34.816 153.976C34.752 154.6 34.72 155.485 34.72 156.632C34.72 157.32 34.8587 157.856 35.136 158.24C35.4133 158.624 35.8453 158.816 36.432 158.816C37.1307 158.816 37.6133 158.629 37.88 158.256C38.152 157.877 38.288 157.301 38.288 156.528V155.536C38.288 154.565 38.2613 153.883 38.208 153.488C38.0853 153.472 37.856 153.464 37.52 153.464C37.5093 153.421 37.504 153.376 37.504 153.328C37.504 153.275 37.5093 153.237 37.52 153.216L38.464 153.24C38.8693 153.24 39.1813 153.219 39.4 153.176C39.4267 153.208 39.44 153.253 39.44 153.312L39.432 153.376C39.0213 153.467 38.7973 153.744 38.76 154.208C38.7013 154.896 38.672 155.736 38.672 156.728C38.672 157.512 38.4773 158.115 38.088 158.536C37.704 158.952 37.1307 159.16 36.368 159.16C35.9627 159.16 35.608 159.109 35.304 159.008C35.0053 158.907 34.7707 158.779 34.6 158.624C34.4347 158.469 34.3013 158.28 34.2 158.056C34.0987 157.832 34.032 157.621 34 157.424C33.9733 157.221 33.96 157.003 33.96 156.768V155.544C33.96 155.112 33.936 154.427 33.888 153.488C33.7867 153.472 33.6213 153.464 33.392 153.464C33.3813 153.427 33.376 153.384 33.376 153.336C33.376 153.288 33.3813 153.248 33.392 153.216ZM40.1048 155.456L39.8248 155.472C39.8035 155.435 39.7928 155.387 39.7928 155.328L39.8008 155.256C40.1741 155.192 40.4515 155.101 40.6328 154.984L40.7288 154.928C40.8088 154.928 40.8995 154.997 41.0008 155.136C41.1021 155.269 41.1581 155.435 41.1688 155.632C41.4728 155.44 41.6941 155.309 41.8328 155.24C41.9768 155.171 42.2248 155.067 42.5768 154.928C42.9661 155.003 43.3128 155.243 43.6168 155.648C43.9261 156.048 44.0808 156.515 44.0808 157.048C44.0808 157.352 44.0328 157.627 43.9368 157.872C43.8408 158.112 43.7128 158.307 43.5528 158.456C43.3928 158.6 43.2275 158.723 43.0568 158.824C42.8861 158.925 42.7101 159 42.5288 159.048C42.2195 159.123 41.9875 159.16 41.8328 159.16C41.6835 159.16 41.4488 159.12 41.1288 159.04V159.488C41.1288 160.912 41.1608 161.627 41.2248 161.632C41.3848 161.648 41.6835 161.656 42.1208 161.656C42.1315 161.693 42.1368 161.736 42.1368 161.784C42.1368 161.832 42.1315 161.872 42.1208 161.904L40.9688 161.88C40.5101 161.88 40.1368 161.901 39.8488 161.944C39.8168 161.912 39.8008 161.867 39.8008 161.808L39.8168 161.744C40.0355 161.691 40.1821 161.616 40.2568 161.52C40.3368 161.424 40.3875 161.301 40.4088 161.152C40.4621 160.779 40.4888 159.904 40.4888 158.528V156.576C40.4888 156.149 40.4621 155.856 40.4088 155.696C40.3608 155.536 40.2595 155.456 40.1048 155.456ZM41.1288 158.368C41.1288 158.448 41.2808 158.544 41.5848 158.656C41.8888 158.763 42.1021 158.816 42.2248 158.816C42.5661 158.816 42.8488 158.672 43.0728 158.384C43.2968 158.096 43.4088 157.731 43.4088 157.288C43.4088 156.84 43.2781 156.429 43.0168 156.056C42.7555 155.677 42.4781 155.488 42.1848 155.488C41.8915 155.488 41.5448 155.656 41.1448 155.992C41.1341 156.435 41.1288 157.227 41.1288 158.368ZM46.5984 159.024L45.7184 159C45.2598 159 44.8624 159.021 44.5264 159.064C44.4998 159.032 44.4864 158.987 44.4864 158.928L44.4944 158.864C44.7451 158.816 44.9104 158.744 44.9904 158.648C45.0758 158.552 45.1371 158.389 45.1744 158.16C45.2171 157.931 45.2384 157.093 45.2384 155.648V153.6C45.2384 153.115 45.1824 152.819 45.0704 152.712C45.0118 152.653 44.9371 152.619 44.8464 152.608L44.5584 152.576C44.5424 152.549 44.5344 152.517 44.5344 152.48C44.5344 152.437 44.5424 152.403 44.5584 152.376C44.9371 152.307 45.2304 152.221 45.4384 152.12C45.5771 152.051 45.7344 151.957 45.9104 151.84C45.9638 151.84 46.0064 151.867 46.0384 151.92C45.9264 152.619 45.8704 153.869 45.8704 155.672V156.608C45.8704 158.011 45.9051 158.723 45.9744 158.744C46.0704 158.765 46.2784 158.776 46.5984 158.776C46.6091 158.813 46.6144 158.856 46.6144 158.904C46.6144 158.952 46.6091 158.992 46.5984 159.024ZM51.1811 157.048C51.1811 158.232 50.4931 158.936 49.1171 159.16C48.5517 159.16 48.0744 158.96 47.6851 158.56C47.3011 158.155 47.1091 157.651 47.1091 157.048C47.1091 155.853 47.7997 155.147 49.1811 154.928C49.7411 154.928 50.2131 155.133 50.5971 155.544C50.9864 155.955 51.1811 156.456 51.1811 157.048ZM49.2931 158.816C50.0611 158.816 50.4451 158.325 50.4451 157.344C50.4451 156.789 50.3171 156.304 50.0611 155.888C49.8051 155.472 49.4664 155.264 49.0451 155.264C48.6237 155.264 48.3171 155.4 48.1251 155.672C47.9384 155.939 47.8451 156.323 47.8451 156.824C47.8451 157.32 47.9757 157.776 48.2371 158.192C48.4984 158.608 48.8504 158.816 49.2931 158.816ZM54.66 156.088L54.636 158.04C54.636 158.429 54.7613 158.624 55.012 158.624L55.3 158.616C55.3213 158.643 55.332 158.685 55.332 158.744L55.316 158.832C54.9053 158.907 54.612 159.016 54.436 159.16C54.3187 159.128 54.2173 159.056 54.132 158.944C54.052 158.827 54.0067 158.704 53.996 158.576C53.5693 158.837 53.1453 159.032 52.724 159.16C52.5427 159.16 52.356 159.059 52.164 158.856C51.972 158.648 51.876 158.389 51.876 158.08C51.876 157.925 51.9107 157.787 51.98 157.664C52.0493 157.536 52.132 157.448 52.228 157.4C52.6227 157.203 53.2093 157.029 53.988 156.88V156.12C53.988 155.827 53.94 155.608 53.844 155.464C53.7533 155.32 53.6413 155.248 53.508 155.248C53.38 155.248 53.2413 155.272 53.092 155.32C52.9427 155.363 52.836 155.448 52.772 155.576C52.7133 155.704 52.684 155.885 52.684 156.12C52.684 156.141 52.6467 156.165 52.572 156.192C52.5027 156.213 52.412 156.224 52.3 156.224C52.1933 156.224 52.1187 156.2 52.076 156.152C52.0387 156.099 52.02 156.021 52.02 155.92C52.02 155.728 52.1587 155.52 52.436 155.296C52.5 155.253 52.6867 155.181 52.996 155.08C53.3107 154.979 53.492 154.928 53.54 154.928C53.924 154.928 54.2067 155.04 54.388 155.264C54.5693 155.488 54.66 155.763 54.66 156.088ZM52.588 158.04C52.588 158.168 52.6387 158.307 52.74 158.456C52.8413 158.605 52.956 158.68 53.084 158.68C53.2173 158.68 53.3693 158.635 53.54 158.544C53.7107 158.453 53.852 158.357 53.964 158.256C53.98 157.941 53.988 157.579 53.988 157.168C53.54 157.227 53.1453 157.355 52.804 157.552C52.66 157.621 52.588 157.784 52.588 158.04ZM59.4053 157.008C59.4053 157.717 59.4186 158.136 59.4453 158.264C59.488 158.504 59.5973 158.624 59.7733 158.624C59.8373 158.624 59.9333 158.621 60.0613 158.616C60.0826 158.653 60.0933 158.699 60.0933 158.752L60.0853 158.832C59.7226 158.896 59.456 158.984 59.2853 159.096L59.1893 159.16C59.1093 159.16 59.016 159.085 58.9093 158.936C58.8026 158.787 58.7493 158.619 58.7493 158.432C58.3333 158.699 57.8373 158.941 57.2613 159.16C56.872 159.08 56.5253 158.84 56.2213 158.44C55.9173 158.035 55.7653 157.568 55.7653 157.04C55.7653 156.699 55.832 156.395 55.9653 156.128C56.0986 155.856 56.256 155.651 56.4373 155.512C56.6186 155.368 56.816 155.248 57.0293 155.152C57.36 155.003 57.6293 154.928 57.8373 154.928C57.8586 154.928 58.168 154.971 58.7653 155.056V153.6C58.7653 153.115 58.7093 152.819 58.5973 152.712C58.5386 152.653 58.4613 152.619 58.3653 152.608L58.0773 152.576C58.056 152.533 58.0453 152.501 58.0453 152.48L58.0773 152.376C58.3066 152.333 58.528 152.277 58.7413 152.208C58.9546 152.128 59.1866 152.005 59.4373 151.84C59.5013 151.84 59.544 151.867 59.5653 151.92C59.4586 152.325 59.4053 154.021 59.4053 157.008ZM56.4373 156.736C56.4373 157.221 56.56 157.653 56.8053 158.032C57.056 158.405 57.3333 158.592 57.6373 158.592C57.9466 158.592 58.3226 158.427 58.7653 158.096V155.8C58.7653 155.651 58.584 155.525 58.2213 155.424C57.8586 155.317 57.6053 155.264 57.4613 155.264C57.2373 155.264 57.0106 155.419 56.7813 155.728C56.552 156.032 56.4373 156.368 56.4373 156.736ZM66.6866 157.008C66.6866 157.717 66.6999 158.136 66.7266 158.264C66.7692 158.504 66.8786 158.624 67.0546 158.624C67.1186 158.624 67.2146 158.621 67.3426 158.616C67.3639 158.653 67.3746 158.699 67.3746 158.752L67.3666 158.832C67.0039 158.896 66.7372 158.984 66.5666 159.096L66.4706 159.16C66.3906 159.16 66.2972 159.085 66.1906 158.936C66.0839 158.787 66.0306 158.619 66.0306 158.432C65.6146 158.699 65.1186 158.941 64.5426 159.16C64.1532 159.08 63.8066 158.84 63.5026 158.44C63.1986 158.035 63.0466 157.568 63.0466 157.04C63.0466 156.699 63.1132 156.395 63.2466 156.128C63.3799 155.856 63.5372 155.651 63.7186 155.512C63.8999 155.368 64.0972 155.248 64.3106 155.152C64.6412 155.003 64.9106 154.928 65.1186 154.928C65.1399 154.928 65.4492 154.971 66.0466 155.056V153.6C66.0466 153.115 65.9906 152.819 65.8786 152.712C65.8199 152.653 65.7426 152.619 65.6466 152.608L65.3586 152.576C65.3372 152.533 65.3266 152.501 65.3266 152.48L65.3586 152.376C65.5879 152.333 65.8092 152.277 66.0226 152.208C66.2359 152.128 66.4679 152.005 66.7186 151.84C66.7826 151.84 66.8252 151.867 66.8466 151.92C66.7399 152.325 66.6866 154.021 66.6866 157.008ZM63.7186 156.736C63.7186 157.221 63.8412 157.653 64.0866 158.032C64.3372 158.405 64.6146 158.592 64.9186 158.592C65.2279 158.592 65.6039 158.427 66.0466 158.096V155.8C66.0466 155.651 65.8652 155.525 65.5026 155.424C65.1399 155.317 64.8866 155.264 64.7426 155.264C64.5186 155.264 64.2919 155.419 64.0626 155.728C63.8332 156.032 63.7186 156.368 63.7186 156.736ZM70.7147 156.088L70.6907 158.04C70.6907 158.429 70.816 158.624 71.0667 158.624L71.3547 158.616C71.376 158.643 71.3867 158.685 71.3867 158.744L71.3707 158.832C70.96 158.907 70.6667 159.016 70.4907 159.16C70.3734 159.128 70.272 159.056 70.1867 158.944C70.1067 158.827 70.0614 158.704 70.0507 158.576C69.624 158.837 69.2 159.032 68.7787 159.16C68.5974 159.16 68.4107 159.059 68.2187 158.856C68.0267 158.648 67.9307 158.389 67.9307 158.08C67.9307 157.925 67.9654 157.787 68.0347 157.664C68.104 157.536 68.1867 157.448 68.2827 157.4C68.6774 157.203 69.264 157.029 70.0427 156.88V156.12C70.0427 155.827 69.9947 155.608 69.8987 155.464C69.808 155.32 69.696 155.248 69.5627 155.248C69.4347 155.248 69.296 155.272 69.1467 155.32C68.9974 155.363 68.8907 155.448 68.8267 155.576C68.768 155.704 68.7387 155.885 68.7387 156.12C68.7387 156.141 68.7014 156.165 68.6267 156.192C68.5574 156.213 68.4667 156.224 68.3547 156.224C68.248 156.224 68.1734 156.2 68.1307 156.152C68.0934 156.099 68.0747 156.021 68.0747 155.92C68.0747 155.728 68.2134 155.52 68.4907 155.296C68.5547 155.253 68.7414 155.181 69.0507 155.08C69.3654 154.979 69.5467 154.928 69.5947 154.928C69.9787 154.928 70.2614 155.04 70.4427 155.264C70.624 155.488 70.7147 155.763 70.7147 156.088ZM68.6427 158.04C68.6427 158.168 68.6934 158.307 68.7947 158.456C68.896 158.605 69.0107 158.68 69.1387 158.68C69.272 158.68 69.424 158.635 69.5947 158.544C69.7654 158.453 69.9067 158.357 70.0187 158.256C70.0347 157.941 70.0427 157.579 70.0427 157.168C69.5947 157.227 69.2 157.355 68.8587 157.552C68.7147 157.621 68.6427 157.784 68.6427 158.04ZM72.996 157.28C72.996 158.165 73.148 158.608 73.452 158.608C73.676 158.608 73.9667 158.533 74.324 158.384C74.404 158.411 74.444 158.485 74.444 158.608C74.0547 158.816 73.6067 159 73.1 159.16C72.8493 159.16 72.6573 159.032 72.524 158.776C72.396 158.52 72.332 158.176 72.332 157.744V155.888C72.332 155.573 72.3133 155.416 72.276 155.416L71.684 155.424C71.6467 155.413 71.628 155.387 71.628 155.344C71.6547 155.291 71.6787 155.195 71.7 155.056H72.268C72.3107 155.056 72.332 154.963 72.332 154.776L72.324 154.096C72.5213 154.016 72.724 153.851 72.932 153.6C72.996 153.6 73.044 153.616 73.076 153.648C73.028 154.208 73.004 154.677 73.004 155.056C73.3933 155.056 73.7773 155.037 74.156 155C74.1933 155.021 74.212 155.053 74.212 155.096C74.18 155.149 74.1533 155.248 74.132 155.392L72.996 155.408V157.28ZM77.5428 156.088L77.5188 158.04C77.5188 158.429 77.6441 158.624 77.8948 158.624L78.1828 158.616C78.2041 158.643 78.2148 158.685 78.2148 158.744L78.1988 158.832C77.7881 158.907 77.4948 159.016 77.3188 159.16C77.2015 159.128 77.1001 159.056 77.0148 158.944C76.9348 158.827 76.8895 158.704 76.8788 158.576C76.4521 158.837 76.0281 159.032 75.6068 159.16C75.4255 159.16 75.2388 159.059 75.0468 158.856C74.8548 158.648 74.7588 158.389 74.7588 158.08C74.7588 157.925 74.7935 157.787 74.8628 157.664C74.9321 157.536 75.0148 157.448 75.1108 157.4C75.5055 157.203 76.0921 157.029 76.8708 156.88V156.12C76.8708 155.827 76.8228 155.608 76.7268 155.464C76.6361 155.32 76.5241 155.248 76.3908 155.248C76.2628 155.248 76.1241 155.272 75.9748 155.32C75.8255 155.363 75.7188 155.448 75.6548 155.576C75.5961 155.704 75.5668 155.885 75.5668 156.12C75.5668 156.141 75.5295 156.165 75.4548 156.192C75.3855 156.213 75.2948 156.224 75.1828 156.224C75.0761 156.224 75.0015 156.2 74.9588 156.152C74.9215 156.099 74.9028 156.021 74.9028 155.92C74.9028 155.728 75.0415 155.52 75.3188 155.296C75.3828 155.253 75.5695 155.181 75.8788 155.08C76.1935 154.979 76.3748 154.928 76.4228 154.928C76.8068 154.928 77.0895 155.04 77.2708 155.264C77.4521 155.488 77.5428 155.763 77.5428 156.088ZM75.4708 158.04C75.4708 158.168 75.5215 158.307 75.6228 158.456C75.7241 158.605 75.8388 158.68 75.9668 158.68C76.1001 158.68 76.2521 158.635 76.4228 158.544C76.5935 158.453 76.7348 158.357 76.8468 158.256C76.8628 157.941 76.8708 157.579 76.8708 157.168C76.4228 157.227 76.0281 157.355 75.6868 157.552C75.5428 157.621 75.4708 157.784 75.4708 158.04ZM82.2773 157.28C82.2773 158.165 82.4293 158.608 82.7333 158.608C82.9573 158.608 83.2479 158.533 83.6053 158.384C83.6853 158.411 83.7253 158.485 83.7253 158.608C83.3359 158.816 82.8879 159 82.3813 159.16C82.1306 159.16 81.9386 159.032 81.8053 158.776C81.6773 158.52 81.6133 158.176 81.6133 157.744V155.888C81.6133 155.573 81.5946 155.416 81.5573 155.416L80.9653 155.424C80.9279 155.413 80.9093 155.387 80.9093 155.344C80.9359 155.291 80.9599 155.195 80.9813 155.056H81.5493C81.5919 155.056 81.6133 154.963 81.6133 154.776L81.6053 154.096C81.8026 154.016 82.0053 153.851 82.2133 153.6C82.2773 153.6 82.3253 153.616 82.3573 153.648C82.3093 154.208 82.2853 154.677 82.2853 155.056C82.6746 155.056 83.0586 155.037 83.4373 155C83.4746 155.021 83.4933 155.053 83.4933 155.096C83.4613 155.149 83.4346 155.248 83.4133 155.392L82.2773 155.408V157.28ZM88.0561 157.048C88.0561 158.232 87.3681 158.936 85.9921 159.16C85.4267 159.16 84.9494 158.96 84.5601 158.56C84.1761 158.155 83.9841 157.651 83.9841 157.048C83.9841 155.853 84.6747 155.147 86.0561 154.928C86.6161 154.928 87.0881 155.133 87.4721 155.544C87.8614 155.955 88.0561 156.456 88.0561 157.048ZM86.1681 158.816C86.9361 158.816 87.3201 158.325 87.3201 157.344C87.3201 156.789 87.1921 156.304 86.9361 155.888C86.6801 155.472 86.3414 155.264 85.9201 155.264C85.4987 155.264 85.1921 155.4 85.0001 155.672C84.8134 155.939 84.7201 156.323 84.7201 156.824C84.7201 157.32 84.8507 157.776 85.1121 158.192C85.3734 158.608 85.7254 158.816 86.1681 158.816ZM98.6361 159.024L97.8041 159C97.2281 159 96.7615 159.021 96.4041 159.064C96.3775 159.032 96.3641 158.987 96.3641 158.928L96.3721 158.864C96.6921 158.789 96.8948 158.709 96.9801 158.624C97.0655 158.539 97.1161 158.357 97.1321 158.08C97.1481 157.803 97.1561 157.515 97.1561 157.216C97.1561 156.912 97.1401 156.451 97.1081 155.832L97.0441 154.52C96.7988 154.973 96.4148 155.744 95.8921 156.832C95.3748 157.92 95.0388 158.696 94.8841 159.16H94.6601C93.6201 156.808 92.9535 155.376 92.6601 154.864L92.3241 154.288C92.3028 154.949 92.2921 155.757 92.2921 156.712C92.2921 157.661 92.3241 158.341 92.3881 158.752C92.5055 158.768 92.7135 158.776 93.0121 158.776C93.0281 158.819 93.0361 158.867 93.0361 158.92C93.0361 158.968 93.0281 159.003 93.0121 159.024L92.1081 159C91.7401 159 91.4308 159.021 91.1801 159.064C91.1535 159.032 91.1401 158.987 91.1401 158.928L91.1481 158.864C91.4095 158.805 91.5828 158.72 91.6681 158.608C91.7588 158.496 91.8175 158.349 91.8441 158.168C91.9721 157.256 92.0468 155.819 92.0681 153.856C91.9241 153.675 91.7668 153.547 91.5961 153.472C91.5748 153.467 91.4255 153.445 91.1481 153.408L91.1241 153.296C91.1241 153.243 91.1321 153.2 91.1481 153.168L92.4281 153.136C92.5081 153.136 92.6441 153.277 92.8361 153.56C93.0335 153.843 93.2281 154.157 93.4201 154.504C93.6121 154.845 93.8335 155.291 94.0841 155.84C94.3401 156.389 94.5535 156.864 94.7241 157.264C94.8948 157.664 94.9908 157.883 95.0121 157.92C95.0815 157.765 95.4095 157.069 95.9961 155.832C96.5828 154.589 96.9695 153.725 97.1561 153.24C97.6948 153.24 98.1241 153.216 98.4441 153.168C98.4708 153.216 98.4841 153.283 98.4841 153.368C98.2175 153.427 98.0388 153.515 97.9481 153.632C97.8575 153.749 97.8068 153.875 97.7961 154.008C97.7855 154.141 97.7801 154.392 97.7801 154.76C97.7801 155.128 97.7961 155.752 97.8281 156.632C97.8655 157.512 97.9215 158.219 97.9961 158.752C98.0975 158.768 98.3108 158.776 98.6361 158.776C98.6521 158.813 98.6601 158.856 98.6601 158.904C98.6601 158.952 98.6521 158.992 98.6361 159.024ZM99.7213 155.056L100.409 155.032C100.42 155.059 100.425 155.099 100.425 155.152L100.409 155.28C100.244 155.28 100.127 155.285 100.057 155.296C100.105 155.621 100.233 156.035 100.441 156.536L101.217 158.456L101.913 156.672C102.148 156.069 102.281 155.621 102.313 155.328C102.121 155.307 101.924 155.296 101.721 155.296C101.7 155.264 101.689 155.227 101.689 155.184C101.689 155.141 101.695 155.099 101.705 155.056H102.489C102.735 155.056 102.959 155.04 103.161 155.008C103.204 155.077 103.225 155.147 103.225 155.216C103.092 155.275 102.996 155.333 102.937 155.392C102.793 155.547 102.636 155.821 102.465 156.216L101.305 159C101.236 159.165 101.124 159.451 100.969 159.856C100.815 160.267 100.705 160.552 100.641 160.712C100.583 160.872 100.527 161.021 100.473 161.16C100.42 161.304 100.359 161.453 100.289 161.608C100.145 161.939 100.031 162.104 99.9453 162.104C99.9186 162.104 99.8626 162.088 99.7773 162.056C99.548 161.976 99.2893 161.904 99.0013 161.84C99.0013 161.733 99.0253 161.648 99.0733 161.584C99.2653 161.616 99.3693 161.632 99.3853 161.632C99.54 161.632 99.7373 161.451 99.9773 161.088C100.223 160.731 100.412 160.376 100.545 160.024L100.833 159.256L99.5293 156.056C99.396 155.72 99.2733 155.493 99.1613 155.376C99.092 155.291 98.988 155.227 98.8493 155.184C98.8493 155.088 98.8626 155.019 98.8893 154.976C99.2413 155.029 99.5186 155.056 99.7213 155.056ZM103.619 153.216L104.835 153.24H106.067C106.573 153.24 106.981 153.352 107.291 153.576C107.605 153.8 107.763 154.128 107.763 154.56C107.763 154.907 107.645 155.2 107.411 155.44C107.176 155.68 106.933 155.832 106.683 155.896C107.12 155.976 107.459 156.147 107.699 156.408C107.944 156.669 108.067 157.011 108.067 157.432C108.067 157.923 107.851 158.307 107.419 158.584C106.992 158.861 106.459 159 105.819 159C104.651 159 103.893 159.021 103.547 159.064C103.52 159.032 103.507 158.987 103.507 158.928L103.515 158.864C103.792 158.8 103.973 158.701 104.059 158.568C104.128 158.461 104.173 158.328 104.195 158.168C104.259 157.683 104.291 157.021 104.291 156.184C104.291 154.429 104.243 153.536 104.147 153.504C104.045 153.477 103.869 153.464 103.619 153.464C103.608 153.427 103.603 153.384 103.603 153.336C103.603 153.288 103.608 153.248 103.619 153.216ZM104.979 156.024V157.624C104.979 158.125 104.995 158.477 105.027 158.68C105.219 158.701 105.443 158.712 105.699 158.712C106.248 158.712 106.656 158.619 106.923 158.432C107.195 158.245 107.331 157.944 107.331 157.528C107.331 157.107 107.197 156.757 106.931 156.48C106.664 156.203 106.317 156.064 105.891 156.064H105.555C105.523 156.027 105.507 155.981 105.507 155.928L105.555 155.768H105.787C106.64 155.768 107.067 155.397 107.067 154.656C107.067 154.288 106.955 154.008 106.731 153.816C106.507 153.619 106.211 153.52 105.843 153.52C105.48 153.52 105.224 153.531 105.075 153.552C105.011 153.808 104.979 154.632 104.979 156.024ZM110.824 159.024L110.104 159C109.731 159 109.379 159.021 109.048 159.064C109.016 159.021 109 158.976 109 158.928L109.016 158.864C109.245 158.811 109.4 158.728 109.48 158.616C109.539 158.531 109.584 158.429 109.616 158.312C109.648 158.189 109.664 157.843 109.664 157.272V156.504C109.664 156.173 109.648 155.944 109.616 155.816C109.589 155.688 109.547 155.603 109.488 155.56C109.429 155.517 109.352 155.491 109.256 155.48L108.96 155.456C108.944 155.435 108.936 155.4 108.936 155.352L108.96 155.248C109.237 155.189 109.461 155.131 109.632 155.072C109.808 155.008 110.013 154.917 110.248 154.8C110.307 154.8 110.347 154.832 110.368 154.896C110.304 155.259 110.272 156.123 110.272 157.488C110.272 157.733 110.28 158.005 110.296 158.304C110.317 158.597 110.344 158.747 110.376 158.752C110.456 158.768 110.605 158.776 110.824 158.776C110.84 158.813 110.848 158.856 110.848 158.904C110.848 158.952 110.84 158.992 110.824 159.024ZM110.072 153.888C109.88 153.755 109.744 153.579 109.664 153.36C109.728 153.285 109.813 153.208 109.92 153.128C110.032 153.043 110.128 152.984 110.208 152.952C110.411 153.101 110.541 153.28 110.6 153.488C110.451 153.68 110.275 153.813 110.072 153.888ZM115.603 157.048C115.603 158.232 114.915 158.936 113.539 159.16C112.974 159.16 112.496 158.96 112.107 158.56C111.723 158.155 111.531 157.651 111.531 157.048C111.531 155.853 112.222 155.147 113.603 154.928C114.163 154.928 114.635 155.133 115.019 155.544C115.408 155.955 115.603 156.456 115.603 157.048ZM113.715 158.816C114.483 158.816 114.867 158.325 114.867 157.344C114.867 156.789 114.739 156.304 114.483 155.888C114.227 155.472 113.888 155.264 113.467 155.264C113.046 155.264 112.739 155.4 112.547 155.672C112.36 155.939 112.267 156.323 112.267 156.824C112.267 157.32 112.398 157.776 112.659 158.192C112.92 158.608 113.272 158.816 113.715 158.816ZM116.314 153.216L117.53 153.24H118.762C119.269 153.24 119.677 153.352 119.986 153.576C120.301 153.8 120.458 154.128 120.458 154.56C120.458 154.907 120.341 155.2 120.106 155.44C119.871 155.68 119.629 155.832 119.378 155.896C119.815 155.976 120.154 156.147 120.394 156.408C120.639 156.669 120.762 157.011 120.762 157.432C120.762 157.923 120.546 158.307 120.114 158.584C119.687 158.861 119.154 159 118.514 159C117.346 159 116.589 159.021 116.242 159.064C116.215 159.032 116.202 158.987 116.202 158.928L116.21 158.864C116.487 158.8 116.669 158.701 116.754 158.568C116.823 158.461 116.869 158.328 116.89 158.168C116.954 157.683 116.986 157.021 116.986 156.184C116.986 154.429 116.938 153.536 116.842 153.504C116.741 153.477 116.565 153.464 116.314 153.464C116.303 153.427 116.298 153.384 116.298 153.336C116.298 153.288 116.303 153.248 116.314 153.216ZM117.674 156.024V157.624C117.674 158.125 117.69 158.477 117.722 158.68C117.914 158.701 118.138 158.712 118.394 158.712C118.943 158.712 119.351 158.619 119.618 158.432C119.89 158.245 120.026 157.944 120.026 157.528C120.026 157.107 119.893 156.757 119.626 156.48C119.359 156.203 119.013 156.064 118.586 156.064H118.25C118.218 156.027 118.202 155.981 118.202 155.928L118.25 155.768H118.482C119.335 155.768 119.762 155.397 119.762 154.656C119.762 154.288 119.65 154.008 119.426 153.816C119.202 153.619 118.906 153.52 118.538 153.52C118.175 153.52 117.919 153.531 117.77 153.552C117.706 153.808 117.674 154.632 117.674 156.024ZM125.759 157.048C125.759 158.232 125.071 158.936 123.695 159.16C123.13 159.16 122.653 158.96 122.263 158.56C121.879 158.155 121.687 157.651 121.687 157.048C121.687 155.853 122.378 155.147 123.759 154.928C124.319 154.928 124.791 155.133 125.175 155.544C125.565 155.955 125.759 156.456 125.759 157.048ZM123.871 158.816C124.639 158.816 125.023 158.325 125.023 157.344C125.023 156.789 124.895 156.304 124.639 155.888C124.383 155.472 124.045 155.264 123.623 155.264C123.202 155.264 122.895 155.4 122.703 155.672C122.517 155.939 122.423 156.323 122.423 156.824C122.423 157.32 122.554 157.776 122.815 158.192C123.077 158.608 123.429 158.816 123.871 158.816ZM127.574 157.28C127.574 158.165 127.726 158.608 128.03 158.608C128.254 158.608 128.545 158.533 128.902 158.384C128.982 158.411 129.022 158.485 129.022 158.608C128.633 158.816 128.185 159 127.678 159.16C127.427 159.16 127.235 159.032 127.102 158.776C126.974 158.52 126.91 158.176 126.91 157.744V155.888C126.91 155.573 126.891 155.416 126.854 155.416L126.262 155.424C126.225 155.413 126.206 155.387 126.206 155.344C126.233 155.291 126.257 155.195 126.278 155.056H126.846C126.889 155.056 126.91 154.963 126.91 154.776L126.902 154.096C127.099 154.016 127.302 153.851 127.51 153.6C127.574 153.6 127.622 153.616 127.654 153.648C127.606 154.208 127.582 154.677 127.582 155.056C127.971 155.056 128.355 155.037 128.734 155C128.771 155.021 128.79 155.053 128.79 155.096C128.758 155.149 128.731 155.248 128.71 155.392L127.574 155.408V157.28ZM134.574 156.088L134.55 158.04C134.55 158.429 134.675 158.624 134.926 158.624L135.214 158.616C135.235 158.643 135.246 158.685 135.246 158.744L135.23 158.832C134.819 158.907 134.526 159.016 134.35 159.16C134.233 159.128 134.131 159.056 134.046 158.944C133.966 158.827 133.921 158.704 133.91 158.576C133.483 158.837 133.059 159.032 132.638 159.16C132.457 159.16 132.27 159.059 132.078 158.856C131.886 158.648 131.79 158.389 131.79 158.08C131.79 157.925 131.825 157.787 131.894 157.664C131.963 157.536 132.046 157.448 132.142 157.4C132.537 157.203 133.123 157.029 133.902 156.88V156.12C133.902 155.827 133.854 155.608 133.758 155.464C133.667 155.32 133.555 155.248 133.422 155.248C133.294 155.248 133.155 155.272 133.006 155.32C132.857 155.363 132.75 155.448 132.686 155.576C132.627 155.704 132.598 155.885 132.598 156.12C132.598 156.141 132.561 156.165 132.486 156.192C132.417 156.213 132.326 156.224 132.214 156.224C132.107 156.224 132.033 156.2 131.99 156.152C131.953 156.099 131.934 156.021 131.934 155.92C131.934 155.728 132.073 155.52 132.35 155.296C132.414 155.253 132.601 155.181 132.91 155.08C133.225 154.979 133.406 154.928 133.454 154.928C133.838 154.928 134.121 155.04 134.302 155.264C134.483 155.488 134.574 155.763 134.574 156.088ZM132.502 158.04C132.502 158.168 132.553 158.307 132.654 158.456C132.755 158.605 132.87 158.68 132.998 158.68C133.131 158.68 133.283 158.635 133.454 158.544C133.625 158.453 133.766 158.357 133.878 158.256C133.894 157.941 133.902 157.579 133.902 157.168C133.454 157.227 133.059 157.355 132.718 157.552C132.574 157.621 132.502 157.784 132.502 158.04ZM135.903 155.408L135.591 155.416C135.57 155.389 135.559 155.355 135.559 155.312C135.559 155.269 135.565 155.232 135.575 155.2C135.938 155.152 136.234 155.077 136.463 154.976C136.538 154.944 136.583 154.928 136.599 154.928C136.647 154.928 136.706 155.003 136.775 155.152C136.845 155.301 136.903 155.467 136.951 155.648C137.49 155.344 138.015 155.104 138.527 154.928C138.853 154.928 139.103 155.059 139.279 155.32C139.455 155.576 139.543 155.917 139.543 156.344L139.527 157.4C139.527 158.291 139.567 158.744 139.647 158.76C139.727 158.771 139.877 158.776 140.095 158.776C140.117 158.813 140.127 158.853 140.127 158.896C140.127 158.939 140.117 158.981 140.095 159.024L139.359 159C138.917 159 138.565 159.021 138.303 159.064C138.277 159.032 138.263 158.987 138.263 158.928L138.271 158.864C138.426 158.827 138.546 158.776 138.631 158.712C138.717 158.643 138.77 158.579 138.791 158.52C138.818 158.456 138.839 158.363 138.855 158.24C138.871 158.112 138.879 157.867 138.879 157.504V156.84C138.879 156.467 138.837 156.152 138.751 155.896C138.714 155.795 138.671 155.72 138.623 155.672C138.506 155.544 138.365 155.48 138.199 155.48C138.034 155.48 137.869 155.512 137.703 155.576C137.538 155.64 137.413 155.699 137.327 155.752C137.242 155.805 137.122 155.885 136.967 155.992C136.946 156.413 136.935 156.979 136.935 157.688C136.935 158.392 136.97 158.749 137.039 158.76C137.114 158.771 137.25 158.776 137.447 158.776C137.469 158.813 137.479 158.853 137.479 158.896C137.479 158.939 137.469 158.981 137.447 159.024L136.767 159C136.362 159 136.01 159.021 135.711 159.064C135.685 159.032 135.671 158.987 135.671 158.928L135.679 158.864C135.834 158.827 135.954 158.776 136.039 158.712C136.125 158.643 136.178 158.579 136.199 158.52C136.226 158.456 136.247 158.341 136.263 158.176C136.285 158.005 136.295 157.643 136.295 157.088C136.295 156.533 136.293 156.227 136.287 156.168C136.287 156.104 136.285 156.024 136.279 155.928C136.274 155.832 136.263 155.76 136.247 155.712C136.231 155.664 136.207 155.613 136.175 155.56C136.122 155.459 136.031 155.408 135.903 155.408ZM144.366 157.008C144.366 157.717 144.38 158.136 144.406 158.264C144.449 158.504 144.558 158.624 144.734 158.624C144.798 158.624 144.894 158.621 145.022 158.616C145.044 158.653 145.054 158.699 145.054 158.752L145.046 158.832C144.684 158.896 144.417 158.984 144.246 159.096L144.15 159.16C144.07 159.16 143.977 159.085 143.87 158.936C143.764 158.787 143.71 158.619 143.71 158.432C143.294 158.699 142.798 158.941 142.222 159.16C141.833 159.08 141.486 158.84 141.182 158.44C140.878 158.035 140.726 157.568 140.726 157.04C140.726 156.699 140.793 156.395 140.926 156.128C141.06 155.856 141.217 155.651 141.398 155.512C141.58 155.368 141.777 155.248 141.99 155.152C142.321 155.003 142.59 154.928 142.798 154.928C142.82 154.928 143.129 154.971 143.726 155.056V153.6C143.726 153.115 143.67 152.819 143.558 152.712C143.5 152.653 143.422 152.619 143.326 152.608L143.038 152.576C143.017 152.533 143.006 152.501 143.006 152.48L143.038 152.376C143.268 152.333 143.489 152.277 143.702 152.208C143.916 152.128 144.148 152.005 144.398 151.84C144.462 151.84 144.505 151.867 144.526 151.92C144.42 152.325 144.366 154.021 144.366 157.008ZM141.398 156.736C141.398 157.221 141.521 157.653 141.766 158.032C142.017 158.405 142.294 158.592 142.598 158.592C142.908 158.592 143.284 158.427 143.726 158.096V155.8C143.726 155.651 143.545 155.525 143.182 155.424C142.82 155.317 142.566 155.264 142.422 155.264C142.198 155.264 141.972 155.419 141.742 155.728C141.513 156.032 141.398 156.368 141.398 156.736ZM152.656 155.032L153.352 155.056C153.544 155.056 153.768 155.037 154.024 155C154.061 155.069 154.08 155.136 154.08 155.2C153.936 155.264 153.834 155.325 153.776 155.384C153.594 155.576 153.41 155.904 153.224 156.368L152.104 159.16H151.984L150.8 156.176L149.64 159.16H149.52L148.368 156.352C148.128 155.776 147.965 155.448 147.88 155.368C147.8 155.283 147.704 155.221 147.591 155.184C147.586 155.168 147.583 155.139 147.583 155.096C147.583 155.053 147.599 155.013 147.631 154.976C148 155.029 148.285 155.056 148.488 155.056L149.16 155.032C149.176 155.059 149.184 155.099 149.184 155.152L149.16 155.28C148.994 155.28 148.877 155.285 148.808 155.296C148.845 155.6 148.965 156.013 149.168 156.536L149.76 158.064L150.864 155.056H151.08L152.232 158.064L152.8 156.608C152.986 156.144 153.109 155.715 153.168 155.32C153.061 155.304 152.89 155.291 152.656 155.28C152.645 155.243 152.64 155.2 152.64 155.152C152.64 155.099 152.645 155.059 152.656 155.032ZM157.207 156.088L157.183 158.04C157.183 158.429 157.308 158.624 157.559 158.624L157.847 158.616C157.868 158.643 157.879 158.685 157.879 158.744L157.863 158.832C157.452 158.907 157.159 159.016 156.983 159.16C156.866 159.128 156.764 159.056 156.679 158.944C156.599 158.827 156.554 158.704 156.543 158.576C156.116 158.837 155.692 159.032 155.271 159.16C155.09 159.16 154.903 159.059 154.711 158.856C154.519 158.648 154.423 158.389 154.423 158.08C154.423 157.925 154.458 157.787 154.527 157.664C154.596 157.536 154.679 157.448 154.775 157.4C155.17 157.203 155.756 157.029 156.535 156.88V156.12C156.535 155.827 156.487 155.608 156.391 155.464C156.3 155.32 156.188 155.248 156.055 155.248C155.927 155.248 155.788 155.272 155.639 155.32C155.49 155.363 155.383 155.448 155.319 155.576C155.26 155.704 155.231 155.885 155.231 156.12C155.231 156.141 155.194 156.165 155.119 156.192C155.05 156.213 154.959 156.224 154.847 156.224C154.74 156.224 154.666 156.2 154.623 156.152C154.586 156.099 154.567 156.021 154.567 155.92C154.567 155.728 154.706 155.52 154.983 155.296C155.047 155.253 155.234 155.181 155.543 155.08C155.858 154.979 156.039 154.928 156.087 154.928C156.471 154.928 156.754 155.04 156.935 155.264C157.116 155.488 157.207 155.763 157.207 156.088ZM155.135 158.04C155.135 158.168 155.186 158.307 155.287 158.456C155.388 158.605 155.503 158.68 155.631 158.68C155.764 158.68 155.916 158.635 156.087 158.544C156.258 158.453 156.399 158.357 156.511 158.256C156.527 157.941 156.535 157.579 156.535 157.168C156.087 157.227 155.692 157.355 155.351 157.552C155.207 157.621 155.135 157.784 155.135 158.04ZM160.144 159.024L159.424 159C159.051 159 158.699 159.021 158.368 159.064C158.336 159.021 158.32 158.976 158.32 158.928L158.336 158.864C158.566 158.811 158.72 158.728 158.8 158.616C158.859 158.531 158.904 158.429 158.936 158.312C158.968 158.189 158.984 157.843 158.984 157.272V156.504C158.984 156.173 158.968 155.944 158.936 155.816C158.91 155.688 158.867 155.603 158.808 155.56C158.75 155.517 158.672 155.491 158.576 155.48L158.28 155.456C158.264 155.435 158.256 155.4 158.256 155.352L158.28 155.248C158.558 155.189 158.782 155.131 158.952 155.072C159.128 155.008 159.334 154.917 159.568 154.8C159.627 154.8 159.667 154.832 159.688 154.896C159.624 155.259 159.592 156.123 159.592 157.488C159.592 157.733 159.6 158.005 159.616 158.304C159.638 158.597 159.664 158.747 159.696 158.752C159.776 158.768 159.926 158.776 160.144 158.776C160.16 158.813 160.168 158.856 160.168 158.904C160.168 158.952 160.16 158.992 160.144 159.024ZM159.392 153.888C159.2 153.755 159.064 153.579 158.984 153.36C159.048 153.285 159.134 153.208 159.24 153.128C159.352 153.043 159.448 152.984 159.528 152.952C159.731 153.101 159.862 153.28 159.92 153.488C159.771 153.68 159.595 153.813 159.392 153.888ZM162.027 157.28C162.027 158.165 162.179 158.608 162.483 158.608C162.707 158.608 162.998 158.533 163.355 158.384C163.435 158.411 163.475 158.485 163.475 158.608C163.086 158.816 162.638 159 162.131 159.16C161.881 159.16 161.689 159.032 161.555 158.776C161.427 158.52 161.363 158.176 161.363 157.744V155.888C161.363 155.573 161.345 155.416 161.307 155.416L160.715 155.424C160.678 155.413 160.659 155.387 160.659 155.344C160.686 155.291 160.71 155.195 160.731 155.056H161.299C161.342 155.056 161.363 154.963 161.363 154.776L161.355 154.096C161.553 154.016 161.755 153.851 161.963 153.6C162.027 153.6 162.075 153.616 162.107 153.648C162.059 154.208 162.035 154.677 162.035 155.056C162.425 155.056 162.809 155.037 163.187 155C163.225 155.021 163.243 155.053 163.243 155.096C163.211 155.149 163.185 155.248 163.163 155.392L162.027 155.408V157.28ZM168.419 159.024L167.315 159C166.873 159 166.467 159.021 166.099 159.064C166.073 159.032 166.059 158.987 166.059 158.928L166.067 158.864C166.414 158.795 166.622 158.659 166.691 158.456C166.777 158.216 166.819 157.291 166.819 155.68V155.416L166.027 155.424C165.99 155.403 165.971 155.371 165.971 155.328C165.998 155.275 166.027 155.184 166.059 155.056H166.827C166.833 154.971 166.849 154.731 166.875 154.336C166.907 153.936 166.99 153.597 167.123 153.32C167.262 153.043 167.414 152.835 167.579 152.696C167.745 152.552 167.926 152.435 168.123 152.344C168.411 152.216 168.678 152.152 168.923 152.152C169.174 152.152 169.502 152.251 169.907 152.448C169.886 152.571 169.838 152.691 169.763 152.808C169.694 152.92 169.603 152.997 169.491 153.04C169.043 152.677 168.702 152.496 168.467 152.496C168.281 152.496 168.091 152.648 167.899 152.952C167.707 153.256 167.593 153.589 167.555 153.952C167.518 154.309 167.497 154.677 167.491 155.056C167.897 155.056 168.249 155.037 168.547 155C168.579 155.021 168.595 155.056 168.595 155.104C168.574 155.147 168.555 155.203 168.539 155.272C168.529 155.336 168.521 155.376 168.515 155.392L167.475 155.408V156.608C167.475 158.027 167.507 158.739 167.571 158.744C167.79 158.765 168.073 158.776 168.419 158.776C168.441 158.819 168.451 158.861 168.451 158.904C168.451 158.941 168.441 158.981 168.419 159.024ZM173.072 157.048C173.072 158.232 172.384 158.936 171.008 159.16C170.442 159.16 169.965 158.96 169.576 158.56C169.192 158.155 169 157.651 169 157.048C169 155.853 169.69 155.147 171.072 154.928C171.632 154.928 172.104 155.133 172.488 155.544C172.877 155.955 173.072 156.456 173.072 157.048ZM171.184 158.816C171.952 158.816 172.336 158.325 172.336 157.344C172.336 156.789 172.208 156.304 171.952 155.888C171.696 155.472 171.357 155.264 170.936 155.264C170.514 155.264 170.208 155.4 170.016 155.672C169.829 155.939 169.736 156.323 169.736 156.824C169.736 157.32 169.866 157.776 170.128 158.192C170.389 158.608 170.741 158.816 171.184 158.816ZM173.927 155.408L173.615 155.416C173.588 155.389 173.575 155.349 173.575 155.296L173.591 155.2C173.953 155.152 174.249 155.077 174.479 154.976C174.553 154.944 174.599 154.928 174.615 154.928C174.673 154.928 174.74 155.035 174.815 155.248C174.889 155.456 174.935 155.664 174.951 155.872C175.351 155.456 175.713 155.141 176.039 154.928C176.252 154.928 176.428 154.992 176.567 155.12C176.705 155.243 176.775 155.397 176.775 155.584C176.775 155.797 176.585 155.904 176.207 155.904C176.127 155.621 175.991 155.48 175.799 155.48C175.671 155.48 175.404 155.701 174.999 156.144C174.967 156.549 174.951 157.195 174.951 158.08C174.951 158.523 174.985 158.747 175.055 158.752C175.177 158.768 175.393 158.776 175.703 158.776C175.719 158.813 175.727 158.856 175.727 158.904C175.727 158.952 175.719 158.992 175.703 159.024L174.807 159C174.369 159 173.983 159.021 173.647 159.064C173.62 159.032 173.607 158.987 173.607 158.928L173.615 158.864C173.897 158.811 174.079 158.728 174.159 158.616C174.217 158.531 174.26 158.395 174.287 158.208C174.313 158.016 174.327 157.643 174.327 157.088C174.327 156.533 174.324 156.227 174.319 156.168C174.319 156.109 174.316 156.032 174.311 155.936C174.305 155.84 174.295 155.768 174.279 155.72C174.263 155.672 174.239 155.619 174.207 155.56C174.153 155.459 174.06 155.408 173.927 155.408ZM33.536 166.408L33.224 166.416C33.1973 166.389 33.184 166.349 33.184 166.296L33.2 166.2C33.5627 166.152 33.8587 166.077 34.088 165.976C34.1627 165.944 34.208 165.928 34.224 165.928C34.2827 165.928 34.3493 166.035 34.424 166.248C34.4987 166.456 34.544 166.664 34.56 166.872C34.96 166.456 35.3227 166.141 35.648 165.928C35.8613 165.928 36.0373 165.992 36.176 166.12C36.3147 166.243 36.384 166.397 36.384 166.584C36.384 166.797 36.1947 166.904 35.816 166.904C35.736 166.621 35.6 166.48 35.408 166.48C35.28 166.48 35.0133 166.701 34.608 167.144C34.576 167.549 34.56 168.195 34.56 169.08C34.56 169.523 34.5947 169.747 34.664 169.752C34.7867 169.768 35.0027 169.776 35.312 169.776C35.328 169.813 35.336 169.856 35.336 169.904C35.336 169.952 35.328 169.992 35.312 170.024L34.416 170C33.9787 170 33.592 170.021 33.256 170.064C33.2293 170.032 33.216 169.987 33.216 169.928L33.224 169.864C33.5067 169.811 33.688 169.728 33.768 169.616C33.8267 169.531 33.8693 169.395 33.896 169.208C33.9227 169.016 33.936 168.643 33.936 168.088C33.936 167.533 33.9333 167.227 33.928 167.168C33.928 167.109 33.9253 167.032 33.92 166.936C33.9147 166.84 33.904 166.768 33.888 166.72C33.872 166.672 33.848 166.619 33.816 166.56C33.7627 166.459 33.6693 166.408 33.536 166.408ZM38.6266 169.584C39.0639 169.584 39.4506 169.467 39.7866 169.232C39.8612 169.259 39.9039 169.315 39.9146 169.4L39.0506 170.008C38.9226 170.109 38.6372 170.16 38.1946 170.16C37.7519 170.16 37.3759 169.963 37.0666 169.568C36.7572 169.168 36.6026 168.664 36.6026 168.056C36.6026 167.448 36.7706 166.968 37.1066 166.616C37.4426 166.264 37.8426 166.035 38.3066 165.928C38.7119 165.928 39.0692 166.064 39.3786 166.336C39.5652 166.496 39.6959 166.704 39.7706 166.96C39.7866 167.024 39.8612 167.059 39.9946 167.064C40.0266 167.101 40.0426 167.141 40.0426 167.184C40.0426 167.221 40.0372 167.261 40.0266 167.304C39.0879 167.523 38.1652 167.675 37.2586 167.76C37.2586 168.443 37.4479 168.955 37.8266 169.296C38.0399 169.488 38.3066 169.584 38.6266 169.584ZM39.1306 167.144C39.1572 167.128 39.1706 167.109 39.1706 167.088C39.1706 167.061 39.1359 166.987 39.0666 166.864C39.0026 166.736 38.8879 166.603 38.7226 166.464C38.5572 166.32 38.3839 166.248 38.2026 166.248C38.0212 166.248 37.8879 166.275 37.8026 166.328C37.5039 166.531 37.3332 166.899 37.2906 167.432C37.5786 167.432 37.9066 167.403 38.2746 167.344C38.6426 167.28 38.9279 167.213 39.1306 167.144ZM42.9114 166.424C42.7514 166.285 42.546 166.216 42.2954 166.216C41.778 166.216 41.5194 166.424 41.5194 166.84C41.5194 166.973 41.5674 167.101 41.6634 167.224C41.7647 167.341 41.8874 167.435 42.0314 167.504L42.6554 167.8C43.2634 168.093 43.5674 168.485 43.5674 168.976C43.5674 169.339 43.4234 169.627 43.1354 169.84C42.8474 170.053 42.506 170.16 42.1114 170.16C41.9034 170.16 41.6847 170.139 41.4554 170.096C41.2314 170.059 41.0714 170.019 40.9754 169.976C40.9594 169.736 40.9114 169.403 40.8314 168.976C40.89 168.939 40.938 168.92 40.9754 168.92C41.018 168.92 41.0474 168.925 41.0634 168.936C41.17 169.256 41.2634 169.461 41.3434 169.552C41.402 169.611 41.506 169.675 41.6554 169.744C41.8047 169.813 41.9807 169.848 42.1834 169.848C42.3914 169.848 42.57 169.792 42.7194 169.68C42.8687 169.568 42.9434 169.4 42.9434 169.176C42.9434 169.027 42.914 168.915 42.8554 168.84C42.7967 168.765 42.746 168.709 42.7034 168.672C42.666 168.629 42.6207 168.592 42.5674 168.56C42.5194 168.528 42.4767 168.504 42.4394 168.488C42.4074 168.467 42.3727 168.448 42.3354 168.432C42.3034 168.411 42.2847 168.4 42.2794 168.4L41.6794 168.112C41.162 167.867 40.9034 167.512 40.9034 167.048C40.9034 166.669 41.0474 166.389 41.3354 166.208C41.6234 166.021 41.9487 165.928 42.3114 165.928C42.4874 165.928 42.6847 165.952 42.9034 166C43.1274 166.043 43.2954 166.088 43.4074 166.136C43.37 166.264 43.3274 166.563 43.2794 167.032C43.2527 167.053 43.2154 167.064 43.1674 167.064C43.1247 167.064 43.082 167.059 43.0394 167.048C42.9967 166.781 42.954 166.573 42.9114 166.424ZM47.9745 165.872C48.0225 165.883 48.0625 165.915 48.0945 165.968C48.0465 166.331 48.0225 166.928 48.0225 167.76L48.0305 168.904C48.0305 169.384 48.1505 169.624 48.3905 169.624L48.6785 169.616C48.6998 169.653 48.7105 169.696 48.7105 169.744L48.7025 169.832C48.4412 169.875 48.2545 169.925 48.1425 169.984L47.9345 170.08C47.9078 170.096 47.8678 170.123 47.8145 170.16C47.6972 170.117 47.5985 170.024 47.5185 169.88C47.4385 169.731 47.3932 169.581 47.3825 169.432C46.9292 169.715 46.4092 169.957 45.8225 170.16C45.4812 170.16 45.2252 170.035 45.0545 169.784C44.8892 169.528 44.8065 169.181 44.8065 168.744V167.216C44.8065 166.853 44.7905 166.624 44.7585 166.528C44.7265 166.427 44.6332 166.36 44.4785 166.328L44.2145 166.296C44.1985 166.264 44.1905 166.229 44.1905 166.192L44.2145 166.096C44.3052 166.08 44.5105 166.045 44.8305 165.992L45.3985 165.872C45.4412 165.883 45.4785 165.915 45.5105 165.968C45.4678 166.261 45.4465 167.032 45.4465 168.28C45.4465 169.155 45.6812 169.592 46.1505 169.592C46.3158 169.592 46.4812 169.563 46.6465 169.504C46.8172 169.445 46.9452 169.389 47.0305 169.336C47.1158 169.277 47.2252 169.197 47.3585 169.096C47.3745 168.744 47.3825 168.491 47.3825 168.336V167.368C47.3825 167.043 47.3665 166.816 47.3345 166.688C47.3078 166.56 47.2652 166.475 47.2065 166.432C47.1532 166.384 47.0785 166.349 46.9825 166.328L46.7185 166.296L46.6945 166.192L46.7185 166.096C46.7718 166.085 46.8678 166.072 47.0065 166.056C47.1505 166.04 47.3398 166.008 47.5745 165.96C47.8092 165.912 47.9425 165.883 47.9745 165.872ZM51.1063 170.024L50.2263 170C49.7676 170 49.3703 170.021 49.0343 170.064C49.0076 170.032 48.9943 169.987 48.9943 169.928L49.0023 169.864C49.2529 169.816 49.4183 169.744 49.4983 169.648C49.5836 169.552 49.6449 169.389 49.6823 169.16C49.7249 168.931 49.7463 168.093 49.7463 166.648V164.6C49.7463 164.115 49.6903 163.819 49.5783 163.712C49.5196 163.653 49.4449 163.619 49.3543 163.608L49.0663 163.576C49.0503 163.549 49.0423 163.517 49.0423 163.48C49.0423 163.437 49.0503 163.403 49.0663 163.376C49.4449 163.307 49.7383 163.221 49.9463 163.12C50.0849 163.051 50.2423 162.957 50.4183 162.84C50.4716 162.84 50.5143 162.867 50.5463 162.92C50.4343 163.619 50.3783 164.869 50.3783 166.672V167.608C50.3783 169.011 50.4129 169.723 50.4823 169.744C50.5783 169.765 50.7863 169.776 51.1063 169.776C51.1169 169.813 51.1223 169.856 51.1223 169.904C51.1223 169.952 51.1169 169.992 51.1063 170.024ZM52.7929 168.28C52.7929 169.165 52.9449 169.608 53.2489 169.608C53.4729 169.608 53.7635 169.533 54.1209 169.384C54.2009 169.411 54.2409 169.485 54.2409 169.608C53.8515 169.816 53.4035 170 52.8969 170.16C52.6462 170.16 52.4542 170.032 52.3209 169.776C52.1929 169.52 52.1289 169.176 52.1289 168.744V166.888C52.1289 166.573 52.1102 166.416 52.0729 166.416L51.4809 166.424C51.4435 166.413 51.4249 166.387 51.4249 166.344C51.4515 166.291 51.4755 166.195 51.4969 166.056H52.0649C52.1075 166.056 52.1289 165.963 52.1289 165.776L52.1209 165.096C52.3182 165.016 52.5209 164.851 52.7289 164.6C52.7929 164.6 52.8409 164.616 52.8729 164.648C52.8249 165.208 52.8009 165.677 52.8009 166.056C53.1902 166.056 53.5742 166.037 53.9529 166C53.9902 166.021 54.0089 166.053 54.0089 166.096C53.9769 166.149 53.9502 166.248 53.9289 166.392L52.7929 166.408V168.28ZM56.7317 166.424C56.5717 166.285 56.3664 166.216 56.1157 166.216C55.5984 166.216 55.3397 166.424 55.3397 166.84C55.3397 166.973 55.3877 167.101 55.4837 167.224C55.585 167.341 55.7077 167.435 55.8517 167.504L56.4757 167.8C57.0837 168.093 57.3877 168.485 57.3877 168.976C57.3877 169.339 57.2437 169.627 56.9557 169.84C56.6677 170.053 56.3264 170.16 55.9317 170.16C55.7237 170.16 55.505 170.139 55.2757 170.096C55.0517 170.059 54.8917 170.019 54.7957 169.976C54.7797 169.736 54.7317 169.403 54.6517 168.976C54.7104 168.939 54.7584 168.92 54.7957 168.92C54.8384 168.92 54.8677 168.925 54.8837 168.936C54.9904 169.256 55.0837 169.461 55.1637 169.552C55.2224 169.611 55.3264 169.675 55.4757 169.744C55.625 169.813 55.801 169.848 56.0037 169.848C56.2117 169.848 56.3904 169.792 56.5397 169.68C56.689 169.568 56.7637 169.4 56.7637 169.176C56.7637 169.027 56.7344 168.915 56.6757 168.84C56.617 168.765 56.5664 168.709 56.5237 168.672C56.4864 168.629 56.441 168.592 56.3877 168.56C56.3397 168.528 56.297 168.504 56.2597 168.488C56.2277 168.467 56.193 168.448 56.1557 168.432C56.1237 168.411 56.105 168.4 56.0997 168.4L55.4997 168.112C54.9824 167.867 54.7237 167.512 54.7237 167.048C54.7237 166.669 54.8677 166.389 55.1557 166.208C55.4437 166.021 55.769 165.928 56.1317 165.928C56.3077 165.928 56.505 165.952 56.7237 166C56.9477 166.043 57.1157 166.088 57.2277 166.136C57.1904 166.264 57.1477 166.563 57.0997 167.032C57.073 167.053 57.0357 167.064 56.9877 167.064C56.945 167.064 56.9024 167.059 56.8597 167.048C56.817 166.781 56.7744 166.573 56.7317 166.424Z" fill="black"/>
<g filter="url(#filter1_i)">
<path d="M142 142C183.421 142 217 110.212 217 71C217 31.7878 183.421 0 142 0C100.579 0 67 31.7878 67 71C67 110.212 100.579 142 142 142Z" fill="#F4F4F4"/>
</g>
<g filter="url(#filter2_i)">
<path d="M124.53 20.15C125.96 21.87 127.41 23.62 128.3 25.67C129.19 27.72 129.47 30.15 128.52 32.17C127.58 34.17 125.45 35.55 123.25 35.59C122.16 35.61 121.03 35.3 120.23 34.56C119.43 33.82 119.04 32.61 119.43 31.59C119.92 30.33 121.39 29.73 122.74 29.65C126.56 29.43 130.18 32.46 131.02 36.2C131.86 39.93 129.84 45.24 126.82 47.58" stroke="black" stroke-miterlimit="10"/>
<path d="M159.29 20.15C157.86 21.87 156.41 23.62 155.52 25.67C154.63 27.72 154.35 30.15 155.3 32.17C156.24 34.17 158.37 35.55 160.57 35.59C161.66 35.61 162.79 35.3 163.59 34.56C164.39 33.82 164.78 32.61 164.39 31.59C163.9 30.33 162.43 29.73 161.08 29.65C157.26 29.43 153.64 32.46 152.8 36.2C151.96 39.93 153.67 45.24 156.7 47.58" stroke="black" stroke-miterlimit="10"/>
<path d="M157.61 104.24H126.09C116.72 104.24 109.12 96.64 109.12 87.27V63.85C109.12 54.48 116.72 46.88 126.09 46.88H157.61C166.98 46.88 174.58 54.48 174.58 63.85V87.26C174.58 96.64 166.98 104.24 157.61 104.24Z" fill="#E1B1BA"/>
<path d="M158.43 89.46H125.26C118.27 89.46 112.6 83.79 112.6 76.8V73.81C112.6 67.11 118.04 61.67 124.74 61.67H158.96C165.66 61.67 171.1 67.11 171.1 73.81V76.8C171.09 83.79 165.42 89.46 158.43 89.46Z" fill="#916E77"/>
<path d="M122.57 21.38C124.056 21.38 125.26 20.1757 125.26 18.69C125.26 17.2044 124.056 16 122.57 16C121.085 16 119.88 17.2044 119.88 18.69C119.88 20.1757 121.085 21.38 122.57 21.38Z" fill="#69A2AD"/>
<path d="M161.25 21.38C162.736 21.38 163.94 20.1757 163.94 18.69C163.94 17.2044 162.736 16 161.25 16C159.764 16 158.56 17.2044 158.56 18.69C158.56 20.1757 159.764 21.38 161.25 21.38Z" fill="#69A2AD"/>
<path d="M153.36 81.36C156.563 81.36 159.16 78.7633 159.16 75.56C159.16 72.3568 156.563 69.76 153.36 69.76C150.157 69.76 147.56 72.3568 147.56 75.56C147.56 78.7633 150.157 81.36 153.36 81.36Z" fill="#69A2AD"/>
<path d="M131.22 81.36C134.424 81.36 137.02 78.7633 137.02 75.56C137.02 72.3568 134.424 69.76 131.22 69.76C128.017 69.76 125.42 72.3568 125.42 75.56C125.42 78.7633 128.017 81.36 131.22 81.36Z" fill="#69A2AD"/>
<path d="M177.36 64.3099C178.9 64.3099 180.14 65.5599 180.14 67.0899V84.0199C180.14 85.5599 178.89 86.7999 177.36 86.7999C175.82 86.7999 174.58 85.5499 174.58 84.0199V67.0899C174.58 65.5599 175.82 64.3099 177.36 64.3099Z" fill="#916E77"/>
<path d="M182.93 66.97C184.47 66.97 185.71 68.22 185.71 69.75V81.36C185.71 82.9 184.46 84.14 182.93 84.14C181.39 84.14 180.15 82.89 180.15 81.36V69.75C180.14 68.21 181.39 66.97 182.93 66.97Z" fill="#E1B1BA"/>
<path d="M100.78 66.92C102.32 66.92 103.56 68.17 103.56 69.7V81.31C103.56 82.85 102.31 84.09 100.78 84.09C99.2401 84.09 98.0001 82.84 98.0001 81.31V69.7C97.9901 68.16 99.2401 66.92 100.78 66.92Z" fill="#E1B1BA"/>
<path d="M106.34 64.26C107.88 64.26 109.12 65.51 109.12 67.04V83.97C109.12 85.51 107.87 86.75 106.34 86.75C104.8 86.75 103.56 85.5 103.56 83.97V67.04C103.56 65.5 104.81 64.26 106.34 64.26Z" fill="#916E77"/>
<path d="M123.566 118.549L120.782 112.285L119.414 119.121H118.99L120.432 111.74L121.021 111.75L123.571 117.479L126.1 111.75L126.688 111.74L128.141 119.121H127.717L126.359 112.285L123.566 118.549Z" fill="black"/>
<path d="M131.931 118.518L130.5 121.78H130.017L131.364 118.716L129.228 113.906H129.71L131.587 118.097L133.474 113.906H133.946L131.931 118.518Z" fill="black"/>
<path d="M138.061 119.126H135.129V111.849H137.552C138.639 111.859 139.524 112.737 139.524 113.802C139.524 114.295 139.333 114.752 138.999 115.132L138.723 115.412L139.063 115.609C139.641 115.952 139.98 116.56 139.98 117.22C139.98 118.258 139.116 119.115 138.061 119.126ZM135.553 115.334H137.525C138.4 115.334 139.095 114.654 139.095 113.807C139.095 112.95 138.4 112.27 137.525 112.27H135.553V115.334ZM139.529 117.225C139.529 116.409 138.909 115.76 138.034 115.76H135.548V118.721H138.066C138.925 118.721 139.529 118.061 139.529 117.225Z" fill="black"/>
<path d="M140.97 112.072C140.97 111.937 141.087 111.834 141.214 111.834C141.352 111.834 141.458 111.937 141.458 112.072C141.458 112.197 141.352 112.301 141.214 112.301C141.087 112.301 140.97 112.197 140.97 112.072ZM141.4 113.911V119.157H140.97V113.911H141.4Z" fill="black"/>
<path d="M147.826 116.493C147.826 117.957 146.644 119.147 145.202 119.147C143.749 119.147 142.567 117.957 142.567 116.493C142.567 115.028 143.749 113.838 145.202 113.838C146.638 113.838 147.826 115.028 147.826 116.493ZM147.428 116.493C147.428 115.256 146.426 114.254 145.196 114.254C143.961 114.254 142.954 115.256 142.954 116.493C142.954 117.724 143.956 118.731 145.196 118.731C146.426 118.731 147.428 117.724 147.428 116.493Z" fill="black"/>
<path d="M151.855 119.126H148.923V111.849H151.346C152.433 111.859 153.318 112.737 153.318 113.802C153.318 114.295 153.128 114.752 152.794 115.132L152.518 115.412L152.857 115.609C153.435 115.952 153.774 116.56 153.774 117.22C153.78 118.258 152.915 119.115 151.855 119.126ZM149.353 115.334H151.325C152.2 115.334 152.894 114.654 152.894 113.807C152.894 112.95 152.2 112.27 151.325 112.27H149.353V115.334ZM153.329 117.225C153.329 116.409 152.709 115.76 151.834 115.76H149.347V118.721H151.871C152.725 118.721 153.329 118.061 153.329 117.225Z" fill="black"/>
<path d="M160.041 116.493C160.041 117.957 158.859 119.147 157.417 119.147C155.964 119.147 154.782 117.957 154.782 116.493C154.782 115.028 155.964 113.838 157.417 113.838C158.859 113.838 160.041 115.028 160.041 116.493ZM159.649 116.493C159.649 115.256 158.647 114.254 157.417 114.254C156.181 114.254 155.174 115.256 155.174 116.493C155.174 117.724 156.176 118.731 157.417 118.731C158.647 118.731 159.649 117.724 159.649 116.493Z" fill="black"/>
<path d="M163.99 114.737H162.665V119.147H162.235V114.737H160.899V114.306H162.235V111.787H162.654L162.665 114.306H163.99V114.737Z" fill="black"/>
</g>
<path d="M18.024 162.027L16.575 162C15.975 162 15.543 162.015 15.279 162.045C15.243 161.997 15.225 161.934 15.225 161.856L16.305 160.812C16.323 160.794 16.398 160.725 16.53 160.605C16.662 160.485 16.77 160.386 16.854 160.308C16.938 160.224 17.046 160.11 17.178 159.966C17.31 159.816 17.418 159.678 17.502 159.552C17.7 159.252 17.799 158.973 17.799 158.715C17.799 158.451 17.703 158.232 17.511 158.058C17.319 157.884 17.1 157.797 16.854 157.797C16.608 157.797 16.317 157.878 15.981 158.04C15.909 158.466 15.867 158.769 15.855 158.949C15.807 158.973 15.759 158.985 15.711 158.985C15.669 158.985 15.633 158.979 15.603 158.967C15.579 158.589 15.543 158.331 15.495 158.193C15.453 158.049 15.432 157.974 15.432 157.968C15.432 157.89 15.477 157.833 15.567 157.797C15.933 157.641 16.425 157.47 17.043 157.284C17.475 157.284 17.841 157.383 18.141 157.581C18.441 157.779 18.591 158.091 18.591 158.517C18.591 158.943 18.327 159.405 17.799 159.903L16.197 161.424H17.151C17.679 161.424 18.039 161.406 18.231 161.37C18.429 161.328 18.576 161.253 18.672 161.145C18.702 161.109 18.759 160.998 18.843 160.812C18.855 160.806 18.888 160.803 18.942 160.803C18.996 160.803 19.041 160.821 19.077 160.857C19.059 160.965 19.038 161.082 19.014 161.208C18.99 161.328 18.972 161.418 18.96 161.478C18.936 161.67 18.924 161.817 18.924 161.919C18.804 161.991 18.504 162.027 18.024 162.027Z" fill="white"/>
<defs>
<filter id="filter0_d" x="0" y="145" width="190" height="38" filterUnits="userSpaceOnUse" color-interpolation-filters="sRGB">
<feFlood flood-opacity="0" result="BackgroundImageFix"/>
<feColorMatrix in="SourceAlpha" type="matrix" values="0 0 0 0 0 0 0 0 0 0 0 0 0 0 0 0 0 0 127 0" result="hardAlpha"/>
<feOffset dy="4"/>
<feGaussianBlur stdDeviation="2"/>
<feColorMatrix type="matrix" values="0 0 0 0 0 0 0 0 0 0 0 0 0 0 0 0 0 0 0.25 0"/>
<feBlend mode="normal" in2="BackgroundImageFix" result="effect1_dropShadow"/>
<feBlend mode="normal" in="SourceGraphic" in2="effect1_dropShadow" result="shape"/>
</filter>
<filter id="filter1_i" x="67" y="0" width="150" height="146" filterUnits="userSpaceOnUse" color-interpolation-filters="sRGB">
<feFlood flood-opacity="0" result="BackgroundImageFix"/>
<feBlend mode="normal" in="SourceGraphic" in2="BackgroundImageFix" result="shape"/>
<feColorMatrix in="SourceAlpha" type="matrix" values="0 0 0 0 0 0 0 0 0 0 0 0 0 0 0 0 0 0 127 0" result="hardAlpha"/>
<feOffset dy="4"/>
<feGaussianBlur stdDeviation="2"/>
<feComposite in2="hardAlpha" operator="arithmetic" k2="-1" k3="1"/>
<feColorMatrix type="matrix" values="0 0 0 0 0 0 0 0 0 0 0 0 0 0 0 0 0 0 0.25 0"/>
<feBlend mode="normal" in2="shape" result="effect1_innerShadow"/>
</filter>
<filter id="filter2_i" x="98" y="16" width="87.7104" height="109.78" filterUnits="userSpaceOnUse" color-interpolation-filters="sRGB">
<feFlood flood-opacity="0" result="BackgroundImageFix"/>
<feBlend mode="normal" in="SourceGraphic" in2="BackgroundImageFix" result="shape"/>
<feColorMatrix in="SourceAlpha" type="matrix" values="0 0 0 0 0 0 0 0 0 0 0 0 0 0 0 0 0 0 127 0" result="hardAlpha"/>
<feOffset dy="4"/>
<feGaussianBlur stdDeviation="2"/>
<feComposite in2="hardAlpha" operator="arithmetic" k2="-1" k3="1"/>
<feColorMatrix type="matrix" values="0 0 0 0 0 0 0 0 0 0 0 0 0 0 0 0 0 0 0.25 0"/>
<feBlend mode="normal" in2="shape" result="effect1_innerShadow"/>
</filter>
</defs>
</svg>
