<svg width="282" height="183" viewBox="0 0 282 183" fill="none" xmlns="http://www.w3.org/2000/svg">
<g filter="url(#filter0_d)">
<path d="M278 145H4V175H278V145Z" fill="#F4F4F4"/>
</g>
<path d="M18 166C21.3137 166 24 163.314 24 160C24 156.686 21.3137 154 18 154C14.6863 154 12 156.686 12 160C12 163.314 14.6863 166 18 166Z" fill="black"/>
<path d="M35.735 155.155L37.175 155.2C38.235 155.2 39.035 155.16 39.575 155.08C39.635 155.16 39.665 155.245 39.665 155.335L39.635 155.455C39.105 155.575 38.77 155.73 38.63 155.92C38.52 156.06 38.445 156.28 38.405 156.58C38.285 157.75 38.225 159.41 38.225 161.56C38.225 162.85 38.485 163.855 39.005 164.575C39.525 165.295 40.335 165.655 41.435 165.655C42.745 165.655 43.65 165.305 44.15 164.605C44.66 163.895 44.915 162.815 44.915 161.365V159.505C44.915 157.685 44.865 156.405 44.765 155.665C44.535 155.635 44.105 155.62 43.475 155.62C43.455 155.54 43.445 155.455 43.445 155.365C43.445 155.265 43.455 155.195 43.475 155.155L45.245 155.2C46.005 155.2 46.59 155.16 47 155.08C47.05 155.14 47.075 155.225 47.075 155.335L47.06 155.455C46.29 155.625 45.87 156.145 45.8 157.015C45.69 158.305 45.635 159.88 45.635 161.74C45.635 163.21 45.27 164.34 44.54 165.13C43.82 165.91 42.745 166.3 41.315 166.3C40.555 166.3 39.89 166.205 39.32 166.015C38.76 165.825 38.32 165.585 38 165.295C37.69 165.005 37.44 164.65 37.25 164.23C37.06 163.81 36.935 163.415 36.875 163.045C36.825 162.665 36.8 162.255 36.8 161.815V159.52C36.8 158.71 36.755 157.425 36.665 155.665C36.475 155.635 36.165 155.62 35.735 155.62C35.715 155.55 35.705 155.47 35.705 155.38C35.705 155.29 35.715 155.215 35.735 155.155ZM48.3215 159.355L47.7965 159.385C47.7565 159.315 47.7365 159.225 47.7365 159.115L47.7515 158.98C48.4515 158.86 48.9715 158.69 49.3115 158.47L49.4915 158.365C49.6415 158.365 49.8115 158.495 50.0015 158.755C50.1915 159.005 50.2965 159.315 50.3165 159.685C50.8865 159.325 51.3015 159.08 51.5615 158.95C51.8315 158.82 52.2965 158.625 52.9565 158.365C53.6865 158.505 54.3365 158.955 54.9065 159.715C55.4865 160.465 55.7765 161.34 55.7765 162.34C55.7765 162.91 55.6865 163.425 55.5065 163.885C55.3265 164.335 55.0865 164.7 54.7865 164.98C54.4865 165.25 54.1765 165.48 53.8565 165.67C53.5365 165.86 53.2065 166 52.8665 166.09C52.2865 166.23 51.8515 166.3 51.5615 166.3C51.2815 166.3 50.8415 166.225 50.2415 166.075V166.915C50.2415 169.585 50.3015 170.925 50.4215 170.935C50.7215 170.965 51.2815 170.98 52.1015 170.98C52.1215 171.05 52.1315 171.13 52.1315 171.22C52.1315 171.31 52.1215 171.385 52.1015 171.445L49.9415 171.4C49.0815 171.4 48.3815 171.44 47.8415 171.52C47.7815 171.46 47.7515 171.375 47.7515 171.265L47.7815 171.145C48.1915 171.045 48.4665 170.905 48.6065 170.725C48.7565 170.545 48.8515 170.315 48.8915 170.035C48.9915 169.335 49.0415 167.695 49.0415 165.115V161.455C49.0415 160.655 48.9915 160.105 48.8915 159.805C48.8015 159.505 48.6115 159.355 48.3215 159.355ZM50.2415 164.815C50.2415 164.965 50.5265 165.145 51.0965 165.355C51.6665 165.555 52.0665 165.655 52.2965 165.655C52.9365 165.655 53.4665 165.385 53.8865 164.845C54.3065 164.305 54.5165 163.62 54.5165 162.79C54.5165 161.95 54.2715 161.18 53.7815 160.48C53.2915 159.77 52.7715 159.415 52.2215 159.415C51.6715 159.415 51.0215 159.73 50.2715 160.36C50.2515 161.19 50.2415 162.675 50.2415 164.815ZM60.4971 166.045L58.8471 166C57.9871 166 57.2421 166.04 56.6121 166.12C56.5621 166.06 56.5371 165.975 56.5371 165.865L56.5521 165.745C57.0221 165.655 57.3321 165.52 57.4821 165.34C57.6421 165.16 57.7571 164.855 57.8271 164.425C57.9071 163.995 57.9471 162.425 57.9471 159.715V155.875C57.9471 154.965 57.8421 154.41 57.6321 154.21C57.5221 154.1 57.3821 154.035 57.2121 154.015L56.6721 153.955C56.6421 153.905 56.6271 153.845 56.6271 153.775C56.6271 153.695 56.6421 153.63 56.6721 153.58C57.3821 153.45 57.9321 153.29 58.3221 153.1C58.5821 152.97 58.8771 152.795 59.2071 152.575C59.3071 152.575 59.3871 152.625 59.4471 152.725C59.2371 154.035 59.1321 156.38 59.1321 159.76V161.515C59.1321 164.145 59.1971 165.48 59.3271 165.52C59.5071 165.56 59.8971 165.58 60.4971 165.58C60.5171 165.65 60.5271 165.73 60.5271 165.82C60.5271 165.91 60.5171 165.985 60.4971 166.045ZM69.0895 162.34C69.0895 164.56 67.7995 165.88 65.2195 166.3C64.1595 166.3 63.2645 165.925 62.5345 165.175C61.8145 164.415 61.4545 163.47 61.4545 162.34C61.4545 160.1 62.7495 158.775 65.3395 158.365C66.3895 158.365 67.2745 158.75 67.9945 159.52C68.7245 160.29 69.0895 161.23 69.0895 162.34ZM65.5495 165.655C66.9895 165.655 67.7095 164.735 67.7095 162.895C67.7095 161.855 67.4695 160.945 66.9895 160.165C66.5095 159.385 65.8745 158.995 65.0845 158.995C64.2945 158.995 63.7195 159.25 63.3595 159.76C63.0095 160.26 62.8345 160.98 62.8345 161.92C62.8345 162.85 63.0795 163.705 63.5695 164.485C64.0595 165.265 64.7195 165.655 65.5495 165.655ZM75.6125 160.54L75.5675 164.2C75.5675 164.93 75.8025 165.295 76.2725 165.295L76.8125 165.28C76.8525 165.33 76.8725 165.41 76.8725 165.52L76.8425 165.685C76.0725 165.825 75.5225 166.03 75.1925 166.3C74.9725 166.24 74.7825 166.105 74.6225 165.895C74.4725 165.675 74.3875 165.445 74.3675 165.205C73.5675 165.695 72.7725 166.06 71.9825 166.3C71.6425 166.3 71.2925 166.11 70.9325 165.73C70.5725 165.34 70.3925 164.855 70.3925 164.275C70.3925 163.985 70.4575 163.725 70.5875 163.495C70.7175 163.255 70.8725 163.09 71.0525 163C71.7925 162.63 72.8925 162.305 74.3525 162.025V160.6C74.3525 160.05 74.2625 159.64 74.0825 159.37C73.9125 159.1 73.7025 158.965 73.4525 158.965C73.2125 158.965 72.9525 159.01 72.6725 159.1C72.3925 159.18 72.1925 159.34 72.0725 159.58C71.9625 159.82 71.9075 160.16 71.9075 160.6C71.9075 160.64 71.8375 160.685 71.6975 160.735C71.5675 160.775 71.3975 160.795 71.1875 160.795C70.9875 160.795 70.8475 160.75 70.7675 160.66C70.6975 160.56 70.6625 160.415 70.6625 160.225C70.6625 159.865 70.9225 159.475 71.4425 159.055C71.5625 158.975 71.9125 158.84 72.4925 158.65C73.0825 158.46 73.4225 158.365 73.5125 158.365C74.2325 158.365 74.7625 158.575 75.1025 158.995C75.4425 159.415 75.6125 159.93 75.6125 160.54ZM71.7275 164.2C71.7275 164.44 71.8225 164.7 72.0125 164.98C72.2025 165.26 72.4175 165.4 72.6575 165.4C72.9075 165.4 73.1925 165.315 73.5125 165.145C73.8325 164.975 74.0975 164.795 74.3075 164.605C74.3375 164.015 74.3525 163.335 74.3525 162.565C73.5125 162.675 72.7725 162.915 72.1325 163.285C71.8625 163.415 71.7275 163.72 71.7275 164.2ZM84.51 162.265C84.51 163.595 84.535 164.38 84.585 164.62C84.665 165.07 84.87 165.295 85.2 165.295C85.32 165.295 85.5 165.29 85.74 165.28C85.78 165.35 85.8 165.435 85.8 165.535L85.785 165.685C85.105 165.805 84.605 165.97 84.285 166.18L84.105 166.3C83.955 166.3 83.78 166.16 83.58 165.88C83.38 165.6 83.28 165.285 83.28 164.935C82.5 165.435 81.57 165.89 80.49 166.3C79.76 166.15 79.11 165.7 78.54 164.95C77.97 164.19 77.685 163.315 77.685 162.325C77.685 161.685 77.81 161.115 78.06 160.615C78.31 160.105 78.605 159.72 78.945 159.46C79.285 159.19 79.655 158.965 80.055 158.785C80.675 158.505 81.18 158.365 81.57 158.365C81.61 158.365 82.19 158.445 83.31 158.605V155.875C83.31 154.965 83.205 154.41 82.995 154.21C82.885 154.1 82.74 154.035 82.56 154.015L82.02 153.955C81.98 153.875 81.96 153.815 81.96 153.775L82.02 153.58C82.45 153.5 82.865 153.395 83.265 153.265C83.665 153.115 84.1 152.885 84.57 152.575C84.69 152.575 84.77 152.625 84.81 152.725C84.61 153.485 84.51 156.665 84.51 162.265ZM78.945 161.755C78.945 162.665 79.175 163.475 79.635 164.185C80.105 164.885 80.625 165.235 81.195 165.235C81.775 165.235 82.48 164.925 83.31 164.305V160C83.31 159.72 82.97 159.485 82.29 159.295C81.61 159.095 81.135 158.995 80.865 158.995C80.445 158.995 80.02 159.285 79.59 159.865C79.16 160.435 78.945 161.065 78.945 161.755ZM98.1623 162.265C98.1623 163.595 98.1873 164.38 98.2373 164.62C98.3173 165.07 98.5223 165.295 98.8523 165.295C98.9723 165.295 99.1523 165.29 99.3923 165.28C99.4323 165.35 99.4523 165.435 99.4523 165.535L99.4373 165.685C98.7573 165.805 98.2573 165.97 97.9373 166.18L97.7573 166.3C97.6073 166.3 97.4323 166.16 97.2323 165.88C97.0323 165.6 96.9323 165.285 96.9323 164.935C96.1523 165.435 95.2223 165.89 94.1423 166.3C93.4123 166.15 92.7623 165.7 92.1923 164.95C91.6223 164.19 91.3373 163.315 91.3373 162.325C91.3373 161.685 91.4623 161.115 91.7123 160.615C91.9623 160.105 92.2573 159.72 92.5973 159.46C92.9373 159.19 93.3073 158.965 93.7073 158.785C94.3273 158.505 94.8323 158.365 95.2223 158.365C95.2623 158.365 95.8423 158.445 96.9623 158.605V155.875C96.9623 154.965 96.8573 154.41 96.6473 154.21C96.5373 154.1 96.3923 154.035 96.2123 154.015L95.6723 153.955C95.6323 153.875 95.6123 153.815 95.6123 153.775L95.6723 153.58C96.1023 153.5 96.5173 153.395 96.9173 153.265C97.3173 153.115 97.7523 152.885 98.2223 152.575C98.3423 152.575 98.4223 152.625 98.4623 152.725C98.2623 153.485 98.1623 156.665 98.1623 162.265ZM92.5973 161.755C92.5973 162.665 92.8273 163.475 93.2873 164.185C93.7573 164.885 94.2773 165.235 94.8473 165.235C95.4273 165.235 96.1323 164.925 96.9623 164.305V160C96.9623 159.72 96.6223 159.485 95.9423 159.295C95.2623 159.095 94.7873 158.995 94.5173 158.995C94.0973 158.995 93.6723 159.285 93.2423 159.865C92.8123 160.435 92.5973 161.065 92.5973 161.755ZM105.715 160.54L105.67 164.2C105.67 164.93 105.905 165.295 106.375 165.295L106.915 165.28C106.955 165.33 106.975 165.41 106.975 165.52L106.945 165.685C106.175 165.825 105.625 166.03 105.295 166.3C105.075 166.24 104.885 166.105 104.725 165.895C104.575 165.675 104.49 165.445 104.47 165.205C103.67 165.695 102.875 166.06 102.085 166.3C101.745 166.3 101.395 166.11 101.035 165.73C100.675 165.34 100.495 164.855 100.495 164.275C100.495 163.985 100.56 163.725 100.69 163.495C100.82 163.255 100.975 163.09 101.155 163C101.895 162.63 102.995 162.305 104.455 162.025V160.6C104.455 160.05 104.365 159.64 104.185 159.37C104.015 159.1 103.805 158.965 103.555 158.965C103.315 158.965 103.055 159.01 102.775 159.1C102.495 159.18 102.295 159.34 102.175 159.58C102.065 159.82 102.01 160.16 102.01 160.6C102.01 160.64 101.94 160.685 101.8 160.735C101.67 160.775 101.5 160.795 101.29 160.795C101.09 160.795 100.95 160.75 100.87 160.66C100.8 160.56 100.765 160.415 100.765 160.225C100.765 159.865 101.025 159.475 101.545 159.055C101.665 158.975 102.015 158.84 102.595 158.65C103.185 158.46 103.525 158.365 103.615 158.365C104.335 158.365 104.865 158.575 105.205 158.995C105.545 159.415 105.715 159.93 105.715 160.54ZM101.83 164.2C101.83 164.44 101.925 164.7 102.115 164.98C102.305 165.26 102.52 165.4 102.76 165.4C103.01 165.4 103.295 165.315 103.615 165.145C103.935 164.975 104.2 164.795 104.41 164.605C104.44 164.015 104.455 163.335 104.455 162.565C103.615 162.675 102.875 162.915 102.235 163.285C101.965 163.415 101.83 163.72 101.83 164.2ZM109.993 162.775C109.993 164.435 110.278 165.265 110.848 165.265C111.268 165.265 111.813 165.125 112.483 164.845C112.633 164.895 112.708 165.035 112.708 165.265C111.978 165.655 111.138 166 110.188 166.3C109.718 166.3 109.358 166.06 109.108 165.58C108.868 165.1 108.748 164.455 108.748 163.645V160.165C108.748 159.575 108.713 159.28 108.643 159.28L107.533 159.295C107.463 159.275 107.428 159.225 107.428 159.145C107.478 159.045 107.523 158.865 107.563 158.605H108.628C108.708 158.605 108.748 158.43 108.748 158.08L108.733 156.805C109.103 156.655 109.483 156.345 109.873 155.875C109.993 155.875 110.083 155.905 110.143 155.965C110.053 157.015 110.008 157.895 110.008 158.605C110.738 158.605 111.458 158.57 112.168 158.5C112.238 158.54 112.273 158.6 112.273 158.68C112.213 158.78 112.163 158.965 112.123 159.235L109.993 159.265V162.775ZM118.518 160.54L118.473 164.2C118.473 164.93 118.708 165.295 119.178 165.295L119.718 165.28C119.758 165.33 119.778 165.41 119.778 165.52L119.748 165.685C118.978 165.825 118.428 166.03 118.098 166.3C117.878 166.24 117.688 166.105 117.528 165.895C117.378 165.675 117.293 165.445 117.273 165.205C116.473 165.695 115.678 166.06 114.888 166.3C114.548 166.3 114.198 166.11 113.838 165.73C113.478 165.34 113.298 164.855 113.298 164.275C113.298 163.985 113.363 163.725 113.493 163.495C113.623 163.255 113.778 163.09 113.958 163C114.698 162.63 115.798 162.305 117.258 162.025V160.6C117.258 160.05 117.168 159.64 116.988 159.37C116.818 159.1 116.608 158.965 116.358 158.965C116.118 158.965 115.858 159.01 115.578 159.1C115.298 159.18 115.098 159.34 114.978 159.58C114.868 159.82 114.813 160.16 114.813 160.6C114.813 160.64 114.743 160.685 114.603 160.735C114.473 160.775 114.303 160.795 114.093 160.795C113.893 160.795 113.753 160.75 113.673 160.66C113.603 160.56 113.568 160.415 113.568 160.225C113.568 159.865 113.828 159.475 114.348 159.055C114.468 158.975 114.818 158.84 115.398 158.65C115.988 158.46 116.328 158.365 116.418 158.365C117.138 158.365 117.668 158.575 118.008 158.995C118.348 159.415 118.518 159.93 118.518 160.54ZM114.633 164.2C114.633 164.44 114.728 164.7 114.918 164.98C115.108 165.26 115.323 165.4 115.563 165.4C115.813 165.4 116.098 165.315 116.418 165.145C116.738 164.975 117.003 164.795 117.213 164.605C117.243 164.015 117.258 163.335 117.258 162.565C116.418 162.675 115.678 162.915 115.038 163.285C114.768 163.415 114.633 163.72 114.633 164.2ZM127.395 162.775C127.395 164.435 127.68 165.265 128.25 165.265C128.67 165.265 129.215 165.125 129.885 164.845C130.035 164.895 130.11 165.035 130.11 165.265C129.38 165.655 128.54 166 127.59 166.3C127.12 166.3 126.76 166.06 126.51 165.58C126.27 165.1 126.15 164.455 126.15 163.645V160.165C126.15 159.575 126.115 159.28 126.045 159.28L124.935 159.295C124.865 159.275 124.83 159.225 124.83 159.145C124.88 159.045 124.925 158.865 124.965 158.605H126.03C126.11 158.605 126.15 158.43 126.15 158.08L126.135 156.805C126.505 156.655 126.885 156.345 127.275 155.875C127.395 155.875 127.485 155.905 127.545 155.965C127.455 157.015 127.41 157.895 127.41 158.605C128.14 158.605 128.86 158.57 129.57 158.5C129.64 158.54 129.675 158.6 129.675 158.68C129.615 158.78 129.565 158.965 129.525 159.235L127.395 159.265V162.775ZM138.23 162.34C138.23 164.56 136.94 165.88 134.36 166.3C133.3 166.3 132.405 165.925 131.675 165.175C130.955 164.415 130.595 163.47 130.595 162.34C130.595 160.1 131.89 158.775 134.48 158.365C135.53 158.365 136.415 158.75 137.135 159.52C137.865 160.29 138.23 161.23 138.23 162.34ZM134.69 165.655C136.13 165.655 136.85 164.735 136.85 162.895C136.85 161.855 136.61 160.945 136.13 160.165C135.65 159.385 135.015 158.995 134.225 158.995C133.435 158.995 132.86 159.25 132.5 159.76C132.15 160.26 131.975 160.98 131.975 161.92C131.975 162.85 132.22 163.705 132.71 164.485C133.2 165.265 133.86 165.655 134.69 165.655ZM158.068 166.045L156.508 166C155.428 166 154.553 166.04 153.883 166.12C153.833 166.06 153.808 165.975 153.808 165.865L153.823 165.745C154.423 165.605 154.803 165.455 154.963 165.295C155.123 165.135 155.218 164.795 155.248 164.275C155.278 163.755 155.293 163.215 155.293 162.655C155.293 162.085 155.263 161.22 155.203 160.06L155.083 157.6C154.623 158.45 153.903 159.895 152.923 161.935C151.953 163.975 151.323 165.43 151.033 166.3H150.613C148.663 161.89 147.413 159.205 146.863 158.245L146.233 157.165C146.193 158.405 146.173 159.92 146.173 161.71C146.173 163.49 146.233 164.765 146.353 165.535C146.573 165.565 146.963 165.58 147.523 165.58C147.553 165.66 147.568 165.75 147.568 165.85C147.568 165.94 147.553 166.005 147.523 166.045L145.828 166C145.138 166 144.558 166.04 144.088 166.12C144.038 166.06 144.013 165.975 144.013 165.865L144.028 165.745C144.518 165.635 144.843 165.475 145.003 165.265C145.173 165.055 145.283 164.78 145.333 164.44C145.573 162.73 145.713 160.035 145.753 156.355C145.483 156.015 145.188 155.775 144.868 155.635C144.828 155.625 144.548 155.585 144.028 155.515L143.983 155.305C143.983 155.205 143.998 155.125 144.028 155.065L146.428 155.005C146.578 155.005 146.833 155.27 147.193 155.8C147.563 156.33 147.928 156.92 148.288 157.57C148.648 158.21 149.063 159.045 149.533 160.075C150.013 161.105 150.413 161.995 150.733 162.745C151.053 163.495 151.233 163.905 151.273 163.975C151.403 163.685 152.018 162.38 153.118 160.06C154.218 157.73 154.943 156.11 155.293 155.2C156.303 155.2 157.108 155.155 157.708 155.065C157.758 155.155 157.783 155.28 157.783 155.44C157.283 155.55 156.948 155.715 156.778 155.935C156.608 156.155 156.513 156.39 156.493 156.64C156.473 156.89 156.463 157.36 156.463 158.05C156.463 158.74 156.493 159.91 156.553 161.56C156.623 163.21 156.728 164.535 156.868 165.535C157.058 165.565 157.458 165.58 158.068 165.58C158.098 165.65 158.113 165.73 158.113 165.82C158.113 165.91 158.098 165.985 158.068 166.045ZM160.102 158.605L161.392 158.56C161.412 158.61 161.422 158.685 161.422 158.785L161.392 159.025C161.082 159.025 160.862 159.035 160.732 159.055C160.822 159.665 161.062 160.44 161.452 161.38L162.907 164.98L164.212 161.635C164.652 160.505 164.902 159.665 164.962 159.115C164.602 159.075 164.232 159.055 163.852 159.055C163.812 158.995 163.792 158.925 163.792 158.845C163.792 158.765 163.802 158.685 163.822 158.605H165.292C165.752 158.605 166.172 158.575 166.552 158.515C166.632 158.645 166.672 158.775 166.672 158.905C166.422 159.015 166.242 159.125 166.132 159.235C165.862 159.525 165.567 160.04 165.247 160.78L163.072 166C162.942 166.31 162.732 166.845 162.442 167.605C162.152 168.375 161.947 168.91 161.827 169.21C161.717 169.51 161.612 169.79 161.512 170.05C161.412 170.32 161.297 170.6 161.167 170.89C160.897 171.51 160.682 171.82 160.522 171.82C160.472 171.82 160.367 171.79 160.207 171.73C159.777 171.58 159.292 171.445 158.752 171.325C158.752 171.125 158.797 170.965 158.887 170.845C159.247 170.905 159.442 170.935 159.472 170.935C159.762 170.935 160.132 170.595 160.582 169.915C161.042 169.245 161.397 168.58 161.647 167.92L162.187 166.48L159.742 160.48C159.492 159.85 159.262 159.425 159.052 159.205C158.922 159.045 158.727 158.925 158.467 158.845C158.467 158.665 158.492 158.535 158.542 158.455C159.202 158.555 159.722 158.605 160.102 158.605ZM167.41 155.155L169.69 155.2H172C172.95 155.2 173.715 155.41 174.295 155.83C174.885 156.25 175.18 156.865 175.18 157.675C175.18 158.325 174.96 158.875 174.52 159.325C174.08 159.775 173.625 160.06 173.155 160.18C173.975 160.33 174.61 160.65 175.06 161.14C175.52 161.63 175.75 162.27 175.75 163.06C175.75 163.98 175.345 164.7 174.535 165.22C173.735 165.74 172.735 166 171.535 166C169.345 166 167.925 166.04 167.275 166.12C167.225 166.06 167.2 165.975 167.2 165.865L167.215 165.745C167.735 165.625 168.075 165.44 168.235 165.19C168.365 164.99 168.45 164.74 168.49 164.44C168.61 163.53 168.67 162.29 168.67 160.72C168.67 157.43 168.58 155.755 168.4 155.695C168.21 155.645 167.88 155.62 167.41 155.62C167.39 155.55 167.38 155.47 167.38 155.38C167.38 155.29 167.39 155.215 167.41 155.155ZM169.96 160.42V163.42C169.96 164.36 169.99 165.02 170.05 165.4C170.41 165.44 170.83 165.46 171.31 165.46C172.34 165.46 173.105 165.285 173.605 164.935C174.115 164.585 174.37 164.02 174.37 163.24C174.37 162.45 174.12 161.795 173.62 161.275C173.12 160.755 172.47 160.495 171.67 160.495H171.04C170.98 160.425 170.95 160.34 170.95 160.24L171.04 159.94H171.475C173.075 159.94 173.875 159.245 173.875 157.855C173.875 157.165 173.665 156.64 173.245 156.28C172.825 155.91 172.27 155.725 171.58 155.725C170.9 155.725 170.42 155.745 170.14 155.785C170.02 156.265 169.96 157.81 169.96 160.42ZM180.92 166.045L179.57 166C178.87 166 178.21 166.04 177.59 166.12C177.53 166.04 177.5 165.955 177.5 165.865L177.53 165.745C177.96 165.645 178.25 165.49 178.4 165.28C178.51 165.12 178.595 164.93 178.655 164.71C178.715 164.48 178.745 163.83 178.745 162.76V161.32C178.745 160.7 178.715 160.27 178.655 160.03C178.605 159.79 178.525 159.63 178.415 159.55C178.305 159.47 178.16 159.42 177.98 159.4L177.425 159.355C177.395 159.315 177.38 159.25 177.38 159.16L177.425 158.965C177.945 158.855 178.365 158.745 178.685 158.635C179.015 158.515 179.4 158.345 179.84 158.125C179.95 158.125 180.025 158.185 180.065 158.305C179.945 158.985 179.885 160.605 179.885 163.165C179.885 163.625 179.9 164.135 179.93 164.695C179.97 165.245 180.02 165.525 180.08 165.535C180.23 165.565 180.51 165.58 180.92 165.58C180.95 165.65 180.965 165.73 180.965 165.82C180.965 165.91 180.95 165.985 180.92 166.045ZM179.51 156.415C179.15 156.165 178.895 155.835 178.745 155.425C178.865 155.285 179.025 155.14 179.225 154.99C179.435 154.83 179.615 154.72 179.765 154.66C180.145 154.94 180.39 155.275 180.5 155.665C180.22 156.025 179.89 156.275 179.51 156.415ZM189.881 162.34C189.881 164.56 188.591 165.88 186.011 166.3C184.951 166.3 184.056 165.925 183.326 165.175C182.606 164.415 182.246 163.47 182.246 162.34C182.246 160.1 183.541 158.775 186.131 158.365C187.181 158.365 188.066 158.75 188.786 159.52C189.516 160.29 189.881 161.23 189.881 162.34ZM186.341 165.655C187.781 165.655 188.501 164.735 188.501 162.895C188.501 161.855 188.261 160.945 187.781 160.165C187.301 159.385 186.666 158.995 185.876 158.995C185.086 158.995 184.511 159.25 184.151 159.76C183.801 160.26 183.626 160.98 183.626 161.92C183.626 162.85 183.871 163.705 184.361 164.485C184.851 165.265 185.511 165.655 186.341 165.655ZM191.214 155.155L193.494 155.2H195.804C196.754 155.2 197.519 155.41 198.099 155.83C198.689 156.25 198.984 156.865 198.984 157.675C198.984 158.325 198.764 158.875 198.324 159.325C197.884 159.775 197.429 160.06 196.959 160.18C197.779 160.33 198.414 160.65 198.864 161.14C199.324 161.63 199.554 162.27 199.554 163.06C199.554 163.98 199.149 164.7 198.339 165.22C197.539 165.74 196.539 166 195.339 166C193.149 166 191.729 166.04 191.079 166.12C191.029 166.06 191.004 165.975 191.004 165.865L191.019 165.745C191.539 165.625 191.879 165.44 192.039 165.19C192.169 164.99 192.254 164.74 192.294 164.44C192.414 163.53 192.474 162.29 192.474 160.72C192.474 157.43 192.384 155.755 192.204 155.695C192.014 155.645 191.684 155.62 191.214 155.62C191.194 155.55 191.184 155.47 191.184 155.38C191.184 155.29 191.194 155.215 191.214 155.155ZM193.764 160.42V163.42C193.764 164.36 193.794 165.02 193.854 165.4C194.214 165.44 194.634 165.46 195.114 165.46C196.144 165.46 196.909 165.285 197.409 164.935C197.919 164.585 198.174 164.02 198.174 163.24C198.174 162.45 197.924 161.795 197.424 161.275C196.924 160.755 196.274 160.495 195.474 160.495H194.844C194.784 160.425 194.754 160.34 194.754 160.24L194.844 159.94H195.279C196.879 159.94 197.679 159.245 197.679 157.855C197.679 157.165 197.469 156.64 197.049 156.28C196.629 155.91 196.074 155.725 195.384 155.725C194.704 155.725 194.224 155.745 193.944 155.785C193.824 156.265 193.764 157.81 193.764 160.42ZM208.923 162.34C208.923 164.56 207.633 165.88 205.053 166.3C203.993 166.3 203.098 165.925 202.368 165.175C201.648 164.415 201.288 163.47 201.288 162.34C201.288 160.1 202.583 158.775 205.173 158.365C206.223 158.365 207.108 158.75 207.828 159.52C208.558 160.29 208.923 161.23 208.923 162.34ZM205.383 165.655C206.823 165.655 207.543 164.735 207.543 162.895C207.543 161.855 207.303 160.945 206.823 160.165C206.343 159.385 205.708 158.995 204.918 158.995C204.128 158.995 203.553 159.25 203.193 159.76C202.843 160.26 202.668 160.98 202.668 161.92C202.668 162.85 202.913 163.705 203.403 164.485C203.893 165.265 204.553 165.655 205.383 165.655ZM212.326 162.775C212.326 164.435 212.611 165.265 213.181 165.265C213.601 165.265 214.146 165.125 214.816 164.845C214.966 164.895 215.041 165.035 215.041 165.265C214.311 165.655 213.471 166 212.521 166.3C212.051 166.3 211.691 166.06 211.441 165.58C211.201 165.1 211.081 164.455 211.081 163.645V160.165C211.081 159.575 211.046 159.28 210.976 159.28L209.866 159.295C209.796 159.275 209.761 159.225 209.761 159.145C209.811 159.045 209.856 158.865 209.896 158.605H210.961C211.041 158.605 211.081 158.43 211.081 158.08L211.066 156.805C211.436 156.655 211.816 156.345 212.206 155.875C212.326 155.875 212.416 155.905 212.476 155.965C212.386 157.015 212.341 157.895 212.341 158.605C213.071 158.605 213.791 158.57 214.501 158.5C214.571 158.54 214.606 158.6 214.606 158.68C214.546 158.78 214.496 158.965 214.456 159.235L212.326 159.265V162.775Z" fill="black"/>
<g filter="url(#filter1_i)">
<path d="M142 142C183.421 142 217 110.212 217 71C217 31.7878 183.421 0 142 0C100.579 0 67 31.7878 67 71C67 110.212 100.579 142 142 142Z" fill="#F4F4F4"/>
</g>
<path d="M19.024 162.027L17.575 162C16.975 162 16.543 162.015 16.279 162.045C16.243 161.997 16.225 161.934 16.225 161.856L17.305 160.812C17.323 160.794 17.398 160.725 17.53 160.605C17.662 160.485 17.77 160.386 17.854 160.308C17.938 160.224 18.046 160.11 18.178 159.966C18.31 159.816 18.418 159.678 18.502 159.552C18.7 159.252 18.799 158.973 18.799 158.715C18.799 158.451 18.703 158.232 18.511 158.058C18.319 157.884 18.1 157.797 17.854 157.797C17.608 157.797 17.317 157.878 16.981 158.04C16.909 158.466 16.867 158.769 16.855 158.949C16.807 158.973 16.759 158.985 16.711 158.985C16.669 158.985 16.633 158.979 16.603 158.967C16.579 158.589 16.543 158.331 16.495 158.193C16.453 158.049 16.432 157.974 16.432 157.968C16.432 157.89 16.477 157.833 16.567 157.797C16.933 157.641 17.425 157.47 18.043 157.284C18.475 157.284 18.841 157.383 19.141 157.581C19.441 157.779 19.591 158.091 19.591 158.517C19.591 158.943 19.327 159.405 18.799 159.903L17.197 161.424H18.151C18.679 161.424 19.039 161.406 19.231 161.37C19.429 161.328 19.576 161.253 19.672 161.145C19.702 161.109 19.759 160.998 19.843 160.812C19.855 160.806 19.888 160.803 19.942 160.803C19.996 160.803 20.041 160.821 20.077 160.857C20.059 160.965 20.038 161.082 20.014 161.208C19.99 161.328 19.972 161.418 19.96 161.478C19.936 161.67 19.924 161.817 19.924 161.919C19.804 161.991 19.504 162.027 19.024 162.027Z" fill="white"/>
<g filter="url(#filter2_i)">
<path d="M123.53 19.15C124.96 20.87 126.41 22.62 127.3 24.67C128.19 26.72 128.47 29.15 127.52 31.17C126.58 33.17 124.45 34.55 122.25 34.59C121.16 34.61 120.03 34.3 119.23 33.56C118.43 32.82 118.04 31.61 118.43 30.59C118.92 29.33 120.39 28.73 121.74 28.65C125.56 28.43 129.18 31.46 130.02 35.2C130.86 38.93 128.84 44.24 125.82 46.58" stroke="black" stroke-miterlimit="10"/>
<path d="M158.29 19.15C156.86 20.87 155.41 22.62 154.52 24.67C153.63 26.72 153.35 29.15 154.3 31.17C155.24 33.17 157.37 34.55 159.57 34.59C160.66 34.61 161.79 34.3 162.59 33.56C163.39 32.82 163.78 31.61 163.39 30.59C162.9 29.33 161.43 28.73 160.08 28.65C156.26 28.43 152.64 31.46 151.8 35.2C150.96 38.93 152.67 44.24 155.7 46.58" stroke="black" stroke-miterlimit="10"/>
<path d="M156.61 103.24H125.09C115.72 103.24 108.12 95.64 108.12 86.27V62.85C108.12 53.48 115.72 45.88 125.09 45.88H156.61C165.98 45.88 173.58 53.48 173.58 62.85V86.26C173.58 95.64 165.98 103.24 156.61 103.24Z" fill="#E1B1BA"/>
<path d="M157.43 88.46H124.26C117.27 88.46 111.6 82.79 111.6 75.8V72.81C111.6 66.11 117.04 60.67 123.74 60.67H157.96C164.66 60.67 170.1 66.11 170.1 72.81V75.8C170.09 82.79 164.42 88.46 157.43 88.46Z" fill="#916E77"/>
<path d="M121.57 20.38C123.056 20.38 124.26 19.1757 124.26 17.69C124.26 16.2044 123.056 15 121.57 15C120.085 15 118.88 16.2044 118.88 17.69C118.88 19.1757 120.085 20.38 121.57 20.38Z" fill="#69A2AD"/>
<path d="M160.25 20.38C161.736 20.38 162.94 19.1757 162.94 17.69C162.94 16.2044 161.736 15 160.25 15C158.764 15 157.56 16.2044 157.56 17.69C157.56 19.1757 158.764 20.38 160.25 20.38Z" fill="#69A2AD"/>
<path d="M152.36 80.36C155.563 80.36 158.16 77.7633 158.16 74.56C158.16 71.3568 155.563 68.76 152.36 68.76C149.157 68.76 146.56 71.3568 146.56 74.56C146.56 77.7633 149.157 80.36 152.36 80.36Z" fill="#69A2AD"/>
<path d="M130.22 80.36C133.424 80.36 136.02 77.7633 136.02 74.56C136.02 71.3568 133.424 68.76 130.22 68.76C127.017 68.76 124.42 71.3568 124.42 74.56C124.42 77.7633 127.017 80.36 130.22 80.36Z" fill="#69A2AD"/>
<path d="M176.36 63.3099C177.9 63.3099 179.14 64.5599 179.14 66.0899V83.0199C179.14 84.5599 177.89 85.7999 176.36 85.7999C174.82 85.7999 173.58 84.5499 173.58 83.0199V66.0899C173.58 64.5599 174.82 63.3099 176.36 63.3099Z" fill="#916E77"/>
<path d="M181.93 65.97C183.47 65.97 184.71 67.22 184.71 68.75V80.36C184.71 81.9 183.46 83.14 181.93 83.14C180.39 83.14 179.15 81.89 179.15 80.36V68.75C179.14 67.21 180.39 65.97 181.93 65.97Z" fill="#E1B1BA"/>
<path d="M99.78 65.92C101.32 65.92 102.56 67.17 102.56 68.7V80.31C102.56 81.85 101.31 83.09 99.78 83.09C98.2401 83.09 97.0001 81.84 97.0001 80.31V68.7C96.9901 67.16 98.2401 65.92 99.78 65.92Z" fill="#E1B1BA"/>
<path d="M105.34 63.26C106.88 63.26 108.12 64.51 108.12 66.04V82.97C108.12 84.51 106.87 85.75 105.34 85.75C103.8 85.75 102.56 84.5 102.56 82.97V66.04C102.56 64.5 103.81 63.26 105.34 63.26Z" fill="#916E77"/>
<path d="M122.566 117.549L119.782 111.285L118.414 118.121H117.99L119.432 110.74L120.021 110.75L122.571 116.479L125.1 110.75L125.688 110.74L127.141 118.121H126.717L125.359 111.285L122.566 117.549Z" fill="black"/>
<path d="M130.931 117.518L129.5 120.78H129.017L130.364 117.716L128.228 112.906H128.71L130.587 117.097L132.474 112.906H132.946L130.931 117.518Z" fill="black"/>
<path d="M137.061 118.126H134.129V110.849H136.552C137.639 110.859 138.524 111.737 138.524 112.802C138.524 113.295 138.333 113.752 137.999 114.132L137.723 114.412L138.063 114.609C138.641 114.952 138.98 115.56 138.98 116.22C138.98 117.258 138.116 118.115 137.061 118.126ZM134.553 114.334H136.525C137.4 114.334 138.095 113.654 138.095 112.807C138.095 111.95 137.4 111.27 136.525 111.27H134.553V114.334ZM138.529 116.225C138.529 115.409 137.909 114.76 137.034 114.76H134.548V117.721H137.066C137.925 117.721 138.529 117.061 138.529 116.225Z" fill="black"/>
<path d="M139.97 111.072C139.97 110.937 140.087 110.834 140.214 110.834C140.352 110.834 140.458 110.937 140.458 111.072C140.458 111.197 140.352 111.301 140.214 111.301C140.087 111.301 139.97 111.197 139.97 111.072ZM140.4 112.911V118.157H139.97V112.911H140.4Z" fill="black"/>
<path d="M146.826 115.493C146.826 116.957 145.644 118.147 144.202 118.147C142.749 118.147 141.567 116.957 141.567 115.493C141.567 114.028 142.749 112.838 144.202 112.838C145.638 112.838 146.826 114.028 146.826 115.493ZM146.428 115.493C146.428 114.256 145.426 113.254 144.196 113.254C142.961 113.254 141.954 114.256 141.954 115.493C141.954 116.724 142.956 117.731 144.196 117.731C145.426 117.731 146.428 116.724 146.428 115.493Z" fill="black"/>
<path d="M150.855 118.126H147.923V110.849H150.346C151.433 110.859 152.318 111.737 152.318 112.802C152.318 113.295 152.128 113.752 151.794 114.132L151.518 114.412L151.857 114.609C152.435 114.952 152.774 115.56 152.774 116.22C152.78 117.258 151.915 118.115 150.855 118.126ZM148.353 114.334H150.325C151.2 114.334 151.894 113.654 151.894 112.807C151.894 111.95 151.2 111.27 150.325 111.27H148.353V114.334ZM152.329 116.225C152.329 115.409 151.709 114.76 150.834 114.76H148.347V117.721H150.871C151.725 117.721 152.329 117.061 152.329 116.225Z" fill="black"/>
<path d="M159.041 115.493C159.041 116.957 157.859 118.147 156.417 118.147C154.964 118.147 153.782 116.957 153.782 115.493C153.782 114.028 154.964 112.838 156.417 112.838C157.859 112.838 159.041 114.028 159.041 115.493ZM158.649 115.493C158.649 114.256 157.647 113.254 156.417 113.254C155.181 113.254 154.174 114.256 154.174 115.493C154.174 116.724 155.176 117.731 156.417 117.731C157.647 117.731 158.649 116.724 158.649 115.493Z" fill="black"/>
<path d="M162.99 113.737H161.665V118.147H161.235V113.737H159.899V113.306H161.235V110.787H161.654L161.665 113.306H162.99V113.737Z" fill="black"/>
</g>
<defs>
<filter id="filter0_d" x="0" y="145" width="282" height="38" filterUnits="userSpaceOnUse" color-interpolation-filters="sRGB">
<feFlood flood-opacity="0" result="BackgroundImageFix"/>
<feColorMatrix in="SourceAlpha" type="matrix" values="0 0 0 0 0 0 0 0 0 0 0 0 0 0 0 0 0 0 127 0" result="hardAlpha"/>
<feOffset dy="4"/>
<feGaussianBlur stdDeviation="2"/>
<feColorMatrix type="matrix" values="0 0 0 0 0 0 0 0 0 0 0 0 0 0 0 0 0 0 0.25 0"/>
<feBlend mode="normal" in2="BackgroundImageFix" result="effect1_dropShadow"/>
<feBlend mode="normal" in="SourceGraphic" in2="effect1_dropShadow" result="shape"/>
</filter>
<filter id="filter1_i" x="67" y="0" width="150" height="146" filterUnits="userSpaceOnUse" color-interpolation-filters="sRGB">
<feFlood flood-opacity="0" result="BackgroundImageFix"/>
<feBlend mode="normal" in="SourceGraphic" in2="BackgroundImageFix" result="shape"/>
<feColorMatrix in="SourceAlpha" type="matrix" values="0 0 0 0 0 0 0 0 0 0 0 0 0 0 0 0 0 0 127 0" result="hardAlpha"/>
<feOffset dy="4"/>
<feGaussianBlur stdDeviation="2"/>
<feComposite in2="hardAlpha" operator="arithmetic" k2="-1" k3="1"/>
<feColorMatrix type="matrix" values="0 0 0 0 0 0 0 0 0 0 0 0 0 0 0 0 0 0 0.25 0"/>
<feBlend mode="normal" in2="shape" result="effect1_innerShadow"/>
</filter>
<filter id="filter2_i" x="97" y="15" width="87.71" height="109.78" filterUnits="userSpaceOnUse" color-interpolation-filters="sRGB">
<feFlood flood-opacity="0" result="BackgroundImageFix"/>
<feBlend mode="normal" in="SourceGraphic" in2="BackgroundImageFix" result="shape"/>
<feColorMatrix in="SourceAlpha" type="matrix" values="0 0 0 0 0 0 0 0 0 0 0 0 0 0 0 0 0 0 127 0" result="hardAlpha"/>
<feOffset dy="4"/>
<feGaussianBlur stdDeviation="2"/>
<feComposite in2="hardAlpha" operator="arithmetic" k2="-1" k3="1"/>
<feColorMatrix type="matrix" values="0 0 0 0 0 0 0 0 0 0 0 0 0 0 0 0 0 0 0.25 0"/>
<feBlend mode="normal" in2="shape" result="effect1_innerShadow"/>
</filter>
</defs>
</svg>
