<svg width="871" height="723" viewBox="0 0 871 723" fill="none" xmlns="http://www.w3.org/2000/svg">
<g clip-path="url(#clip0_0:1)">
<path d="M871 -34.3818H-23.2525V777.029H871V-34.3818Z" fill="#E1B1BA" fill-opacity="0.5"/>
<path d="M77.5721 317.26C47.2178 317.26 36.5376 299.987 34.9918 291.351L112.564 277.663C120.574 281.574 127.741 289.885 127.319 296.239C126.898 302.595 115.515 317.26 77.5721 317.26Z" fill="#E7BEA3"/>
<path d="M742.416 457.069C742.416 450.811 746.632 446.967 748.74 445.826H797.222C800.258 448.955 801.86 454.625 802.281 457.069V532.351C800.595 539.032 792.585 552.393 774.035 552.393C755.485 552.393 745.226 539.032 742.416 532.351V457.069Z" fill="#E1A283"/>
<path d="M807.762 542.128C810.46 535.089 805.232 528.114 802.281 525.508V532.351C797.897 546.43 783.31 551.904 776.564 552.883C785.839 552.23 805.064 549.167 807.762 542.128Z" fill="#E2B4A5"/>
<path d="M212.902 701.491H187.185L327.574 579.769L352.026 597.367C356.747 603.233 353.993 607.959 352.026 609.588L212.902 701.491Z" fill="#DBB098"/>
<path d="M119.731 237.089L181.283 277.663V72.3492L244.099 35.6859L188.028 0.489136H174.537L119.731 33.2417V237.089Z" fill="#F2FAFF"/>
<path d="M39.2076 189.672L52.2769 171.584H97.3867C99.6355 175.17 104.975 183.512 108.348 188.205C111.721 192.898 112.845 198.307 112.985 200.426V291.351C111.158 298.521 101.097 312.86 75.4642 312.86C49.8317 312.86 38.0834 298.521 35.4134 291.351V201.892C35.4134 195.636 37.9429 191.138 39.2076 189.672Z" fill="#C48362"/>
<path d="M514.758 319.704C514.758 322.311 514.927 328.601 515.602 332.903C516.445 338.28 508.013 348.546 507.592 355.389C507.17 362.233 508.013 368.099 505.905 371.521" stroke="#301A04" stroke-width="3"/>
<path d="M445.197 67.4604L371.419 21.998V0H445.197V67.4604Z" fill="#DCAB95"/>
<path d="M794.693 418.939L699.414 454.136L871 339.746V368.588L794.693 418.939Z" fill="#E3B4A2"/>
<path d="M748.318 445.826C746.294 440.35 748.599 436.375 750.004 435.071V422.361C751.691 426.272 758.858 435.071 773.192 435.071C784.659 435.071 792.866 426.597 795.536 422.361V435.071C799.246 438.2 798.206 443.544 797.222 445.826C791.742 452.669 782.045 455.603 773.192 455.603C764.338 455.603 750.848 452.669 748.318 445.826Z" fill="#542824"/>
<path d="M772.348 467.823C756.159 467.823 745.929 476.622 742.837 481.022V486.888C744.945 491.777 753.799 501.554 772.348 501.554C790.898 501.554 800.032 491.777 802.281 486.888V481.022C799.049 476.622 788.537 467.823 772.348 467.823Z" fill="white"/>
<path d="M772.77 546.527C755.907 546.527 745.788 533.166 742.837 526.485V486.4C744.804 491.451 753.546 501.554 772.77 501.554C791.994 501.554 800.454 491.451 802.281 486.4V526.485C799.471 533.166 789.634 546.527 772.77 546.527Z" fill="#ECCABD"/>
<path d="M223.441 214.114L181.283 236.6V253.221L206.156 240.511L223.441 214.114Z" fill="#A77057"/>
<path d="M181.704 237.089L119.731 197.004V213.624L181.704 254.199V237.089Z" fill="#C48362"/>
<path d="M97.8083 191.138C97.8083 186.445 93.8732 178.754 91.9061 175.495L97.8083 171.096C100.057 175.17 105.313 184.295 108.348 188.205C111.383 192.116 112.985 199.286 113.407 202.381V291.351C110.456 300.639 96.122 313.838 75.4642 313.349C58.9379 312.958 45.8125 304.713 41.3156 300.639C69.6463 310.807 90.7821 294.447 97.8083 284.996V191.138Z" fill="#A77057"/>
<path d="M40.0508 654.073L72.9347 626.209L83.0528 634.519L51.0121 663.85L51.8553 654.073H40.0508Z" fill="#FFAC82"/>
<path d="M57.3359 630.609C54.3005 618.876 56.0711 605.515 57.3359 600.3L165.684 674.604H182.547L327.574 580.746V609.588L187.606 701.491C176.139 704.62 165.684 702.794 161.89 701.491L57.3359 630.609Z" fill="#C08162"/>
<path d="M220.069 494.221L57.3359 600.3L165.684 674.604H182.547L327.152 580.746V569.015L220.069 494.221Z" fill="#E1A283"/>
<path d="M165.684 679.982L64.0811 612.521C62.3948 616.041 63.3785 623.765 64.0811 627.186L165.684 694.647C172.092 697.775 181.283 695.951 185.077 694.647L327.574 601.278V587.591L185.077 679.982C178.332 682.719 169.337 681.123 165.684 679.982Z" fill="#FFF9F9"/>
<path d="M79.2585 219.002C97.8083 220.176 110.034 210.691 113.829 205.804V273.753C105.397 287.049 87.2686 288.092 79.2585 286.952V219.002Z" fill="#EBCBBB"/>
<path d="M49.7473 169.629V154.964H99.9163V169.629C97.2459 173.05 88.4491 179.895 74.621 179.895C60.7929 179.895 52.2769 173.05 49.7473 169.629Z" fill="#EBCBBB"/>
<path d="M75.0426 171.095C89.0128 171.095 100.338 164.31 100.338 155.941C100.338 147.572 89.0128 140.787 75.0426 140.787C61.0724 140.787 49.7473 147.572 49.7473 155.941C49.7473 164.31 61.0724 171.095 75.0426 171.095Z" fill="#FFFDFC"/>
<path d="M167.18 106.778L134.64 86.112C133.211 85.2044 131.419 85.8133 130.637 87.4718C129.856 89.1304 130.381 91.2106 131.81 92.1181L164.351 112.784C165.78 113.692 167.572 113.083 168.353 111.425C169.134 109.766 168.609 107.686 167.18 106.778Z" fill="#C48362"/>
<path d="M167.191 123.966L134.64 103.321C133.211 102.415 131.418 103.024 130.636 104.682C129.854 106.34 130.379 108.419 131.808 109.326L164.359 129.97C165.788 130.877 167.581 130.268 168.363 128.61C169.145 126.952 168.621 124.873 167.191 123.966Z" fill="#C48362"/>
<path d="M158.327 133.009L143.505 123.608C142.075 122.702 140.282 123.311 139.5 124.969C138.718 126.627 139.243 128.706 140.672 129.613L155.495 139.014C156.924 139.92 158.717 139.311 159.499 137.653C160.281 135.995 159.757 133.916 158.327 133.009Z" fill="#C48362"/>
<path d="M181.283 71.86L244.099 36.1744V168.163L220.069 255.665L181.283 277.174V71.86Z" fill="#E6E8EB"/>
<path d="M256.325 159.851V75.7708L302.7 107.546L291.739 138.342L262.227 158.385L256.325 159.851Z" fill="#D38E6A"/>
<path d="M265.179 68.927L256.325 75.7708L302.7 107.546L306.073 97.7688L265.179 68.927Z" fill="#B7795D"/>
<path d="M284.993 48.3955L265.179 68.9269L284.993 82.6146V48.3955Z" fill="#855B42"/>
<path d="M284.993 0V82.6146L306.073 97.2799L335.162 17.5983L338.535 11.7323L349.075 7.8215L361.722 16.1318V0H284.993Z" fill="#DCAB95"/>
<path d="M295.533 42.5294C305.651 27.6686 318.299 38.2928 323.358 45.4625L306.916 92.3915C298.906 81.9628 285.415 57.3903 295.533 42.5294Z" fill="#BF967F"/>
<path d="M371.419 0H361.722V15.643L371.419 21.998V0Z" fill="#BF967F"/>
<path d="M488.198 628.653L473.443 637.452L475.129 639.896L488.198 644.785L634.068 635.496C638.452 628.457 635.052 622.787 632.803 620.832L488.198 628.653Z" fill="#934F2F"/>
<path d="M764.76 574.88L646.294 666.783C643.258 669.138 645.029 672.978 646.294 674.604L714.169 717.134C718.554 719.871 723.585 718.275 725.552 717.134L844.862 622.787C846.211 619.268 844.297 616.432 843.175 615.454L775.3 572.436C771.252 570.48 766.587 573.251 764.76 574.88Z" fill="#DFA283"/>
<path d="M688.031 675.582L677.913 668.25C677.491 666.62 676.901 662.579 677.913 659.45C678.925 656.322 683.393 654.236 685.501 653.584L696.884 663.361C698.571 664.827 698.824 667.077 696.463 672.16C694.102 677.245 689.717 676.234 688.031 675.582Z" fill="#B77A5A"/>
<path d="M677.913 668.739L669.481 661.894C668.778 660.102 667.795 655.736 669.481 652.607C671.167 649.478 674.68 648.37 676.227 648.207L685.923 654.073C684.798 654.073 681.96 654.757 679.599 657.495C677.238 660.232 677.491 666.131 677.913 668.739Z" fill="#FFDBCC"/>
<path d="M717.63 652.118L707.512 644.785C707.09 643.156 706.5 639.114 707.512 635.986C708.523 632.857 712.992 630.771 715.1 630.12L726.483 639.896C728.503 641.852 728.422 643.612 726.062 648.695C723.701 653.78 719.316 652.769 717.63 652.118Z" fill="#B77A5A"/>
<path d="M707.512 645.274L699.08 638.431C698.378 636.637 697.394 632.271 699.08 629.142C700.766 626.013 704.28 624.906 705.825 624.742L715.522 630.609C714.398 630.609 711.559 631.293 709.198 634.031C706.837 636.768 707.09 642.667 707.512 645.274Z" fill="#FFDBCC"/>
<path d="M754.729 678.516L744.611 671.183C744.19 669.553 743.6 665.512 744.611 662.383C745.623 659.255 750.092 657.169 752.2 656.517L763.583 666.294C765.181 668.25 765.522 670.01 763.161 675.093C760.8 680.178 756.416 679.167 754.729 678.516Z" fill="#B77A5A"/>
<path d="M744.611 671.671L736.18 664.827C735.477 663.035 734.493 658.668 736.18 655.54C737.866 652.411 741.38 651.303 742.925 651.14L752.622 657.006C751.498 657.006 748.659 657.69 746.298 660.428C743.937 663.165 744.19 669.064 744.611 671.671Z" fill="#FFDBCC"/>
<path d="M784.241 656.028L774.122 648.695C773.701 647.066 773.111 643.025 774.122 639.896C775.134 636.768 779.603 634.682 781.711 634.031L793.094 643.808C795.114 645.762 795.033 647.522 792.672 652.607C790.312 657.69 785.927 656.681 784.241 656.028Z" fill="#B77A5A"/>
<path d="M774.123 649.185L765.691 642.341C764.988 640.549 764.004 636.181 765.691 633.052C767.377 629.924 770.891 628.816 772.436 628.653L782.133 634.519C781.009 634.519 778.17 635.204 775.809 637.941C773.448 640.679 773.701 646.577 774.123 649.185Z" fill="#FFDBCC"/>
<path d="M700.257 454.136L668.638 432.138L728.503 253.71C729.178 249.409 727.098 245.073 725.974 243.444L580.105 152.52L773.613 27.864L871 95.3245V294.773L700.257 406.718V454.136Z" fill="#E1A283"/>
<path d="M812.909 633.542L802.791 626.209C802.369 624.579 801.779 620.538 802.791 617.41C803.802 614.281 808.271 612.195 810.379 611.543L821.762 621.32C823.782 623.276 823.701 625.036 821.34 630.119C818.979 635.204 814.595 634.193 812.909 633.542Z" fill="#B77A5A"/>
<path d="M802.791 626.698L794.359 619.854C793.656 618.061 792.672 613.695 794.359 610.566C796.045 607.437 799.559 606.329 801.104 606.167L810.801 612.033C809.677 612.033 806.838 612.717 804.477 615.454C802.116 618.191 802.369 624.091 802.791 626.698Z" fill="#FFDBCC"/>
<path d="M775.809 607.144L765.691 599.811C765.269 598.182 764.679 594.141 765.691 591.012C766.703 587.883 771.171 585.798 773.279 585.146L784.662 594.923C786.261 596.39 786.602 598.638 784.241 603.722C781.88 608.806 777.495 607.795 775.809 607.144Z" fill="#B77A5A"/>
<path d="M765.691 600.3L757.259 593.457C756.557 591.664 755.573 587.297 757.259 584.168C758.945 581.04 762.459 579.932 764.004 579.769L773.701 585.635C772.577 585.635 769.738 586.32 767.377 589.057C765.016 591.795 765.269 597.693 765.691 600.3Z" fill="#FFDBCC"/>
<path d="M747.141 629.631L737.023 622.299C736.601 620.669 736.011 616.628 737.023 613.499C738.035 610.37 742.503 608.285 744.611 607.633L755.994 617.41C757.593 618.876 757.934 621.125 755.573 626.209C753.212 631.293 748.827 630.283 747.141 629.631Z" fill="#B77A5A"/>
<path d="M737.023 622.787L728.591 615.943C727.889 614.151 726.905 609.783 728.591 606.655C730.277 603.527 733.791 602.418 735.337 602.255L745.033 608.121C743.909 608.121 741.07 608.806 738.709 611.544C736.348 614.281 736.601 620.179 737.023 622.787Z" fill="#FFDBCC"/>
<path d="M725.218 701.98L715.1 694.647C714.679 693.018 714.088 688.977 715.1 685.848C716.112 682.719 720.581 680.634 722.689 679.982L734.072 689.759C735.67 691.714 736.011 693.473 733.65 698.558C731.289 703.641 726.905 702.632 725.218 701.98Z" fill="#B77A5A"/>
<path d="M715.1 695.136L706.669 688.292C705.966 686.5 704.982 682.132 706.669 679.004C708.355 675.876 711.868 674.767 713.414 674.605L723.11 680.47C721.987 680.47 719.148 681.155 716.787 683.892C714.426 686.63 714.679 692.528 715.1 695.136Z" fill="#FFDBCC"/>
<path d="M538.789 0H444.775V66.9716L494.522 98.7467C517.794 66.2873 533.73 19.3908 538.789 0Z" fill="#CFA18A"/>
<path d="M550.172 0.489136H538.367C525.214 50.9378 503.376 86.6886 494.101 98.2575L503.376 104.613C526.31 72.9358 544.129 21.9982 550.172 0.489136Z" fill="#D18F6A"/>
<path d="M651.353 0.489136H550.172C536.681 49.7646 513.353 90.4364 503.376 104.124L580.526 152.52L651.353 106.569V0.489136Z" fill="#B57A5C"/>
<path d="M680.864 87.5031L651.353 65.5051V107.057L680.864 87.5031Z" fill="#E0B6A2"/>
<path d="M97.8083 284.996V216.558C105.903 214.212 111.58 208.411 113.407 205.804V274.241C108.348 281.672 100.9 284.507 97.8083 284.996Z" fill="#D6BBAD"/>
<path d="M74.621 164.252C83.236 164.252 90.2198 160.093 90.2198 154.964C90.2198 149.834 83.236 145.676 74.621 145.676C66.0061 145.676 59.0223 149.834 59.0223 154.964C59.0223 160.093 66.0061 164.252 74.621 164.252Z" fill="#EBCBBB"/>
<path d="M95.7004 166.206V171.584" stroke="#A77057"/>
<path d="M86.847 171.096V176.473" stroke="#A77057"/>
<path d="M77.5721 173.05V178.428" stroke="#A77057"/>
<path d="M68.2972 172.073V177.45" stroke="#A77057"/>
<path d="M59.8654 170.117V175.495" stroke="#A77057"/>
<path d="M52.2769 165.229V170.607" stroke="#A77057"/>
<path d="M135.751 651.14L294.268 543.105L307.337 553.371C256.466 588.405 154.048 658.961 151.35 660.917C148.652 662.873 147.696 667.272 147.556 669.227V692.203L132.379 681.449V659.45C132.379 657.104 134.627 652.933 135.751 651.14Z" fill="#914F31"/>
<path d="M65.3461 607.144L227.657 499.598" stroke="#C08162" stroke-width="3"/>
<path d="M175.38 563.637V480.045H223.863V563.637C204.301 586.32 183.391 573.088 175.38 563.637Z" fill="#F09667"/>
<path d="M194.773 508.397C184.655 508.397 177.629 502.205 175.38 499.11V541.15C182.463 550.536 191.26 548.645 194.773 546.527V508.397Z" fill="#FDFFFD"/>
<path d="M207 492.754C187.101 495.101 177.629 487.867 175.38 483.955V480.045H223.863V563.637C211.047 578.889 196.881 577.161 191.401 574.392C200.17 575.565 205.454 567.711 207 563.637V492.754Z" fill="#E07646"/>
<path d="M169.057 466.846C169.394 460.588 173.413 456.092 175.38 454.625H224.706C226.673 456.254 230.608 460.979 230.608 466.846C230.608 474.178 223.02 489.821 199.833 489.333C176.645 488.844 168.635 474.668 169.057 466.846Z" fill="#FFFEFA"/>
<path d="M175.38 469.779V456.092H225.128V469.779C223.441 474.178 216.106 482.978 200.254 482.978C184.402 482.978 177.067 474.178 175.38 469.779Z" fill="#B8C7DB"/>
<path d="M200.254 473.201C213.991 473.201 225.128 465.541 225.128 456.092C225.128 446.642 213.991 438.982 200.254 438.982C186.517 438.982 175.38 446.642 175.38 456.092C175.38 465.541 186.517 473.201 200.254 473.201Z" fill="white"/>
<path d="M225.128 469.779V456.58L215.853 468.801C215.853 477.014 208.827 481.348 205.313 482.488C215.769 482.488 222.879 474.016 225.128 469.779Z" fill="#97A8C0"/>
<path d="M205.691 489.085C211.43 487.903 214.267 482.772 215.01 480.045C221.081 476.524 224.004 472.06 224.706 470.268V454.625C230.44 459.709 231.03 464.89 230.608 466.846C229.38 482.164 214.764 487.828 205.691 489.085C204.916 489.245 204.088 489.333 203.205 489.333C203.969 489.289 204.804 489.208 205.691 489.085Z" fill="#C0D5EE"/>
<path d="M684.658 643.807L753.377 688.292" stroke="#C08162" stroke-width="2" stroke-linecap="round"/>
<path d="M713.326 618.876L783.31 664.827" stroke="#C08162" stroke-width="2" stroke-linecap="round"/>
<path d="M743.259 598.345L811.135 642.341" stroke="#C08162" stroke-width="2" stroke-linecap="round"/>
<path d="M692.247 683.403L801.438 596.878" stroke="#A96D4F" stroke-width="3" stroke-linecap="round"/>
<path d="M764.338 523.063V501.064C772.096 502.629 778.251 501.717 780.359 501.064V523.063C780.359 525.018 776.986 527.136 775.3 527.951V537.239C775.3 538.38 774.709 540.563 772.349 540.172C769.988 539.782 769.117 538.054 768.976 537.239V527.951C766.615 527.169 764.901 524.367 764.338 523.063Z" fill="#E1A283"/>
<path d="M764.338 501.064V455.113L772.77 455.602L780.78 455.113V501.064C774.035 502.629 767.009 501.717 764.338 501.064Z" fill="#EBCBBD"/>
<path d="M596.125 162.296L779.937 41.0629" stroke="#B57A5C" stroke-width="2"/>
<path d="M662.736 132.476L729.768 181.361V195.049L662.736 148.12V132.476Z" fill="#E8CCC1"/>
<path d="M661.471 151.541V166.207L730.19 213.624V199.448L661.471 151.541Z" fill="#E7A685"/>
<path d="M730.19 233.179L661.471 185.761V170.117L730.19 218.513V233.179Z" fill="#FFAC7F"/>
<path d="M756.75 226.823L729.768 233.667L797.222 174.029L806.919 182.339C808.942 186.641 807.762 190.975 806.919 192.605L756.75 226.823Z" fill="#D2866B"/>
<path d="M798.487 133.455L788.79 127.099C780.359 140.396 758.295 160.178 750.848 166.696L798.487 133.455Z" fill="#F3E8E5"/>
<path d="M729.347 84.0811L662.736 132.476L729.347 181.361L748.74 168.163C776.058 147.827 789.634 127.099 793.006 119.278C784.575 120.06 779.094 118.952 777.408 118.3L729.347 84.0811Z" fill="#F2FAFF"/>
<path d="M798.487 133.455V147.142L730.19 195.538L729.768 181.361L798.487 133.455Z" fill="#DCBCAB"/>
<path d="M798.487 147.142V150.564L730.19 199.448L661.471 151.541V147.631L730.19 195.538L798.487 147.142Z" fill="#AD7A65"/>
<path d="M798.065 150.564L730.19 198.959V213.625L798.065 165.229V150.564Z" fill="#C79076"/>
<path d="M661.471 166.207V169.629L730.19 218.513L798.065 170.607V165.229L730.19 213.625L661.471 166.207Z" fill="#FFBD96"/>
<path d="M797.644 170.117L730.19 219.002V233.667L797.644 187.228V170.117Z" fill="#E58B65"/>
<path d="M871 223.89L701.522 333.88L698.571 343.657L700.257 344.635L871 232.2V223.89Z" fill="#B97A59"/>
<path d="M700.257 344.635V369.077L691.404 364.678L698.571 343.657L700.257 344.635Z" fill="#FFF7F8"/>
<path d="M871 256.154L700.257 369.077V381.787L871 268.864V256.154Z" fill="#B67B5D"/>
<path d="M700.257 381.787L687.609 375.921L691.404 365.166L700.257 369.077V381.787Z" fill="#C58C71"/>
<path d="M700.257 442.404V438.493L672.432 420.895L671.167 423.338L700.257 442.404Z" fill="#876450"/>
<path d="M699.835 454.136L871 339.257V326.547L699.835 440.937V454.136Z" fill="#B57C61"/>
<path d="M700.257 416.984L870.578 306.505V294.773L700.257 406.229L681.286 394.009L678.334 402.319L700.257 416.984Z" fill="#B47959"/>
<path d="M871 306.505L699.835 416.984V439.47L871 326.058V306.505Z" fill="#EDD4C6"/>
<path d="M871 232.2L700.257 344.635V369.077L871 256.154V232.2Z" fill="#EFD5C9"/>
<path d="M755.485 433.115V445.336" stroke="#E3B4A2"/>
<path d="M764.76 438.004V450.225" stroke="#E3B4A2"/>
<path d="M774.878 438.004V450.225" stroke="#E3B4A2"/>
<path d="M784.153 436.048V448.27" stroke="#E3B4A2"/>
<path d="M792.585 432.138V444.359" stroke="#E3B4A2"/>
<path d="M772.77 435.071C785.576 435.071 795.957 428.505 795.957 420.405C795.957 412.306 785.576 405.74 772.77 405.74C759.964 405.74 749.583 412.306 749.583 420.405C749.583 428.505 759.964 435.071 772.77 435.071Z" fill="#823E3C"/>
<path d="M762.652 397.919V420.405C763.776 422.035 767.289 425.294 772.348 425.294C777.408 425.294 781.202 422.035 782.467 420.405V397.919C781.764 394.66 778.757 388.142 772.348 388.142C765.94 388.142 763.214 394.66 762.652 397.919Z" fill="#5E2C2D"/>
<path d="M782.467 397.919C781.117 392.053 776.564 388.956 774.456 388.142C777.829 391.661 778.11 398.407 777.829 401.34V423.828C779.853 422.655 781.764 421.057 782.467 420.405V397.919Z" fill="#49211E"/>
<path d="M678.335 402.807L700.257 416.984V438.981L672.432 420.895L678.335 402.807Z" fill="#FFFAFC"/>
<path d="M175.38 490.31V558.749" stroke="#643621"/>
<path d="M174.959 564.126C178.472 568.036 187.859 575.956 197.303 576.346" stroke="#643621"/>
<path d="M713.326 245.399L338.535 11.7323C335.837 11.7323 333.335 16.1319 332.633 18.0873L279.934 171.584L217.539 354.412C215.516 363.016 219.226 367.773 221.333 369.077L592.752 600.789C598.823 604.309 603.151 602.255 604.557 600.789L658.098 438.493L717.964 262.509C719.313 255.079 715.293 248.007 713.326 245.399Z" fill="#6E3333"/>
<path d="M698.571 266.42L343.594 39.1075L238.197 344.146L594.86 572.436L698.571 266.42Z" fill="#66A5FD"/>
<path d="M650.51 404.763L534.995 330.947L479.767 407.696L526.141 528.441L593.595 572.925L650.51 404.763Z" fill="#A7C5EA"/>
<path d="M361.722 324.593L391.655 347.568L481.875 407.206L530.779 424.805C539.21 387.653 524.455 389.12 522.347 378.365C520.239 367.611 532.887 357.834 535.838 354.412C538.789 350.99 532.887 323.126 535.838 317.26C538.789 311.394 540.475 297.706 541.318 291.351C542.162 284.996 533.73 270.82 532.887 265.442C532.044 260.065 528.249 231.223 521.504 217.536C516.108 206.585 498.738 198.307 490.728 195.538C481.031 177.45 454.05 187.228 449.834 192.115C445.618 197.004 427.068 214.114 422.431 213.624C417.793 213.136 414.421 219.98 413.156 223.402C411.891 226.823 406.832 248.822 394.606 258.598C382.38 268.375 384.909 286.952 385.753 291.351C386.596 295.75 384.488 306.016 373.105 308.949C363.999 311.296 361.722 320.355 361.722 324.593Z" fill="#5A330E"/>
<path d="M526.141 465.379C522.769 455.211 494.663 422.035 481.031 406.718C457.085 444.653 446.04 468.15 443.51 475.156L527.406 528.441C532.465 513.286 530.357 478.089 526.141 465.379Z" fill="#F2FAFF"/>
<path d="M481.875 407.207C482.549 396.257 472.037 384.069 466.698 379.343V402.807C466.698 407.891 448.71 418.939 439.716 423.828L426.647 449.247L443.932 475.156C445.618 466.552 469.929 426.272 481.875 407.207Z" fill="#C4D7E5"/>
<path d="M416.529 347.079C411.47 342.386 398.4 345.123 392.498 347.079C386.09 354.118 375.915 404.437 371.419 429.205L389.125 440.448L402.195 409.162C403.6 394.171 406.41 363.407 406.41 360.278C406.41 357.149 413.156 350.175 416.529 347.079Z" fill="#C4D7E5"/>
<path d="M332.633 339.746C314.42 337.4 294.971 362.56 287.523 375.432L371.84 429.694L384.488 371.521C385.5 360.962 389.969 351.153 392.076 347.568C379.85 345.938 350.845 342.093 332.633 339.746Z" fill="#F2FAFF"/>
<path d="M383.645 240.511L303.543 157.408L238.197 344.635L287.523 375.432L351.182 343.169L383.645 240.511Z" fill="#C4D6E9"/>
<path d="M499.16 344.635C498.485 339.942 501.408 330.621 502.954 326.548L501.268 324.593C497.558 339.063 482.859 347.243 475.972 349.523L466.697 379.831C477.49 389.609 481.453 402.644 481.875 407.207L491.571 390.586C490.587 384.394 489.21 371.13 491.571 367.611C494.522 363.211 500.003 350.501 499.16 344.635Z" fill="#301A04"/>
<path d="M349.075 7.82153L338.113 11.7323L713.748 245.889C715.772 250.19 717.401 258.109 717.964 261.531L602.027 602.744L613.41 595.901L664.422 443.87L728.503 255.665C730.527 247.844 725.693 242.304 723.023 240.512L349.075 7.82153Z" fill="#572A27"/>
<path d="M685.923 303.572L330.946 77.7261L344.016 39.1075L698.571 266.908L685.923 303.572Z" fill="#FEFDFF"/>
<path d="M391.655 237.578L305.651 148.12L303.121 157.408L383.645 240.022L351.182 342.68L359.614 344.635L391.655 237.578Z" fill="#EDF4FF"/>
<path d="M418.215 262.021C414.842 263.813 407.844 270.233 406.832 281.574C405.567 295.75 405.146 298.195 397.979 303.083C390.812 307.972 391.655 311.394 392.076 319.704C392.498 328.014 394.606 339.257 386.596 344.146" stroke="#301A04" stroke-width="3"/>
<path d="M374.791 416.495C386.666 416.495 396.292 405.333 396.292 391.564C396.292 377.795 386.666 366.633 374.791 366.633C362.917 366.633 353.29 377.795 353.29 391.564C353.29 405.333 362.917 416.495 374.791 416.495Z" fill="#61A494"/>
<path d="M465.854 475.157C477.729 475.157 487.355 463.995 487.355 450.226C487.355 436.456 477.729 425.294 465.854 425.294C453.98 425.294 444.353 436.456 444.353 450.226C444.353 463.995 453.98 475.157 465.854 475.157Z" fill="#5CA0F5"/>
<path d="M428.333 322.637L406.41 357.345L401.773 408.673L438.873 424.317C457.085 414.539 465.011 407.696 466.697 404.763V379.831L476.394 349.523C493.932 343.266 500.284 330.296 501.268 324.593C503.656 327.688 509.784 330.751 515.18 318.237C520.576 305.723 514.337 297.38 510.543 294.773C509.699 286.463 512.229 286.463 515.18 279.13C518.131 271.797 510.543 267.887 506.748 261.042C502.954 254.199 503.376 246.378 503.376 237.578C503.376 228.779 487.777 216.558 485.247 216.558C482.718 216.558 470.07 212.647 468.384 216.558C466.697 220.469 452.363 231.223 448.569 232.2C444.775 233.179 442.667 238.067 441.824 244.422C440.981 250.777 435.5 250.288 433.814 249.799C432.127 249.311 424.117 242.466 419.48 254.688C415.77 264.464 421.025 275.056 424.117 279.13C423.555 283.204 422.346 292.622 422.009 297.706C421.672 302.79 426.084 316.445 428.333 322.637Z" fill="#FFA081"/>
<path d="M355.398 76.2596C358.425 76.2596 360.879 73.4144 360.879 69.9047C360.879 66.3949 358.425 63.5497 355.398 63.5497C352.371 63.5497 349.918 66.3949 349.918 69.9047C349.918 73.4144 352.371 76.2596 355.398 76.2596Z" fill="#A8C7EA"/>
<path d="M371.419 86.0365C374.446 86.0365 376.899 83.1913 376.899 79.6815C376.899 76.1718 374.446 73.3265 371.419 73.3265C368.392 73.3265 365.938 76.1718 365.938 79.6815C365.938 83.1913 368.392 86.0365 371.419 86.0365Z" fill="#A8C7EA"/>
<path d="M387.439 96.7911C390.466 96.7911 392.92 93.9459 392.92 90.4362C392.92 86.9264 390.466 84.0812 387.439 84.0812C384.412 84.0812 381.958 86.9264 381.958 90.4362C381.958 93.9459 384.412 96.7911 387.439 96.7911Z" fill="#A8C7EA"/>
<path d="M563.786 395.208C566.183 388.082 573.422 385.003 579.222 388.643L702.227 465.865C707.115 468.933 709.248 475.758 707.191 481.748L681.654 556.147C679.218 563.244 671.976 566.268 666.2 562.602L543.863 484.92C539.032 481.852 536.915 475.101 538.917 469.148L563.786 395.208Z" fill="#F2FAFF"/>
<path d="M623.95 492.754L671.167 523.063" stroke="#A77057" stroke-width="2" stroke-linecap="round"/>
<path d="M631.538 469.779L678.756 500.087" stroke="#A77057" stroke-width="2" stroke-linecap="round"/>
<path d="M568.3 437.027C566.614 447.976 575.467 469.942 580.105 479.556C586.569 478.252 601.015 475.156 607.086 473.201C614.675 470.756 624.583 455.446 612.988 446.803C601.184 438.004 592.331 452.669 591.066 437.027C588.115 421.384 570.408 423.339 568.3 437.027Z" fill="#FFBE9E"/>
<path d="M575.046 449.736L582.212 453.647L588.958 447.292L590.223 466.357L596.125 460.002L602.449 463.913" stroke="#F2FAFF" stroke-width="3" stroke-linecap="round"/>
<path d="M451.52 317.748L442.667 311.394L443.932 316.282L448.991 325.081L461.638 331.436L468.805 329.97L470.913 328.503L467.962 324.593L462.06 322.148L451.52 317.748Z" fill="#FFFDF6"/>
<path d="M449.412 331.436C445.365 328.307 443.229 316.771 442.667 311.394C443.932 315.468 447.979 324.397 454.05 327.525C460.121 330.654 468.103 329.481 471.335 328.503C463.325 338.28 454.471 335.347 449.412 331.436Z" fill="#D63223"/>
<path d="M441.824 309.438C444.073 310.579 449.244 312.86 451.942 312.86C455.315 312.86 454.893 318.237 457.001 318.727C459.109 319.215 461.217 317.26 462.903 318.727C464.307 319.947 468.341 325.572 470.626 327.705C471.047 327.996 471.43 328.267 471.757 328.503C471.474 328.421 471.085 328.133 470.626 327.705C468.147 325.996 464.344 323.614 462.903 323.614C460.795 323.614 455.736 324.104 452.785 320.193C449.834 316.282 443.932 312.86 441.824 309.438Z" fill="#D63223"/>
<path d="M475.972 350.012C447.979 363.309 435.641 342.843 432.97 330.947C436.006 357.931 456.72 374.454 466.697 379.343L475.972 350.012Z" fill="#EB825D"/>
<path d="M410.626 296.728C413.324 294.773 420.464 283.204 423.696 277.663L424.539 279.13C419.48 299.466 424.96 316.607 428.333 322.637L413.577 345.613C403.797 342.875 394.887 346.102 391.655 348.057L390.39 346.59C410.205 342.68 406.832 321.171 406.41 312.371C405.989 303.572 407.254 299.172 410.626 296.728Z" fill="#301A04"/>
<path d="M456.158 302.595C454.809 300.247 452.223 301.616 451.099 302.595C451.52 302.595 452.616 303.083 453.628 305.038C454.64 306.994 457.142 308.135 458.266 308.461C458.125 307.482 457.507 304.941 456.158 302.595Z" fill="#EE8E6D"/>
<path d="M469.227 309.438C467.541 308.656 463.466 309.764 461.638 310.415C463.184 311.23 466.529 312.762 467.541 312.371C468.552 311.98 471.054 312.535 472.178 312.86C471.897 312.045 470.913 310.22 469.227 309.438Z" fill="#EE8E6D"/>
<path d="M457.001 312.86C457.142 314.327 458.266 316.869 461.638 315.304M430.019 251.755C430.019 253.221 429.682 256.154 428.333 256.154C426.647 256.154 424.117 257.132 423.696 259.087C423.358 260.652 423.555 267.887 423.696 271.308L430.019 251.755ZM428.333 260.554C427.49 261.206 425.888 263.291 426.225 266.42L428.333 260.554ZM441.402 255.177C441.683 256.317 442.751 258.794 444.775 259.576C447.304 260.554 453.628 260.554 457.001 267.397L441.402 255.177ZM461.217 269.841C462.201 273.264 462.735 281.769 457.001 288.418L461.217 269.841ZM479.345 281.574C477.096 282.714 472.6 287.831 472.6 299.172L479.345 281.574ZM502.111 293.306C500.425 293.306 496.715 292.524 495.365 289.396C493.679 285.485 488.198 284.996 485.247 284.996L502.111 293.306ZM511.807 302.105C511.245 302.595 510.205 304.061 510.543 306.016C510.964 308.461 513.072 314.815 506.327 319.704L511.807 302.105ZM508.013 308.461C508.154 310.09 507.929 313.544 505.905 314.327L508.013 308.461ZM471.335 306.016C474.708 308.363 473.302 311.882 472.178 313.349C472.037 311.394 470.323 307.874 464.59 309.438C457.423 311.394 458.266 307.482 457.001 304.061C455.736 300.639 451.942 301.128 451.099 302.105C450.677 300.313 450.93 296.533 455.315 295.75L471.335 306.016Z" stroke="#CD7050"/>
<path d="M479.767 289.396L478.924 292.329C481.622 290.373 485.669 290.536 487.355 290.862C492.165 292.427 494.98 297.38 495.787 299.661H500.003L498.317 295.262C494.944 294.283 493.679 292.817 489.885 289.885C486.849 287.538 481.875 288.581 479.767 289.396Z" fill="#340D0A"/>
<path d="M441.402 266.42C440.053 265.637 438.31 262.509 437.608 261.042L442.245 261.531C443.932 264.954 447.726 264.464 452.364 267.397C456.073 269.744 457.001 275.219 457.001 277.663L455.315 278.641L441.402 266.42Z" fill="#340D0A"/>
<path d="M453.207 244.911C451.52 244.128 444.916 244.585 441.824 244.911L440.981 247.844C441.543 247.681 443.342 247.453 446.04 247.844C448.738 248.235 450.818 249.637 451.52 250.288L464.59 261.042L467.541 256.643C463.466 253.058 454.893 245.693 453.207 244.911Z" fill="#340D0A"/>
<path d="M483.983 271.308L484.826 265.931C489.885 267.887 500.34 272.482 501.689 275.219C503.038 277.957 504.5 283.529 505.062 285.973C503.038 282.063 500.846 279.456 500.003 278.641L483.983 271.308Z" fill="#340D0A"/>
<path d="M441.402 266.42C441.261 269.19 443.847 275.512 455.315 278.641C455.595 274.404 453.207 266.029 441.402 266.42Z" fill="#FFFDF6"/>
<path d="M478.924 292.329C480.751 296.565 486.681 303.963 495.787 299.661C493.96 294.936 488.03 286.854 478.924 292.329Z" fill="#FFFDF6"/>
<path d="M417.793 448.759C429.668 448.759 439.294 437.597 439.294 423.828C439.294 410.059 429.668 398.897 417.793 398.897C405.919 398.897 396.292 410.059 396.292 423.828C396.292 437.597 405.919 448.759 417.793 448.759Z" fill="#D44E44"/>
<path d="M569.966 264.685C571.312 260.184 575.783 258.108 579.433 260.291L607.477 277.064C610.413 278.819 611.82 282.783 610.802 286.428L600.684 322.659C599.401 327.256 594.869 329.42 591.169 327.203L562.529 310.041C559.55 308.256 558.154 304.203 559.254 300.526L569.966 264.685Z" fill="#F3FAFC"/>
<path d="M619.342 296.96C620.688 292.459 625.16 290.383 628.81 292.566L656.854 309.338C659.79 311.094 661.197 315.058 660.178 318.704L650.061 354.934C648.777 359.531 644.246 361.695 640.545 359.478L611.906 342.316C608.927 340.531 607.531 336.478 608.63 332.802L619.342 296.96Z" fill="#F3FAFC"/>
<path d="M598.654 290.373C598.654 295.862 595.184 300.15 591.066 300.15C586.948 300.15 583.477 295.862 583.477 290.373C583.477 284.885 586.948 280.597 591.066 280.597C595.184 280.597 598.654 284.885 598.654 290.373Z" stroke="#2D71CA" stroke-width="2"/>
<path d="M581.369 296.239L572.938 301.128" stroke="#2D71CA" stroke-width="2" stroke-linecap="round"/>
<path d="M626.058 328.014C626.395 326.45 634.068 317.586 637.862 313.349C638.564 319.541 639.97 332.218 639.97 333.391C639.97 334.858 639.127 341.702 631.538 339.747C623.95 337.791 625.636 329.97 626.058 328.014Z" fill="#2D71CA"/>
<path d="M449.412 274.73C451.275 274.73 452.785 272.98 452.785 270.82C452.785 268.66 451.275 266.909 449.412 266.909C447.55 266.909 446.04 268.66 446.04 270.82C446.04 272.98 447.55 274.73 449.412 274.73Z" fill="#340D0A"/>
<path d="M487.355 298.194C489.218 298.194 490.728 296.443 490.728 294.284C490.728 292.124 489.218 290.373 487.355 290.373C485.493 290.373 483.983 292.124 483.983 294.284C483.983 296.443 485.493 298.194 487.355 298.194Z" fill="#340D0A"/>
<path d="M451.52 274.73C452.219 274.73 452.785 274.074 452.785 273.264C452.785 272.454 452.219 271.797 451.52 271.797C450.822 271.797 450.256 272.454 450.256 273.264C450.256 274.074 450.822 274.73 451.52 274.73Z" fill="#FFFDF6"/>
<path d="M489.463 297.217C490.162 297.217 490.728 296.56 490.728 295.75C490.728 294.94 490.162 294.283 489.463 294.283C488.765 294.283 488.198 294.94 488.198 295.75C488.198 296.56 488.765 297.217 489.463 297.217Z" fill="#FFFDF6"/>
<path d="M379.429 380.321L370.997 401.34" stroke="white" stroke-width="3" stroke-linecap="round"/>
<path d="M365.938 384.72L383.645 396.453" stroke="white" stroke-width="3" stroke-linecap="round"/>
<path d="M453.628 453.159L459.53 438.004L476.394 448.27L470.492 463.424L453.628 453.159Z" stroke="white" stroke-width="3" stroke-linejoin="round"/>
<path d="M419.058 409.219C412.313 406.873 408.097 412.68 406.41 415.45L410.626 422.85C411.329 422.198 413.746 420.756 414.421 418.018C415.264 414.597 426.225 416.552 423.696 426.817C421.672 435.031 425.663 435.454 427.911 434.639C433.814 425.351 427.49 412.152 419.058 409.219Z" fill="white"/>
<path d="M422.108 688.728L439.8 723H542.162C522.925 698.846 483.02 648.973 477.29 642.706C471.562 636.44 470.41 628.997 470.551 626.059C470.27 610.882 469.708 577.393 469.708 564.86C469.708 552.326 467.181 542.665 465.917 539.401C457.492 507.284 448.084 483.587 444.433 475.754C431.656 455.68 405.511 414.554 403.152 410.637C400.203 405.741 397.254 406.72 395.148 408.189C393.463 409.364 393.603 414.227 393.884 416.512C390.515 417.688 388.268 421.245 387.566 422.877C384.87 436.978 393.464 453.559 398.097 460.086C399.108 464.786 406.663 479.67 410.313 486.524C410.734 500.233 415.789 510.025 418.738 521.775C421.686 533.526 413.683 560.454 405.679 564.86C397.676 569.266 386.302 554.089 380.826 536.463C375.35 518.838 360.185 496.316 354.287 512.963C352.602 539.401 365.24 562.902 370.716 575.142C376.192 587.381 376.192 592.767 377.877 603.048C379.562 613.33 393.042 659.352 402.731 665.717C410.481 670.809 418.878 683.179 422.108 688.728Z" fill="#EB976D"/>
<path d="M386.174 487.377C387.523 485.813 402.757 487.377 410.205 488.355L418.636 522.574C411.469 519.478 395.702 511.526 389.969 504.487C382.802 495.687 384.488 489.333 386.174 487.377Z" fill="#C97F5F"/>
<path d="M397.136 418.451C409.081 438.004 433.223 477.796 434.235 480.534C435.247 483.271 445.899 526.322 451.099 547.505" stroke="#643621"/>
<path d="M356.242 513.775C357.506 517.196 360.12 524.627 360.457 526.974C360.795 529.32 357.787 529.907 356.242 529.907" stroke="#643621"/>
<path d="M184.329 299.446L8.43176 401.599V573.313L220.821 365.115C219.181 361.224 219.318 355.711 220.001 352.955L272.893 215.292C275.353 203.131 283.553 195.834 292.164 194.375C300.774 192.915 318.815 179.295 312.255 169.566C307.006 161.783 289.021 167.945 280.683 171.999L292.164 137.947C286.834 141.515 272.565 150.692 258.132 158.865C243.7 167.037 232.711 183.673 229.021 190.969L184.329 299.446Z" fill="#EB976D"/>
<path d="M234.403 211.181C241.429 201.73 256.578 182.339 260.963 180.383C265.347 178.428 272.908 174.68 276.14 173.05" stroke="#643621"/>
<path d="M288.366 169.14C289.068 171.258 291.064 175.495 293.425 175.495C295.786 175.495 303.684 171.258 307.337 169.14" stroke="#643621"/>
<path d="M230.187 294.773C241.57 279.13 265.685 242.076 271.081 219.002" stroke="#643621"/>
</g>
<defs>
<clipPath id="clip0_0:1">
<rect width="871" height="723" rx="361.5" fill="white"/>
</clipPath>
</defs>
</svg>
