<svg width="1033" height="739" viewBox="0 0 1033 739" fill="none" xmlns="http://www.w3.org/2000/svg">
<rect x="1" width="1032" height="739" fill="#EBCBBD"/>
<path d="M92 324.281C56 324.281 43.3333 306.626 41.5 297.799L133.5 283.808C143 287.805 151.5 296.3 151 302.795C150.5 309.291 137 324.281 92 324.281Z" fill="#E7BEA3"/>
<path d="M880.5 467.184C880.5 460.788 885.5 456.858 888 455.692H945.5C949.1 458.89 951 464.686 951.5 467.184V544.132C949.5 550.961 940 564.618 918 564.618C896 564.618 883.833 550.961 880.5 544.132V467.184Z" fill="#E1A283"/>
<path d="M958 554.125C961.2 546.93 955 539.801 951.5 537.137V544.132C946.3 558.522 929 564.118 921 565.118C932 564.451 954.8 561.32 958 554.125Z" fill="#E2B4A5"/>
<path d="M252.5 717.015H222L388.5 592.599L417.5 610.587C423.1 616.583 419.833 621.413 417.5 623.078L252.5 717.015Z" fill="#DBB098"/>
<path d="M142 242.336L215 283.808V73.9503L289.5 36.4757L223 0.5H207L142 33.9774V242.336Z" fill="#F2FAFF"/>
<path d="M46.5 193.869L62 175.381H115.5C118.167 179.046 124.5 187.573 128.5 192.37C132.5 197.167 133.833 202.696 134 204.861V297.799C131.833 305.127 119.9 319.784 89.5 319.784C59.1 319.784 45.1667 305.127 42 297.799V206.36C42 199.965 45 195.368 46.5 193.869Z" fill="#C48362"/>
<path d="M610.5 326.779C610.5 329.444 610.7 335.873 611.5 340.27C612.5 345.766 602.5 356.259 602 363.254C601.5 370.249 602.5 376.245 600 379.743" stroke="#301A04" stroke-width="3"/>
<path d="M528 68.9533L440.5 22.4848V0H528V68.9533Z" fill="#DCAB95"/>
<path d="M942.5 428.21L829.5 464.186L1033 347.265V376.745L942.5 428.21Z" fill="#E3B4A2"/>
<path d="M887.5 455.692C885.1 450.095 887.833 446.032 889.5 444.699V431.708C891.5 435.705 900 444.699 917 444.699C930.6 444.699 940.333 436.038 943.5 431.708V444.699C947.9 447.897 946.667 453.36 945.5 455.692C939 462.687 927.5 465.685 917 465.685C906.5 465.685 890.5 462.687 887.5 455.692Z" fill="#542824"/>
<path d="M916 478.176C896.8 478.176 884.667 487.17 881 491.667V497.663C883.5 502.66 894 512.653 916 512.653C938 512.653 948.833 502.66 951.5 497.663V491.667C947.667 487.17 935.2 478.176 916 478.176Z" fill="white"/>
<path d="M916.5 558.622C896.5 558.622 884.5 544.965 881 538.136V497.164C883.333 502.327 893.7 512.653 916.5 512.653C939.3 512.653 949.333 502.327 951.5 497.164V538.136C948.167 544.965 936.5 558.622 916.5 558.622Z" fill="#ECCABD"/>
<path d="M265 218.852L215 241.836V258.825L244.5 245.834L265 218.852Z" fill="#A77057"/>
<path d="M215.5 242.336L142 201.364V218.352L215.5 259.824V242.336Z" fill="#C48362"/>
<path d="M116 195.368C116 190.571 111.333 182.71 109 179.379L116 174.882C118.667 179.046 124.9 188.373 128.5 192.37C132.1 196.367 134 203.696 134.5 206.86V297.799C131 307.292 114 320.783 89.5 320.283C69.9 319.884 54.3333 311.456 49 307.292C82.6 317.685 107.667 300.963 116 291.303V195.368Z" fill="#A77057"/>
<path d="M47.5 668.548L86.5 640.067L98.5 648.561L60.5 678.541L61.5 668.548H47.5Z" fill="#FFAC82"/>
<path d="M68 644.564C64.4 632.572 66.5 618.915 68 613.585L196.5 689.533H216.5L388.5 593.598V623.078L222.5 717.015C208.9 720.213 196.5 718.347 192 717.015L68 644.564Z" fill="#C08162"/>
<path d="M261 505.158L68 613.585L196.5 689.533H216.5L388 593.598V581.607L261 505.158Z" fill="#E1A283"/>
<path d="M196.5 695.03L75.9998 626.076C73.9998 629.674 75.1665 637.569 75.9998 641.066L196.5 710.02C204.1 713.217 215 711.352 219.5 710.02L388.5 614.584V600.594L219.5 695.03C211.5 697.828 200.833 696.196 196.5 695.03Z" fill="#FFF9F9"/>
<path d="M94 223.849C116 225.048 130.5 215.354 135 210.358V279.811C125 293.401 103.5 294.467 94 293.302V223.849Z" fill="#EBCBBB"/>
<path d="M59 173.383V158.393H118.5V173.383C115.333 176.88 104.9 183.876 88.5 183.876C72.1 183.876 62 176.88 59 173.383Z" fill="#EBCBBB"/>
<ellipse cx="89" cy="159.392" rx="30" ry="15.4895" fill="#FFFDFC"/>
<rect width="50.9921" height="6.99636" rx="3.49818" transform="matrix(0.877198 0.480129 -0.47963 0.877471 156.613 86.3381)" fill="#C48362"/>
<rect width="50.9921" height="6.99636" rx="3.49818" transform="matrix(0.877471 0.479629 -0.480129 0.877198 156.613 103.93)" fill="#C48362"/>
<rect width="27.0308" height="6.99636" rx="3.49818" transform="matrix(0.877471 0.479629 -0.480129 0.877198 167.126 124.666)" fill="#C48362"/>
<path d="M215 73.4503L289.5 36.975V171.884L261 261.323L215 283.308V73.4503Z" fill="#E6E8EB"/>
<path d="M304 163.389V77.4476L359 109.926L346 141.404L311 161.89L304 163.389Z" fill="#D38E6A"/>
<path d="M314.5 70.4523L304 77.4476L359 109.926L363 99.9324L314.5 70.4523Z" fill="#B7795D"/>
<path d="M338 49.4665L314.5 70.4523L338 84.4429V49.4665Z" fill="#855B42"/>
<path d="M338 0V84.4429L363 99.4327L397.5 17.9878L401.5 11.9919L414 7.99459L429 16.4888V0H338Z" fill="#DCAB95"/>
<path d="M350.5 43.4706C362.5 28.2809 377.5 39.1402 383.5 46.4686L364 94.4361C354.5 83.7766 338.5 58.6603 350.5 43.4706Z" fill="#BF967F"/>
<path d="M440.5 0H429V15.9892L440.5 22.4848V0Z" fill="#BF967F"/>
<path d="M579 642.565L561.5 651.559L563.5 654.057L579 659.054L752 649.56C757.2 642.365 753.167 636.569 750.5 634.571L579 642.565Z" fill="#934F2F"/>
<path d="M824.072 721.67L792 739H1015L926.802 688L824.072 721.67Z" fill="#FFFAF9"/>
<path d="M871 738.5L936.5 693.031L927.5 687.535L847.5 733.004L860 738.5H871Z" fill="#F9EBDA"/>
<path d="M1012.5 632.572L919 584.604L927.5 687.035L936.5 693.031L1014.5 640.567C1017.3 638.168 1014.33 634.238 1012.5 632.572Z" fill="#E7BDA2"/>
<path d="M907 587.602L766.5 681.539C762.9 683.946 765 687.871 766.5 689.533L847 733.004C852.2 735.802 858.167 734.17 860.5 733.004L1002 636.569C1003.6 632.972 1001.33 630.074 1000 629.074L919.5 585.104C914.7 583.105 909.167 585.937 907 587.602Z" fill="#DFA283"/>
<path d="M816 690.533L804 683.038C803.5 681.372 802.8 677.242 804 674.044C805.2 670.846 810.5 668.714 813 668.048L826.5 678.041C828.5 679.54 828.8 681.839 826 687.035C823.2 692.232 818 691.199 816 690.533Z" fill="#B77A5A"/>
<path d="M804 683.538L794 676.542C793.166 674.71 792 670.247 794 667.049C796 663.851 800.166 662.718 802 662.552L813.5 668.548C812.166 668.548 808.8 669.247 806 672.045C803.2 674.843 803.5 680.873 804 683.538Z" fill="#FFDBCC"/>
<path d="M851.104 666.549L839.104 659.054C838.604 657.389 837.904 653.258 839.104 650.06C840.304 646.862 845.604 644.73 848.104 644.064L861.604 654.057C864 656.056 863.904 657.855 861.104 663.051C858.304 668.248 853.104 667.215 851.104 666.549Z" fill="#B77A5A"/>
<path d="M839.104 659.554L829.104 652.559C828.271 650.726 827.104 646.263 829.104 643.065C831.104 639.867 835.271 638.735 837.104 638.568L848.604 644.564C847.271 644.564 843.904 645.263 841.104 648.062C838.304 650.86 838.604 656.889 839.104 659.554Z" fill="#FFDBCC"/>
<path d="M895.104 693.531L883.104 686.036C882.604 684.37 881.904 680.24 883.104 677.042C884.304 673.844 889.604 671.712 892.104 671.046L905.604 681.039C907.5 683.038 907.904 684.837 905.104 690.033C902.304 695.23 897.104 694.197 895.104 693.531Z" fill="#B77A5A"/>
<path d="M883.104 686.535L873.104 679.54C872.271 677.708 871.104 673.244 873.104 670.047C875.104 666.849 879.271 665.716 881.104 665.55L892.604 671.546C891.271 671.546 887.904 672.245 885.104 675.043C882.304 677.841 882.604 683.871 883.104 686.535Z" fill="#FFDBCC"/>
<path d="M930.104 670.546L918.104 663.051C917.604 661.386 916.904 657.255 918.104 654.057C919.304 650.86 924.604 648.728 927.104 648.062L940.604 658.055C943 660.053 942.904 661.852 940.104 667.049C937.304 672.245 932.104 671.213 930.104 670.546Z" fill="#B77A5A"/>
<path d="M918.104 663.551L908.104 656.556C907.271 654.724 906.104 650.26 908.104 647.062C910.104 643.864 914.271 642.732 916.104 642.565L927.604 648.561C926.271 648.561 922.904 649.261 920.104 652.059C917.304 654.857 917.604 660.886 918.104 663.551Z" fill="#FFDBCC"/>
<path d="M830.5 464.186L793 441.701L864 259.325C864.8 254.928 862.333 250.497 861 248.832L688 155.895L917.5 28.4807L1033 97.4341V301.296L830.5 415.719V464.186Z" fill="#E1A283"/>
<path d="M964.104 647.562L952.104 640.067C951.604 638.401 950.904 634.271 952.104 631.073C953.304 627.875 958.604 625.743 961.104 625.077L974.604 635.07C977 637.069 976.904 638.868 974.104 644.064C971.304 649.261 966.104 648.228 964.104 647.562Z" fill="#B77A5A"/>
<path d="M952.104 640.567L942.104 633.571C941.271 631.739 940.104 627.276 942.104 624.078C944.104 620.88 948.271 619.747 950.104 619.581L961.604 625.577C960.271 625.577 956.904 626.276 954.104 629.074C951.304 631.872 951.604 637.902 952.104 640.567Z" fill="#FFDBCC"/>
<path d="M920.104 620.58L908.104 613.085C907.604 611.42 906.904 607.289 908.104 604.091C909.304 600.893 914.604 598.762 917.104 598.095L930.604 608.089C932.5 609.588 932.904 611.886 930.104 617.082C927.304 622.279 922.104 621.246 920.104 620.58Z" fill="#B77A5A"/>
<path d="M908.104 613.585L898.104 606.59C897.271 604.757 896.104 600.294 898.104 597.096C900.104 593.898 904.271 592.766 906.104 592.599L917.604 598.595C916.271 598.595 912.904 599.295 910.104 602.093C907.304 604.891 907.604 610.92 908.104 613.585Z" fill="#FFDBCC"/>
<path d="M886.104 643.565L874.104 636.07C873.604 634.404 872.904 630.274 874.104 627.076C875.304 623.878 880.604 621.746 883.104 621.08L896.604 631.073C898.5 632.572 898.904 634.87 896.104 640.067C893.304 645.263 888.104 644.231 886.104 643.565Z" fill="#B77A5A"/>
<path d="M874.104 636.569L864.104 629.574C863.271 627.742 862.104 623.278 864.104 620.08C866.104 616.883 870.271 615.75 872.104 615.583L883.604 621.579C882.271 621.579 878.904 622.279 876.104 625.077C873.304 627.875 873.604 633.904 874.104 636.569Z" fill="#FFDBCC"/>
<path d="M860.104 717.515L848.104 710.02C847.604 708.354 846.904 704.224 848.104 701.026C849.304 697.828 854.604 695.696 857.104 695.03L870.604 705.023C872.5 707.022 872.904 708.82 870.104 714.017C867.304 719.213 862.104 718.181 860.104 717.515Z" fill="#B77A5A"/>
<path d="M848.104 710.519L838.104 703.524C837.271 701.692 836.104 697.228 838.104 694.03C840.104 690.833 844.271 689.7 846.104 689.534L857.604 695.529C856.271 695.529 852.904 696.229 850.104 699.027C847.304 701.825 847.604 707.854 848.104 710.519Z" fill="#FFDBCC"/>
<path d="M639 0H527.5V68.4537L586.5 100.932C614.1 67.7542 633 19.8199 639 0Z" fill="#CFA18A"/>
<path d="M652.5 0.5H638.5C622.9 52.0651 597 88.6071 586 100.432L597 106.928C624.2 74.5499 645.333 22.4851 652.5 0.5Z" fill="#D18F6A"/>
<path d="M772.5 0.5H652.5C636.5 50.8659 608.833 92.4378 597 106.428L688.5 155.895L772.5 108.927V0.5Z" fill="#B57A5C"/>
<path d="M807.5 89.4395L772.5 66.9547V109.426L807.5 89.4395Z" fill="#E0B6A2"/>
<path d="M116 291.303V221.35C125.6 218.952 132.333 213.023 134.5 210.358V280.31C128.5 287.905 119.667 290.803 116 291.303Z" fill="#D6BBAD"/>
<ellipse cx="88.5" cy="158.393" rx="18.5" ry="9.49358" fill="#EBCBBB"/>
<path d="M113.5 169.884V175.381" stroke="#A77057"/>
<path d="M103 174.882V180.378" stroke="#A77057"/>
<path d="M92 176.88V182.377" stroke="#A77057"/>
<path d="M81 175.881V181.377" stroke="#A77057"/>
<path d="M71 173.882V179.379" stroke="#A77057"/>
<path d="M62 168.886V174.382" stroke="#A77057"/>
<path d="M161 665.55L349 555.124L364.5 565.617C304.167 601.426 182.7 673.544 179.5 675.543C176.3 677.542 175.167 682.039 175 684.037V707.521L157 696.529V674.044C157 671.646 159.667 667.382 161 665.55Z" fill="#914F31"/>
<path d="M77.5 620.58L270 510.654" stroke="#C08162" stroke-width="3"/>
<path d="M208 576.11V490.668H265.5V576.11C242.3 599.295 217.5 585.77 208 576.11Z" fill="#F09667"/>
<path d="M231 519.648C219 519.648 210.667 513.319 208 510.155V553.126C216.4 562.719 226.833 560.787 231 558.622V519.648Z" fill="#FDFFFD"/>
<path d="M245.5 503.659C221.9 506.058 210.667 498.663 208 494.665V490.668H265.5V576.11C250.3 591.7 233.5 589.934 227 587.103C237.4 588.302 243.667 580.274 245.5 576.11V503.659Z" fill="#E07646"/>
<path d="M200.5 477.177C200.9 470.781 205.667 466.185 208 464.686H266.5C268.833 466.351 273.5 471.181 273.5 477.177C273.5 484.672 264.5 500.661 237 500.162C209.5 499.662 200 485.172 200.5 477.177Z" fill="#FFFEFA"/>
<path d="M208 480.175V466.185H267V480.175C265 484.672 256.3 493.666 237.5 493.666C218.7 493.666 210 484.672 208 480.175Z" fill="#B8C7DB"/>
<ellipse cx="237.5" cy="466.185" rx="29.5" ry="17.4882" fill="white"/>
<path d="M267 480.175V466.684L256 479.176C256 487.57 247.667 492 243.5 493.166C255.9 493.166 264.333 484.506 267 480.175Z" fill="#97A8C0"/>
<path d="M243.948 499.909C250.754 498.7 254.119 493.456 255 490.668C262.2 487.07 265.667 482.507 266.5 480.675V464.686C273.3 469.882 274 475.178 273.5 477.177C272.043 492.834 254.709 498.624 243.948 499.909C243.029 500.072 242.047 500.162 241 500.162C241.906 500.117 242.896 500.034 243.948 499.909Z" fill="#C0D5EE"/>
<path d="M812 658.055L893.5 703.524" stroke="#C08162" stroke-width="2" stroke-linecap="round"/>
<path d="M846 632.572L929 679.54" stroke="#C08162" stroke-width="2" stroke-linecap="round"/>
<path d="M881.5 611.586L962 656.556" stroke="#C08162" stroke-width="2" stroke-linecap="round"/>
<path d="M821 698.527L950.5 610.087" stroke="#A96D4F" stroke-width="3" stroke-linecap="round"/>
<path d="M906.5 534.638V512.153C915.7 513.752 923 512.82 925.5 512.153V534.638C925.5 536.637 921.5 538.802 919.5 539.635V549.128C919.5 550.294 918.8 552.526 916 552.126C913.2 551.727 912.167 549.961 912 549.128V539.635C909.2 538.835 907.167 535.971 906.5 534.638Z" fill="#E1A283"/>
<path d="M906.5 512.153V465.185L916.5 465.685L926 465.185V512.153C918 513.752 909.667 512.82 906.5 512.153Z" fill="#EBCBBD"/>
<path d="M707 165.888L925 41.9716" stroke="#B57A5C" stroke-width="2"/>
<path d="M786 135.408L865.5 185.375V199.365L786 151.398V135.408Z" fill="#E8CCC1"/>
<path d="M784.5 154.895V169.885L866 218.352V203.862L784.5 154.895Z" fill="#E7A685"/>
<path d="M866 238.339L784.5 189.872V173.882L866 223.349V238.339Z" fill="#FFAC7F"/>
<path d="M897.5 231.843L865.5 238.838L945.5 177.88L957 186.374C959.4 190.771 958 195.201 957 196.867L897.5 231.843Z" fill="#D2866B"/>
<path d="M947 136.408L935.5 129.912C925.5 143.503 899.333 163.723 890.5 170.385L947 136.408Z" fill="#F3E8E5"/>
<path d="M865 85.9418L786 135.408L865 185.375L888 171.884C920.4 151.098 936.5 129.912 940.5 121.918C930.5 122.717 924 121.584 922 120.918L865 85.9418Z" fill="#F2FAFF"/>
<path d="M947 136.408V150.398L866 199.865L865.5 185.375L947 136.408Z" fill="#DCBCAB"/>
<path d="M947 150.398V153.896L866 203.862L784.5 154.895V150.898L866 199.865L947 150.398Z" fill="#AD7A65"/>
<path d="M946.5 153.896L866 203.362V218.352L946.5 168.886V153.896Z" fill="#C79076"/>
<path d="M784.5 169.885V173.383L866 223.349L946.5 174.382V168.886L866 218.352L784.5 169.885Z" fill="#FFBD96"/>
<path d="M946 173.882L866 223.849V238.838L946 191.371V173.882Z" fill="#E58B65"/>
<path d="M1033 228.845L832 341.269L828.5 351.262L830.5 352.262L1033 237.339V228.845Z" fill="#B97A59"/>
<path d="M830.5 352.262V377.245L820 372.748L828.5 351.262L830.5 352.262Z" fill="#FFF7F8"/>
<path d="M1033 261.823L830.5 377.245V390.236L1033 274.814V261.823Z" fill="#B67B5D"/>
<path d="M830.5 390.236L815.5 384.24L820 373.247L830.5 377.245V390.236Z" fill="#C58C71"/>
<path d="M830.5 452.194V448.197L797.5 430.209L796 432.707L830.5 452.194Z" fill="#876450"/>
<path d="M830 464.186L1033 346.765V333.774L830 450.695V464.186Z" fill="#B57C61"/>
<path d="M830.5 426.212L1032.5 313.288V301.296L830.5 415.219L808 402.728L804.5 411.222L830.5 426.212Z" fill="#B47959"/>
<path d="M1033 313.288L830 426.212V449.196L1033 333.274V313.288Z" fill="#EDD4C6"/>
<path d="M1033 237.339L830.5 352.262V377.245L1033 261.823V237.339Z" fill="#EFD5C9"/>
<path d="M896 442.7V455.191" stroke="#E3B4A2"/>
<path d="M907 447.697V460.189" stroke="#E3B4A2"/>
<path d="M919 447.697V460.189" stroke="#E3B4A2"/>
<path d="M930 445.698V458.19" stroke="#E3B4A2"/>
<path d="M940 441.701V454.193" stroke="#E3B4A2"/>
<ellipse cx="916.5" cy="429.709" rx="27.5" ry="14.9899" fill="#823E3C"/>
<path d="M904.5 406.725V429.709C905.833 431.375 910 434.706 916 434.706C922 434.706 926.5 431.375 928 429.709V406.725C927.167 403.394 923.6 396.732 916 396.732C908.4 396.732 905.167 403.394 904.5 406.725Z" fill="#5E2C2D"/>
<path d="M928 406.725C926.4 400.729 921 397.564 918.5 396.732C922.5 400.329 922.833 407.224 922.5 410.222V433.207C924.9 432.008 927.167 430.375 928 429.709V406.725Z" fill="#49211E"/>
<path d="M804.5 411.721L830.5 426.212V448.696L797.5 430.209L804.5 411.721Z" fill="#FFFAFC"/>
<path d="M208 501.161V571.114" stroke="#643621"/>
<path d="M207.5 576.61C211.667 580.607 222.8 588.702 234 589.101" stroke="#643621"/>
<path d="M846 250.83L401.5 11.9919C398.3 11.9919 395.333 16.4889 394.5 18.4875L332 175.381L258 362.255C255.6 371.049 260 375.912 262.5 377.245L703 614.084C710.2 617.682 715.333 615.583 717 614.084L780.5 448.197L851.5 268.318C853.1 260.724 848.333 253.495 846 250.83Z" fill="#6E3333"/>
<path d="M828.5 272.316L407.5 39.973L282.5 351.762L705.5 585.104L828.5 272.316Z" fill="#66A5FD"/>
<path d="M771.5 413.72L634.5 338.271L569 416.718L624 540.135L704 585.604L771.5 413.72Z" fill="#A7C5EA"/>
<path d="M429 331.776L464.5 355.26L571.5 416.218L629.5 434.206C639.5 396.232 622 397.731 619.5 386.738C617 375.746 632 365.753 635.5 362.255C639 358.757 632 330.277 635.5 324.281C639 318.285 641 304.294 642 297.799C643 291.303 633 276.813 632 271.316C631 265.82 626.5 236.34 618.5 222.35C612.1 211.157 591.5 202.696 582 199.865C570.5 181.377 538.5 191.371 533.5 196.367C528.5 201.364 506.5 218.852 501 218.352C495.5 217.853 491.5 224.848 490 228.346C488.5 231.843 482.5 254.328 468 264.321C453.5 274.314 456.5 293.302 457.5 297.799C458.5 302.295 456 312.788 442.5 315.786C431.7 318.185 429 327.445 429 331.776Z" fill="#5A330E"/>
<path d="M624 475.678C620 465.285 586.667 431.375 570.5 415.719C542.1 454.493 529 478.51 526 485.671L625.5 540.135C631.5 524.645 629 488.669 624 475.678Z" fill="#F2FAFF"/>
<path d="M571.5 416.218C572.3 405.026 559.833 392.568 553.5 387.738V411.721C553.5 416.918 532.167 428.21 521.5 433.207L506 459.189L526.5 485.671C528.5 476.877 557.333 435.705 571.5 416.218Z" fill="#C4D7E5"/>
<path d="M494 354.76C488 349.963 472.5 352.761 465.5 354.76C457.9 361.955 445.833 413.387 440.5 438.703L461.5 450.195L477 418.217C478.667 402.894 482 371.449 482 368.251C482 365.053 490 357.924 494 354.76Z" fill="#C4D7E5"/>
<path d="M394.5 347.265C372.9 344.867 349.833 370.583 341 383.74L441 439.203L456 379.743C457.2 368.95 462.5 358.924 465 355.26C450.5 353.594 416.1 349.663 394.5 347.265Z" fill="#F2FAFF"/>
<path d="M455 245.834L360 160.891L282.5 352.262L341 383.74L416.5 350.763L455 245.834Z" fill="#C4D6E9"/>
<path d="M592 352.262C591.2 347.465 594.667 337.938 596.5 333.774L594.5 331.776C590.1 346.566 572.667 354.927 564.5 357.258L553.5 388.237C566.3 398.231 571 411.555 571.5 416.218L583 399.23C581.833 392.901 580.2 379.343 583 375.746C586.5 371.249 593 358.258 592 352.262Z" fill="#301A04"/>
<path d="M414 7.99458L401 11.9919L846.5 251.33C848.9 255.727 850.833 263.821 851.5 267.319L714 616.083L727.5 609.088L788 453.693L864 261.323C866.4 253.329 860.667 247.666 857.5 245.834L414 7.99458Z" fill="#572A27"/>
<path d="M813.5 310.29L392.5 79.4462L408 39.973L828.5 272.815L813.5 310.29Z" fill="#FEFDFF"/>
<path d="M464.5 242.836L362.5 151.398L359.5 160.891L455 245.334L416.5 350.263L426.5 352.262L464.5 242.836Z" fill="#EDF4FF"/>
<path d="M496 267.819C492 269.651 483.7 276.213 482.5 287.805C481 302.295 480.5 304.794 472 309.79C463.5 314.787 464.5 318.285 465 326.779C465.5 335.273 468 346.765 458.5 351.762" stroke="#301A04" stroke-width="3"/>
<ellipse cx="444.5" cy="400.229" rx="25.5" ry="25.4828" fill="#61A494"/>
<ellipse cx="552.5" cy="460.189" rx="25.5" ry="25.4828" fill="#5CA0F5"/>
<path d="M508 329.777L482 365.253L476.5 417.717L520.5 433.707C542.1 423.713 551.5 416.718 553.5 413.72V388.237L565 357.258C585.8 350.863 593.333 337.605 594.5 331.776C597.333 334.94 604.6 338.071 611 325.28C617.4 312.489 610 303.961 605.5 301.296C604.5 292.802 607.5 292.802 611 285.307C614.5 277.812 605.5 273.815 601 266.819C596.5 259.824 597 251.83 597 242.836C597 233.842 578.5 221.35 575.5 221.35C572.5 221.35 557.5 217.353 555.5 221.35C553.5 225.348 536.5 236.34 532 237.339C527.5 238.339 525 243.335 524 249.831C523 256.327 516.5 255.827 514.5 255.327C512.5 254.828 503 247.832 497.5 260.324C493.1 270.317 499.333 281.143 503 285.307C502.333 289.471 500.9 299.098 500.5 304.294C500.1 309.491 505.333 323.448 508 329.777Z" fill="#FFA081"/>
<ellipse cx="421.5" cy="71.4517" rx="6.5" ry="6.49561" fill="#A8C7EA"/>
<ellipse cx="440.5" cy="81.4449" rx="6.5" ry="6.49561" fill="#A8C7EA"/>
<ellipse cx="459.5" cy="92.4375" rx="6.5" ry="6.49561" fill="#A8C7EA"/>
<path d="M668.646 403.954C671.489 396.67 680.075 393.523 686.953 397.244L832.836 476.175C838.633 479.311 841.163 486.287 838.724 492.409L808.437 568.455C805.548 575.709 796.959 578.8 790.109 575.052L645.018 495.651C639.288 492.515 636.777 485.615 639.152 479.53L668.646 403.954Z" fill="#F2FAFF"/>
<path d="M740 503.659L796 534.638" stroke="#A77057" stroke-width="2" stroke-linecap="round"/>
<path d="M749 480.175L805 511.154" stroke="#A77057" stroke-width="2" stroke-linecap="round"/>
<path d="M674 446.698C672 457.89 682.5 480.342 688 490.168C695.667 488.836 712.8 485.671 720 483.673C729 481.174 740.751 465.525 727 456.691C713 447.697 702.5 462.687 701 446.698C697.5 430.709 676.5 432.707 674 446.698Z" fill="#FFBE9E"/>
<path d="M682 459.689L690.5 463.686L698.5 457.191L700 476.677L707 470.182L714.5 474.179" stroke="#F2FAFF" stroke-width="3" stroke-linecap="round"/>
<path d="M535.5 324.78L525 318.285L526.5 323.281L532.5 332.275L547.5 338.771L556 337.272L558.5 335.773L555 331.776L548 329.277L535.5 324.78Z" fill="#FFFDF6"/>
<path d="M533 338.771C528.2 335.573 525.667 323.781 525 318.285C526.5 322.449 531.3 331.576 538.5 334.773C545.7 337.971 555.167 336.772 559 335.773C549.5 345.766 539 342.768 533 338.771Z" fill="#D63223"/>
<path d="M524 316.286C526.667 317.452 532.8 319.784 536 319.784C540 319.784 539.5 325.28 542 325.78C544.5 326.279 547 324.281 549 325.78C550.665 327.027 555.449 332.777 558.159 334.957C558.658 335.254 559.113 335.531 559.5 335.773C559.165 335.689 558.704 335.395 558.159 334.957C555.219 333.21 550.709 330.776 549 330.776C546.5 330.776 540.5 331.276 537 327.279C533.5 323.281 526.5 319.784 524 316.286Z" fill="#D63223"/>
<path d="M564.5 357.758C531.3 371.349 516.667 350.43 513.5 338.271C517.1 365.852 541.667 382.741 553.5 387.738L564.5 357.758Z" fill="#EB825D"/>
<path d="M487 303.295C490.2 301.296 498.667 289.471 502.5 283.808L503.5 285.307C497.5 306.093 504 323.614 508 329.777L490.5 353.261C478.9 350.463 468.333 353.761 464.5 355.759L463 354.26C486.5 350.263 482.5 328.278 482 319.284C481.5 310.29 483 305.793 487 303.295Z" fill="#301A04"/>
<path d="M541 309.291C539.4 306.892 536.333 308.291 535 309.291C535.5 309.291 536.8 309.79 538 311.789C539.2 313.788 542.167 314.954 543.5 315.287C543.333 314.287 542.6 311.689 541 309.291Z" fill="#EE8E6D"/>
<path d="M556.5 316.286C554.5 315.487 549.667 316.619 547.5 317.285C549.333 318.118 553.3 319.684 554.5 319.284C555.7 318.884 558.667 319.451 560 319.784C559.667 318.951 558.5 317.085 556.5 316.286Z" fill="#EE8E6D"/>
<path d="M510 257.326C510 258.825 509.6 261.823 508 261.823C506 261.823 503 262.822 502.5 264.821C502.1 266.42 502.333 273.815 502.5 277.312M508 266.32C507 266.986 505.1 269.118 505.5 272.316M523.5 260.824C523.833 261.989 525.1 264.521 527.5 265.32C530.5 266.32 538 266.32 542 273.315M547 275.813C548.167 279.311 548.8 288.005 542 294.801M568.5 287.805C565.833 288.971 560.5 294.201 560.5 305.793M595.5 299.797C593.5 299.797 589.1 298.998 587.5 295.8C585.5 291.803 579 291.303 575.5 291.303M607 308.791C606.333 309.291 605.1 310.79 605.5 312.788C606 315.287 608.5 321.782 600.5 326.779M602.5 315.287C602.667 316.952 602.4 320.483 600 321.283M559 312.788C563 315.187 561.333 318.784 560 320.283C559.833 318.285 557.8 314.687 551 316.286C542.5 318.285 543.5 314.287 542 310.79C540.5 307.292 536 307.792 535 308.791C534.5 306.959 534.8 303.095 540 302.295M542 319.784C542.167 321.283 543.5 323.881 547.5 322.282" stroke="#CD7050"/>
<path d="M569 295.8L568 298.798C571.2 296.799 576 296.966 578 297.299C583.704 298.898 587.043 303.961 588 306.293H593L591 301.796C587 300.796 585.5 299.297 581 296.3C577.4 293.901 571.5 294.967 569 295.8Z" fill="#340D0A"/>
<path d="M523.5 272.316C521.9 271.516 519.833 268.318 519 266.819L524.5 267.319C526.5 270.817 531 270.317 536.5 273.315C540.9 275.713 542 281.31 542 283.808L540 284.807L523.5 272.316Z" fill="#340D0A"/>
<path d="M537.5 250.331C535.5 249.531 527.667 249.998 524 250.331L523 253.329C523.667 253.162 525.8 252.929 529 253.329C532.2 253.728 534.667 255.161 535.5 255.827L551 266.819L554.5 262.323C549.667 258.658 539.5 251.13 537.5 250.331Z" fill="#340D0A"/>
<path d="M574 277.312L575 271.816C581 273.815 593.4 278.512 595 281.31C596.6 284.108 598.333 289.804 599 292.302C596.6 288.305 594 285.64 593 284.807L574 277.312Z" fill="#340D0A"/>
<path d="M523.5 272.316C523.333 275.147 526.4 281.609 540 284.807C540.333 280.477 537.5 271.916 523.5 272.316Z" fill="#FFFDF6"/>
<path d="M568 298.798C570.167 303.128 577.2 310.69 588 306.293C585.833 301.463 578.8 293.202 568 298.798Z" fill="#FFFDF6"/>
<ellipse cx="495.5" cy="433.207" rx="25.5" ry="25.4828" fill="#D44E44"/>
<path d="M675.976 270.543C677.572 265.942 682.875 263.82 687.204 266.051L720.464 283.195C723.945 284.989 725.614 289.041 724.407 292.767L712.407 329.8C710.885 334.498 705.51 336.71 701.122 334.444L667.156 316.902C663.623 315.078 661.967 310.935 663.271 307.177L675.976 270.543Z" fill="#F3FAFC"/>
<path d="M734.536 303.532C736.132 298.931 741.435 296.809 745.764 299.041L779.024 316.184C782.506 317.979 784.175 322.03 782.967 325.757L770.968 362.789C769.445 367.487 764.071 369.699 759.682 367.433L725.717 349.892C722.183 348.067 720.528 343.924 721.831 340.167L734.536 303.532Z" fill="#F3FAFC"/>
<path d="M710 296.799C710 302.409 705.884 306.792 701 306.792C696.116 306.792 692 302.409 692 296.799C692 291.189 696.116 286.807 701 286.807C705.884 286.807 710 291.189 710 296.799Z" stroke="#2D71CA" stroke-width="2"/>
<path d="M689.5 302.795L679.5 307.792" stroke="#2D71CA" stroke-width="2" stroke-linecap="round"/>
<path d="M742.5 335.273C742.9 333.674 752 324.614 756.5 320.283C757.333 326.612 759 339.57 759 340.769C759 342.268 758 349.264 749 347.265C740 345.266 742 337.272 742.5 335.273Z" fill="#2D71CA"/>
<ellipse cx="533" cy="276.813" rx="4" ry="3.9973" fill="#340D0A"/>
<ellipse cx="578" cy="300.796" rx="4" ry="3.9973" fill="#340D0A"/>
<ellipse cx="535.5" cy="279.311" rx="1.5" ry="1.49899" fill="#FFFDF6"/>
<ellipse cx="580.5" cy="302.295" rx="1.5" ry="1.49899" fill="#FFFDF6"/>
<path d="M450 388.737L440 410.222" stroke="white" stroke-width="3" stroke-linecap="round"/>
<path d="M434 393.234L455 405.226" stroke="white" stroke-width="3" stroke-linecap="round"/>
<path d="M538 463.187L545 447.697L565 458.19L558 473.68L538 463.187Z" stroke="white" stroke-width="3" stroke-linejoin="round"/>
<path d="M497 418.275C489 415.877 484 421.813 482 424.644L487 432.208C487.833 431.541 490.7 430.067 491.5 427.269C492.5 423.772 505.5 425.77 502.5 436.263C500.1 444.658 504.833 445.091 507.5 444.258C514.5 434.764 507 421.273 497 418.275Z" fill="white"/>
<path d="M500.617 703.97L521.6 739H643C620.185 714.312 572.858 663.335 566.063 656.929C559.269 650.524 557.903 642.917 558.07 639.914C557.737 624.401 557.071 590.171 557.071 577.36C557.071 564.549 554.073 554.674 552.574 551.338C542.582 518.51 531.425 494.289 527.095 486.282C511.941 465.764 480.933 423.728 478.135 419.724C474.638 414.72 471.141 415.721 468.643 417.222C466.645 418.423 466.811 423.394 467.144 425.729C463.148 426.931 460.483 430.567 459.651 432.235C456.453 446.648 466.645 463.596 472.14 470.268C473.339 475.072 482.299 490.285 486.628 497.291C487.128 511.303 493.123 521.312 496.62 533.322C500.117 545.333 490.625 572.857 481.133 577.36C471.641 581.864 458.152 566.351 451.657 548.335C445.162 530.32 427.177 507.3 420.182 524.315C418.184 551.338 433.172 575.359 439.667 587.87C446.161 600.38 446.161 605.885 448.16 616.394C450.158 626.903 466.145 673.944 477.636 680.449C486.828 685.654 496.787 698.298 500.617 703.97Z" fill="#EB976D"/>
<path d="M458 498.163C459.6 496.564 477.667 498.163 486.5 499.162L496.5 534.139C488 530.974 469.3 522.846 462.5 515.651C454 506.657 456 500.162 458 498.163Z" fill="#C97F5F"/>
<path d="M471 427.711C485.167 447.697 513.8 488.37 515 491.168C516.2 493.966 528.833 537.969 535 559.621" stroke="#643621"/>
<path d="M422.5 525.145C424 528.642 427.1 536.237 427.5 538.636C427.9 541.034 424.333 541.634 422.5 541.634" stroke="#643621"/>
<path d="M214.5 307.292L0 412.221V588.602L259 374.746C257 370.749 257.167 365.086 258 362.255L322.5 220.851C325.5 208.359 335.5 200.864 346 199.365C356.5 197.866 378.5 183.876 370.5 173.882C364.1 165.888 342.167 172.217 332 176.381L346 141.404C339.5 145.069 322.1 154.495 304.5 162.89C286.9 171.284 273.5 188.373 269 195.867L214.5 307.292Z" fill="#EB976D"/>
<path d="M278 215.854C286.333 206.194 304.3 186.374 309.5 184.375C314.7 182.377 323.667 178.546 327.5 176.88" stroke="#643621"/>
<path d="M342 172.883C342.833 175.048 345.2 179.379 348 179.379C350.8 179.379 360.167 175.048 364.5 172.883" stroke="#643621"/>
<path d="M273 301.296C286.5 285.307 315.1 247.433 321.5 223.849" stroke="#643621"/>
</svg>
