<svg width="65" height="65" viewBox="0 0 65 65" fill="none" xmlns="http://www.w3.org/2000/svg">
<circle cx="32.5" cy="32.5" r="32.5" fill="#413734"/>
<path d="M15.6256 13.46C14.7769 12.9153 13.9599 12.643 13.1746 12.643C12.3893 12.643 11.7559 12.8583 11.2746 13.289C10.7933 13.7197 10.5526 14.2643 10.5526 14.923C10.5526 15.569 10.8123 16.1327 11.3316 16.614C11.8509 17.0953 12.6869 17.6147 13.8396 18.172C15.6889 19.0713 16.8606 20.034 17.3546 21.06C17.5826 21.5413 17.6966 22.0543 17.6966 22.599C17.6966 23.777 17.1963 24.7017 16.1956 25.373C15.2076 26.0443 14.0423 26.38 12.6996 26.38C11.9776 26.38 11.2239 26.3103 10.4386 26.171C9.65328 26.0317 9.08961 25.8923 8.74761 25.753C8.62095 24.765 8.40561 23.6377 8.10161 22.371C8.32961 22.257 8.50061 22.2 8.61461 22.2C8.74128 22.2 8.83628 22.2063 8.89961 22.219C9.25428 23.1057 9.58361 23.777 9.88761 24.233C10.1536 24.5117 10.3879 24.7397 10.5906 24.917C10.7933 25.0817 11.1226 25.2527 11.5786 25.43C12.0473 25.6073 12.6109 25.696 13.2696 25.696C13.9283 25.696 14.5236 25.468 15.0556 25.012C15.5876 24.556 15.8536 23.9733 15.8536 23.264C15.8536 22.694 15.7523 22.2823 15.5496 22.029C15.3469 21.7757 15.1949 21.5857 15.0936 21.459C15.0049 21.3323 14.8276 21.1867 14.5616 21.022C14.2956 20.8447 14.1119 20.7243 14.0106 20.661C13.9093 20.5977 13.6876 20.4773 13.3456 20.3C13.0163 20.1227 12.7186 19.9643 12.4526 19.825C12.1993 19.673 11.9839 19.5463 11.8066 19.445C11.6293 19.3437 11.3569 19.1853 10.9896 18.97C10.6223 18.742 10.3626 18.5647 10.2106 18.438C10.0586 18.2987 9.86228 18.115 9.62161 17.887C9.38095 17.659 9.20995 17.45 9.10861 17.26C8.85528 16.7153 8.72861 16.2023 8.72861 15.721C8.72861 14.5557 9.21628 13.65 10.1916 13.004C11.1669 12.3453 12.3449 12.016 13.7256 12.016C14.2956 12.016 14.9289 12.092 15.6256 12.244C16.3223 12.396 16.8606 12.5543 17.2406 12.719C17.1266 13.1623 17.0189 14.087 16.9176 15.493C16.7909 15.5563 16.6579 15.588 16.5186 15.588C16.3793 15.588 16.2589 15.5627 16.1576 15.512C16.1449 15.36 16.0689 15.018 15.9296 14.486C15.7903 13.9413 15.6889 13.5993 15.6256 13.46ZM23.6944 26.057L22.0984 26C21.1104 26 20.2174 26.0507 19.4194 26.152C19.356 26.076 19.3244 25.9683 19.3244 25.829L19.3434 25.677C19.8627 25.563 20.211 25.392 20.3884 25.164C20.5784 24.9233 20.7177 24.537 20.8064 24.005C20.9077 23.4603 20.9584 21.4717 20.9584 18.039V13.175C20.9584 12.0223 20.8254 11.3193 20.5594 11.066C20.42 10.9267 20.2427 10.8443 20.0274 10.819L19.3434 10.743C19.3054 10.6797 19.2864 10.6037 19.2864 10.515C19.2864 10.4137 19.3054 10.3313 19.3434 10.268C20.2427 10.1033 20.9394 9.90067 21.4334 9.66C21.7627 9.49533 22.1364 9.27367 22.5544 8.995C22.681 8.995 22.7824 9.05833 22.8584 9.185C22.605 10.7683 22.4784 13.7387 22.4784 18.096C24.087 17.2093 25.3727 16.6203 26.3354 16.329C27.1587 16.329 27.7794 16.633 28.1974 17.241C28.6154 17.849 28.8244 18.666 28.8244 19.692L28.7864 22.124C28.7864 24.29 28.8814 25.392 29.0714 25.43C29.2614 25.4553 29.635 25.468 30.1924 25.468C30.243 25.5567 30.2684 25.639 30.2684 25.715C30.2684 25.791 30.243 25.905 30.1924 26.057L28.4444 26C27.393 26 26.557 26.0507 25.9364 26.152C25.8604 26.0507 25.8224 25.943 25.8224 25.829L25.8604 25.677C26.3797 25.563 26.728 25.392 26.9054 25.164C27.0827 24.936 27.184 24.6637 27.2094 24.347C27.2474 24.0303 27.2664 23.3907 27.2664 22.428C27.2664 21.4653 27.26 20.87 27.2474 20.642C27.2474 20.4013 27.2284 20.0973 27.1904 19.73C27.165 19.35 27.108 19.065 27.0194 18.875C26.9434 18.6723 26.842 18.4633 26.7154 18.248C26.462 17.8553 26.0124 17.659 25.3664 17.659C24.7204 17.659 24.0047 17.9187 23.2194 18.438C23.1054 18.5013 22.9597 18.5963 22.7824 18.723C22.605 18.837 22.5037 18.9003 22.4784 18.913C22.4657 19.5463 22.4594 20.2177 22.4594 20.927C22.4594 23.853 22.5354 25.3413 22.6874 25.392C22.852 25.4427 23.1877 25.468 23.6944 25.468C23.7324 25.5567 23.7514 25.658 23.7514 25.772C23.7514 25.886 23.7324 25.981 23.6944 26.057ZM41.2694 21.364C41.2694 24.176 39.6354 25.848 36.3674 26.38C35.0247 26.38 33.891 25.905 32.9664 24.955C32.0544 23.9923 31.5984 22.7953 31.5984 21.364C31.5984 18.5267 33.2387 16.8483 36.5194 16.329C37.8494 16.329 38.9704 16.8167 39.8824 17.792C40.807 18.7673 41.2694 19.958 41.2694 21.364ZM36.7854 25.563C38.6094 25.563 39.5214 24.3977 39.5214 22.067C39.5214 20.7497 39.2174 19.597 38.6094 18.609C38.0014 17.621 37.197 17.127 36.1964 17.127C35.1957 17.127 34.4674 17.45 34.0114 18.096C33.568 18.7293 33.3464 19.6413 33.3464 20.832C33.3464 22.01 33.6567 23.093 34.2774 24.081C34.898 25.069 35.734 25.563 36.7854 25.563ZM43.1479 17.583L42.4829 17.621C42.4322 17.5323 42.4069 17.4183 42.4069 17.279L42.4259 17.108C43.3125 16.956 43.9712 16.7407 44.4019 16.462L44.6299 16.329C44.8199 16.329 45.0352 16.4937 45.2759 16.823C45.5165 17.1397 45.6495 17.5323 45.6749 18.001C46.3969 17.545 46.9225 17.2347 47.2519 17.07C47.5939 16.9053 48.1829 16.6583 49.0189 16.329C49.9435 16.5063 50.7669 17.0763 51.4889 18.039C52.2235 18.989 52.5909 20.0973 52.5909 21.364C52.5909 22.086 52.4769 22.7383 52.2489 23.321C52.0209 23.891 51.7169 24.3533 51.3369 24.708C50.9569 25.05 50.5642 25.3413 50.1589 25.582C49.7535 25.8227 49.3355 26 48.9049 26.114C48.1702 26.2913 47.6192 26.38 47.2519 26.38C46.8972 26.38 46.3399 26.285 45.5799 26.095V27.159C45.5799 30.541 45.6559 32.2383 45.8079 32.251C46.1879 32.289 46.8972 32.308 47.9359 32.308C47.9612 32.3967 47.9739 32.498 47.9739 32.612C47.9739 32.726 47.9612 32.821 47.9359 32.897L45.1999 32.84C44.1105 32.84 43.2239 32.8907 42.5399 32.992C42.4639 32.916 42.4259 32.8083 42.4259 32.669L42.4639 32.517C42.9832 32.3903 43.3315 32.213 43.5089 31.985C43.6989 31.757 43.8192 31.4657 43.8699 31.111C43.9965 30.2243 44.0599 28.147 44.0599 24.879V20.243C44.0599 19.2297 43.9965 18.533 43.8699 18.153C43.7559 17.773 43.5152 17.583 43.1479 17.583ZM45.5799 24.499C45.5799 24.689 45.9409 24.917 46.6629 25.183C47.3849 25.4363 47.8915 25.563 48.1829 25.563C48.9935 25.563 49.6649 25.221 50.1969 24.537C50.7289 23.853 50.9949 22.9853 50.9949 21.934C50.9949 20.87 50.6845 19.8947 50.0639 19.008C49.4432 18.1087 48.7845 17.659 48.0879 17.659C47.3912 17.659 46.5679 18.058 45.6179 18.856C45.5925 19.9073 45.5799 21.7883 45.5799 24.499ZM15.2456 44.469L14.5046 44.488C14.4539 44.4247 14.4286 44.3423 14.4286 44.241C14.4286 44.1397 14.4413 44.051 14.4666 43.975C15.3279 43.861 16.0309 43.6837 16.5756 43.443C16.7529 43.367 16.8606 43.329 16.8986 43.329C17.0126 43.329 17.1519 43.5063 17.3166 43.861C17.4813 44.2157 17.6206 44.6083 17.7346 45.039C19.0139 44.317 20.2616 43.747 21.4776 43.329C22.2503 43.329 22.8456 43.6393 23.2636 44.26C23.6816 44.868 23.8906 45.6787 23.8906 46.692L23.8526 49.2C23.8526 51.3153 23.9476 52.392 24.1376 52.43C24.3276 52.4553 24.6823 52.468 25.2016 52.468C25.2523 52.5567 25.2776 52.6517 25.2776 52.753C25.2776 52.8543 25.2523 52.9557 25.2016 53.057L23.4536 53C22.4023 53 21.5663 53.0507 20.9456 53.152C20.8823 53.076 20.8506 52.9683 20.8506 52.829L20.8696 52.677C21.2369 52.5883 21.5219 52.468 21.7246 52.316C21.9273 52.1513 22.0539 51.9993 22.1046 51.86C22.1679 51.708 22.2186 51.4863 22.2566 51.195C22.2946 50.891 22.3136 50.3083 22.3136 49.447V47.87C22.3136 46.9833 22.2123 46.236 22.0096 45.628C21.9209 45.3873 21.8196 45.21 21.7056 45.096C21.4269 44.792 21.0913 44.64 20.6986 44.64C20.3059 44.64 19.9133 44.716 19.5206 44.868C19.1279 45.02 18.8303 45.1593 18.6276 45.286C18.4249 45.4127 18.1399 45.6027 17.7726 45.856C17.7219 46.8567 17.6966 48.1993 17.6966 49.884C17.6966 51.556 17.7789 52.4047 17.9436 52.43C18.1209 52.4553 18.4439 52.468 18.9126 52.468C18.9633 52.5567 18.9886 52.6517 18.9886 52.753C18.9886 52.8543 18.9633 52.9557 18.9126 53.057L17.2976 53C16.3349 53 15.4989 53.0507 14.7896 53.152C14.7263 53.076 14.6946 52.9683 14.6946 52.829L14.7136 52.677C15.0809 52.5883 15.3659 52.468 15.5686 52.316C15.7713 52.1513 15.8979 51.9993 15.9486 51.86C16.0119 51.708 16.0626 51.4357 16.1006 51.043C16.1513 50.6377 16.1766 49.7763 16.1766 48.459C16.1766 47.1417 16.1703 46.4133 16.1576 46.274C16.1576 46.122 16.1513 45.932 16.1386 45.704C16.1259 45.476 16.1006 45.305 16.0626 45.191C16.0246 45.077 15.9676 44.9567 15.8916 44.83C15.7649 44.5893 15.5496 44.469 15.2456 44.469ZM36.3709 48.364C36.3709 51.176 34.7369 52.848 31.4689 53.38C30.1263 53.38 28.9926 52.905 28.0679 51.955C27.1559 50.9923 26.6999 49.7953 26.6999 48.364C26.6999 45.5267 28.3403 43.8483 31.6209 43.329C32.9509 43.329 34.0719 43.8167 34.9839 44.792C35.9086 45.7673 36.3709 46.958 36.3709 48.364ZM31.8869 52.563C33.7109 52.563 34.6229 51.3977 34.6229 49.067C34.6229 47.7497 34.3189 46.597 33.7109 45.609C33.1029 44.621 32.2986 44.127 31.2979 44.127C30.2973 44.127 29.5689 44.45 29.1129 45.096C28.6696 45.7293 28.4479 46.6413 28.4479 47.832C28.4479 49.01 28.7583 50.093 29.3789 51.081C29.9996 52.069 30.8356 52.563 31.8869 52.563ZM48.7419 43.576L50.3949 43.633C50.8509 43.633 51.3829 43.5887 51.9909 43.5C52.0795 43.6647 52.1239 43.823 52.1239 43.975C51.7819 44.127 51.5412 44.2727 51.4019 44.412C50.9712 44.868 50.5342 45.647 50.0909 46.749L47.4309 53.38H47.1459L44.3339 46.293L41.5789 53.38H41.2939L38.5579 46.711C37.9879 45.343 37.6015 44.564 37.3989 44.374C37.2089 44.1713 36.9809 44.0257 36.7149 43.937C36.7022 43.899 36.6959 43.8293 36.6959 43.728C36.6959 43.6267 36.7339 43.5317 36.8099 43.443C37.6839 43.5697 38.3615 43.633 38.8429 43.633L40.4389 43.576C40.4769 43.6393 40.4959 43.7343 40.4959 43.861L40.4389 44.165C40.0462 44.165 39.7675 44.1777 39.6029 44.203C39.6915 44.925 39.9765 45.9067 40.4579 47.148L41.8639 50.777L44.4859 43.633H44.9989L47.7349 50.777L49.0839 47.319C49.5272 46.217 49.8185 45.1973 49.9579 44.26C49.7045 44.222 49.2992 44.1903 48.7419 44.165C48.7165 44.0763 48.7039 43.975 48.7039 43.861C48.7039 43.7343 48.7165 43.6393 48.7419 43.576Z" fill="#FFFBFB"/>
</svg>
