<svg width="59" height="38" viewBox="0 0 59 38" fill="none" xmlns="http://www.w3.org/2000/svg">
<path d="M9 11.7059C11.3395 9.36646 13.8786 7.12066 16.932 5.73278C18.6176 4.96657 20.0202 4.11469 21.8411 3.65306C24.0555 3.09164 26.0798 3.00012 28.3583 3.00012C30.5285 3.00012 32.5025 2.97491 34.5854 3.65306C36.534 4.28749 38.609 4.41946 40.4618 5.34585C42.7778 6.50384 44.7857 8.19462 46.6042 10.0131C47.0494 10.4583 47.3357 11.0291 47.7408 11.4883C48.106 11.9022 46.5303 11.1437 46.3261 11.053C45.4578 10.6671 43.2705 9.82355 45.5765 10.4001C45.9633 10.4968 48.1565 11.4063 48.1761 11.053C48.2403 9.89782 48.3938 8.91512 48.3938 7.78831" stroke="black" stroke-linecap="round"/>
<path d="M6.63569 15.892C7.41169 15.892 8.05169 16.124 8.55569 16.588C8.53169 16.724 8.44769 16.868 8.30369 17.02C8.16769 17.172 8.01169 17.268 7.83569 17.308C7.57969 17.004 7.32369 16.772 7.06769 16.612C6.81169 16.452 6.49569 16.372 6.11969 16.372C5.75169 16.372 5.41569 16.616 5.11169 17.104C4.80769 17.584 4.65569 18.084 4.65569 18.604C4.65569 19.116 4.71969 19.576 4.84769 19.984C4.98369 20.392 5.21169 20.736 5.53169 21.016C5.85169 21.296 6.23969 21.436 6.69569 21.436C7.15969 21.436 7.74769 21.284 8.45969 20.98C8.53169 21.02 8.56769 21.1 8.56769 21.22L7.40369 22.012C7.32369 22.06 7.17569 22.108 6.95969 22.156C6.74369 22.212 6.56769 22.24 6.43169 22.24C5.52769 22.24 4.83969 21.944 4.36769 21.352C3.89569 20.76 3.65969 20.016 3.65969 19.12C3.65969 18.592 3.75569 18.124 3.94769 17.716C4.13969 17.3 4.36369 16.984 4.61969 16.768C4.87569 16.544 5.15569 16.36 5.45969 16.216C5.94769 16 6.33969 15.892 6.63569 15.892ZM15.2403 19.072C15.2403 20.848 14.2083 21.904 12.1443 22.24C11.2963 22.24 10.5803 21.94 9.99634 21.34C9.42034 20.732 9.13234 19.976 9.13234 19.072C9.13234 17.28 10.1683 16.22 12.2403 15.892C13.0803 15.892 13.7883 16.2 14.3643 16.816C14.9483 17.432 15.2403 18.184 15.2403 19.072ZM12.4083 21.724C13.5603 21.724 14.1363 20.988 14.1363 19.516C14.1363 18.684 13.9443 17.956 13.5603 17.332C13.1763 16.708 12.6683 16.396 12.0363 16.396C11.4043 16.396 10.9443 16.6 10.6563 17.008C10.3763 17.408 10.2363 17.984 10.2363 18.736C10.2363 19.48 10.4323 20.164 10.8243 20.788C11.2163 21.412 11.7443 21.724 12.4083 21.724ZM18.6588 22.036L17.8308 22C17.2228 22 16.6948 22.032 16.2468 22.096C16.2068 22.048 16.1868 21.98 16.1868 21.892L16.1988 21.796C16.4308 21.74 16.6108 21.664 16.7388 21.568C16.8668 21.464 16.9468 21.368 16.9788 21.28C17.0188 21.184 17.0508 21.012 17.0748 20.764C17.1068 20.508 17.1228 19.964 17.1228 19.132C17.1228 18.3 17.1188 17.84 17.1108 17.752C17.1108 17.656 17.1068 17.536 17.0988 17.392C17.0908 17.248 17.0748 17.14 17.0508 17.068C17.0268 16.996 16.9908 16.92 16.9428 16.84C16.8628 16.688 16.7268 16.612 16.5348 16.612L16.0668 16.624C16.0348 16.592 16.0188 16.532 16.0188 16.444L16.0428 16.3C16.5868 16.228 17.0308 16.116 17.3748 15.964C17.4868 15.916 17.5548 15.892 17.5788 15.892C17.6508 15.892 17.7388 16.004 17.8428 16.228C17.9468 16.452 18.0348 16.7 18.1068 16.972C18.9548 16.492 19.7308 16.132 20.4348 15.892C21.0268 15.892 21.4268 16.26 21.6348 16.996C22.4748 16.524 23.2748 16.156 24.0348 15.892C24.4668 15.892 24.8028 16.088 25.0428 16.48C25.2908 16.864 25.4148 17.376 25.4148 18.016L25.4028 19.6C25.4028 20.936 25.4588 21.616 25.5708 21.64C25.6908 21.656 25.9108 21.664 26.2308 21.664C26.2548 21.72 26.2668 21.784 26.2668 21.856C26.2668 21.928 26.2548 21.988 26.2308 22.036L25.1268 22C24.5748 22 24.0988 22.032 23.6988 22.096C23.6588 22.048 23.6388 21.98 23.6388 21.892L23.6508 21.796C23.9228 21.724 24.0988 21.62 24.1788 21.484C24.2668 21.34 24.3268 21.14 24.3588 20.884C24.3988 20.62 24.4188 20.24 24.4188 19.744V18.856C24.4188 18.4 24.3908 18.036 24.3348 17.764C24.2868 17.484 24.2388 17.304 24.1908 17.224C24.1508 17.136 24.0988 17.048 24.0348 16.96C23.9148 16.8 23.7388 16.72 23.5068 16.72C23.0588 16.72 22.4668 16.976 21.7308 17.488C21.7548 17.648 21.7668 17.824 21.7668 18.016C21.7668 18.016 21.7628 18.544 21.7548 19.6C21.7548 20.936 21.8108 21.616 21.9228 21.64C22.0428 21.656 22.2148 21.664 22.4388 21.664C22.4628 21.72 22.4748 21.784 22.4748 21.856C22.4748 21.928 22.4628 21.988 22.4388 22.036L21.5268 22C20.9188 22 20.3908 22.032 19.9428 22.096C19.9028 22.048 19.8828 21.984 19.8828 21.904L19.8948 21.796C20.2228 21.724 20.4388 21.616 20.5428 21.472C20.6548 21.328 20.7268 21.128 20.7588 20.872C20.7988 20.616 20.8188 20.24 20.8188 19.744V18.856C20.8188 18.4 20.7908 18.036 20.7348 17.764C20.6868 17.484 20.6388 17.304 20.5908 17.224C20.5508 17.136 20.4988 17.048 20.4348 16.96C20.3148 16.8 20.1388 16.72 19.9068 16.72C19.4188 16.72 18.8268 16.976 18.1308 17.488C18.0988 18.12 18.0828 18.968 18.0828 20.032C18.0828 21.088 18.1308 21.62 18.2268 21.628C18.3148 21.652 18.4588 21.664 18.6588 21.664C18.6908 21.728 18.7068 21.796 18.7068 21.868C18.7068 21.94 18.6908 21.996 18.6588 22.036ZM29.6392 22.036L28.8112 22C28.2032 22 27.6752 22.032 27.2272 22.096C27.1872 22.048 27.1672 21.98 27.1672 21.892L27.1792 21.796C27.4112 21.74 27.5912 21.664 27.7192 21.568C27.8472 21.464 27.9272 21.368 27.9592 21.28C27.9992 21.184 28.0312 21.012 28.0552 20.764C28.0872 20.508 28.1032 19.964 28.1032 19.132C28.1032 18.3 28.0992 17.84 28.0912 17.752C28.0912 17.656 28.0872 17.536 28.0792 17.392C28.0712 17.248 28.0552 17.14 28.0312 17.068C28.0072 16.996 27.9712 16.92 27.9232 16.84C27.8432 16.688 27.7072 16.612 27.5152 16.612L27.0472 16.624C27.0152 16.592 26.9992 16.532 26.9992 16.444L27.0232 16.3C27.5672 16.228 28.0112 16.116 28.3552 15.964C28.4672 15.916 28.5352 15.892 28.5592 15.892C28.6312 15.892 28.7192 16.004 28.8232 16.228C28.9272 16.452 29.0152 16.7 29.0872 16.972C29.9352 16.492 30.7112 16.132 31.4152 15.892C32.0072 15.892 32.4072 16.26 32.6152 16.996C33.4552 16.524 34.2552 16.156 35.0152 15.892C35.4472 15.892 35.7832 16.088 36.0232 16.48C36.2712 16.864 36.3952 17.376 36.3952 18.016L36.3832 19.6C36.3832 20.936 36.4392 21.616 36.5512 21.64C36.6712 21.656 36.8912 21.664 37.2112 21.664C37.2352 21.72 37.2472 21.784 37.2472 21.856C37.2472 21.928 37.2352 21.988 37.2112 22.036L36.1072 22C35.5552 22 35.0792 22.032 34.6792 22.096C34.6392 22.048 34.6192 21.98 34.6192 21.892L34.6312 21.796C34.9032 21.724 35.0792 21.62 35.1592 21.484C35.2472 21.34 35.3072 21.14 35.3392 20.884C35.3792 20.62 35.3992 20.24 35.3992 19.744V18.856C35.3992 18.4 35.3712 18.036 35.3152 17.764C35.2672 17.484 35.2192 17.304 35.1712 17.224C35.1312 17.136 35.0792 17.048 35.0152 16.96C34.8952 16.8 34.7192 16.72 34.4872 16.72C34.0392 16.72 33.4472 16.976 32.7112 17.488C32.7352 17.648 32.7472 17.824 32.7472 18.016C32.7472 18.016 32.7432 18.544 32.7352 19.6C32.7352 20.936 32.7912 21.616 32.9032 21.64C33.0232 21.656 33.1952 21.664 33.4192 21.664C33.4432 21.72 33.4552 21.784 33.4552 21.856C33.4552 21.928 33.4432 21.988 33.4192 22.036L32.5072 22C31.8992 22 31.3712 22.032 30.9232 22.096C30.8832 22.048 30.8632 21.984 30.8632 21.904L30.8752 21.796C31.2032 21.724 31.4192 21.616 31.5232 21.472C31.6352 21.328 31.7072 21.128 31.7392 20.872C31.7792 20.616 31.7992 20.24 31.7992 19.744V18.856C31.7992 18.4 31.7712 18.036 31.7152 17.764C31.6672 17.484 31.6192 17.304 31.5712 17.224C31.5312 17.136 31.4792 17.048 31.4152 16.96C31.2952 16.8 31.1192 16.72 30.8872 16.72C30.3992 16.72 29.8072 16.976 29.1112 17.488C29.0792 18.12 29.0632 18.968 29.0632 20.032C29.0632 21.088 29.1112 21.62 29.2072 21.628C29.2952 21.652 29.4392 21.664 29.6392 21.664C29.6712 21.728 29.6872 21.796 29.6872 21.868C29.6872 21.94 29.6712 21.996 29.6392 22.036ZM40.9077 22.036L39.8277 22C39.2677 22 38.7397 22.032 38.2437 22.096C38.1957 22.032 38.1717 21.964 38.1717 21.892L38.1957 21.796C38.5397 21.716 38.7717 21.592 38.8917 21.424C38.9797 21.296 39.0477 21.144 39.0957 20.968C39.1437 20.784 39.1677 20.264 39.1677 19.408V18.256C39.1677 17.76 39.1437 17.416 39.0957 17.224C39.0557 17.032 38.9917 16.904 38.9037 16.84C38.8157 16.776 38.6997 16.736 38.5557 16.72L38.1117 16.684C38.0877 16.652 38.0757 16.6 38.0757 16.528L38.1117 16.372C38.5277 16.284 38.8637 16.196 39.1197 16.108C39.3837 16.012 39.6917 15.876 40.0437 15.7C40.1317 15.7 40.1917 15.748 40.2237 15.844C40.1277 16.388 40.0797 17.684 40.0797 19.732C40.0797 20.1 40.0917 20.508 40.1157 20.956C40.1477 21.396 40.1877 21.62 40.2357 21.628C40.3557 21.652 40.5797 21.664 40.9077 21.664C40.9317 21.72 40.9437 21.784 40.9437 21.856C40.9437 21.928 40.9317 21.988 40.9077 22.036ZM39.7797 14.332C39.4917 14.132 39.2877 13.868 39.1677 13.54C39.2637 13.428 39.3917 13.312 39.5517 13.192C39.7197 13.064 39.8637 12.976 39.9837 12.928C40.2877 13.152 40.4837 13.42 40.5717 13.732C40.3477 14.02 40.0837 14.22 39.7797 14.332ZM42.3043 16.612L41.8363 16.624C41.8043 16.584 41.7883 16.532 41.7883 16.468C41.7883 16.404 41.7963 16.348 41.8123 16.3C42.3563 16.228 42.8003 16.116 43.1443 15.964C43.2563 15.916 43.3243 15.892 43.3483 15.892C43.4203 15.892 43.5083 16.004 43.6123 16.228C43.7163 16.452 43.8043 16.7 43.8763 16.972C44.6843 16.516 45.4723 16.156 46.2403 15.892C46.7283 15.892 47.1043 16.088 47.3683 16.48C47.6323 16.864 47.7643 17.376 47.7643 18.016L47.7403 19.6C47.7403 20.936 47.8003 21.616 47.9203 21.64C48.0403 21.656 48.2643 21.664 48.5923 21.664C48.6243 21.72 48.6403 21.78 48.6403 21.844C48.6403 21.908 48.6243 21.972 48.5923 22.036L47.4883 22C46.8243 22 46.2963 22.032 45.9043 22.096C45.8643 22.048 45.8443 21.98 45.8443 21.892L45.8563 21.796C46.0883 21.74 46.2683 21.664 46.3963 21.568C46.5243 21.464 46.6043 21.368 46.6363 21.28C46.6763 21.184 46.7083 21.044 46.7323 20.86C46.7563 20.668 46.7683 20.3 46.7683 19.756V18.76C46.7683 18.2 46.7043 17.728 46.5763 17.344C46.5203 17.192 46.4563 17.08 46.3843 17.008C46.2083 16.816 45.9963 16.72 45.7483 16.72C45.5003 16.72 45.2523 16.768 45.0043 16.864C44.7563 16.96 44.5683 17.048 44.4403 17.128C44.3123 17.208 44.1323 17.328 43.9003 17.488C43.8683 18.12 43.8523 18.968 43.8523 20.032C43.8523 21.088 43.9043 21.624 44.0083 21.64C44.1203 21.656 44.3243 21.664 44.6203 21.664C44.6523 21.72 44.6683 21.78 44.6683 21.844C44.6683 21.908 44.6523 21.972 44.6203 22.036L43.6003 22C42.9923 22 42.4643 22.032 42.0163 22.096C41.9763 22.048 41.9563 21.98 41.9563 21.892L41.9683 21.796C42.2003 21.74 42.3803 21.664 42.5083 21.568C42.6363 21.464 42.7163 21.368 42.7483 21.28C42.7883 21.184 42.8203 21.012 42.8443 20.764C42.8763 20.508 42.8923 19.964 42.8923 19.132C42.8923 18.3 42.8883 17.84 42.8803 17.752C42.8803 17.656 42.8763 17.536 42.8683 17.392C42.8603 17.248 42.8443 17.14 42.8203 17.068C42.7963 16.996 42.7603 16.92 42.7123 16.84C42.6323 16.688 42.4963 16.612 42.3043 16.612ZM51.5906 21.292C51.3106 21.444 51.1706 21.596 51.1706 21.748C51.1706 21.892 51.2466 22.02 51.3986 22.132C51.5506 22.252 51.7746 22.324 52.0706 22.348L53.8226 22.528C55.0546 22.648 55.6706 23.224 55.6706 24.256C55.6706 24.848 55.2786 25.38 54.4946 25.852C53.7106 26.324 52.8466 26.56 51.9026 26.56C51.1986 26.56 50.5986 26.36 50.1026 25.96C49.6066 25.568 49.3586 25.068 49.3586 24.46C49.3586 24.372 49.4066 24.292 49.5026 24.22L51.2546 23.056C50.5026 22.784 50.1266 22.356 50.1266 21.772C50.1266 21.708 50.2066 21.624 50.3666 21.52C50.7186 21.312 51.2626 21.028 51.9986 20.668C51.2786 20.62 50.7186 20.38 50.3186 19.948C49.9186 19.508 49.7186 19.036 49.7186 18.532C49.7186 18.02 49.8146 17.592 50.0066 17.248C50.1986 16.896 50.4346 16.628 50.7146 16.444C51.2906 16.076 51.8226 15.892 52.3106 15.892C52.6546 15.892 52.9626 15.936 53.2346 16.024C53.5066 16.104 53.6986 16.144 53.8106 16.144L55.5026 15.856C55.5986 15.984 55.6466 16.128 55.6466 16.288C55.6466 16.44 55.6226 16.564 55.5746 16.66C55.2546 16.644 54.7666 16.632 54.1106 16.624C54.3426 16.832 54.5226 17.08 54.6506 17.368C54.7866 17.648 54.8546 17.924 54.8546 18.196C54.8466 18.732 54.6866 19.176 54.3746 19.528C54.0706 19.88 53.5466 20.256 52.8026 20.656L51.5906 21.292ZM50.4506 24.616C50.4506 24.896 50.6226 25.192 50.9666 25.504C51.3186 25.824 51.8266 25.984 52.4906 25.984C53.1546 25.984 53.6906 25.836 54.0986 25.54C54.5066 25.252 54.7106 24.876 54.7106 24.412C54.7106 23.748 54.2506 23.372 53.3306 23.284C52.8106 23.236 52.2826 23.196 51.7466 23.164L50.8346 23.884C50.5786 24.1 50.4506 24.344 50.4506 24.616ZM50.7506 18.052C50.7506 18.588 50.9106 19.096 51.2306 19.576C51.5586 20.048 51.9466 20.284 52.3946 20.284C52.8426 20.284 53.1866 20.124 53.4266 19.804C53.6746 19.476 53.7986 19.024 53.7986 18.448C53.7986 17.872 53.6466 17.368 53.3426 16.936C53.0466 16.504 52.6626 16.288 52.1906 16.288C51.7266 16.288 51.3706 16.448 51.1226 16.768C50.8746 17.088 50.7506 17.516 50.7506 18.052ZM15.4452 26.636C15.2052 26.428 14.8972 26.324 14.5212 26.324C13.7452 26.324 13.3572 26.636 13.3572 27.26C13.3572 27.46 13.4292 27.652 13.5732 27.836C13.7252 28.012 13.9092 28.152 14.1252 28.256L15.0612 28.7C15.9732 29.14 16.4292 29.728 16.4292 30.464C16.4292 31.008 16.2132 31.44 15.7812 31.76C15.3492 32.08 14.8372 32.24 14.2452 32.24C13.9332 32.24 13.6052 32.208 13.2612 32.144C12.9252 32.088 12.6852 32.028 12.5412 31.964C12.5172 31.604 12.4452 31.104 12.3252 30.464C12.4132 30.408 12.4852 30.38 12.5412 30.38C12.6052 30.38 12.6492 30.388 12.6732 30.404C12.8332 30.884 12.9732 31.192 13.0932 31.328C13.1812 31.416 13.3372 31.512 13.5612 31.616C13.7852 31.72 14.0492 31.772 14.3532 31.772C14.6652 31.772 14.9332 31.688 15.1572 31.52C15.3812 31.352 15.4932 31.1 15.4932 30.764C15.4932 30.54 15.4492 30.372 15.3612 30.26C15.2732 30.148 15.1972 30.064 15.1332 30.008C15.0772 29.944 15.0092 29.888 14.9292 29.84C14.8572 29.792 14.7932 29.756 14.7372 29.732C14.6892 29.7 14.6372 29.672 14.5812 29.648C14.5332 29.616 14.5052 29.6 14.4972 29.6L13.5972 29.168C12.8212 28.8 12.4332 28.268 12.4332 27.572C12.4332 27.004 12.6492 26.584 13.0812 26.312C13.5132 26.032 14.0012 25.892 14.5452 25.892C14.8092 25.892 15.1052 25.928 15.4332 26C15.7692 26.064 16.0212 26.132 16.1892 26.204C16.1332 26.396 16.0692 26.844 15.9972 27.548C15.9572 27.58 15.9012 27.596 15.8292 27.596C15.7652 27.596 15.7012 27.588 15.6372 27.572C15.5732 27.172 15.5092 26.86 15.4452 26.636ZM23.7599 29.072C23.7599 30.848 22.7279 31.904 20.6639 32.24C19.8159 32.24 19.0999 31.94 18.5159 31.34C17.9399 30.732 17.6519 29.976 17.6519 29.072C17.6519 27.28 18.6879 26.22 20.7599 25.892C21.5999 25.892 22.3079 26.2 22.8839 26.816C23.4679 27.432 23.7599 28.184 23.7599 29.072ZM20.9279 31.724C22.0799 31.724 22.6559 30.988 22.6559 29.516C22.6559 28.684 22.4639 27.956 22.0799 27.332C21.6959 26.708 21.1879 26.396 20.5559 26.396C19.9239 26.396 19.4639 26.6 19.1759 27.008C18.8959 27.408 18.7559 27.984 18.7559 28.736C18.7559 29.48 18.9519 30.164 19.3439 30.788C19.7359 31.412 20.2639 31.724 20.9279 31.724ZM30.8263 29.072C30.8263 30.848 29.7943 31.904 27.7303 32.24C26.8823 32.24 26.1663 31.94 25.5823 31.34C25.0063 30.732 24.7183 29.976 24.7183 29.072C24.7183 27.28 25.7543 26.22 27.8263 25.892C28.6663 25.892 29.3743 26.2 29.9503 26.816C30.5343 27.432 30.8263 28.184 30.8263 29.072ZM27.9943 31.724C29.1463 31.724 29.7223 30.988 29.7223 29.516C29.7223 28.684 29.5303 27.956 29.1463 27.332C28.7623 26.708 28.2543 26.396 27.6223 26.396C26.9903 26.396 26.5303 26.6 26.2423 27.008C25.9623 27.408 25.8223 27.984 25.8223 28.736C25.8223 29.48 26.0183 30.164 26.4103 30.788C26.8023 31.412 27.3303 31.724 27.9943 31.724ZM32.1207 26.612L31.6527 26.624C31.6207 26.584 31.6047 26.532 31.6047 26.468C31.6047 26.404 31.6127 26.348 31.6287 26.3C32.1727 26.228 32.6167 26.116 32.9607 25.964C33.0727 25.916 33.1407 25.892 33.1647 25.892C33.2367 25.892 33.3247 26.004 33.4287 26.228C33.5327 26.452 33.6207 26.7 33.6927 26.972C34.5007 26.516 35.2887 26.156 36.0567 25.892C36.5447 25.892 36.9207 26.088 37.1847 26.48C37.4487 26.864 37.5807 27.376 37.5807 28.016L37.5567 29.6C37.5567 30.936 37.6167 31.616 37.7367 31.64C37.8567 31.656 38.0807 31.664 38.4087 31.664C38.4407 31.72 38.4567 31.78 38.4567 31.844C38.4567 31.908 38.4407 31.972 38.4087 32.036L37.3047 32C36.6407 32 36.1127 32.032 35.7207 32.096C35.6807 32.048 35.6607 31.98 35.6607 31.892L35.6727 31.796C35.9047 31.74 36.0847 31.664 36.2127 31.568C36.3407 31.464 36.4207 31.368 36.4527 31.28C36.4927 31.184 36.5247 31.044 36.5487 30.86C36.5727 30.668 36.5847 30.3 36.5847 29.756V28.76C36.5847 28.2 36.5207 27.728 36.3927 27.344C36.3367 27.192 36.2727 27.08 36.2007 27.008C36.0247 26.816 35.8127 26.72 35.5647 26.72C35.3167 26.72 35.0687 26.768 34.8207 26.864C34.5727 26.96 34.3847 27.048 34.2567 27.128C34.1287 27.208 33.9487 27.328 33.7167 27.488C33.6847 28.12 33.6687 28.968 33.6687 30.032C33.6687 31.088 33.7207 31.624 33.8247 31.64C33.9367 31.656 34.1407 31.664 34.4367 31.664C34.4687 31.72 34.4847 31.78 34.4847 31.844C34.4847 31.908 34.4687 31.972 34.4367 32.036L33.4167 32C32.8087 32 32.2807 32.032 31.8327 32.096C31.7927 32.048 31.7727 31.98 31.7727 31.892L31.7847 31.796C32.0167 31.74 32.1967 31.664 32.3247 31.568C32.4527 31.464 32.5327 31.368 32.5647 31.28C32.6047 31.184 32.6367 31.012 32.6607 30.764C32.6927 30.508 32.7087 29.964 32.7087 29.132C32.7087 28.3 32.7047 27.84 32.6967 27.752C32.6967 27.656 32.6927 27.536 32.6847 27.392C32.6767 27.248 32.6607 27.14 32.6367 27.068C32.6127 26.996 32.5767 26.92 32.5287 26.84C32.4487 26.688 32.3127 26.612 32.1207 26.612ZM40.207 32.24C39.895 31.976 39.663 31.676 39.511 31.34C39.799 31.036 40.111 30.808 40.447 30.656C40.775 30.968 40.991 31.272 41.095 31.568C41.023 31.68 40.895 31.804 40.711 31.94C40.527 32.068 40.359 32.168 40.207 32.24ZM43.0429 32.24C42.7309 31.976 42.4989 31.676 42.3469 31.34C42.6349 31.036 42.9469 30.808 43.2829 30.656C43.6109 30.968 43.8269 31.272 43.9309 31.568C43.8589 31.68 43.7309 31.804 43.5469 31.94C43.3629 32.068 43.1949 32.168 43.0429 32.24ZM45.8789 32.24C45.5669 31.976 45.3349 31.676 45.1829 31.34C45.4709 31.036 45.7829 30.808 46.1189 30.656C46.4469 30.968 46.6629 31.272 46.7669 31.568C46.6949 31.68 46.5669 31.804 46.3829 31.94C46.1989 32.068 46.0309 32.168 45.8789 32.24Z" fill="black"/>
</svg>
