<svg width="36" height="228" viewBox="0 0 36 228" fill="none" xmlns="http://www.w3.org/2000/svg">
<path d="M21 13H15V199.182H21V13Z" fill="#0088CC"/>
<path d="M20 114.189H16V205H20V114.189Z" fill="white"/>
<path d="M18 36C27.9411 36 36 27.9411 36 18C36 8.05887 27.9411 0 18 0C8.05887 0 0 8.05887 0 18C0 27.9411 8.05887 36 18 36Z" fill="#0088CC"/>
<path d="M18 227C27.3888 227 35 219.389 35 210C35 200.611 27.3888 193 18 193C8.61116 193 1 200.611 1 210C1 219.389 8.61116 227 18 227Z" fill="white" stroke="#0088CC" stroke-width="2"/>
</svg>
