<svg width="25" height="24" viewBox="0 0 25 24" fill="none" xmlns="http://www.w3.org/2000/svg">
<path d="M17.186 8.02217C19.1104 8.02217 20.9559 8.77132 22.3166 10.1048C23.6774 11.4383 24.4418 13.2469 24.4418 15.1328V23.4285H19.6046V15.1328C19.6046 14.5042 19.3498 13.9013 18.8962 13.4568C18.4426 13.0123 17.8274 12.7626 17.186 12.7626C16.5445 12.7626 15.9294 13.0123 15.4758 13.4568C15.0222 13.9013 14.7674 14.5042 14.7674 15.1328V23.4285H9.93018V15.1328C9.93018 13.2469 10.6946 11.4383 12.0554 10.1048C13.4161 8.77132 15.2616 8.02217 17.186 8.02217Z" fill="black"/>
<path d="M0.255859 9.20744H5.09307V23.4287H0.255859V9.20744Z" fill="black"/>
<path d="M2.67446 5.65198C4.01022 5.65198 5.09307 4.5908 5.09307 3.28177C5.09307 1.97274 4.01022 0.91156 2.67446 0.91156C1.33871 0.91156 0.255859 1.97274 0.255859 3.28177C0.255859 4.5908 1.33871 5.65198 2.67446 5.65198Z" fill="black"/>
</svg>
