<svg width="34" height="22" viewBox="0 0 34 22" fill="none" xmlns="http://www.w3.org/2000/svg">
<path d="M33 2C33.5523 2 34 1.55228 34 1C34 0.447715 33.5523 0 33 0V2ZM1 0C0.447715 0 0 0.447715 0 1C0 1.55228 0.447715 2 1 2V0ZM1 2H17V0H1V2ZM17 2H33V0H17V2Z" fill="black"/>
<path d="M33 12C33.5523 12 34 11.5523 34 11C34 10.4477 33.5523 10 33 10V12ZM1 10C0.447715 10 0 10.4477 0 11C0 11.5523 0.447715 12 1 12V10ZM1 12H17V10H1V12ZM17 12H33V10H17V12Z" fill="black"/>
<path d="M33 22C33.5523 22 34 21.5523 34 21C34 20.4477 33.5523 20 33 20V22ZM1 20C0.447715 20 0 20.4477 0 21C0 21.5523 0.447715 22 1 22V20ZM1 22H17V20H1V22ZM17 22H33V20H17V22Z" fill="black"/>
</svg>
