<svg width="65" height="65" viewBox="0 0 65 65" fill="none" xmlns="http://www.w3.org/2000/svg">
<circle cx="32.5" cy="32.5" r="32.5" fill="#E1B1BA"/>
<path d="M54.0036 26L47 32.9963" stroke="black" stroke-width="2" stroke-linecap="round" stroke-linejoin="round"/>
<path d="M10.446 34.96C10.446 37.8373 10.94 39.276 11.928 39.276C12.656 39.276 13.6007 39.0333 14.762 38.548C15.022 38.6347 15.152 38.8773 15.152 39.276C13.8867 39.952 12.4307 40.55 10.784 41.07C9.9693 41.07 9.3453 40.654 8.912 39.822C8.496 38.99 8.288 37.872 8.288 36.468V30.436C8.288 29.4133 8.2273 28.902 8.106 28.902L6.182 28.928C6.0607 28.8933 6 28.8067 6 28.668C6.0867 28.4947 6.1647 28.1827 6.234 27.732H8.08C8.2187 27.732 8.288 27.4287 8.288 26.822L8.262 24.612C8.9033 24.352 9.562 23.8147 10.238 23C10.446 23 10.602 23.052 10.706 23.156C10.55 24.976 10.472 26.5013 10.472 27.732C11.7373 27.732 12.9853 27.6713 14.216 27.55C14.3373 27.6193 14.398 27.7233 14.398 27.862C14.294 28.0353 14.2073 28.356 14.138 28.824L10.446 28.876V34.96ZM29.2271 34.206C29.2271 38.054 26.9911 40.342 22.5191 41.07C20.6818 41.07 19.1305 40.42 17.8651 39.12C16.6171 37.8027 15.9931 36.1647 15.9931 34.206C15.9931 30.3233 18.2378 28.0267 22.7271 27.316C24.5471 27.316 26.0811 27.9833 27.3291 29.318C28.5945 30.6527 29.2271 32.282 29.2271 34.206ZM23.0911 39.952C25.5871 39.952 26.8351 38.3573 26.8351 35.168C26.8351 33.3653 26.4191 31.788 25.5871 30.436C24.7551 29.084 23.6545 28.408 22.2851 28.408C20.9158 28.408 19.9191 28.85 19.2951 29.734C18.6885 30.6007 18.3851 31.8487 18.3851 33.478C18.3851 35.09 18.8098 36.572 19.6591 37.924C20.5085 39.276 21.6525 39.952 23.0911 39.952ZM31.7977 29.032L30.8877 29.084C30.8184 28.9627 30.7837 28.8067 30.7837 28.616L30.8097 28.382C32.023 28.174 32.9244 27.8793 33.5137 27.498L33.8257 27.316C34.0857 27.316 34.3804 27.5413 34.7097 27.992C35.039 28.4253 35.221 28.9627 35.2557 29.604C36.2437 28.98 36.963 28.5553 37.4137 28.33C37.8817 28.1047 38.6877 27.7667 39.8317 27.316C41.097 27.5587 42.2237 28.3387 43.2117 29.656C44.217 30.956 44.7197 32.4727 44.7197 34.206C44.7197 35.194 44.5637 36.0867 44.2517 36.884C43.9397 37.664 43.5237 38.2967 43.0037 38.782C42.4837 39.25 41.9464 39.6487 41.3917 39.978C40.837 40.3073 40.265 40.55 39.6757 40.706C38.6704 40.9487 37.9164 41.07 37.4137 41.07C36.9284 41.07 36.1657 40.94 35.1257 40.68V42.136C35.1257 46.764 35.2297 49.0867 35.4377 49.104C35.9577 49.156 36.9284 49.182 38.3497 49.182C38.3844 49.3033 38.4017 49.442 38.4017 49.598C38.4017 49.754 38.3844 49.884 38.3497 49.988L34.6057 49.91C33.115 49.91 31.9017 49.9793 30.9657 50.118C30.8617 50.014 30.8097 49.8667 30.8097 49.676L30.8617 49.468C31.5724 49.2947 32.049 49.052 32.2917 48.74C32.5517 48.428 32.7164 48.0293 32.7857 47.544C32.959 46.3307 33.0457 43.488 33.0457 39.016V32.672C33.0457 31.2853 32.959 30.332 32.7857 29.812C32.6297 29.292 32.3004 29.032 31.7977 29.032ZM35.1257 38.496C35.1257 38.756 35.6197 39.068 36.6077 39.432C37.5957 39.7787 38.289 39.952 38.6877 39.952C39.797 39.952 40.7157 39.484 41.4437 38.548C42.1717 37.612 42.5357 36.4247 42.5357 34.986C42.5357 33.53 42.111 32.1953 41.2617 30.982C40.4124 29.7513 39.511 29.136 38.5577 29.136C37.6044 29.136 36.4777 29.682 35.1777 30.774C35.143 32.2127 35.1257 34.7867 35.1257 38.496Z" fill="black"/>
<path d="M54 40.5714V26" stroke="black" stroke-width="2" stroke-linecap="round" stroke-linejoin="round"/>
<path d="M61 33L54 26" stroke="black" stroke-width="2" stroke-linecap="round" stroke-linejoin="round"/>
</svg>
