<svg width="73" height="73" viewBox="0 0 73 73" fill="none" xmlns="http://www.w3.org/2000/svg">
<g filter="url(#filter0_d)">
<circle cx="36.5" cy="32.5" r="32.5" fill="#E1B1BA"/>
</g>
<g filter="url(#filter1_d)">
<path d="M58.0036 26L51 32.9963" stroke="black" stroke-width="2" stroke-linecap="round" stroke-linejoin="round" shape-rendering="crispEdges"/>
</g>
<g filter="url(#filter2_d)">
<path d="M14.446 34.96C14.446 37.8373 14.94 39.276 15.928 39.276C16.656 39.276 17.6007 39.0333 18.762 38.548C19.022 38.6347 19.152 38.8773 19.152 39.276C17.8867 39.952 16.4307 40.55 14.784 41.07C13.9693 41.07 13.3453 40.654 12.912 39.822C12.496 38.99 12.288 37.872 12.288 36.468V30.436C12.288 29.4133 12.2273 28.902 12.106 28.902L10.182 28.928C10.0607 28.8933 10 28.8067 10 28.668C10.0867 28.4947 10.1647 28.1827 10.234 27.732H12.08C12.2187 27.732 12.288 27.4287 12.288 26.822L12.262 24.612C12.9033 24.352 13.562 23.8147 14.238 23C14.446 23 14.602 23.052 14.706 23.156C14.55 24.976 14.472 26.5013 14.472 27.732C15.7373 27.732 16.9853 27.6713 18.216 27.55C18.3373 27.6193 18.398 27.7233 18.398 27.862C18.294 28.0353 18.2073 28.356 18.138 28.824L14.446 28.876V34.96ZM33.2271 34.206C33.2271 38.054 30.9911 40.342 26.5191 41.07C24.6818 41.07 23.1305 40.42 21.8651 39.12C20.6171 37.8027 19.9931 36.1647 19.9931 34.206C19.9931 30.3233 22.2378 28.0267 26.7271 27.316C28.5471 27.316 30.0811 27.9833 31.3291 29.318C32.5945 30.6527 33.2271 32.282 33.2271 34.206ZM27.0911 39.952C29.5871 39.952 30.8351 38.3573 30.8351 35.168C30.8351 33.3653 30.4191 31.788 29.5871 30.436C28.7551 29.084 27.6545 28.408 26.2851 28.408C24.9158 28.408 23.9191 28.85 23.2951 29.734C22.6885 30.6007 22.3851 31.8487 22.3851 33.478C22.3851 35.09 22.8098 36.572 23.6591 37.924C24.5085 39.276 25.6525 39.952 27.0911 39.952ZM35.7977 29.032L34.8877 29.084C34.8184 28.9627 34.7837 28.8067 34.7837 28.616L34.8097 28.382C36.023 28.174 36.9244 27.8793 37.5137 27.498L37.8257 27.316C38.0857 27.316 38.3804 27.5413 38.7097 27.992C39.039 28.4253 39.221 28.9627 39.2557 29.604C40.2437 28.98 40.963 28.5553 41.4137 28.33C41.8817 28.1047 42.6877 27.7667 43.8317 27.316C45.097 27.5587 46.2237 28.3387 47.2117 29.656C48.217 30.956 48.7197 32.4727 48.7197 34.206C48.7197 35.194 48.5637 36.0867 48.2517 36.884C47.9397 37.664 47.5237 38.2967 47.0037 38.782C46.4837 39.25 45.9464 39.6487 45.3917 39.978C44.837 40.3073 44.265 40.55 43.6757 40.706C42.6704 40.9487 41.9164 41.07 41.4137 41.07C40.9284 41.07 40.1657 40.94 39.1257 40.68V42.136C39.1257 46.764 39.2297 49.0867 39.4377 49.104C39.9577 49.156 40.9284 49.182 42.3497 49.182C42.3844 49.3033 42.4017 49.442 42.4017 49.598C42.4017 49.754 42.3844 49.884 42.3497 49.988L38.6057 49.91C37.115 49.91 35.9017 49.9793 34.9657 50.118C34.8617 50.014 34.8097 49.8667 34.8097 49.676L34.8617 49.468C35.5724 49.2947 36.049 49.052 36.2917 48.74C36.5517 48.428 36.7164 48.0293 36.7857 47.544C36.959 46.3307 37.0457 43.488 37.0457 39.016V32.672C37.0457 31.2853 36.959 30.332 36.7857 29.812C36.6297 29.292 36.3004 29.032 35.7977 29.032ZM39.1257 38.496C39.1257 38.756 39.6197 39.068 40.6077 39.432C41.5957 39.7787 42.289 39.952 42.6877 39.952C43.797 39.952 44.7157 39.484 45.4437 38.548C46.1717 37.612 46.5357 36.4247 46.5357 34.986C46.5357 33.53 46.111 32.1953 45.2617 30.982C44.4124 29.7513 43.511 29.136 42.5577 29.136C41.6044 29.136 40.4777 29.682 39.1777 30.774C39.143 32.2127 39.1257 34.7867 39.1257 38.496Z" fill="black"/>
</g>
<g filter="url(#filter3_d)">
<path d="M58 40.5714V26" stroke="black" stroke-width="2" stroke-linecap="round" stroke-linejoin="round" shape-rendering="crispEdges"/>
</g>
<g filter="url(#filter4_d)">
<path d="M65 33L58 26" stroke="black" stroke-width="2" stroke-linecap="round" stroke-linejoin="round" shape-rendering="crispEdges"/>
</g>
<defs>
<filter id="filter0_d" x="0" y="0" width="73" height="73" filterUnits="userSpaceOnUse" color-interpolation-filters="sRGB">
<feFlood flood-opacity="0" result="BackgroundImageFix"/>
<feColorMatrix in="SourceAlpha" type="matrix" values="0 0 0 0 0 0 0 0 0 0 0 0 0 0 0 0 0 0 127 0" result="hardAlpha"/>
<feOffset dy="4"/>
<feGaussianBlur stdDeviation="2"/>
<feComposite in2="hardAlpha" operator="out"/>
<feColorMatrix type="matrix" values="0 0 0 0 0 0 0 0 0 0 0 0 0 0 0 0 0 0 0.25 0"/>
<feBlend mode="normal" in2="BackgroundImageFix" result="effect1_dropShadow"/>
<feBlend mode="normal" in="SourceGraphic" in2="effect1_dropShadow" result="shape"/>
</filter>
<filter id="filter1_d" x="46" y="25" width="17.0037" height="16.9963" filterUnits="userSpaceOnUse" color-interpolation-filters="sRGB">
<feFlood flood-opacity="0" result="BackgroundImageFix"/>
<feColorMatrix in="SourceAlpha" type="matrix" values="0 0 0 0 0 0 0 0 0 0 0 0 0 0 0 0 0 0 127 0" result="hardAlpha"/>
<feOffset dy="4"/>
<feGaussianBlur stdDeviation="2"/>
<feComposite in2="hardAlpha" operator="out"/>
<feColorMatrix type="matrix" values="0 0 0 0 0 0 0 0 0 0 0 0 0 0 0 0 0 0 0.25 0"/>
<feBlend mode="normal" in2="BackgroundImageFix" result="effect1_dropShadow"/>
<feBlend mode="normal" in="SourceGraphic" in2="effect1_dropShadow" result="shape"/>
</filter>
<filter id="filter2_d" x="6" y="23" width="46.7197" height="35.118" filterUnits="userSpaceOnUse" color-interpolation-filters="sRGB">
<feFlood flood-opacity="0" result="BackgroundImageFix"/>
<feColorMatrix in="SourceAlpha" type="matrix" values="0 0 0 0 0 0 0 0 0 0 0 0 0 0 0 0 0 0 127 0" result="hardAlpha"/>
<feOffset dy="4"/>
<feGaussianBlur stdDeviation="2"/>
<feComposite in2="hardAlpha" operator="out"/>
<feColorMatrix type="matrix" values="0 0 0 0 0 0 0 0 0 0 0 0 0 0 0 0 0 0 0.25 0"/>
<feBlend mode="normal" in2="BackgroundImageFix" result="effect1_dropShadow"/>
<feBlend mode="normal" in="SourceGraphic" in2="effect1_dropShadow" result="shape"/>
</filter>
<filter id="filter3_d" x="53" y="25" width="10" height="24.5714" filterUnits="userSpaceOnUse" color-interpolation-filters="sRGB">
<feFlood flood-opacity="0" result="BackgroundImageFix"/>
<feColorMatrix in="SourceAlpha" type="matrix" values="0 0 0 0 0 0 0 0 0 0 0 0 0 0 0 0 0 0 127 0" result="hardAlpha"/>
<feOffset dy="4"/>
<feGaussianBlur stdDeviation="2"/>
<feComposite in2="hardAlpha" operator="out"/>
<feColorMatrix type="matrix" values="0 0 0 0 0 0 0 0 0 0 0 0 0 0 0 0 0 0 0.25 0"/>
<feBlend mode="normal" in2="BackgroundImageFix" result="effect1_dropShadow"/>
<feBlend mode="normal" in="SourceGraphic" in2="effect1_dropShadow" result="shape"/>
</filter>
<filter id="filter4_d" x="53" y="25" width="17" height="17" filterUnits="userSpaceOnUse" color-interpolation-filters="sRGB">
<feFlood flood-opacity="0" result="BackgroundImageFix"/>
<feColorMatrix in="SourceAlpha" type="matrix" values="0 0 0 0 0 0 0 0 0 0 0 0 0 0 0 0 0 0 127 0" result="hardAlpha"/>
<feOffset dy="4"/>
<feGaussianBlur stdDeviation="2"/>
<feComposite in2="hardAlpha" operator="out"/>
<feColorMatrix type="matrix" values="0 0 0 0 0 0 0 0 0 0 0 0 0 0 0 0 0 0 0.25 0"/>
<feBlend mode="normal" in2="BackgroundImageFix" result="effect1_dropShadow"/>
<feBlend mode="normal" in="SourceGraphic" in2="effect1_dropShadow" result="shape"/>
</filter>
</defs>
</svg>
