<svg width="69" height="64" viewBox="0 0 69 64" fill="none" xmlns="http://www.w3.org/2000/svg">
<ellipse cx="34.5" cy="32" rx="34.5" ry="32" fill="#FEF6F1"/>
<path d="M58 36.5714V22" stroke="black" stroke-width="2" stroke-linecap="round" stroke-linejoin="round"/>
<path d="M65 29L58 22" stroke="black" stroke-width="2" stroke-linecap="round" stroke-linejoin="round"/>
<path d="M58.0036 22L51 28.9963" stroke="black" stroke-width="2" stroke-linecap="round" stroke-linejoin="round"/>
<path d="M13.446 33.96C13.446 36.8373 13.94 38.276 14.928 38.276C15.656 38.276 16.6007 38.0333 17.762 37.548C18.022 37.6347 18.152 37.8773 18.152 38.276C16.8867 38.952 15.4307 39.55 13.784 40.07C12.9693 40.07 12.3453 39.654 11.912 38.822C11.496 37.99 11.288 36.872 11.288 35.468V29.436C11.288 28.4133 11.2273 27.902 11.106 27.902L9.182 27.928C9.0607 27.8933 9 27.8067 9 27.668C9.0867 27.4947 9.1647 27.1827 9.234 26.732H11.08C11.2187 26.732 11.288 26.4287 11.288 25.822L11.262 23.612C11.9033 23.352 12.562 22.8147 13.238 22C13.446 22 13.602 22.052 13.706 22.156C13.55 23.976 13.472 25.5013 13.472 26.732C14.7373 26.732 15.9853 26.6713 17.216 26.55C17.3373 26.6193 17.398 26.7233 17.398 26.862C17.294 27.0353 17.2073 27.356 17.138 27.824L13.446 27.876V33.96ZM32.2271 33.206C32.2271 37.054 29.9911 39.342 25.5191 40.07C23.6818 40.07 22.1305 39.42 20.8651 38.12C19.6171 36.8027 18.9931 35.1647 18.9931 33.206C18.9931 29.3233 21.2378 27.0267 25.7271 26.316C27.5471 26.316 29.0811 26.9833 30.3291 28.318C31.5945 29.6527 32.2271 31.282 32.2271 33.206ZM26.0911 38.952C28.5871 38.952 29.8351 37.3573 29.8351 34.168C29.8351 32.3653 29.4191 30.788 28.5871 29.436C27.7551 28.084 26.6545 27.408 25.2851 27.408C23.9158 27.408 22.9191 27.85 22.2951 28.734C21.6885 29.6007 21.3851 30.8487 21.3851 32.478C21.3851 34.09 21.8098 35.572 22.6591 36.924C23.5085 38.276 24.6525 38.952 26.0911 38.952ZM34.7977 28.032L33.8877 28.084C33.8184 27.9627 33.7837 27.8067 33.7837 27.616L33.8097 27.382C35.023 27.174 35.9244 26.8793 36.5137 26.498L36.8257 26.316C37.0857 26.316 37.3804 26.5413 37.7097 26.992C38.039 27.4253 38.221 27.9627 38.2557 28.604C39.2437 27.98 39.963 27.5553 40.4137 27.33C40.8817 27.1047 41.6877 26.7667 42.8317 26.316C44.097 26.5587 45.2237 27.3387 46.2117 28.656C47.217 29.956 47.7197 31.4727 47.7197 33.206C47.7197 34.194 47.5637 35.0867 47.2517 35.884C46.9397 36.664 46.5237 37.2967 46.0037 37.782C45.4837 38.25 44.9464 38.6487 44.3917 38.978C43.837 39.3073 43.265 39.55 42.6757 39.706C41.6704 39.9487 40.9164 40.07 40.4137 40.07C39.9284 40.07 39.1657 39.94 38.1257 39.68V41.136C38.1257 45.764 38.2297 48.0867 38.4377 48.104C38.9577 48.156 39.9284 48.182 41.3497 48.182C41.3844 48.3033 41.4017 48.442 41.4017 48.598C41.4017 48.754 41.3844 48.884 41.3497 48.988L37.6057 48.91C36.115 48.91 34.9017 48.9793 33.9657 49.118C33.8617 49.014 33.8097 48.8667 33.8097 48.676L33.8617 48.468C34.5724 48.2947 35.049 48.052 35.2917 47.74C35.5517 47.428 35.7164 47.0293 35.7857 46.544C35.959 45.3307 36.0457 42.488 36.0457 38.016V31.672C36.0457 30.2853 35.959 29.332 35.7857 28.812C35.6297 28.292 35.3004 28.032 34.7977 28.032ZM38.1257 37.496C38.1257 37.756 38.6197 38.068 39.6077 38.432C40.5957 38.7787 41.289 38.952 41.6877 38.952C42.797 38.952 43.7157 38.484 44.4437 37.548C45.1717 36.612 45.5357 35.4247 45.5357 33.986C45.5357 32.53 45.111 31.1953 44.2617 29.982C43.4124 28.7513 42.511 28.136 41.5577 28.136C40.6044 28.136 39.4777 28.682 38.1777 29.774C38.143 31.2127 38.1257 33.7867 38.1257 37.496Z" fill="black"/>
</svg>
