<svg width="113" height="50" viewBox="0 0 113 50" fill="none" xmlns="http://www.w3.org/2000/svg">
<path d="M88 0H25C11.1929 0 0 11.1929 0 25C0 38.8071 11.1929 50 25 50H88C101.807 50 113 38.8071 113 25C113 11.1929 101.807 0 88 0Z" fill="#FEF6F1"/>
<path d="M55.862 26.41C55.862 29.2873 56.356 30.726 57.344 30.726C58.072 30.726 59.0167 30.4833 60.178 29.998C60.438 30.0847 60.568 30.3273 60.568 30.726C59.3027 31.402 57.8467 32 56.2 32.52C55.3853 32.52 54.7613 32.104 54.328 31.272C53.912 30.44 53.704 29.322 53.704 27.918V21.886C53.704 20.8633 53.6433 20.352 53.522 20.352L51.598 20.378C51.4767 20.3433 51.416 20.2567 51.416 20.118C51.5027 19.9447 51.5807 19.6327 51.65 19.182H53.496C53.6347 19.182 53.704 18.8787 53.704 18.272L53.678 16.062C54.3193 15.802 54.978 15.2647 55.654 14.45C55.862 14.45 56.018 14.502 56.122 14.606C55.966 16.426 55.888 17.9513 55.888 19.182C57.1533 19.182 58.4013 19.1213 59.632 19C59.7533 19.0693 59.814 19.1733 59.814 19.312C59.71 19.4853 59.6233 19.806 59.554 20.274L55.862 20.326V26.41ZM74.6431 25.656C74.6431 29.504 72.4071 31.792 67.9351 32.52C66.0978 32.52 64.5465 31.87 63.2811 30.57C62.0331 29.2527 61.4091 27.6147 61.4091 25.656C61.4091 21.7733 63.6538 19.4767 68.1431 18.766C69.9631 18.766 71.4971 19.4333 72.7451 20.768C74.0105 22.1027 74.6431 23.732 74.6431 25.656ZM68.5071 31.402C71.0031 31.402 72.2511 29.8073 72.2511 26.618C72.2511 24.8153 71.8351 23.238 71.0031 21.886C70.1711 20.534 69.0705 19.858 67.7011 19.858C66.3318 19.858 65.3351 20.3 64.7111 21.184C64.1045 22.0507 63.8011 23.2987 63.8011 24.928C63.8011 26.54 64.2258 28.022 65.0751 29.374C65.9245 30.726 67.0685 31.402 68.5071 31.402ZM77.2137 20.482L76.3037 20.534C76.2344 20.4127 76.1997 20.2567 76.1997 20.066L76.2257 19.832C77.439 19.624 78.3404 19.3293 78.9297 18.948L79.2417 18.766C79.5017 18.766 79.7964 18.9913 80.1257 19.442C80.455 19.8753 80.637 20.4127 80.6717 21.054C81.6597 20.43 82.379 20.0053 82.8297 19.78C83.2977 19.5547 84.1037 19.2167 85.2477 18.766C86.513 19.0087 87.6397 19.7887 88.6277 21.106C89.633 22.406 90.1357 23.9227 90.1357 25.656C90.1357 26.644 89.9797 27.5367 89.6677 28.334C89.3557 29.114 88.9397 29.7467 88.4197 30.232C87.8997 30.7 87.3624 31.0987 86.8077 31.428C86.253 31.7573 85.681 32 85.0917 32.156C84.0864 32.3987 83.3324 32.52 82.8297 32.52C82.3444 32.52 81.5817 32.39 80.5417 32.13V33.586C80.5417 38.214 80.6457 40.5367 80.8537 40.554C81.3737 40.606 82.3444 40.632 83.7657 40.632C83.8004 40.7533 83.8177 40.892 83.8177 41.048C83.8177 41.204 83.8004 41.334 83.7657 41.438L80.0217 41.36C78.531 41.36 77.3177 41.4293 76.3817 41.568C76.2777 41.464 76.2257 41.3167 76.2257 41.126L76.2777 40.918C76.9884 40.7447 77.465 40.502 77.7077 40.19C77.9677 39.878 78.1324 39.4793 78.2017 38.994C78.375 37.7807 78.4617 34.938 78.4617 30.466V24.122C78.4617 22.7353 78.375 21.782 78.2017 21.262C78.0457 20.742 77.7164 20.482 77.2137 20.482ZM80.5417 29.946C80.5417 30.206 81.0357 30.518 82.0237 30.882C83.0117 31.2287 83.705 31.402 84.1037 31.402C85.213 31.402 86.1317 30.934 86.8597 29.998C87.5877 29.062 87.9517 27.8747 87.9517 26.436C87.9517 24.98 87.527 23.6453 86.6777 22.432C85.8284 21.2013 84.927 20.586 83.9737 20.586C83.0204 20.586 81.8937 21.132 80.5937 22.224C80.559 23.6627 80.5417 26.2367 80.5417 29.946Z" fill="black"/>
<path d="M30.5 34.0001V19.4287" stroke="black" stroke-width="2" stroke-linecap="round" stroke-linejoin="round"/>
<path d="M22 25.5L30.5 17C30.5 17 35.6805 22.1805 39 25.5" stroke="black" stroke-width="2" stroke-linecap="round" stroke-linejoin="round"/>
</svg>