<svg width="28" height="22" viewBox="0 0 28 22" fill="none" xmlns="http://www.w3.org/2000/svg">
<path d="M27.0929 0.0119171C25.9349 0.812429 24.6527 1.42469 23.2957 1.82513C22.5674 1.00446 21.5995 0.422783 20.5228 0.158783C19.4462 -0.105218 18.3128 -0.0388106 17.2759 0.349024C16.239 0.736859 15.3487 1.42741 14.7254 2.32728C14.102 3.22714 13.7757 4.29291 13.7906 5.38044V6.56555C11.6654 6.61955 9.55959 6.15765 7.66066 5.22098C5.76174 4.28431 4.12866 2.90196 2.90689 1.19702C2.90689 1.19702 -1.93032 11.863 8.9534 16.6034C6.46287 18.2601 3.49601 19.0908 0.488281 18.9736C11.372 24.8991 24.6743 18.9736 24.6743 5.34489C24.6732 5.01478 24.6408 4.68549 24.5776 4.36125C25.8118 3.16844 26.6828 1.66243 27.0929 0.0119171Z" fill="#FEF6F1"/>
</svg>
