<svg width="1837" height="1344" viewBox="0 0 1837 1344" fill="none" xmlns="http://www.w3.org/2000/svg">
<circle cx="797" cy="827" r="4" fill="#F2D1B6"/>
<circle cx="84" cy="1249" r="4" fill="#F2D1B6"/>
<circle cx="1040" cy="810" r="4" fill="#F2D1B6"/>
<circle cx="1650" cy="1340" r="4" fill="#F2D1B6"/>
<circle cx="1825" cy="128" r="4" fill="#F2D1B6"/>
<circle cx="1754" cy="53" r="4" fill="#F2D1B6"/>
<path d="M1825.19 53.3658C1810.02 28.2981 1806.25 22.983 1785.6 28.6155C1769.08 33.1216 1756.97 14.0827 1752.97 4" stroke="#F2D1B6" stroke-width="6" stroke-linecap="round" stroke-linejoin="round"/>
<path d="M79.6055 1218.21C50.4912 1221.5 44.0845 1222.71 40.5658 1243.82C37.7508 1260.7 15.3894 1263.75 4.56055 1263.16" stroke="#F2D1B6" stroke-width="6" stroke-linecap="round" stroke-linejoin="round"/>
<path d="M801 782C785 791.5 775 793.5 780 808.5C784 820.5 770.333 832.833 763 837.5" stroke="#F2D1B6" stroke-width="5" stroke-linecap="round" stroke-linejoin="round"/>
<path d="M1676 1225C1660 1234.5 1650 1236.5 1655 1251.5C1659 1263.5 1645.33 1275.83 1638 1280.5" stroke="#F2D1B6" stroke-width="5" stroke-linecap="round" stroke-linejoin="round"/>
<path d="M1007.84 833.446C1010.54 838.133 1011.75 842.954 1011.62 846.886C1011.5 850.864 1010.06 853.517 1007.98 854.717C1005.89 855.917 1002.88 855.827 999.376 853.94C995.912 852.075 992.347 848.614 989.647 843.926C986.947 839.238 985.743 834.417 985.868 830.485C985.994 826.507 987.429 823.855 989.513 822.654C991.597 821.454 994.612 821.545 998.115 823.431C1001.58 825.297 1005.14 828.758 1007.84 833.446Z" stroke="#F2D1B6" stroke-width="5"/>
<path d="M1625.84 1310.45C1628.54 1315.13 1629.75 1319.95 1629.62 1323.89C1629.5 1327.86 1628.06 1330.52 1625.98 1331.72C1623.89 1332.92 1620.88 1332.83 1617.38 1330.94C1613.91 1329.07 1610.35 1325.61 1607.65 1320.93C1604.95 1316.24 1603.74 1311.42 1603.87 1307.48C1603.99 1303.51 1605.43 1300.85 1607.51 1299.65C1609.6 1298.45 1612.61 1298.54 1616.12 1300.43C1619.58 1302.3 1623.14 1305.76 1625.84 1310.45Z" stroke="#F2D1B6" stroke-width="5"/>
<path d="M154.533 583.114C152.563 588.153 149.555 592.107 146.408 594.469C143.225 596.858 140.258 597.398 138.018 596.522C135.778 595.646 133.964 593.237 133.245 589.324C132.534 585.454 133.004 580.508 134.974 575.469C136.944 570.43 139.952 566.476 143.099 564.114C146.281 561.726 149.249 561.186 151.489 562.061C153.729 562.937 155.543 565.346 156.262 569.26C156.973 573.129 156.502 578.076 154.533 583.114Z" stroke="#F2D1B6" stroke-width="5"/>
</svg>
