<svg width="1920" height="739" viewBox="0 0 1920 739" fill="none" xmlns="http://www.w3.org/2000/svg">
<path d="M1920 0H0V739H1920V0Z" fill="#E1B1BA"/>
<path d="M1239 283.5C1240.5 271.5 1242 256 1260.5 254C1275.3 252.4 1282.33 238.667 1284 232" stroke="#F2D1B6" stroke-width="6" stroke-linecap="round" stroke-linejoin="round"/>
<path d="M1509 119C1516 142 1522 139.5 1532.5 151.5C1540.9 161.1 1539.67 170.833 1538 174.5" stroke="#F2D1B6" stroke-width="5" stroke-linecap="round" stroke-linejoin="round"/>
<path d="M1883 651C1890 674 1896 671.5 1906.5 683.5C1914.9 693.1 1913.67 702.833 1912 706.5" stroke="#F2D1B6" stroke-width="5" stroke-linecap="round" stroke-linejoin="round"/>
<path d="M945 143C952 166 958 163.5 968.5 175.5C976.9 185.1 975.67 194.833 974 198.5" stroke="#F2D1B6" stroke-width="5" stroke-linecap="round" stroke-linejoin="round"/>
<path d="M170 328C143 339 155.5 354 146 366" stroke="#F2D1B6" stroke-width="5" stroke-linecap="round" stroke-linejoin="round"/>
<path d="M1087 633C1060 644 1072.5 659 1063 671" stroke="#F2D1B6" stroke-width="5" stroke-linecap="round" stroke-linejoin="round"/>
<path d="M517 463.5C493.5 446 488 442.5 471 455.5C457.4 465.9 439 452.833 431.5 445" stroke="#F2D1B6" stroke-width="6" stroke-linecap="round" stroke-linejoin="round"/>
<path d="M213.5 174.5C190 157 184.5 153.5 167.5 166.5C153.9 176.9 135.5 163.833 128 156" stroke="#F2D1B6" stroke-width="6" stroke-linecap="round" stroke-linejoin="round"/>
<path d="M1524.5 369.5C1501 352 1495.5 348.5 1478.5 361.5C1464.9 371.9 1446.5 358.833 1439 351" stroke="#F2D1B6" stroke-width="6" stroke-linecap="round" stroke-linejoin="round"/>
<path d="M1897.5 94.5C1874 77 1868.5 73.5 1851.5 86.5C1837.9 96.9 1819.5 83.8333 1812 76" stroke="#F2D1B6" stroke-width="5" stroke-linecap="round" stroke-linejoin="round"/>
<path d="M1738.5 292.5C1715 275 1709.5 271.5 1692.5 284.5C1678.9 294.9 1660.5 281.833 1653 274" stroke="#F2D1B6" stroke-width="5" stroke-linecap="round" stroke-linejoin="round"/>
<path d="M1588.82 479.03C1559.77 482.905 1553.39 484.238 1550.3 505.414C1547.82 522.354 1525.52 525.843 1514.68 525.47" stroke="#F2D1B6" stroke-width="5" stroke-linecap="round" stroke-linejoin="round"/>
<path d="M199.015 687.505C206.969 657.207 170.697 662.577 169.33 625.829C168.236 596.431 169.804 596.524 170.725 600.245" stroke="#F2D1B6" stroke-width="5" stroke-linecap="round" stroke-linejoin="round"/>
<path d="M769.5 667C753.5 676.5 743.5 678.5 748.5 693.5C752.5 705.5 738.833 717.833 731.5 722.5" stroke="#F2D1B6" stroke-width="5" stroke-linecap="round" stroke-linejoin="round"/>
<path d="M752.845 614.446C755.544 619.133 756.748 623.954 756.623 627.886C756.497 631.864 755.063 634.517 752.978 635.717C750.894 636.917 747.88 636.827 744.376 634.94C740.912 633.075 737.347 629.614 734.647 624.926C731.947 620.238 730.743 615.417 730.868 611.485C730.994 607.507 732.429 604.855 734.513 603.654C736.597 602.454 739.612 602.545 743.115 604.431C746.579 606.297 750.145 609.758 752.845 614.446Z" stroke="#F2D1B6" stroke-width="5"/>
<path d="M1125.99 260.584C1128.68 265.271 1129.89 270.092 1129.76 274.024C1129.64 278.002 1128.2 280.655 1126.12 281.855C1124.03 283.055 1121.02 282.965 1117.52 281.078C1114.05 279.213 1110.49 275.752 1107.79 271.064C1105.09 266.376 1103.88 261.555 1104.01 257.623C1104.13 253.645 1105.57 250.993 1107.65 249.792C1109.74 248.592 1112.75 248.683 1116.26 250.569C1119.72 252.435 1123.29 255.896 1125.99 260.584Z" stroke="#F2D1B6" stroke-width="5"/>
<path d="M1401.99 663.584C1404.68 668.271 1405.89 673.092 1405.76 677.024C1405.64 681.002 1404.2 683.655 1402.12 684.855C1400.03 686.055 1397.02 685.965 1393.52 684.078C1390.05 682.213 1386.49 678.752 1383.79 674.064C1381.09 669.376 1379.88 664.555 1380.01 660.623C1380.13 656.645 1381.57 653.993 1383.65 652.792C1385.74 651.592 1388.75 651.683 1392.26 653.569C1395.72 655.435 1399.29 658.896 1401.99 663.584Z" stroke="#F2D1B6" stroke-width="5"/>
<path d="M88.6651 452.221C93.7783 450.454 98.7396 450.182 102.578 451.046C106.46 451.921 108.794 453.83 109.58 456.104C110.365 458.377 109.707 461.32 107.193 464.405C104.708 467.455 100.636 470.303 95.5234 472.07C90.4102 473.836 85.4489 474.109 81.6108 473.244C77.7287 472.37 75.3941 470.461 74.6086 468.187C73.8232 465.914 74.4811 462.971 76.9951 459.886C79.4806 456.836 83.552 453.988 88.6651 452.221Z" stroke="#F2D1B6" stroke-width="5"/>
<path d="M923.369 581.65C928.482 579.883 933.444 579.611 937.282 580.475C941.164 581.35 943.498 583.259 944.284 585.533C945.069 587.806 944.411 590.749 941.897 593.834C939.412 596.884 935.34 599.732 930.227 601.499C925.114 603.265 920.153 603.538 916.315 602.673C912.433 601.799 910.098 599.89 909.313 597.616C908.527 595.343 909.185 592.4 911.699 589.315C914.185 586.265 918.256 583.417 923.369 581.65Z" stroke="#F2D1B6" stroke-width="5"/>
<path d="M858.369 375.65C863.482 373.883 868.444 373.611 872.282 374.475C876.164 375.35 878.498 377.259 879.284 379.533C880.069 381.806 879.411 384.749 876.897 387.834C874.412 390.884 870.34 393.732 865.227 395.499C860.114 397.265 855.153 397.538 851.315 396.673C847.433 395.799 845.098 393.89 844.313 391.616C843.527 389.343 844.185 386.4 846.699 383.315C849.185 380.265 853.256 377.417 858.369 375.65Z" stroke="#F2D1B6" stroke-width="5"/>
<path d="M1320.37 548.65C1325.48 546.883 1330.44 546.611 1334.28 547.475C1338.16 548.35 1340.5 550.259 1341.28 552.533C1342.07 554.806 1341.41 557.749 1338.9 560.834C1336.41 563.884 1332.34 566.732 1327.23 568.499C1322.11 570.265 1317.15 570.538 1313.31 569.673C1309.43 568.799 1307.1 566.89 1306.31 564.616C1305.53 562.343 1306.19 559.4 1308.7 556.315C1311.18 553.265 1315.26 550.417 1320.37 548.65Z" stroke="#F2D1B6" stroke-width="5"/>
<path d="M613.032 370.622C618.072 368.881 622.938 368.622 626.672 369.463C630.458 370.316 632.603 372.146 633.311 374.196C634.019 376.245 633.462 379.009 631.01 382.018C628.592 384.984 624.604 387.784 619.564 389.526C614.524 391.267 609.658 391.527 605.925 390.685C602.138 389.832 599.993 388.002 599.285 385.953C598.577 383.903 599.134 381.139 601.587 378.13C604.004 375.164 607.993 372.364 613.032 370.622Z" stroke="#F2D1B6" stroke-width="6"/>
<path d="M1910.67 585.221C1915.78 583.454 1920.74 583.182 1924.58 584.046C1928.46 584.921 1930.79 586.83 1931.58 589.104C1932.37 591.377 1931.71 594.32 1929.19 597.405C1926.71 600.455 1922.64 603.303 1917.52 605.07C1912.41 606.836 1907.45 607.109 1903.61 606.244C1899.73 605.37 1897.39 603.461 1896.61 601.187C1895.82 598.914 1896.48 595.971 1898.99 592.886C1901.48 589.836 1905.55 586.988 1910.67 585.221Z" stroke="#F2D1B6" stroke-width="5"/>
<path d="M128.349 466.46C130.558 466.46 132.349 464.669 132.349 462.46C132.349 460.251 130.558 458.46 128.349 458.46C126.14 458.46 124.349 460.251 124.349 462.46C124.349 464.669 126.14 466.46 128.349 466.46Z" fill="#F2D1B6"/>
<path d="M369 345C371.209 345 373 343.209 373 341C373 338.791 371.209 337 369 337C366.791 337 365 338.791 365 341C365 343.209 366.791 345 369 345Z" fill="#F2D1B6"/>
<path d="M499 485C501.209 485 503 483.209 503 481C503 478.791 501.209 477 499 477C496.791 477 495 478.791 495 481C495 483.209 496.791 485 499 485Z" fill="#F2D1B6"/>
<path d="M765 567C767.209 567 769 565.209 769 563C769 560.791 767.209 559 765 559C762.791 559 761 560.791 761 563C761 565.209 762.791 567 765 567Z" fill="#F2D1B6"/>
<path d="M1870 423C1872.21 423 1874 421.209 1874 419C1874 416.791 1872.21 415 1870 415C1867.79 415 1866 416.791 1866 419C1866 421.209 1867.79 423 1870 423Z" fill="#F2D1B6"/>
<path d="M1890 151C1892.21 151 1894 149.209 1894 147C1894 144.791 1892.21 143 1890 143C1887.79 143 1886 144.791 1886 147C1886 149.209 1887.79 151 1890 151Z" fill="#F2D1B6"/>
<path d="M1878 66C1880.21 66 1882 64.2091 1882 62C1882 59.7909 1880.21 58 1878 58C1875.79 58 1874 59.7909 1874 62C1874 64.2091 1875.79 66 1878 66Z" fill="#F2D1B6"/>
<path d="M718 641C720.209 641 722 639.209 722 637C722 634.791 720.209 633 718 633C715.791 633 714 634.791 714 637C714 639.209 715.791 641 718 641Z" fill="#F2D1B6"/>
<path d="M499 707C501.209 707 503 705.209 503 703C503 700.791 501.209 699 499 699C496.791 699 495 700.791 495 703C495 705.209 496.791 707 499 707Z" fill="#F2D1B6"/>
<path d="M206.968 652.237C210.558 652.237 213.468 649.327 213.468 645.737C213.468 642.147 210.558 639.237 206.968 639.237C203.378 639.237 200.468 642.147 200.468 645.737C200.468 649.327 203.378 652.237 206.968 652.237Z" fill="#F2D1B6"/>
<path d="M24 468C26.2091 468 28 466.209 28 464C28 461.791 26.2091 460 24 460C21.7909 460 20 461.791 20 464C20 466.209 21.7909 468 24 468Z" fill="#F2D1B6"/>
<path d="M53 91C55.2091 91 57 89.2091 57 87C57 84.7909 55.2091 83 53 83C50.7909 83 49 84.7909 49 87C49 89.2091 50.7909 91 53 91Z" fill="#F2D1B6"/>
<path d="M478 197C480.209 197 482 195.209 482 193C482 190.791 480.209 189 478 189C475.791 189 474 190.791 474 193C474 195.209 475.791 197 478 197Z" fill="#F2D1B6"/>
<path d="M1158 116C1160.21 116 1162 114.209 1162 112C1162 109.791 1160.21 108 1158 108C1155.79 108 1154 109.791 1154 112C1154 114.209 1155.79 116 1158 116Z" fill="#F2D1B6"/>
<path d="M1121 395C1123.21 395 1125 393.209 1125 391C1125 388.791 1123.21 387 1121 387C1118.79 387 1117 388.791 1117 391C1117 393.209 1118.79 395 1121 395Z" fill="#F2D1B6"/>
<path d="M1043 493C1045.21 493 1047 491.209 1047 489C1047 486.791 1045.21 485 1043 485C1040.79 485 1039 486.791 1039 489C1039 491.209 1040.79 493 1043 493Z" fill="#F2D1B6"/>
<path d="M1692 578C1694.21 578 1696 576.209 1696 574C1696 571.791 1694.21 570 1692 570C1689.79 570 1688 571.791 1688 574C1688 576.209 1689.79 578 1692 578Z" fill="#F2D1B6"/>
<path d="M729 137C731.209 137 733 135.209 733 133C733 130.791 731.209 129 729 129C726.791 129 725 130.791 725 133C725 135.209 726.791 137 729 137Z" fill="#F2D1B6"/>
<path d="M659 291C661.209 291 663 289.209 663 287C663 284.791 661.209 283 659 283C656.791 283 655 284.791 655 287C655 289.209 656.791 291 659 291Z" fill="#F2D1B6"/>
<path d="M457 397C459.209 397 461 395.209 461 393C461 390.791 459.209 389 457 389C454.791 389 453 390.791 453 393C453 395.209 454.791 397 457 397Z" fill="#F2D1B6"/>
<path d="M330 206C332.209 206 334 204.209 334 202C334 199.791 332.209 198 330 198C327.791 198 326 199.791 326 202C326 204.209 327.791 206 330 206Z" fill="#F2D1B6"/>
</svg>