<svg width="1920" height="739" viewBox="0 0 1920 739" fill="none" xmlns="http://www.w3.org/2000/svg">
<path d="M1920 0H0V739H1920V0Z" fill="#E1B1BA"/>
<path d="M26.5 95C28 83 29.5 67.5 48 65.5C62.8 63.9 69.8333 50.1667 71.5 43.5" stroke="#F2D1B6" stroke-width="6" stroke-linecap="round" stroke-linejoin="round"/>
<path d="M648 88C655 111 661 108.5 671.5 120.5C679.9 130.1 678.667 139.833 677 143.5" stroke="#F2D1B6" stroke-width="5" stroke-linecap="round" stroke-linejoin="round"/>
<path d="M1883 651C1890 674 1896 671.5 1906.5 683.5C1914.9 693.1 1913.67 702.833 1912 706.5" stroke="#F2D1B6" stroke-width="5" stroke-linecap="round" stroke-linejoin="round"/>
<path d="M170 328C143 339 155.5 354 146 366" stroke="#F2D1B6" stroke-width="5" stroke-linecap="round" stroke-linejoin="round"/>
<path d="M517 463.5C493.5 446 488 442.5 471 455.5C457.4 465.9 439 452.833 431.5 445" stroke="#F2D1B6" stroke-width="6" stroke-linecap="round" stroke-linejoin="round"/>
<path d="M1897.5 94.5C1874 77 1868.5 73.5 1851.5 86.5C1837.9 96.9 1819.5 83.8333 1812 76" stroke="#F2D1B6" stroke-width="5" stroke-linecap="round" stroke-linejoin="round"/>
<path d="M199.015 687.505C206.969 657.207 170.697 662.577 169.33 625.829C168.236 596.431 169.804 596.524 170.725 600.245" stroke="#F2D1B6" stroke-width="5" stroke-linecap="round" stroke-linejoin="round"/>
<path d="M769.5 667C753.5 676.5 743.5 678.5 748.5 693.5C752.5 705.5 738.833 717.833 731.5 722.5" stroke="#F2D1B6" stroke-width="5" stroke-linecap="round" stroke-linejoin="round"/>
<path d="M752.845 614.446C755.544 619.133 756.748 623.954 756.623 627.886C756.497 631.864 755.063 634.517 752.978 635.717C750.894 636.917 747.88 636.827 744.376 634.94C740.912 633.075 737.347 629.614 734.647 624.926C731.947 620.238 730.743 615.417 730.868 611.485C730.994 607.507 732.429 604.855 734.513 603.654C736.597 602.454 739.612 602.545 743.115 604.431C746.579 606.297 750.145 609.758 752.845 614.446Z" stroke="#F2D1B6" stroke-width="5"/>
<path d="M88.665 452.221C93.7782 450.454 98.7395 450.182 102.578 451.046C106.46 451.921 108.794 453.83 109.58 456.104C110.365 458.377 109.707 461.32 107.193 464.405C104.708 467.455 100.636 470.303 95.5233 472.07C90.4101 473.836 85.4488 474.109 81.6107 473.244C77.7286 472.37 75.394 470.461 74.6085 468.187C73.8231 465.914 74.481 462.971 76.995 459.886C79.4805 456.836 83.5519 453.988 88.665 452.221Z" stroke="#F2D1B6" stroke-width="5"/>
<path d="M570.828 40.6938C575.868 38.9524 580.734 38.6929 584.468 39.5342C588.254 40.3874 590.399 42.2176 591.107 44.2669C591.815 46.3163 591.258 49.0802 588.806 52.0891C586.388 55.0558 582.4 57.8558 577.36 59.5971C572.32 61.3385 567.454 61.598 563.721 60.7567C559.934 59.9035 557.789 58.0733 557.081 56.024C556.373 53.9746 556.93 51.2107 559.383 48.2018C561.8 45.2351 565.789 42.4351 570.828 40.6938Z" stroke="#F2D1B6" stroke-width="6"/>
<path d="M1910.67 585.221C1915.78 583.454 1920.74 583.182 1924.58 584.046C1928.46 584.921 1930.79 586.83 1931.58 589.104C1932.37 591.377 1931.71 594.32 1929.19 597.405C1926.71 600.455 1922.64 603.303 1917.52 605.07C1912.41 606.836 1907.45 607.109 1903.61 606.244C1899.73 605.37 1897.39 603.461 1896.61 601.187C1895.82 598.914 1896.48 595.971 1898.99 592.886C1901.48 589.836 1905.55 586.988 1910.67 585.221Z" stroke="#F2D1B6" stroke-width="5"/>
<path d="M128.349 466.46C130.558 466.46 132.349 464.669 132.349 462.46C132.349 460.251 130.558 458.46 128.349 458.46C126.14 458.46 124.349 460.251 124.349 462.46C124.349 464.669 126.14 466.46 128.349 466.46Z" fill="#F2D1B6"/>
<path d="M369 345C371.209 345 373 343.209 373 341C373 338.791 371.209 337 369 337C366.791 337 365 338.791 365 341C365 343.209 366.791 345 369 345Z" fill="#F2D1B6"/>
<path d="M499 485C501.209 485 503 483.209 503 481C503 478.791 501.209 477 499 477C496.791 477 495 478.791 495 481C495 483.209 496.791 485 499 485Z" fill="#F2D1B6"/>
<path d="M765 567C767.209 567 769 565.209 769 563C769 560.791 767.209 559 765 559C762.791 559 761 560.791 761 563C761 565.209 762.791 567 765 567Z" fill="#F2D1B6"/>
<path d="M1870 423C1872.21 423 1874 421.209 1874 419C1874 416.791 1872.21 415 1870 415C1867.79 415 1866 416.791 1866 419C1866 421.209 1867.79 423 1870 423Z" fill="#F2D1B6"/>
<path d="M1890 151C1892.21 151 1894 149.209 1894 147C1894 144.791 1892.21 143 1890 143C1887.79 143 1886 144.791 1886 147C1886 149.209 1887.79 151 1890 151Z" fill="#F2D1B6"/>
<path d="M1878 66C1880.21 66 1882 64.2091 1882 62C1882 59.7909 1880.21 58 1878 58C1875.79 58 1874 59.7909 1874 62C1874 64.2091 1875.79 66 1878 66Z" fill="#F2D1B6"/>
<path d="M718 641C720.209 641 722 639.209 722 637C722 634.791 720.209 633 718 633C715.791 633 714 634.791 714 637C714 639.209 715.791 641 718 641Z" fill="#F2D1B6"/>
<path d="M499 707C501.209 707 503 705.209 503 703C503 700.791 501.209 699 499 699C496.791 699 495 700.791 495 703C495 705.209 496.791 707 499 707Z" fill="#F2D1B6"/>
<path d="M206.968 652.237C210.558 652.237 213.468 649.327 213.468 645.737C213.468 642.147 210.558 639.237 206.968 639.237C203.378 639.237 200.468 642.147 200.468 645.737C200.468 649.327 203.378 652.237 206.968 652.237Z" fill="#F2D1B6"/>
<path d="M24 468C26.2091 468 28 466.209 28 464C28 461.791 26.2091 460 24 460C21.7909 460 20 461.791 20 464C20 466.209 21.7909 468 24 468Z" fill="#F2D1B6"/>
<path d="M53 91C55.2091 91 57 89.2091 57 87C57 84.7909 55.2091 83 53 83C50.7909 83 49 84.7909 49 87C49 89.2091 50.7909 91 53 91Z" fill="#F2D1B6"/>
<path d="M478 197C480.209 197 482 195.209 482 193C482 190.791 480.209 189 478 189C475.791 189 474 190.791 474 193C474 195.209 475.791 197 478 197Z" fill="#F2D1B6"/>
<path d="M322 332C324.209 332 326 330.209 326 328C326 325.791 324.209 324 322 324C319.791 324 318 325.791 318 328C318 330.209 319.791 332 322 332Z" fill="#F2D1B6"/>
<path d="M630 61C632.209 61 634 59.2091 634 57C634 54.7909 632.209 53 630 53C627.791 53 626 54.7909 626 57C626 59.2091 627.791 61 630 61Z" fill="#F2D1B6"/>
<path d="M729 137C731.209 137 733 135.209 733 133C733 130.791 731.209 129 729 129C726.791 129 725 130.791 725 133C725 135.209 726.791 137 729 137Z" fill="#F2D1B6"/>
<path d="M659 291C661.209 291 663 289.209 663 287C663 284.791 661.209 283 659 283C656.791 283 655 284.791 655 287C655 289.209 656.791 291 659 291Z" fill="#F2D1B6"/>
<path d="M457 397C459.209 397 461 395.209 461 393C461 390.791 459.209 389 457 389C454.791 389 453 390.791 453 393C453 395.209 454.791 397 457 397Z" fill="#F2D1B6"/>
<path d="M167 31C169.209 31 171 29.2091 171 27C171 24.7909 169.209 23 167 23C164.791 23 163 24.7909 163 27C163 29.2091 164.791 31 167 31Z" fill="#F2D1B6"/>
</svg>