<svg width="1920" height="739" viewBox="0 0 1920 739" fill="none" xmlns="http://www.w3.org/2000/svg">
<rect width="1920" height="739" fill="#F9D9BF"/>
<path d="M26.5 95C28 83 29.5 67.5 48 65.5C62.8 63.9 69.8333 50.1667 71.5 43.5" stroke="#F2D1B6" stroke-width="6" stroke-linecap="round" stroke-linejoin="round"/>
<path d="M648 88C655 111 661 108.5 671.5 120.5C679.9 130.1 678.667 139.833 677 143.5" stroke="#F2D1B6" stroke-width="5" stroke-linecap="round" stroke-linejoin="round"/>
<path d="M1883 651C1890 674 1896 671.5 1906.5 683.5C1914.9 693.1 1913.67 702.833 1912 706.5" stroke="#F2D1B6" stroke-width="5" stroke-linecap="round" stroke-linejoin="round"/>
<path d="M170 328C143 339 155.5 354 146 366" stroke="#F2D1B6" stroke-width="5" stroke-linecap="round" stroke-linejoin="round"/>
<path d="M517 463.5C493.5 446 488 442.5 471 455.5C457.4 465.9 439 452.833 431.5 445" stroke="#F2D1B6" stroke-width="6" stroke-linecap="round" stroke-linejoin="round"/>
<path d="M1897.5 94.5C1874 77 1868.5 73.5 1851.5 86.5C1837.9 96.9 1819.5 83.8333 1812 76" stroke="#F2D1B6" stroke-width="5" stroke-linecap="round" stroke-linejoin="round"/>
<path d="M199.015 687.505C206.969 657.207 170.697 662.577 169.33 625.829C168.236 596.431 169.804 596.524 170.725 600.245" stroke="#F2D1B6" stroke-width="5" stroke-linecap="round" stroke-linejoin="round"/>
<path d="M769.5 667C753.5 676.5 743.5 678.5 748.5 693.5C752.5 705.5 738.833 717.833 731.5 722.5" stroke="#F2D1B6" stroke-width="5" stroke-linecap="round" stroke-linejoin="round"/>
<path d="M752.845 614.446C755.544 619.133 756.748 623.954 756.623 627.886C756.497 631.864 755.063 634.517 752.978 635.717C750.894 636.917 747.88 636.827 744.376 634.94C740.912 633.075 737.347 629.614 734.647 624.926C731.947 620.238 730.743 615.417 730.868 611.485C730.994 607.507 732.429 604.855 734.513 603.654C736.597 602.454 739.612 602.545 743.115 604.431C746.579 606.297 750.145 609.758 752.845 614.446Z" stroke="#F2D1B6" stroke-width="5"/>
<path d="M88.665 452.221C93.7782 450.454 98.7395 450.182 102.578 451.046C106.46 451.921 108.794 453.83 109.58 456.104C110.365 458.377 109.707 461.32 107.193 464.405C104.708 467.455 100.636 470.303 95.5233 472.07C90.4101 473.836 85.4488 474.109 81.6107 473.244C77.7286 472.37 75.394 470.461 74.6085 468.187C73.8231 465.914 74.481 462.971 76.995 459.886C79.4805 456.836 83.5519 453.988 88.665 452.221Z" stroke="#F2D1B6" stroke-width="5"/>
<path d="M570.828 40.6938C575.868 38.9524 580.734 38.6929 584.468 39.5342C588.254 40.3874 590.399 42.2176 591.107 44.2669C591.815 46.3163 591.258 49.0802 588.806 52.0891C586.388 55.0558 582.4 57.8558 577.36 59.5971C572.32 61.3385 567.454 61.598 563.721 60.7567C559.934 59.9035 557.789 58.0733 557.081 56.024C556.373 53.9746 556.93 51.2107 559.383 48.2018C561.8 45.2351 565.789 42.4351 570.828 40.6938Z" stroke="#F2D1B6" stroke-width="6"/>
<path d="M1910.67 585.221C1915.78 583.454 1920.74 583.182 1924.58 584.046C1928.46 584.921 1930.79 586.83 1931.58 589.104C1932.37 591.377 1931.71 594.32 1929.19 597.405C1926.71 600.455 1922.64 603.303 1917.52 605.07C1912.41 606.836 1907.45 607.109 1903.61 606.244C1899.73 605.37 1897.39 603.461 1896.61 601.187C1895.82 598.914 1896.48 595.971 1898.99 592.886C1901.48 589.836 1905.55 586.988 1910.67 585.221Z" stroke="#F2D1B6" stroke-width="5"/>
<circle cx="128.349" cy="462.46" r="4" fill="#F2D1B6"/>
<circle cx="369" cy="341" r="4" fill="#F2D1B6"/>
<circle cx="499" cy="481" r="4" fill="#F2D1B6"/>
<circle cx="765" cy="563" r="4" fill="#F2D1B6"/>
<circle cx="1870" cy="419" r="4" fill="#F2D1B6"/>
<circle cx="1890" cy="147" r="4" fill="#F2D1B6"/>
<circle cx="1878" cy="62" r="4" fill="#F2D1B6"/>
<circle cx="718" cy="637" r="4" fill="#F2D1B6"/>
<circle cx="499" cy="703" r="4" fill="#F2D1B6"/>
<circle cx="206.968" cy="645.737" r="6.5" fill="#F2D1B6"/>
<circle cx="24" cy="464" r="4" fill="#F2D1B6"/>
<circle cx="53" cy="87" r="4" fill="#F2D1B6"/>
<circle cx="478" cy="193" r="4" fill="#F2D1B6"/>
<circle cx="322" cy="328" r="4" fill="#F2D1B6"/>
<circle cx="630" cy="57" r="4" fill="#F2D1B6"/>
<circle cx="729" cy="133" r="4" fill="#F2D1B6"/>
<circle cx="659" cy="287" r="4" fill="#F2D1B6"/>
<circle cx="457" cy="393" r="4" fill="#F2D1B6"/>
<circle cx="167" cy="27" r="4" fill="#F2D1B6"/>
</svg>
