<svg width="597" height="586" viewBox="0 0 597 586" fill="none" xmlns="http://www.w3.org/2000/svg">
<circle cx="281.45" cy="278.681" r="221.739" fill="#FEF6F1" stroke="#EFEEEE"/>
<circle cx="251.465" cy="53.502" r="53.502" fill="#F9D1CE" fill-opacity="0.5"/>
<circle cx="478.996" cy="411.554" r="29.3967" fill="#F9D1CE" fill-opacity="0.5"/>
<g filter="url(#filter0_d)">
<rect x="449.599" y="165.798" width="136.401" height="54.09" rx="5" fill="white"/>
</g>
<g filter="url(#filter1_d)">
<rect x="11" y="244.581" width="136.401" height="50.5624" rx="5" fill="white"/>
</g>
<circle cx="36.8692" cy="270.45" r="13.1104" stroke="#B8A19B" stroke-width="2"/>
<rect x="62.7383" y="262.219" width="23.5174" height="4.70348" fill="#B8A19B"/>
<rect x="462.534" y="185.787" width="23.5174" height="4.70348" fill="#B8A19B"/>
<rect x="62.7383" y="272.802" width="41.1554" height="2.35174" fill="#F9D1CE"/>
<rect x="462.534" y="196.37" width="41.1554" height="2.35174" fill="#F9D1CE"/>
<path d="M528.97 204.013C531.91 201.074 538.965 187.551 549.548 191.667C560.131 195.782 568.362 201.662 576.005 185.199" stroke="#DAC2C0" stroke-width="2"/>
<circle cx="463.71" cy="77.6073" r="14.1104" fill="#F8E4D3"/>
<circle cx="82.7281" cy="358.64" r="19.9898" fill="#F9D1CE" fill-opacity="0.5"/>
<path d="M218.541 252.812C213.367 254.223 211.681 259.671 211.485 262.219L206.194 259.279C205.802 258.495 205.253 255.281 206.194 248.696C207.37 240.465 211.485 243.993 220.892 242.817C230.299 241.641 225.008 251.048 218.541 252.812Z" fill="#FAF1EC"/>
<path d="M200.903 229.294C201.843 232.587 196.983 245.169 194.435 251.048L189.732 247.52C189.536 245.365 189.026 240.23 188.556 236.938C187.968 232.822 183.853 226.943 184.441 222.239C185.028 217.536 188.556 216.36 192.672 214.596C196.787 212.832 199.727 225.179 200.903 229.294Z" fill="#FAF1EC"/>
<path d="M172.094 219.3C169.742 221.181 169.938 227.923 170.33 231.058L164.451 226.355V214.596C164.451 211.656 163.863 208.717 164.451 202.837C165.039 196.958 172.094 201.074 176.797 202.837C181.501 204.601 182.677 211.069 181.501 212.244C180.325 213.42 175.034 216.948 172.094 219.3Z" fill="#FAF1EC"/>
<path d="M184.441 253.988H197.375L202.666 256.927C200.903 259.671 197.375 265.864 197.375 268.686C197.375 272.214 188.556 271.038 184.441 268.686C180.325 266.334 179.149 263.983 175.621 262.219C172.094 260.455 174.446 259.279 175.621 256.927C176.797 254.576 179.737 253.988 184.441 253.988Z" fill="#FAF1EC"/>
<path d="M163.275 236.938H175.621L179.149 239.877C177.973 240.857 174.916 242.817 172.094 242.817C168.566 242.817 169.154 247.52 167.39 248.696C165.627 249.872 160.923 251.048 158.571 249.872C156.22 248.696 153.28 243.993 155.044 238.701C156.808 233.41 161.511 236.938 163.275 236.938Z" fill="#FAF1EC"/>
<path d="M143.285 212.244C145.637 212.244 150.144 213.812 152.104 214.596L156.22 219.3C155.044 221.847 152.222 226.825 150.34 226.355C147.989 225.767 145.637 228.119 143.285 229.294C140.933 230.47 138.582 233.41 136.23 233.41C133.878 233.41 130.938 229.294 129.175 225.767C127.411 222.239 126.235 221.063 127.411 219.3C128.587 217.536 131.526 214.596 133.29 212.244C135.054 209.893 140.345 212.244 143.285 212.244Z" fill="#FAF1EC"/>
<path d="M142.109 192.255C142.109 194.136 142.501 200.094 142.697 202.837L146.813 208.717L150.34 200.486L152.692 196.37C153.868 195.39 156.572 192.96 157.983 191.079C159.747 188.727 159.747 188.139 159.747 186.375C159.747 184.611 156.22 179.32 155.044 178.144C153.868 176.968 149.164 178.144 146.813 178.144C144.461 178.144 143.873 180.496 142.697 182.848C141.521 185.199 142.109 189.903 142.109 192.255Z" fill="#FAF1EC"/>
<path d="M120.944 183.436C123.295 183.436 127.019 185.003 128.587 185.787L136.23 196.37C133.29 194.606 126.235 198.134 124.471 198.134C122.707 198.134 112.125 200.486 109.185 201.662C106.245 202.837 101.542 199.31 98.602 196.37C95.6624 193.43 98.0141 189.315 99.19 186.375C100.366 183.436 105.069 185.787 108.597 184.611C112.125 183.436 118.004 183.436 120.944 183.436Z" fill="#FAF1EC"/>
<path d="M121.532 163.446C119.768 165.21 120.944 171.089 120.944 173.441L123.295 177.556C124.667 175.792 127.646 171.912 128.587 170.501C129.763 168.737 131.526 167.561 134.466 165.798C137.406 164.034 137.406 163.446 137.994 161.682C138.582 159.918 137.406 158.742 134.466 155.803C131.526 152.863 130.351 155.803 126.235 157.566C122.119 159.33 123.295 161.682 121.532 163.446Z" fill="#FAF1EC"/>
<path d="M103.894 157.566C106.245 157.566 110.753 159.526 112.713 160.506L116.24 166.385C115.064 166.581 112.477 166.973 111.537 166.973C110.361 166.973 103.894 168.737 101.542 170.501C99.1901 172.265 98.602 172.265 93.8986 173.441C89.1952 174.617 90.371 173.441 89.1952 170.501C88.0193 167.561 87.4313 163.446 88.0193 158.742C88.6072 154.039 93.8986 158.742 96.2504 158.742C98.6021 158.742 100.954 157.566 103.894 157.566Z" fill="#FAF1EC"/>
<path d="M98.0142 141.104C100.366 141.575 102.914 141.692 103.894 141.692L106.833 147.572C103.894 147.768 97.6614 148.277 96.2504 148.747C94.4865 149.335 90.959 151.099 88.0193 151.687C85.0795 152.275 82.7279 151.687 79.2003 149.923C75.6727 148.159 79.2003 144.044 79.2003 141.104C79.2003 138.165 79.7882 138.165 82.14 135.813C84.4917 133.461 88.0193 136.989 89.1952 138.165C90.371 139.341 95.0745 140.516 98.0142 141.104Z" fill="#FAF1EC"/>
<path d="M105.069 128.17C103.658 129.581 102.13 133.069 101.542 134.637L99.19 128.17C99.19 125.426 99.4252 119.821 100.366 119.351C101.542 118.763 101.542 114.059 103.894 110.532C106.245 107.004 108.009 111.708 110.361 114.059C112.713 116.411 112.713 118.175 111.537 121.114C110.361 124.054 106.833 126.406 105.069 128.17Z" fill="#FAF1EC"/>
<path d="M91.547 117.587C92.4876 119.468 95.4665 120.331 96.8384 120.527L98.0142 124.642C96.6423 125.034 93.4283 125.583 91.547 124.642C89.1953 123.466 85.0797 123.466 82.7279 123.466C80.3762 123.466 75.6727 121.702 73.9089 119.351C72.1451 116.999 73.9089 117.587 76.2607 112.883C78.6124 108.18 84.4917 110.532 86.2555 111.12C88.0193 111.708 90.3711 115.235 91.547 117.587Z" fill="#FAF1EC"/>
<path d="M98.6022 111.708C98.1318 113.119 96.8383 115.431 96.2504 116.411C91.2201 115.235 93.8986 110.532 93.3108 109.356C92.7229 108.18 89.1952 104.652 88.0194 104.064C86.8436 103.476 85.0797 99.3609 85.6676 97.5971C86.2556 95.8333 90.3711 97.5971 91.547 97.5971C92.7228 97.5971 95.0746 95.2454 96.2504 95.2454C97.4262 95.2454 99.19 96.4212 100.366 97.5971C101.542 98.7728 101.542 102.887 101.542 104.652V104.652C101.542 106.416 99.1901 109.944 98.6022 111.708Z" fill="#FAF1EC"/>
<path d="M111.537 141.692C110.361 145.22 108.597 149.923 108.597 150.511L110.949 155.215C111.733 154.431 113.653 152.628 115.064 151.687C116.828 150.511 116.24 148.747 116.24 147.572C116.24 146.396 119.768 144.632 121.532 144.044C123.295 143.456 125.647 143.456 126.823 142.28C127.999 141.104 127.411 141.104 125.647 137.577C123.883 134.049 121.532 134.637 118.004 132.873C114.476 131.109 115.064 133.461 113.301 134.637C111.537 135.813 112.713 138.165 111.537 141.692Z" fill="#FAF1EC"/>
<path d="M213.25 263.395C181.893 245.953 114.359 191.784 95.0747 114.647" stroke="#FAF1EC" stroke-width="4" stroke-linecap="round" stroke-linejoin="round"/>
<path d="M376.108 252.812C367.171 268.804 362.585 271.626 361.409 271.038L369.64 309.841C371.796 310.821 377.166 312.193 381.399 309.841C386.69 306.902 384.339 297.495 386.102 289.852C387.866 282.209 410.208 271.038 421.379 262.807C432.549 254.576 436.665 248.108 439.604 232.822C442.544 217.536 431.961 215.184 416.675 198.134C401.389 181.084 404.328 201.074 395.509 208.129C386.69 215.184 387.278 232.822 376.108 252.812Z" fill="#FAF1EC"/>
<path d="M403.74 306.902C394.921 313.369 386.102 321.012 381.399 324.54C382.967 328.655 386.102 336.063 386.102 332.771C386.102 328.655 416.675 324.54 421.379 324.54C426.082 324.54 455.479 334.535 469.001 336.886C482.524 339.238 482.524 332.183 487.227 324.54C491.931 316.897 481.936 301.022 473.705 299.847C465.474 298.671 454.891 298.671 433.725 292.791C412.559 286.912 412.559 300.435 403.74 306.902Z" fill="#FAF1EC"/>
<path d="M516.624 245.757C517.8 247.52 518.387 252.812 518.387 253.988C509.568 270.45 523.091 273.39 525.443 272.802C527.794 272.214 531.322 269.862 534.85 266.334C538.377 262.807 538.965 251.636 538.965 242.817C538.965 233.998 531.322 229.294 527.206 225.767C523.091 222.239 512.508 224.591 508.393 225.767C504.277 226.943 504.865 233.998 504.865 235.762C504.865 237.525 515.448 243.993 516.624 245.757Z" fill="#FAF1EC"/>
<path d="M247.504 585.583C252.208 577.587 247.896 571.668 245.152 569.709C238.097 574.412 231.63 570.101 229.278 567.357C223.791 569.709 209.641 574.412 196.942 574.412C184.242 574.412 183.419 581.467 184.595 584.995L247.504 585.583Z" fill="#B8AAA2"/>
<path d="M229.278 567.357L231.63 556.186L247.504 557.95L245.153 569.709C238.568 575.353 231.826 570.492 229.278 567.357Z" fill="#E0A6A2"/>
<path d="M453.282 515.619C448.578 511.856 443.091 512.483 440.935 513.267C438.113 522.204 432.312 525.222 429.764 525.614C430.352 529.729 420.945 549.131 415.654 558.538C411.421 566.063 415.85 568.729 418.594 569.121L458.573 521.498C458.769 521.106 457.985 519.382 453.282 515.619Z" fill="#FEF6F1"/>
<path d="M441.523 513.267L427.412 500.332L416.83 513.267L429.764 525.613C434.468 525.613 439.563 517.382 441.523 513.267Z" fill="#E5AC97"/>
<path d="M228.103 556.186L276.313 335.123H286.896L312.765 460.353L295.715 563.241L228.103 556.186Z" fill="#69A2AD"/>
<path d="M311.589 459.765C297.949 441.892 289.052 369.223 286.308 335.123H347.453L347 371H355C355.196 381.191 356.037 404.499 357.448 413.906C358.859 423.313 406.247 473.875 429.764 497.981L386.257 549.131C367.051 526.789 325.229 477.638 311.589 459.765Z" fill="#8BC4CF"/>
<path d="M411 389.5C407.009 388.17 404.679 376.474 402.719 370.987H386.845C387.825 373.73 390.49 380.746 393.312 386.861C396.84 394.504 391.548 400.971 389.784 402.735C388.021 404.499 389.784 409.44 393.312 406.5C396.84 403.56 400.329 398.445 411.5 405.5C422.671 412.555 425.726 410.939 428 408C430.274 405.061 417 391.5 411 389.5Z" fill="#E5AC97"/>
<path d="M172.837 268.098C174.718 268.098 193.61 275.937 202.821 279.857V289.264C194.198 289.46 176.835 289.499 176.364 288.088C175.776 286.324 179.304 285.148 182.244 284.56C185.183 283.972 184.595 278.093 179.304 275.741C174.013 273.39 170.485 268.098 172.837 268.098Z" fill="#E0A6A2"/>
<path d="M241.037 279.857C273.491 279.857 288.637 241.2 293.5 220L278 309C263.89 327.814 241.625 332.379 232.806 332.183H199.882L202.822 279.857H241.037Z" fill="#C3B7AF"/>
<path d="M275.725 185.787C275.725 197.546 291.6 191.667 296.303 189.315C297.244 194.489 295.127 211.46 293.951 219.3C302.888 221.181 313.353 215.772 317.469 212.832L312.177 180.496C309.434 179.516 304.299 176.733 305.71 173.441C307.474 169.325 309.826 161.682 306.886 159.918C303.946 158.154 301.595 162.858 297.479 164.622C293.363 166.385 280.429 150.511 277.489 150.511C274.55 150.511 275.725 174.029 275.725 185.787Z" fill="#E5AC97"/>
<path d="M295.715 136.401C282.075 135.931 277.881 145.612 277.489 150.511C277.685 149.923 279.371 150.159 284.544 155.803C289.718 161.447 294.539 164.034 296.303 164.622C299.243 165.798 303.946 157.86 307.474 160.506C309.826 162.27 308.062 167.561 305.71 172.853C303.829 177.086 309.238 179.712 312.177 180.496C315.705 181.28 323.936 178.967 328.64 163.446C334.519 144.044 319.821 138.165 316.293 138.165C312.765 138.165 314.529 136.401 315.117 133.461C315.705 130.521 326.288 129.934 330.403 129.934C334.519 129.934 353.333 136.401 358.036 136.401C362.74 136.401 373.323 129.934 378.614 126.994C383.905 124.054 394.488 134.049 401.543 139.341C408.599 144.632 426.237 144.632 432.116 144.632C437.995 144.632 451.518 132.285 454.458 126.994C457.397 121.702 449.754 112.296 443.875 107.592C437.995 102.889 428.001 99.949 422.121 99.361C416.242 98.7731 406.835 104.652 400.956 109.356C395.076 114.059 383.905 113.471 376.262 113.471C368.619 113.471 350.981 104.652 335.695 105.828C320.408 107.004 312.177 123.466 312.177 129.934C312.177 136.401 312.765 136.989 295.715 136.401Z" fill="#332018"/>
<path d="M402.719 370.987C398.016 297.613 344.318 234.978 318.057 212.832C304.887 220.358 296.107 220.28 293.363 219.3C291.012 239.995 277.489 305.138 271.022 335.123H346.866L347 370.987H402.719Z" fill="#D6CDC5"/>
<defs>
<filter id="filter0_d" x="438.599" y="156.798" width="158.401" height="76.09" filterUnits="userSpaceOnUse" color-interpolation-filters="sRGB">
<feFlood flood-opacity="0" result="BackgroundImageFix"/>
<feColorMatrix in="SourceAlpha" type="matrix" values="0 0 0 0 0 0 0 0 0 0 0 0 0 0 0 0 0 0 127 0" result="hardAlpha"/>
<feOffset dy="2"/>
<feGaussianBlur stdDeviation="5.5"/>
<feComposite in2="hardAlpha" operator="out"/>
<feColorMatrix type="matrix" values="0 0 0 0 0 0 0 0 0 0 0 0 0 0 0 0 0 0 0.15 0"/>
<feBlend mode="normal" in2="BackgroundImageFix" result="effect1_dropShadow"/>
<feBlend mode="normal" in="SourceGraphic" in2="effect1_dropShadow" result="shape"/>
</filter>
<filter id="filter1_d" x="0" y="235.581" width="158.401" height="72.5624" filterUnits="userSpaceOnUse" color-interpolation-filters="sRGB">
<feFlood flood-opacity="0" result="BackgroundImageFix"/>
<feColorMatrix in="SourceAlpha" type="matrix" values="0 0 0 0 0 0 0 0 0 0 0 0 0 0 0 0 0 0 127 0" result="hardAlpha"/>
<feOffset dy="2"/>
<feGaussianBlur stdDeviation="5.5"/>
<feComposite in2="hardAlpha" operator="out"/>
<feColorMatrix type="matrix" values="0 0 0 0 0 0 0 0 0 0 0 0 0 0 0 0 0 0 0.15 0"/>
<feBlend mode="normal" in2="BackgroundImageFix" result="effect1_dropShadow"/>
<feBlend mode="normal" in="SourceGraphic" in2="effect1_dropShadow" result="shape"/>
</filter>
</defs>
</svg>
