<svg width="129" height="130" viewBox="0 0 129 130" fill="none" xmlns="http://www.w3.org/2000/svg">
<ellipse cx="64.5" cy="64.4808" rx="64.5" ry="64.4808" fill="#F5F5F5"/>
<path d="M53.3793 73.3748C29.3361 77.0543 18.5 95.4999 14.5 105C22 116 43 128.962 62.2759 128.962C80.5 130 105.698 118.506 112 108.5C95.5 81 88.5 68 53.3793 73.3748Z" fill="#877069"/>
<path d="M53.5 29C46.5 30.5 43 44.0001 47.5001 49C51.8334 52.8334 62.7119 60.8941 69.5002 57.5C80.5002 52.0001 81.0002 33.5001 69.5002 28.5001C60.3002 24.5001 57.0001 27.9999 53.5 29Z" fill="#332018"/>
<path d="M69.5 54C66.7 62 70.6666 70.4999 72.4999 73.9999C63.2999 82.3998 55.6666 77.1666 52.9999 73.4999C54.1999 70.6999 55.1666 66.6666 55.4999 64.9999H52.5C47 64.4999 47.9999 44.5 48.4999 41.5C48.9999 38.5 51.3877 35.6529 54 34.9999C56 34.5 58 34.7631 59.5 34.9999C66 37.5 67.9999 43 68.4999 45.9999C70.4999 42.3999 71.9999 44.4999 72.4999 45.9999C74.0999 51.1999 70.5 53.5001 69.5 54Z" fill="#EAB68C"/>
<path d="M57.8275 41.6906C57.8275 40.5785 58.9395 41.1345 60.0516 40.5785C62.2757 40.5785 63.3878 41.6906 63.9438 42.8026C64.4999 43.9147 63.3878 43.3587 62.2757 42.8026C61.1637 42.2466 59.4956 43.3587 58.3835 43.3587C57.2714 43.3587 57.8275 42.8026 57.8275 41.6906Z" fill="#332018"/>
<path d="M51.1551 43.3587C51.7111 42.8026 51.1551 42.2466 51.1551 41.1345C50.599 40.0225 47.8188 41.1345 47.8188 41.6906C47.8188 42.2466 47.8188 43.3587 48.3749 43.3587C48.9309 43.3587 50.599 43.9147 51.1551 43.3587Z" fill="#332018"/>
<path d="M58 56H51C51 57.3333 51.6462 60 54.2308 60C56.8154 60 57.8205 57.3333 58 56Z" fill="white"/>
<ellipse cx="50.0432" cy="46.1376" rx="1.11207" ry="1.6681" fill="black"/>
<ellipse cx="60.0515" cy="46.1376" rx="1.11207" ry="1.6681" fill="black"/>
<path d="M65.056 62.8131C63.3879 63.9248 56.6121 65 55.5 65L54.5 70C57.6138 70 62.8319 64.8513 65.056 62.8131Z" fill="#CD9467"/>
<path d="M51 53.5587L52.6681 48H54L54.3362 54.1146L51 53.5587Z" fill="#CD9467"/>
<path d="M76.5 26.5C74.1466 28.0689 73.5 31.5 71.5 32L75.5 35.5C76.5 35.5 81.5 31 76.5 51C74.0746 60.7014 86.5 72 88.5 73C82 61.5 86.5 53.5 90 39.5C93.5355 25.3578 82.5 22.5 76.5 26.5Z" fill="#332018"/>
<path d="M74 29L72.5 30.5L76.5 35.5L77.5 34.5L74 29Z" fill="#CF8D88"/>
<circle cx="69.5" cy="53.5" r="1.5" fill="white"/>
</svg>
