<svg width="129" height="129" viewBox="0 0 129 129" fill="none" xmlns="http://www.w3.org/2000/svg">
<circle cx="64.5" cy="64.5" r="64.5" fill="#F5F5F5"/>
<path d="M36.6984 48.9311C36.2535 54.7138 42.8148 57.6423 46.151 58.3837L67.8363 66.1681C68.763 65.2414 71.1725 62.7207 73.3967 60.0518C76.1768 56.7155 81.1811 58.3837 83.9613 55.6035C86.7415 52.8233 87.8536 44.4828 84.5173 41.1466C81.1811 37.8104 84.0562 35.0302 83.5001 30.5C83.3646 29.3962 81.45 27.36 79.513 26.1336C76.0001 23.9095 73.1682 25.0216 71.5001 25.0216C69.832 25.0216 69.0562 23.6681 68.5001 22C67.9441 20.3319 65.6682 19 62.5001 19C60.7418 19 57.7243 18.388 55.5001 19.5C53.276 20.6121 50.6682 22.7975 49.0001 23.9095C47.332 25.0216 46.151 23.9095 43.3708 23.9095C40.5906 23.9095 38.9226 26.1337 36.6984 27.8018C34.4742 29.4699 34.4743 36.1423 36.6984 38.9225C38.9225 41.7026 37.2544 41.7026 36.6984 48.9311Z" fill="#241510"/>
<path d="M42.8145 78.4008C25.9111 81.9595 17.6076 97.6767 15.5688 106.759C21.4999 112.875 36.1421 129 64.4999 129C91.7456 129 111.392 111.578 117.323 101.754C96.1938 74.5086 63.9439 73.9526 42.8145 78.4008Z" fill="#D69E8D"/>
<path d="M55.6034 65.0561C55.1585 72.6181 47.2628 77.1035 43.3706 78.4009C46.7068 84.5173 51.1551 88.9655 62.2758 89.5216C71.1723 89.9664 77.8447 81.181 80.0689 76.7328C66.7241 72.2845 65.612 60.4224 66.7241 55.0474C71.7284 51.7112 71.7284 46.7069 69.5042 45.5948C67.7249 44.7052 66.168 45.9655 65.612 46.7069C66.7241 39.4785 58.3835 32.8061 52.2672 33.9181C46.1508 35.0302 45.0387 48.375 46.1508 58.3836C47.0404 66.3905 52.8232 66.1681 55.6034 65.0561Z" fill="#9E6839"/>
<path d="M49.4873 53.3793L51.1554 47.819L52.0002 48L52.8235 54.4914L49.4873 53.3793Z" fill="#82542D"/>
<path d="M56.2041 55.6035H48.9757C48.7903 56.9009 49.0869 59.4957 51.7558 59.4957C54.4248 59.4957 55.8334 56.9009 56.2041 55.6035Z" fill="white"/>
<path d="M49.4871 40.5905C49.4871 40.1457 48.0043 40.7758 47.2629 41.1465L46.1509 43.9267H49.4871C49.6724 43.7414 50.0431 43.1482 50.0431 42.2586C50.0431 41.1465 49.4871 41.1465 49.4871 40.5905Z" fill="#241510"/>
<path d="M55.6032 41.1465C56.1593 40.0345 56.7153 41.1465 57.8274 41.1465C58.9395 42.0733 61.0524 43.9267 60.6076 43.9267C60.0516 43.9267 58.3835 43.3707 57.2714 43.3707C56.1593 43.3707 55.6032 43.9267 55.0472 43.3707C54.4912 42.8147 55.0472 42.2586 55.6032 41.1465Z" fill="#241510"/>
<ellipse cx="47.8191" cy="47.263" rx="1.11207" ry="1.6681" fill="black"/>
<ellipse cx="56.7156" cy="47.263" rx="1.11207" ry="1.6681" fill="black"/>
<circle cx="67.2799" cy="57.2716" r="3.39224" stroke="white"/>
<path d="M61.1638 61.7198L55.6034 65.0561C55.6034 68.6147 52.2672 72.8405 50.5991 74.5086C55.0474 71.8397 59.4957 67.8362 61.1638 61.7198Z" fill="#82542D"/>
</svg>
